<svg width="24" height="24" viewBox="0 0 24 24" fill="none" xmlns="http://www.w3.org/2000/svg">
<path d="M16.0682 2.77573H7.93181C7.53084 2.77573 7.20581 2.4507 7.20581 2.04973C7.20581 1.64876 7.53084 1.32373 7.93181 1.32373H16.0682C16.4692 1.32373 16.7942 1.64876 16.7942 2.04973C16.7942 2.4507 16.4692 2.77573 16.0682 2.77573ZM16.0682 5.58659H7.93181C7.53084 5.58659 7.20581 5.26156 7.20581 4.86059C7.20581 4.45962 7.53084 4.13459 7.93181 4.13459H16.0682C16.4692 4.13459 16.7942 4.45962 16.7942 4.86059C16.7942 5.26156 16.4692 5.58659 16.0682 5.58659Z" fill="#6BD9E7"/>
<path d="M16.7944 2.04997C16.7944 2.45071 16.4692 2.77597 16.0684 2.77597H14.6136C15.0148 2.77597 15.3396 2.45076 15.3396 2.04997C15.3396 1.64872 15.0148 1.32397 14.6136 1.32397H16.0684C16.4692 1.32402 16.7944 1.64877 16.7944 2.04997ZM16.7944 4.86051C16.7944 5.26176 16.4692 5.58651 16.0684 5.58651H14.6136C15.0148 5.58651 15.3396 5.26176 15.3396 4.86051C15.3396 4.45977 15.0148 4.13451 14.6136 4.13451H16.0684C16.4692 4.13455 16.7944 4.45977 16.7944 4.86051Z" fill="#2ED1E2"/>
<path d="M12.8885 9.774C10.3474 7.23291 6.21258 7.23286 3.67134 9.774C1.33912 12.1063 1.14773 15.7807 3.09652 18.3336L2.15719 19.2729L1.52269 18.6384C1.18238 18.2981 0.630609 18.2981 0.290297 18.6384C-0.0500156 18.9788 -0.0500156 19.5305 0.290297 19.8708L0.924797 20.5053L0.255234 21.1749C-0.0850781 21.5152 -0.0850781 22.0669 0.255234 22.4073C0.595547 22.7476 1.14727 22.7476 1.48763 22.4073L2.15719 21.7377L2.84025 22.4207C3.18056 22.7611 3.73228 22.7611 4.07264 22.4207C4.41295 22.0804 4.41295 21.5287 4.07264 21.1883L3.38953 20.5053L4.32886 19.566C6.07106 20.8937 8.31586 21.2232 10.3036 20.5771C11.2511 20.2692 11.6763 19.021 12.4247 18.2724C14.9659 15.7313 15.4297 12.3152 12.8885 9.774ZM11.6561 17.7587C9.79453 19.6204 6.76538 19.6204 4.90373 17.7587C3.04209 15.8971 3.04209 12.868 4.90373 11.0063C6.76533 9.14461 9.79448 9.14485 11.6561 11.0063C13.5178 12.868 13.5178 15.8971 11.6561 17.7587Z" fill="#FEA3CE"/>
<path d="M12.8887 9.77419C11.3962 8.28169 9.35531 7.66622 7.40906 7.92637C8.77734 8.10919 10.0978 8.72512 11.1469 9.77419C12.735 11.3623 13.2974 13.3552 12.9609 15.477C12.9525 15.5276 12.9689 15.4265 12.9609 15.477L14.1211 17.2751C15.3248 14.8386 14.9142 11.7997 12.8887 9.77419Z" fill="#FE7AB6"/>
<path d="M23.9956 6.88784C23.9594 6.45321 23.5649 6.09588 23.1284 6.10263H20.4777C19.9963 6.10263 19.6061 6.49282 19.6061 6.97427C19.6061 7.45526 19.9963 7.84545 20.4777 7.84545H21.0248L19.6713 9.19901C17.1182 7.25051 13.4438 7.44176 11.1114 9.77412C8.57044 12.3151 8.57044 16.4502 11.1114 18.9912C13.6524 21.5322 17.7875 21.5322 20.3285 18.9912C22.6609 16.6588 22.8521 12.9844 20.9037 10.4314L22.2572 9.07779V9.62491C22.2572 9.78138 22.2988 9.92866 22.3712 10.0556C22.5209 10.3193 22.8038 10.4966 23.1284 10.4966C23.6098 10.4966 24 10.1064 24 9.62491V6.97427C24 6.94531 23.9985 6.91685 23.9956 6.88784ZM19.0962 17.7589C17.2346 19.6204 14.2054 19.6204 12.3438 17.7589C10.4823 15.8973 10.4823 12.8681 12.3438 11.0065C14.2054 9.14496 17.2346 9.14496 19.0962 11.0065C20.9578 12.8681 20.9578 15.8973 19.0962 17.7589Z" fill="#6C7FD8"/>
<path d="M24 6.97427V9.60302C24 10.0745 23.6347 10.4773 23.1635 10.4959C22.8244 10.5092 22.5263 10.3288 22.3712 10.0556C22.629 10.0594 22.8399 9.85156 22.8397 9.59374C22.8389 8.71591 22.8369 6.90977 22.8347 6.88784C22.799 6.4571 21.8395 6.10263 21.3976 6.10263H23.1284C23.5649 6.09588 23.9594 6.45321 23.9956 6.88784C23.9986 6.91685 24 6.94531 24 6.97427Z" fill="#4F66D0"/>
<path d="M12.9349 15.437C12.7441 16.2884 12.3177 17.0972 11.6562 17.7588C10.9859 18.429 10.1645 18.8579 9.30109 19.0452L10.292 20.5808C11.2438 20.2737 11.6561 19.3133 12.408 18.5614C12.9232 18.0462 13.8142 17.8955 14.1209 17.2754L12.9349 15.437Z" fill="#FEA3CE"/>
<path d="M12.961 15.4771C12.7432 16.7649 12.1386 17.9992 11.1467 18.9911C10.7716 19.3667 10.3519 19.6949 9.89698 19.9685L9.89707 19.9686C9.12555 20.4322 8.27758 20.7228 7.40857 20.8386C8.37373 20.9679 9.36091 20.8817 10.2919 20.5808L10.2919 20.5808C11.2437 20.2737 12.1371 19.743 12.8885 18.9911C13.4037 18.4758 13.8142 17.8954 14.1208 17.2754L12.961 15.4771Z" fill="#FE7AB6"/>
<path d="M20.911 10.4416C20.9035 10.4356 20.9035 10.4315 20.9035 10.4315C20.489 9.81856 19.6711 9.1992 19.6711 9.1992C18.2661 8.1267 16.5215 7.70272 14.8478 7.92673C18.1579 8.30693 20.6921 11.4672 20.4852 14.6378C20.4238 16.2207 19.7911 17.7853 18.5852 18.9912C17.5364 20.04 16.2161 20.6555 14.8484 20.8385C16.7944 21.0989 18.8363 20.4835 20.3286 18.9912C22.6578 16.6619 22.8516 12.9942 20.911 10.4416Z" fill="#4F66D0"/>
</svg>
