<svg width="20" height="20" viewBox="0 0 20 20" fill="none" xmlns="http://www.w3.org/2000/svg">
<path fill-rule="evenodd" clip-rule="evenodd" d="M1.39679 14.1842C1.16708 14.5818 1.04482 15.0324 1.04204 15.4917C1.03926 15.9509 1.15607 16.4029 1.38096 16.8033C1.60418 17.2032 1.9299 17.5365 2.32462 17.7688C2.71933 18.0011 3.1688 18.124 3.62679 18.125H16.3735C16.8315 18.124 17.2809 18.0011 17.6756 17.7688C18.0704 17.5365 18.3961 17.2032 18.6193 16.8033C18.8442 16.4029 18.961 15.9509 18.9582 15.4917C18.9554 15.0324 18.8332 14.5818 18.6035 14.1842L12.231 3.16917C11.766 2.36583 10.9168 1.875 10.0001 1.875C9.08346 1.875 8.23429 2.36583 7.76929 3.16917L1.39679 14.1842ZM2.47846 14.81L8.85179 3.795C9.09096 3.38083 9.52763 3.125 10.0001 3.125C10.4726 3.125 10.9093 3.38083 11.1485 3.795L17.5218 14.81C17.7676 15.235 17.771 15.7617 17.5301 16.19C17.4155 16.3966 17.248 16.569 17.0447 16.6894C16.8414 16.8098 16.6097 16.8738 16.3735 16.875H3.62679C3.39053 16.8738 3.15884 16.8098 2.95555 16.6894C2.75225 16.569 2.5847 16.3966 2.47013 16.19C2.3518 15.979 2.29036 15.7408 2.29182 15.4989C2.29328 15.257 2.3576 15.0196 2.47846 14.81Z" fill="#D9B26C"/>
<path d="M10.0003 15.3127C10.4606 15.3127 10.8337 14.9396 10.8337 14.4793C10.8337 14.0191 10.4606 13.646 10.0003 13.646C9.54009 13.646 9.16699 14.0191 9.16699 14.4793C9.16699 14.9396 9.54009 15.3127 10.0003 15.3127Z" fill="#D9B26C"/>
<path fill-rule="evenodd" clip-rule="evenodd" d="M8.95801 7.39567L9.37467 11.979C9.37467 12.1448 9.44052 12.3037 9.55773 12.4209C9.67494 12.5382 9.83391 12.604 9.99967 12.604C10.1654 12.604 10.3244 12.5382 10.4416 12.4209C10.5588 12.3037 10.6247 12.1448 10.6247 11.979L11.0413 7.39567C11.0413 7.05067 10.833 6.354 9.99967 6.354C9.16634 6.354 8.95801 7.05067 8.95801 7.39567Z" fill="#D9B26C"/>
</svg>
