<svg width="25" height="24" viewBox="0 0 25 24" fill="none" xmlns="http://www.w3.org/2000/svg">
<g clip-path="url(#clip0_1823_1538)">
<path d="M4.01025 16.8223V23.9546H20.8494V16.8223H4.01025Z" fill="#4D5E80"/>
<path d="M12.4298 16.8223H20.8494V23.9546H12.4298V16.8223Z" fill="#3D4566"/>
<path d="M11.7282 17.6399H13.1315V19.7448H11.7282V17.6399Z" fill="#FFDF40"/>
<path d="M12.4298 17.6399H13.1314V19.7448H12.4298V17.6399Z" fill="#FFBE40"/>
<path d="M15.938 12.027H14.5347V10.3819C14.0648 10.196 13.2356 9.92206 12.4298 9.92206C11.6243 9.92206 10.7952 10.1959 10.325 10.382V12.027H8.92169V9.48841L9.30955 9.29448C9.37289 9.26281 10.8788 8.5188 12.4298 8.5188C13.9809 8.5188 15.4868 9.26281 15.5501 9.29448L15.938 9.48841V12.027Z" fill="#4D5E80"/>
<path d="M14.5347 10.3819V12.027H15.938V9.48841L15.5501 9.29448C15.4868 9.26281 13.9809 8.5188 12.4298 8.5188V9.92206C13.2355 9.92206 14.0648 10.196 14.5347 10.3819Z" fill="#3D4566"/>
<path d="M20.8494 11.3252V16.8222L12.4298 18.3532L4.01025 16.8222V11.3252H20.8494Z" fill="#3D4566"/>
<path d="M20.8494 11.3252H12.4298V18.3532L20.8494 16.8222V11.3252Z" fill="#2E2E4D"/>
<path d="M6.62903 10.057L4.28797 9.32406L1.9469 10.057L1.92052 7.60404L0.5 5.60401L2.82479 4.8209L4.28797 2.85194L5.75115 4.8209L8.07593 5.60401L6.65546 7.60404L6.62903 10.057ZM10.0888 7.25046L10.0624 4.79751L8.64192 2.79749L10.9667 2.01437L12.4299 0.0454102L13.893 2.01437L16.2178 2.79749L14.7973 4.79751L14.771 7.25051L12.4299 6.51758L10.0888 7.25046ZM23.0531 10.057L20.712 9.32406L18.3709 10.057L18.3446 7.60399L16.9241 5.60397L19.2489 4.82085L20.712 2.85189L22.1752 4.82085L24.5 5.60397L23.0794 7.60399L23.0531 10.057Z" fill="#FFDF40"/>
<path d="M14.7709 7.25046L14.7973 4.79747L16.2177 2.79749L13.893 2.01437L12.4298 0.0454102V6.51754L14.7709 7.25046ZM23.0531 10.057L23.0795 7.60404L24.5 5.60401L22.1752 4.8209L20.712 2.85194V9.32406L23.0531 10.057ZM6.62901 10.057L6.65539 7.60404L8.07587 5.60401L5.75108 4.8209L4.2879 2.85194V9.32406L6.62901 10.057Z" fill="#FFBE40"/>
</g>
<defs>
<clipPath id="clip0_1823_1538">
<rect width="24" height="24" fill="white" transform="translate(0.5)"/>
</clipPath>
</defs>
</svg>
