<svg width="40" height="40" viewBox="0 0 40 40" fill="none" xmlns="http://www.w3.org/2000/svg">
<path d="M30.3466 15.6274L30.1342 15.4175L30.0948 15.3848C27.014 12.8274 25.5159 8.99076 25.9846 4.85843L26.5359 0L21.8088 2.55062C16.785 5.26124 13.4775 10.2829 12.9208 15.8978L7.61639 14.349L7.20233 15.2947C5.53359 19.1039 4.70914 22.7606 4.75156 26.1633C4.79789 29.8748 6.28562 33.355 8.94061 35.9631C11.5906 38.5662 15.0965 39.9999 18.8119 39.9999H21.0852C28.7951 39.9999 35.1025 33.7874 35.1455 26.1507C35.1697 21.8475 33.5995 18.4048 30.3467 15.6274H30.3466ZM19.3798 37.6507C16.5105 37.6507 14.147 35.3277 14.1112 32.4722C14.0966 31.3021 14.3304 30.0442 14.807 28.7219L18.1407 29.6951L18.1548 28.1432C18.1753 25.8904 19.3123 23.8101 21.1617 22.572C21.1562 24.8635 22.1101 26.9579 23.8552 28.4267L23.9239 28.4945L23.9895 28.5546C25.2403 29.617 25.7939 30.827 25.7848 32.478C25.7686 35.3304 23.4053 37.6506 20.5166 37.6506L19.3798 37.6507ZM27.3 35.8764C27.8422 34.8301 28.1279 33.6699 28.1337 32.4914C28.1468 30.1632 27.3 28.2992 25.545 26.7938L25.4357 26.6857L25.3963 26.6534C23.991 25.4864 23.3352 23.8012 23.5497 21.9082L23.9519 18.3622L20.5993 20.1711C18.1243 21.5066 16.4287 23.8918 15.9463 26.6073L13.4515 25.8789L13.0374 26.8243C12.1691 28.8061 11.7401 30.7162 11.7626 32.5017C11.7772 33.6856 12.0629 34.826 12.5884 35.852C9.3392 33.8058 7.15171 30.2145 7.10046 26.134C7.06569 23.3465 7.68944 20.3411 8.9553 17.1872L15.1733 19.0026L15.1873 17.4508C15.2361 12.084 18.2006 7.1667 22.924 4.61819L23.6953 4.20195L23.6507 4.59382C23.0932 9.5099 24.88 14.0863 28.5546 17.1591L28.7261 17.3288L28.7917 17.389C31.5441 19.7262 32.8167 22.5064 32.7965 26.1376C32.7733 30.2328 30.5785 33.8348 27.3 35.8764Z" fill="#D9B26C"/>
</svg>
