<svg width="24" height="24" viewBox="0 0 24 24" fill="none" xmlns="http://www.w3.org/2000/svg">
<path d="M21.7503 12.0002C21.7396 12.8191 21.4778 13.6149 21.0003 14.2802C20.6117 14.808 20.1766 15.2999 19.7003 15.7502C19.5611 15.878 19.3793 15.9493 19.1903 15.9502C19.0396 15.9503 18.8923 15.9048 18.7677 15.8199C18.6432 15.735 18.5471 15.6145 18.492 15.4741C18.437 15.3338 18.4255 15.1801 18.4591 15.0331C18.4927 14.8862 18.5698 14.7527 18.6803 14.6502C19.0915 14.2691 19.4665 13.8507 19.8003 13.4002C20.0902 12.9907 20.2472 12.502 20.2503 12.0002C20.2483 11.4968 20.0873 11.0068 19.7903 10.6002C18.9138 9.40077 17.7613 8.43006 16.4303 7.77023C15.0491 7.10392 13.5339 6.76189 12.0003 6.77023C11.4302 6.76739 10.8611 6.81761 10.3003 6.92023C10.1014 6.96001 9.89486 6.91915 9.72607 6.80663C9.55729 6.6941 9.44012 6.51914 9.40034 6.32023C9.36056 6.12132 9.40142 5.91475 9.51394 5.74597C9.62646 5.57718 9.80143 5.46001 10.0003 5.42023C12.4035 5.00053 14.8778 5.3505 17.0703 6.42023C18.6282 7.18583 19.9768 8.31828 21.0003 9.72023C21.4778 10.3855 21.7396 11.1814 21.7503 12.0002ZM16.4303 16.2302C15.0466 16.8895 13.5331 17.2316 12.0003 17.2316C10.4676 17.2316 8.9541 16.8895 7.57034 16.2302C6.23934 15.5704 5.08684 14.5997 4.21034 13.4002C3.91147 12.9946 3.75023 12.504 3.75023 12.0002C3.75023 11.4964 3.91147 11.0058 4.21034 10.6002C5.06649 9.4254 6.19107 8.47224 7.49034 7.82023C7.57832 7.77558 7.65665 7.71404 7.72086 7.63912C7.78506 7.5642 7.83387 7.47736 7.86452 7.38358C7.89516 7.28979 7.90703 7.19088 7.89945 7.09251C7.89187 6.99413 7.86499 6.89822 7.82034 6.81023C7.77569 6.72224 7.71415 6.64391 7.63923 6.57971C7.5643 6.51551 7.47747 6.4667 7.38368 6.43605C7.2899 6.40541 7.19099 6.39354 7.09262 6.40112C6.99424 6.4087 6.89832 6.43558 6.81034 6.48023C5.29835 7.23825 3.99142 8.34966 3.00034 9.72023C2.519 10.383 2.25977 11.1811 2.25977 12.0002C2.25977 12.8194 2.519 13.6175 3.00034 14.2802C4.02223 15.6773 5.36722 16.8061 6.92034 17.5702C8.50168 18.3454 10.2392 18.749 12.0003 18.7502C13.7828 18.7477 15.541 18.3372 17.1403 17.5502L17.2703 17.4702C17.4236 17.3595 17.5294 17.1949 17.5665 17.0095C17.6035 16.824 17.5692 16.6314 17.4703 16.4702C17.4192 16.3847 17.3513 16.3103 17.2708 16.2516C17.1902 16.1929 17.0986 16.1511 17.0015 16.1287C16.9043 16.1063 16.8037 16.1037 16.7055 16.1212C16.6074 16.1386 16.5138 16.1757 16.4303 16.2302ZM12.0003 15.7502C12.4929 15.7514 12.9808 15.6548 13.4357 15.466C13.8906 15.2772 14.3034 14.9999 14.6503 14.6502C14.7828 14.5081 14.8549 14.32 14.8515 14.1257C14.8481 13.9314 14.7694 13.746 14.632 13.6086C14.4945 13.4712 14.3092 13.3925 14.1149 13.3891C13.9206 13.3856 13.7325 13.4578 13.5903 13.5902C13.3826 13.8006 13.135 13.9673 12.8619 14.0806C12.5889 14.194 12.296 14.2516 12.0003 14.2502C11.4036 14.2502 10.8313 14.0132 10.4093 13.5912C9.98739 13.1693 9.75034 12.597 9.75034 12.0002C9.74894 11.7046 9.8066 11.4117 9.91994 11.1386C10.0333 10.8656 10.2 10.618 10.4103 10.4102C10.5428 10.2681 10.6149 10.08 10.6115 9.88571C10.6081 9.69141 10.5294 9.50602 10.392 9.36861C10.2545 9.2312 10.0692 9.15248 9.87486 9.14906C9.68056 9.14563 9.49251 9.21775 9.35034 9.35023C8.82656 9.87466 8.46993 10.5426 8.32551 11.2695C8.18109 11.9965 8.25535 12.75 8.5389 13.4348C8.82246 14.1197 9.3026 14.7051 9.91868 15.1172C10.5348 15.5293 11.2591 15.7496 12.0003 15.7502Z" fill="#7B6A58"/>
<path d="M20.0002 20.7502C19.9016 20.7506 19.804 20.7314 19.713 20.6936C19.6219 20.6558 19.5394 20.6003 19.4702 20.5302L3.47015 4.53015C3.39647 4.46149 3.33736 4.37869 3.29637 4.28669C3.25538 4.19469 3.23334 4.09538 3.23156 3.99468C3.22979 3.89397 3.24831 3.79394 3.28603 3.70056C3.32375 3.60717 3.3799 3.52233 3.45112 3.45112C3.52233 3.3799 3.60717 3.32375 3.70056 3.28603C3.79394 3.24831 3.89397 3.22979 3.99468 3.23156C4.09538 3.23334 4.19469 3.25538 4.28669 3.29637C4.37869 3.33736 4.46149 3.39647 4.53015 3.47015L20.5302 19.4702C20.6706 19.6108 20.7495 19.8014 20.7495 20.0002C20.7495 20.1989 20.6706 20.3895 20.5302 20.5302C20.4609 20.6003 20.3784 20.6558 20.2873 20.6936C20.1963 20.7314 20.0987 20.7506 20.0002 20.7502Z" fill="#D9B26C"/>
</svg>
