<svg width="125" height="90" viewBox="0 0 125 90" fill="none" xmlns="http://www.w3.org/2000/svg">
<path d="M50.2044 16.5353C54.7705 16.5353 58.4721 12.8338 58.4721 8.26765C58.4721 3.70155 54.7705 0 50.2044 0C45.6383 0 41.9368 3.70155 41.9368 8.26765C41.9368 12.8338 45.6383 16.5353 50.2044 16.5353Z" fill="#090909"/>
<path d="M54.0919 7.26232C32.3177 3.14762 30.2942 27.7081 29.7356 32.6242C29.1769 37.5402 18.5629 40.4449 23.7022 51.0589C28.8416 61.6729 52.751 63.7957 58.2257 57.0922C63.7004 50.3888 60.1249 40.7803 63.2535 34.6352C66.382 28.4901 68.2813 9.94376 54.0919 7.26232Z" fill="#090909"/>
<path d="M40.7384 43.4502C40.7384 43.4502 29.6307 42.8627 23.4351 48.2272C14.7305 55.7641 11.1212 71.3688 12.1828 78.1628C13.2443 84.9567 16.8536 85.5937 19.6136 86.1244C21.3748 86.4632 44.4873 86.8451 61.0136 86.9944C62.2203 87.0053 59.9646 80.2324 60.983 80.712C68.6583 84.3254 78.6021 83.6774 78.6356 83.5769C78.7418 83.2584 81.8201 75.5091 81.3956 75.403C80.9711 75.2968 71.8417 71.3692 69.7187 70.0952C67.5957 68.8215 65.6849 56.8258 62.7126 53.3228C60.3315 50.5164 52.8402 45.9982 52.8402 45.9982C52.8402 45.9982 44.1356 43.2382 43.8171 43.0259C43.4984 42.8132 40.7384 43.4502 40.7384 43.4502Z" fill="#F9FDFF"/>
<path d="M47.0078 76.2749C46.9396 78.439 48.1297 82.9754 48.4093 83.3591C48.6888 83.7428 52.6715 83.0893 55.1639 84.4884C56.782 85.3967 57.3455 84.6612 57.3626 84.1203C57.3626 84.1203 59.6573 84.9422 59.8924 83.1586C59.8924 83.1586 61.5132 83.889 61.9513 82.5986C61.9513 82.5986 63.4175 82.9989 63.2417 81.3061C63.0658 79.6134 58.5089 76.8246 55.1577 76.0942C51.8063 75.3636 47.0078 76.2749 47.0078 76.2749Z" fill="#F39980"/>
<path d="M44.6661 35.8066C44.6661 35.8066 42.0123 42.0697 40.7383 43.4497C40.7383 43.4497 45.9398 49.076 52.8399 45.9975C52.8399 45.9975 53.0522 39.5222 52.8399 38.1422C52.6277 36.7619 44.6661 35.8066 44.6661 35.8066Z" fill="#F39980"/>
<path d="M122.593 89.0964H2.40737C1.41569 89.0964 0.612061 88.2925 0.612061 87.3009V87.1764C0.612061 86.1847 1.41592 85.3809 2.40737 85.3809H122.593C123.584 85.3809 124.388 86.1847 124.388 87.1764V87.3009C124.388 88.2925 123.584 89.0964 122.593 89.0964Z" fill="#090909"/>
<path d="M76.6154 83.2598H50.299C49.733 83.2598 49.2739 83.7186 49.2739 84.2849V84.3559C49.2739 84.9219 49.7328 85.381 50.299 85.381H76.6154V83.2598Z" fill="#4D6E8C"/>
<path d="M109.193 83.2598H76.3228C75.9628 83.2598 75.671 83.5515 75.671 83.9115V84.7292C75.671 85.0892 75.9628 85.381 76.3228 85.381H109.193C109.553 85.381 109.845 85.0892 109.845 84.7292V83.9115C109.845 83.5515 109.553 83.2598 109.193 83.2598Z" fill="#415C75"/>
<path d="M89.4949 55.6045H120.882C121.705 55.6045 122.239 56.4715 121.87 57.2071L108.786 83.2604H74.9241L88.5064 56.2143C88.6943 55.8405 89.0766 55.6045 89.4949 55.6045Z" fill="#415C75"/>
<path d="M90.47 55.6045H121.857C122.68 55.6045 123.215 56.4715 122.845 57.2071L109.761 83.2604H75.8992L89.4815 56.2143C89.6694 55.8405 90.0517 55.6045 90.47 55.6045Z" fill="#4D6E8C"/>
<path d="M99.4319 73.2439C101.537 73.2439 103.243 71.5375 103.243 69.4325C103.243 67.3275 101.537 65.6211 99.4319 65.6211C97.3269 65.6211 95.6205 67.3275 95.6205 69.4325C95.6205 71.5375 97.3269 73.2439 99.4319 73.2439Z" fill="#8098B2"/>
<path d="M39.9027 22.4561C39.9027 22.4561 43.7014 12.289 52.6395 13.2945C61.5775 14.3 61.0189 26.1431 61.0189 26.1431L61.1307 29.2714C61.1307 29.2714 61.9129 29.9418 61.9129 29.6065C61.9129 29.2714 63.7006 23.9085 61.1307 16.9815C58.561 10.0544 52.3044 9.1607 46.1593 11.8421C40.0144 14.5236 37.9626 20.4394 37.2212 22.6797C36.4798 24.9198 39.9027 22.4561 39.9027 22.4561Z" fill="#439DB6"/>
<path d="M60.0583 26.0767C54.6719 25.4782 52.1182 34.6855 55.7888 36.7389C59.4591 38.7921 61.8239 36.2005 62.5291 33.2317C63.2343 30.2626 63.2431 26.4305 60.0583 26.0767Z" fill="#439DB6"/>
<path d="M52.922 42.4094C52.9315 41.7275 52.9365 41.0289 52.9331 40.3899L51.1159 37.0728C48.7161 36.2932 44.6659 35.8066 44.6659 35.8066C44.6659 35.8066 43.1195 39.4551 41.821 41.7962C41.8853 41.8273 41.9478 41.8582 42.0146 41.8893C43.285 42.4834 44.656 42.7148 46.0461 42.9187C48.4208 43.2674 50.7557 43.3596 52.922 42.4094Z" fill="#EF7B60"/>
<path d="M41.1317 24.5797C41.1317 24.5797 49.958 25.2501 53.645 19.2168C53.645 19.2168 53.689 24.1655 61.0189 26.1438C61.0189 26.1438 59.0079 43.3496 49.3994 42.2325C40.1057 41.1519 39.1207 31.7303 41.1317 24.5797Z" fill="#F39980"/>
<path d="M39.1516 21.7895C33.7707 21.1425 32.0795 30.9234 35.7499 32.9766C39.4203 35.0298 41.7851 32.4383 42.4903 29.4694C43.1955 26.5006 42.5198 22.1944 39.1516 21.7895Z" fill="#439DB6"/>
<path d="M37.8283 23.4095C34.1777 22.9707 33.0305 29.6062 35.5206 30.9991C38.0108 32.392 39.6151 30.6338 40.0935 28.6196C40.5719 26.6055 40.1133 23.6842 37.8283 23.4095Z" fill="#21404B"/>
<path d="M48.9767 83.7236C48.3102 82.4821 47.8015 81.1666 47.4651 79.7979C47.2994 79.1234 47.1724 78.438 47.0949 77.7477C47.0203 77.0835 47.0258 76.37 46.7615 75.7464C46.717 75.6415 46.5312 75.6427 46.4865 75.7464C46.4732 75.7772 46.4644 75.8093 46.4526 75.8406C46.4522 75.8404 46.452 75.8402 46.4515 75.8399C46.3376 75.7918 46.1994 75.7906 46.0772 75.8021C46.0032 75.8091 45.9286 75.8093 45.8541 75.8127C45.8237 75.8056 45.7933 75.7982 45.7617 75.7948C45.5898 75.7766 45.4126 75.8229 45.2425 75.8457C44.8615 75.8966 44.4794 75.9418 44.0971 75.9821C43.3324 76.063 42.5654 76.1229 41.7975 76.1617C40.2965 76.2373 38.7916 76.2329 37.291 76.1488C34.2519 75.9787 31.2344 75.477 28.3027 74.6572C27.6263 74.4682 26.958 74.2541 26.291 74.0361C26.3961 73.8727 26.3954 73.7038 26.3991 73.4936C26.4039 73.2113 26.4125 72.9292 26.4242 72.6471C26.4456 72.1359 26.4784 71.625 26.5222 71.1154C26.6116 70.0753 26.7485 69.0401 26.9324 68.0125C27.3032 65.9413 27.8701 63.9208 28.5747 61.9395C28.7694 61.3922 28.9787 60.8497 29.1893 60.3085C29.3926 59.7863 29.6581 59.2466 29.7108 58.6851C29.721 58.5766 29.5765 58.5351 29.5071 58.6008C29.1448 58.9435 28.9174 59.4298 28.7046 59.8755C28.4795 60.3472 28.2709 60.8252 28.0755 61.3101C27.6733 62.309 27.3318 63.3318 27.0335 64.3663C26.4431 66.4154 26.0479 68.5197 25.8347 70.6414C25.7764 71.2208 25.7326 71.8015 25.7033 72.3832C25.6881 72.6828 25.677 72.9827 25.6697 73.2825C25.6648 73.4765 25.645 73.6644 25.6851 73.8384C24.9301 73.5908 24.1744 73.3456 23.4088 73.1327C23.2023 73.0753 23.0744 73.3719 23.2625 73.4798C24.6065 74.25 26.0753 74.7508 27.5576 75.191C29.0485 75.6339 30.5638 75.9944 32.0943 76.2707C35.1191 76.8169 38.2016 77.0462 41.2737 76.9369C42.1467 76.9058 43.019 76.8478 43.8883 76.7623C44.3056 76.7212 44.7223 76.6735 45.1383 76.6196C45.3407 76.5931 45.5603 76.585 45.7587 76.535C45.7714 76.5318 45.7825 76.5253 45.7947 76.5212C45.7954 76.5219 45.7958 76.5226 45.7965 76.5233C45.8078 76.5339 45.8189 76.5447 45.8302 76.5553C45.8447 76.5691 45.8622 76.5774 45.882 76.5802C45.8947 76.5818 45.9053 76.5767 45.9161 76.5737C45.923 76.5786 45.9297 76.5834 45.9366 76.5885C45.9502 76.5982 45.9737 76.5945 45.9848 76.5823C45.9961 76.57 46.0014 76.5486 45.991 76.5341L45.98 76.5184C45.9804 76.5175 45.9809 76.5163 45.9811 76.5154C45.9818 76.5129 45.9809 76.5104 45.9813 76.5081C46.0413 76.5193 46.1014 76.5297 46.1613 76.5348C46.2033 76.5382 46.2464 76.5442 46.2886 76.5445C46.2929 76.5445 46.2978 76.5426 46.3021 76.5426C46.2692 76.9614 46.3123 77.393 46.3572 77.8005C46.439 78.5405 46.5633 79.2757 46.737 79.9996C47.056 81.3284 47.5388 82.6165 48.1608 83.8333C48.0525 83.9241 47.9396 84.0085 47.8131 84.0818C47.5794 84.2175 47.4531 84.3544 47.3074 84.5773C47.248 84.6681 47.3118 84.7725 47.4003 84.8057C47.7167 84.9244 47.9527 84.9004 48.2466 84.7294C48.4932 84.5858 48.7176 84.3994 48.9151 84.1945C49.0391 84.0654 49.0596 83.878 48.9767 83.7236Z" fill="#E0F8F5"/>
<path d="M60.448 70.2547C60.6745 69.2282 60.8124 68.1911 60.7506 67.1367C60.6914 66.1252 60.4556 65.128 60.1258 64.1589C59.938 63.6074 59.7144 63.0605 59.4473 62.5362C59.2026 62.0555 58.9495 61.4463 58.4893 61.1053C58.3747 61.0204 58.2445 61.1184 58.248 61.2332C58.2621 61.7118 58.5547 62.202 58.7398 62.6448C58.9408 63.1253 59.1374 63.6065 59.312 64.0953C59.6587 65.0658 59.9041 66.0651 59.9758 67.0819C60.1265 69.2213 59.3116 71.2498 58.9062 73.3168C58.7956 73.8805 58.7145 74.4509 58.6944 75.0257C58.6838 75.3272 58.6882 75.6307 58.7105 75.9321C58.7306 76.2009 58.7299 76.526 58.8808 76.7659C59.1261 77.1561 59.7363 76.9399 59.5778 76.4998C59.5006 76.2854 59.5075 76.01 59.4925 75.7874C59.4743 75.5171 59.475 75.2472 59.4895 74.9776C59.5174 74.4537 59.5937 73.9342 59.6944 73.4199C59.9027 72.3553 60.2143 71.3134 60.448 70.2547Z" fill="#E0F8F5"/>
<path d="M53.9628 46.2676C53.7886 45.965 53.2857 45.9171 53.1562 46.2798C53.1416 46.3202 53.1728 46.3702 53.2131 46.3798C53.2175 46.3411 53.2207 46.3485 53.2232 46.402C53.2258 46.4368 53.2331 46.4706 53.2449 46.5036C53.258 46.5594 53.2723 46.5923 53.2659 46.6516C53.25 46.7935 53.1375 46.9477 53.0714 47.0726C52.9386 47.3236 52.7985 47.5711 52.6376 47.805C52.3173 48.2708 51.8826 48.6688 51.2982 48.728C50.7202 48.7868 50.085 48.6119 49.5807 48.3346C49.3256 48.1945 49.0869 48.0228 48.87 47.829C48.6868 47.6651 48.5358 47.4713 48.3618 47.2996C48.3627 47.2955 48.3644 47.2916 48.3651 47.2874C48.3701 47.2614 48.3717 47.2342 48.3701 47.2067C49.0106 47.2284 49.6524 47.2019 50.2867 47.1199C50.8054 47.0528 51.3189 46.9567 51.8243 46.8207C52.2597 46.7036 52.9612 46.6062 53.1465 46.1473C53.19 46.0395 53.1193 45.8719 53.0144 45.8226C52.6293 45.641 52.1682 45.927 51.7874 46.0371C51.3733 46.157 50.952 46.2515 50.5268 46.3215C49.6958 46.4584 48.8451 46.4886 48.0053 46.4342C46.3029 46.3243 44.6311 45.826 43.143 44.9938C42.7166 44.7553 42.305 44.4914 41.9135 44.1994C41.7307 44.063 41.5537 43.919 41.3811 43.7698C41.2421 43.6498 41.1195 43.5239 40.9637 43.4532C40.9923 43.3972 40.9955 43.3274 40.9614 43.2589C40.7489 42.8314 40.1624 42.9326 39.8176 43.1298C39.3894 43.3751 39.1237 43.8346 39.034 44.3107C38.8273 45.4091 39.4109 46.4411 40.1518 47.2067C40.9243 48.0051 41.854 48.79 42.9238 49.1415C43.8286 49.4388 44.8314 49.4176 45.7408 49.1523C46.2595 49.0011 46.7626 48.7704 47.2123 48.4706C47.4579 48.3068 47.8122 48.0758 48.0657 47.8043C48.3233 48.3966 48.9523 48.8656 49.4969 49.1198C50.2947 49.492 51.2804 49.6658 52.1071 49.2869C52.8483 48.9472 53.3249 48.2263 53.7003 47.5329C53.8966 47.1685 54.2018 46.6827 53.9628 46.2676ZM47.0823 47.6273C46.7848 47.8631 46.4504 48.0595 46.1051 48.2159C45.4082 48.5317 44.6196 48.667 43.8583 48.5845C42.9966 48.4909 42.2283 48.0622 41.5585 47.5319C40.8715 46.9876 40.0617 46.3317 39.7561 45.4808C39.5968 45.0372 39.5549 44.5209 39.7621 44.0851C39.8554 43.8888 40.0011 43.7249 40.1986 43.629C40.2968 43.5813 40.3926 43.5696 40.4899 43.568C40.4754 43.6011 40.4687 43.6366 40.4724 43.6721C40.5187 44.1056 41.0181 44.4108 41.3373 44.6636C41.6885 44.9415 42.0531 45.2017 42.4336 45.4382C43.2052 45.9171 44.0418 46.2976 44.9028 46.5854C45.768 46.8747 46.6686 47.0669 47.5789 47.1572C47.4105 47.3102 47.2572 47.4886 47.0823 47.6273Z" fill="#E0F8F5"/>
<path d="M61.4439 81.6501C61.3561 81.518 61.2415 81.4116 61.1226 81.3088C60.8594 81.0815 60.5859 80.8658 60.3052 80.661C59.7315 80.2424 59.1157 79.8815 58.4728 79.5803C57.8477 79.2876 57.1907 79.0461 56.5221 78.8746C55.9167 78.7191 55.1225 78.4812 54.5062 78.6658C54.4028 78.6967 54.3806 78.8412 54.4761 78.8972C54.7459 79.0553 55.0543 79.115 55.3567 79.1869C55.6791 79.2634 55.9971 79.3551 56.3124 79.4577C56.9475 79.6642 57.559 79.9166 58.1545 80.2187C58.7318 80.5116 59.2838 80.852 59.8094 81.2295C60.0782 81.4224 60.337 81.6282 60.5863 81.8458C60.7048 81.9492 60.8221 82.0553 60.9567 82.138C61.1265 82.2424 61.2586 82.2362 61.4467 82.2694C61.5361 82.2853 61.6027 82.2189 61.5868 82.1292C61.5531 81.94 61.5557 81.8181 61.4439 81.6501Z" fill="#EF7B60"/>
<path d="M59.0263 82.3552C58.8589 82.1607 58.5842 82.0877 58.3524 81.9925C58.1383 81.9047 57.9249 81.8157 57.7103 81.7288C57.2554 81.5447 56.7993 81.3613 56.3381 81.1935C55.5995 80.925 54.5189 80.4929 53.7726 80.9476C53.7051 80.9886 53.7106 81.1087 53.7959 81.1259C54.2086 81.2105 54.6223 81.2273 55.0289 81.3497C55.4562 81.4786 55.8613 81.6574 56.2628 81.8505C56.679 82.0506 57.1024 82.2372 57.5253 82.423C57.737 82.5161 57.9491 82.609 58.1613 82.7009C58.3683 82.7906 58.5734 82.906 58.8039 82.8924C59.0855 82.8759 59.2067 82.565 59.0263 82.3552Z" fill="#EF7B60"/>
<path d="M55.1499 82.7414C55.1238 82.6969 55.0754 82.6616 55.0376 82.6275C54.8848 82.4902 54.7037 82.3812 54.5152 82.2984C54.4073 82.2509 54.2971 82.1984 54.184 82.1645C54.1331 82.1493 54.081 82.1359 54.0286 82.1267C53.9754 82.1173 53.9157 82.1016 53.8611 82.109C53.848 82.1067 53.8346 82.1044 53.8215 82.1021C53.7198 82.085 53.6472 82.2194 53.7477 82.2772C53.7634 82.2862 53.7791 82.2954 53.7947 82.3046C53.8514 82.368 53.9438 82.4123 54.013 82.4538C54.0983 82.5047 54.1881 82.5473 54.275 82.5953C54.4555 82.6944 54.6357 82.8029 54.8261 82.881C54.9169 82.9184 55.0286 82.9956 55.1192 82.92C55.1708 82.8774 55.1842 82.8001 55.1499 82.7414Z" fill="#EF7B60"/>
<path d="M48.2044 28.3426C48.1885 28.2286 48.1451 28.1251 48.0748 28.032C48.0126 27.9366 47.9333 27.8628 47.8365 27.8107C47.7485 27.7423 47.6489 27.6999 47.5374 27.6835C47.4623 27.6803 47.3871 27.6771 47.312 27.6738C47.161 27.6886 47.0239 27.7411 46.9009 27.8315C46.8485 27.8817 46.7965 27.9319 46.7444 27.9822C46.6508 28.0995 46.5911 28.2329 46.5653 28.3825C46.536 28.5056 46.5054 28.6282 46.4731 28.7503C46.4508 28.8347 46.4293 28.919 46.4074 29.0034C46.3968 29.0361 46.3871 29.0688 46.3818 29.1025C46.3809 29.1057 46.3802 29.1089 46.3793 29.1122C46.38 29.1096 46.3809 29.1069 46.3816 29.1043C46.3747 29.149 46.3689 29.194 46.3713 29.2403C46.357 29.3583 46.3731 29.4733 46.4192 29.5855C46.4561 29.6961 46.5157 29.7899 46.5985 29.8669C46.6669 29.9559 46.7531 30.0229 46.8568 30.0683C46.9269 30.0912 46.997 30.114 47.067 30.1368C47.2207 30.164 47.3703 30.1499 47.5162 30.0942C47.5807 30.0587 47.6452 30.0229 47.7098 29.9872C47.8294 29.8978 47.9204 29.7844 47.9833 29.6466C48.0214 29.5563 48.0428 29.4569 48.0712 29.3627C48.0804 29.3318 48.0898 29.3009 48.0974 29.2696C48.1133 29.2043 48.1278 29.1389 48.1424 29.0734C48.1707 28.9451 48.1974 28.8162 48.2223 28.6869C48.2458 28.5696 48.2401 28.4546 48.2044 28.3426Z" fill="#090909"/>
<path d="M48.9631 25.8081C48.8986 25.5638 48.5964 25.3888 48.374 25.3105C48.1726 25.2397 47.9813 25.1976 47.7688 25.1893C47.5623 25.1812 47.3651 25.2003 47.1653 25.2579C47.0645 25.287 46.9687 25.3462 46.8797 25.3999C46.7778 25.4617 46.702 25.5686 46.6555 25.6774C46.5704 25.8767 46.685 26.0931 46.8958 26.1381C47.1065 26.1828 47.318 26.1378 47.5312 26.1342C47.6218 26.1436 47.7094 26.1609 47.7988 26.1807C47.8039 26.1823 47.8092 26.1839 47.8133 26.1856C47.8352 26.1941 47.8566 26.2031 47.8781 26.2127C47.9355 26.2383 47.9903 26.2683 48.0438 26.301C48.0062 26.2773 47.9686 26.2535 47.9309 26.2298C47.9735 26.2568 48.0164 26.2835 48.059 26.3102C48.1687 26.3831 48.2703 26.4669 48.4084 26.4792C48.5907 26.4953 48.7598 26.4515 48.881 26.3049C49.0037 26.1565 49.0101 25.986 48.9631 25.8081Z" fill="#090909"/>
<path d="M56.0876 29.7633C56.0717 29.6492 56.0286 29.5457 55.9581 29.4526C55.8961 29.3572 55.8166 29.2835 55.7198 29.2314C55.6318 29.1629 55.5322 29.1205 55.4207 29.1044C55.3456 29.1012 55.2704 29.098 55.1953 29.0947C55.0443 29.1095 54.9072 29.162 54.7841 29.2524C54.7318 29.3026 54.6797 29.3528 54.6277 29.4031C54.5341 29.5204 54.4744 29.6538 54.4486 29.8034C54.4193 29.9265 54.3887 30.0491 54.3564 30.1712C54.3341 30.2553 54.3126 30.3399 54.2907 30.4243C54.2801 30.457 54.2702 30.4897 54.2649 30.5234C54.264 30.5266 54.2633 30.5298 54.2624 30.533C54.2633 30.5305 54.264 30.5277 54.2647 30.5252C54.2578 30.5699 54.252 30.6149 54.2543 30.6612C54.24 30.7792 54.2562 30.8942 54.3022 31.0064C54.3391 31.117 54.3988 31.2108 54.4815 31.2878C54.55 31.3768 54.6362 31.4438 54.7399 31.4892C54.81 31.5121 54.88 31.5349 54.9501 31.5577C55.1038 31.5849 55.2534 31.5708 55.3993 31.5151C55.4638 31.4796 55.5283 31.4438 55.5928 31.4081C55.7125 31.3187 55.8035 31.2053 55.8664 31.0675C55.9044 30.9772 55.9259 30.8778 55.9542 30.7836C55.9634 30.7527 55.9729 30.7218 55.9805 30.6905C55.9964 30.6252 56.0109 30.5598 56.0254 30.4943C56.0538 30.366 56.0805 30.2371 56.1054 30.1078C56.1291 29.9903 56.1234 29.8755 56.0876 29.7633Z" fill="#090909"/>
<path d="M56.8403 27.7314C56.8094 27.6751 56.7746 27.6221 56.7331 27.573C56.6098 27.4269 56.4741 27.3142 56.3061 27.2232C56.1275 27.1262 55.9355 27.0971 55.7354 27.093C55.6624 27.0916 55.5903 27.0976 55.5186 27.1123C55.4538 27.1257 55.3865 27.1388 55.3234 27.1598C55.233 27.1898 55.1521 27.2577 55.095 27.3326C54.9069 27.579 55.0302 27.9358 55.3395 27.9968C55.3955 28.0079 55.4538 28.0153 55.5107 28.0095C55.5444 28.0061 55.5785 27.9968 55.6126 27.9872C55.6582 27.9793 55.7041 27.9749 55.7502 27.9733C55.7963 27.9784 55.8421 27.9865 55.8873 27.9973C55.9325 28.0139 55.9754 28.0349 56.0175 28.0581C56.0519 28.0833 56.0851 28.1098 56.1159 28.1393C56.1459 28.1771 56.1749 28.2153 56.2079 28.2506C56.2955 28.3442 56.4238 28.3944 56.5529 28.384C56.613 28.3792 56.6988 28.3561 56.7423 28.3165C56.799 28.2646 56.8407 28.2248 56.8767 28.1552C56.9057 28.0989 56.9246 27.9945 56.9161 27.9328C56.9053 27.8572 56.8765 27.7973 56.8403 27.7314Z" fill="#090909"/>
<path d="M50.9731 33.3115C50.9957 33.3122 51.0169 33.3138 51.0384 33.3148C51.0614 33.3157 51.0826 33.3148 51.1077 33.3166C51.0628 33.315 51.0179 33.3131 50.9731 33.3115Z" fill="#EF7B60"/>
<path d="M51.3721 33.4258C51.2689 33.3384 51.161 33.3221 51.0384 33.3156C50.9548 33.3121 50.8782 33.3142 50.7886 33.3403C50.7814 33.3423 50.7743 33.3444 50.7674 33.3465C50.6789 33.3629 50.5892 33.3725 50.4994 33.3744C50.4217 33.367 50.3452 33.3536 50.2696 33.3333C50.17 33.2974 50.0707 33.2564 49.979 33.2057C49.9527 33.1912 49.9271 33.1755 49.9011 33.1607C49.8958 33.157 49.8902 33.1534 49.8849 33.1497C49.8326 33.1126 49.784 33.0718 49.7377 33.0275C49.6296 32.9245 49.4231 32.9217 49.3072 33.013C49.1843 33.1096 49.1256 33.2743 49.1834 33.4246C49.2719 33.6542 49.4049 33.8459 49.5817 34.0158C49.7702 34.1967 50.0195 34.2992 50.2666 34.3707C50.5284 34.4465 50.7997 34.4469 51.0603 34.3674C51.259 34.3068 51.4048 34.1741 51.4956 33.9888C51.5881 33.7998 51.5302 33.5597 51.3721 33.4258Z" fill="#EF7B60"/>
<path d="M50.7354 35.8417C50.7001 35.8535 50.6671 35.8714 50.6321 35.8846C50.6231 35.888 50.6139 35.8908 50.6047 35.8938C50.6102 35.894 50.6144 35.8929 50.6208 35.894C50.6139 35.8931 50.6054 35.8954 50.5978 35.8963C50.5915 35.8984 50.5851 35.9005 50.5789 35.9025C50.5554 35.9104 50.5501 35.9067 50.5556 35.9021C50.5438 35.9048 50.5316 35.9081 50.5215 35.9092C50.4777 35.9138 50.4339 35.9157 50.3901 35.9166C50.3565 35.9173 50.3226 35.9175 50.2887 35.9182C50.273 35.9171 50.2551 35.9171 50.2488 35.9166C50.1656 35.9099 50.0829 35.8989 50.0006 35.885C49.9248 35.8721 49.8513 35.853 49.7766 35.8355C49.7335 35.8198 49.6844 35.8048 49.6536 35.7968C49.637 35.7924 49.6199 35.7894 49.6031 35.7852L49.6026 35.785C49.5941 35.7825 49.5784 35.7781 49.571 35.7753C49.5515 35.7677 49.5321 35.7597 49.513 35.7507C49.4998 35.7444 49.4872 35.7375 49.4743 35.7311C49.4634 35.7209 49.4503 35.7122 49.4385 35.7034C49.4323 35.6988 49.4289 35.6967 49.4249 35.6942C49.4012 35.6707 49.3802 35.632 49.3662 35.6073C49.3021 35.4951 49.1219 35.4499 49.0071 35.4995C48.8833 35.5529 48.7958 35.6774 48.8103 35.8159C48.8485 36.1777 49.121 36.5128 49.4537 36.6543C49.7842 36.7949 50.1783 36.8924 50.5392 36.8677C50.7457 36.8537 50.9815 36.8007 51.1555 36.6813C51.3276 36.5633 51.4078 36.3586 51.3613 36.1577C51.297 35.8793 50.9923 35.7562 50.7354 35.8417Z" fill="white"/>
<path d="M50.605 35.8937C50.5789 35.8928 50.5612 35.8971 50.5557 35.9017C50.5704 35.8983 50.5838 35.8974 50.5978 35.896C50.6001 35.8953 50.6027 35.8944 50.605 35.8937Z" fill="white"/>
<path d="M40.5383 23.0271C40.4666 22.8455 40.3472 22.7588 40.1827 22.6675C40.0661 22.603 39.9481 22.541 39.8275 22.4843C39.5699 22.3636 39.3002 22.2539 39.0182 22.2062C38.7185 22.1555 38.4259 22.1527 38.1274 22.2133C37.9808 22.243 37.8396 22.2974 37.7197 22.3878C37.5946 22.4822 37.457 22.7314 37.6211 22.8634C37.8432 23.042 38.0896 22.9289 38.3406 22.8964C38.5584 22.868 38.7557 22.8932 38.9571 22.9446C39.1633 22.9973 39.3537 23.0706 39.5399 23.1623C39.6383 23.211 39.7354 23.2628 39.8312 23.3163C39.9965 23.4085 40.1149 23.4585 40.3087 23.432C40.4726 23.4094 40.5973 23.1764 40.5383 23.0271Z" fill="#2A9D8F"/>
<path d="M41.2817 23.9626C41.2831 23.9421 41.2819 23.9218 41.2773 23.9013C41.2773 23.8755 41.2706 23.8513 41.2577 23.829C41.2531 23.8163 41.2478 23.8038 41.2418 23.7916C41.2363 23.7815 41.2303 23.7716 41.2241 23.7621C41.1999 23.725 41.169 23.6914 41.1416 23.6561L41.1874 23.7153C41.1651 23.6863 41.1448 23.6557 41.1174 23.6312C41.1061 23.6213 41.095 23.6112 41.0839 23.6013C41.054 23.5743 41.0319 23.5582 40.9991 23.5425C40.9842 23.5354 40.9696 23.5291 40.9542 23.5227C40.9371 23.5139 40.9178 23.5139 40.8993 23.5105H40.9122C40.9088 23.5093 40.9056 23.5082 40.9021 23.507C40.8869 23.5029 40.8717 23.5019 40.8567 23.501C40.8562 23.501 40.856 23.5008 40.8556 23.5008C40.8295 23.4989 40.8035 23.5001 40.7774 23.507C40.747 23.5144 40.7203 23.5282 40.6977 23.549C40.6604 23.5778 40.6389 23.6149 40.6242 23.6554C40.6085 23.6921 40.5974 23.7312 40.6016 23.7707C40.602 23.7755 40.6025 23.7801 40.6032 23.7849C40.6064 23.8119 40.6076 23.8442 40.6152 23.8704C40.6244 23.9018 40.641 23.9324 40.6551 23.9624C40.6604 23.9739 40.6652 23.9859 40.6714 23.997C40.688 24.0262 40.7129 24.0523 40.7336 24.0788C40.7415 24.0889 40.7493 24.0991 40.7574 24.109C40.7648 24.118 40.7733 24.1258 40.782 24.1334C40.8021 24.1512 40.8274 24.174 40.8507 24.1873C40.8735 24.197 40.8963 24.2065 40.9192 24.2161C40.9261 24.2184 40.933 24.2168 40.9399 24.2182C40.9533 24.224 40.9669 24.2288 40.9814 24.2309C41.0243 24.2424 41.0671 24.2424 41.11 24.2309C41.1413 24.2233 41.1688 24.209 41.1923 24.1876C41.2185 24.1705 41.2393 24.1479 41.2545 24.1198C41.2764 24.0822 41.2872 24.0415 41.2874 23.9979C41.2872 23.9859 41.2833 23.9744 41.2817 23.9626Z" fill="#2A9D8F"/>
<path d="M62.3691 28.5696C62.3576 28.3781 62.3322 28.1836 62.2795 27.9988C62.1804 27.6526 62.0283 27.2703 61.6491 27.1624C61.4346 27.1013 61.2078 27.3604 61.3445 27.5588C61.3763 27.6049 61.3993 27.6558 61.4242 27.7061C61.4291 27.7195 61.4339 27.7331 61.438 27.7466C61.447 27.7708 61.4574 27.7946 61.4664 27.8188C61.5159 27.9499 61.5482 28.0889 61.5713 28.2267C61.5766 28.2583 61.5805 28.2901 61.5855 28.3217C61.5872 28.3327 61.5885 28.3408 61.5892 28.3459C61.5904 28.3569 61.592 28.368 61.5929 28.3788C61.6003 28.4526 61.6049 28.5268 61.6058 28.601C61.6084 28.7731 61.5805 28.9388 61.6219 29.1091C61.6934 29.403 62.134 29.4666 62.2776 29.1949C62.3806 29.0013 62.382 28.784 62.3691 28.5696Z" fill="#2A9D8F"/>
<path d="M62.1498 29.8295C62.0935 29.7862 62.0175 29.7811 61.955 29.8159C61.9165 29.8373 61.8799 29.8652 61.8495 29.8968C61.8018 29.9459 61.7785 30.0051 61.7536 30.0676C61.7275 30.1325 61.7204 30.2017 61.7128 30.2711C61.7068 30.3105 61.6955 30.3487 61.6824 30.3863C61.6771 30.396 61.6722 30.4056 61.6662 30.4146C61.6635 30.4179 61.6607 30.4213 61.6579 30.4245C61.6437 30.443 61.6335 30.4614 61.6248 30.4808L61.6243 30.4815C61.6236 30.4826 61.6236 30.484 61.6229 30.4852C61.616 30.5008 61.6095 30.5167 61.6031 30.534C61.6075 30.5239 61.6119 30.5135 61.616 30.5034C61.5794 30.5866 61.5872 30.6822 61.6434 30.755C61.701 30.8297 61.8084 30.8739 61.9022 30.8433C61.9071 30.8417 61.9117 30.8401 61.9168 30.8391C61.9195 30.8387 61.9223 30.8387 61.9248 30.838C61.9707 30.8276 61.9873 30.8117 62.0195 30.7866C62.0534 30.7606 62.0781 30.7285 62.102 30.693C62.1265 30.6566 62.1428 30.6131 62.1585 30.5727C62.1855 30.5034 62.1942 30.4259 62.2002 30.3526C62.2051 30.2946 62.2092 30.233 62.2053 30.1749C62.2021 30.1256 62.2048 30.074 62.2099 30.0242C62.2106 30.021 62.2111 30.0175 62.212 30.0143C62.2318 29.9459 62.2046 29.8719 62.1498 29.8295Z" fill="#2A9D8F"/>
<path d="M57.4825 33.593C57.4765 33.321 57.3087 33.0426 56.9913 32.8562C55.8494 32.1855 54.1649 32.9574 55.4134 34.0253C56.0301 34.5526 57.0335 34.5224 57.3788 33.9679C57.4511 33.8516 57.4852 33.7232 57.4825 33.593Z" fill="#ED6D65"/>
<path d="M45.4516 30.9036C45.4456 30.6317 45.2778 30.3533 44.9605 30.1668C43.8185 29.496 42.1341 30.268 43.3825 31.3358C43.9992 31.8631 45.0026 31.8329 45.3479 31.2784C45.4202 31.1622 45.4543 31.0336 45.4516 30.9036Z" fill="#ED6D65"/>
<path d="M60.9135 25.5357C60.7616 25.3714 60.5448 25.3156 60.341 25.237C60.1322 25.1563 59.9232 25.0764 59.7153 24.9936C59.333 24.8415 58.9541 24.6791 58.5844 24.4979C57.8089 24.1179 57.068 23.6567 56.4354 23.0651C55.8025 22.4733 55.3077 21.778 54.915 21.0078C54.5112 20.2159 54.3137 19.3228 54.2026 18.4455C54.1823 18.2862 54.0339 18.2346 53.9302 18.2894C53.9014 18.2279 53.8638 18.1645 53.8161 18.0931C53.7894 18.0528 53.7336 18.0518 53.7069 18.0931C53.6516 18.1786 53.5691 18.2339 53.5131 18.3189C53.4561 18.4051 53.4188 18.51 53.3746 18.6033C53.2649 18.8347 53.1446 19.0541 52.9975 19.2641C52.7491 19.619 52.4658 19.9495 52.1702 20.2652C51.5779 20.8978 50.9222 21.4804 50.2124 21.978C48.7925 22.9732 47.1852 23.6454 45.489 23.9957C44.513 24.1974 43.5255 24.1886 42.5442 24.3198C42.3397 24.347 42.2579 24.6445 42.4918 24.7069C43.3913 24.9471 44.3648 24.8489 45.2765 24.7139C46.2115 24.5753 47.1235 24.3195 47.9992 23.9648C49.7429 23.2589 51.3679 22.1898 52.6221 20.7794C52.9662 20.3922 53.2957 19.982 53.5845 19.5517C53.662 19.4362 53.7387 19.3159 53.8048 19.1903C53.8604 20.8199 54.6442 22.444 55.803 23.5641C56.4731 24.2119 57.2613 24.7334 58.0919 25.1522C58.5215 25.3686 58.9635 25.5608 59.4139 25.7297C59.8195 25.8818 60.3403 26.1466 60.7754 26.06C61.0181 26.0118 61.0628 25.6972 60.9135 25.5357Z" fill="#1E3A46"/>
<path d="M58.1662 8.44134C58.0065 7.98594 57.2962 7.88316 56.8795 7.74787C56.3843 7.58724 55.8832 7.44389 55.3781 7.31806C54.3428 7.05994 53.3053 6.91705 52.2465 6.80159C50.162 6.57458 48.0452 6.62644 45.9788 6.9885C45.4156 7.08714 44.8565 7.2132 44.3034 7.35816C43.7438 7.50474 43.1506 7.63518 42.6175 7.86034C42.4813 7.91796 42.5272 8.13621 42.6576 8.16778C43.1395 8.28462 43.6387 8.13805 44.1112 8.03365C44.6037 7.92464 45.0959 7.81955 45.594 7.73704C46.6071 7.56904 47.6326 7.46141 48.6587 7.41785C50.7056 7.33097 52.7084 7.54898 54.7028 8.00507C55.2612 8.13275 55.8146 8.2814 56.3617 8.45102C56.6269 8.5333 56.8908 8.62041 57.1526 8.71259C57.4458 8.81561 57.7168 8.97878 58.015 8.81216C58.1346 8.74555 58.2132 8.57524 58.1662 8.44134Z" fill="#1E3A46"/>
<path d="M45.7797 2.63326C45.2077 3.08243 44.8457 3.79042 44.5933 4.45853C44.4649 4.79846 44.3757 5.15338 44.3204 5.51244C44.2679 5.85376 44.2395 6.23886 44.4366 6.54054C44.4629 6.58087 44.5198 6.58179 44.5458 6.54054C44.7194 6.26467 44.7482 5.9282 44.8 5.61246C44.8558 5.27414 44.9445 4.9425 45.0552 4.61824C45.2796 3.96096 45.6631 3.40485 46.0067 2.80887C46.0945 2.65653 45.9026 2.53692 45.7797 2.63326Z" fill="#1E3A46"/>
<path d="M48.6575 1.00235C48.3286 0.738241 47.9214 1.36326 47.7829 1.60225C47.4967 2.0959 47.2992 2.6557 47.109 3.19176C46.9069 3.76239 46.7343 4.34638 46.6396 4.94512C46.5513 5.50238 46.4916 6.07117 46.7477 6.59363C46.7716 6.64272 46.8373 6.62198 46.8534 6.5798C47.0325 6.11311 47.0558 5.62177 47.1339 5.13318C47.2109 4.6522 47.3206 4.17492 47.4566 3.7073C47.5916 3.24269 47.7506 2.78407 47.9281 2.33397C48.0076 2.13209 48.0943 1.93366 48.2026 1.7456C48.2664 1.63474 48.3358 1.52758 48.413 1.42548C48.4517 1.37432 48.5259 1.24227 48.59 1.20101C48.6259 1.19433 48.6476 1.1752 48.6746 1.13648C48.7004 1.10053 48.6932 1.03093 48.6575 1.00235Z" fill="#1E3A46"/>
<path d="M50.2398 2.81463C50.2168 2.61205 50.2099 2.25898 50.0101 2.14375C49.9787 2.12577 49.9441 2.13361 49.9181 2.1555C49.7515 2.29608 49.7893 2.61735 49.7798 2.8144C49.7674 3.07182 49.7565 3.32902 49.7395 3.58622C49.7224 3.84295 49.701 4.10038 49.6745 4.35643C49.6496 4.5968 49.5666 4.90654 49.7395 5.1059C49.7983 5.17365 49.9186 5.18494 49.9928 5.13862C50.2306 4.99043 50.2274 4.6051 50.2504 4.35643C50.2742 4.09969 50.2859 3.84411 50.2848 3.58622C50.2829 3.32856 50.2689 3.0709 50.2398 2.81463Z" fill="#1E3A46"/>
<path d="M52.1681 3.5188C51.9149 2.49093 51.4083 1.53888 50.772 0.701378C50.722 0.635466 50.5968 0.668883 50.6266 0.762681C50.9156 1.67532 51.332 2.55269 51.536 3.49206C51.6337 3.94193 51.6853 4.39456 51.6729 4.85502C51.66 5.32978 51.6054 5.78633 51.6254 6.26131C51.6282 6.32792 51.7061 6.36041 51.7552 6.31501C52.4977 5.62892 52.3912 4.42383 52.1681 3.5188Z" fill="#1E3A46"/>
<path d="M53.6077 3.85052C53.5526 3.65325 53.4777 3.46219 53.3756 3.28451C53.2857 3.12779 53.1571 2.94019 52.9744 2.88811C52.9345 2.87681 52.9057 2.9077 52.9011 2.94388C52.8806 3.10958 52.9548 3.28566 53.0009 3.44237C53.0511 3.61361 53.0947 3.79129 53.1207 3.96714C53.1456 4.13699 53.1599 4.30938 53.1592 4.48591C53.1585 4.67443 53.1343 4.90812 53.2839 5.04663C53.3376 5.09618 53.4049 5.10079 53.4687 5.0706C53.6754 4.97242 53.6966 4.68849 53.6937 4.48614C53.6907 4.27481 53.6646 4.05425 53.6077 3.85052Z" fill="#1E3A46"/>
<path d="M56.1535 5.59181C56.0966 5.10945 55.9221 4.61764 55.7253 4.17584C55.5248 3.72597 55.2743 3.29616 54.9789 2.9023C54.7104 2.54462 54.3723 2.11296 53.9316 1.97514C53.8876 1.96131 53.8378 2.00764 53.8537 2.05304C53.9826 2.41832 54.2656 2.71447 54.4751 3.03804C54.7002 3.38535 54.9067 3.74211 55.0724 4.12191C55.2315 4.4865 55.3614 4.86861 55.4575 5.25464C55.4997 5.42426 55.5456 5.59849 55.5555 5.77318C55.5608 5.86629 55.6046 6.15345 55.547 6.2325C55.5225 6.26614 55.5479 6.31915 55.5859 6.32814C55.7797 6.37377 55.9201 6.35026 56.045 6.1788C56.1674 6.01102 56.177 5.79116 56.1535 5.59181Z" fill="#1E3A46"/>
<path d="M52.7313 15.3406C52.6998 15.2993 52.6505 15.2991 52.6189 15.3406C52.4062 15.6204 52.3474 16.0039 52.2536 16.3337C52.1531 16.687 52.0243 17.0287 51.8526 17.3537C51.4866 18.0455 50.9784 18.6521 50.4018 19.178C49.1797 20.2926 47.6266 21.0681 46.0378 21.502C45.1076 21.756 44.1521 21.9003 43.2019 22.0538C43.1051 22.0694 43.1053 22.2333 43.2019 22.2492C44.9813 22.5389 46.8522 22.0247 48.4468 21.2407C49.9775 20.4878 51.441 19.3721 52.3011 17.872C52.5299 17.4726 52.7293 17.0338 52.8337 16.5842C52.9249 16.191 52.9952 15.6854 52.7313 15.3406Z" fill="#1E3A46"/>
<path d="M50.7384 14.0787C50.3042 14.5941 50.0087 15.2193 49.6437 15.7828C49.2602 16.3749 48.8304 16.9261 48.3402 17.4338C47.3543 18.4543 46.1471 19.2695 44.8341 19.8083C44.4698 19.9579 44.101 20.089 43.7231 20.2003C43.3997 20.2957 42.9363 20.34 42.6752 20.5589C42.6219 20.6036 42.6337 20.7117 42.6987 20.7408C42.9886 20.8705 43.3875 20.7633 43.6904 20.7136C44.0487 20.6548 44.403 20.5532 44.7484 20.4421C45.4635 20.2118 46.157 19.8827 46.7938 19.4854C48.0558 18.6979 49.1482 17.6521 49.9705 16.4115C50.4109 15.7473 50.8513 14.9405 50.8403 14.1209C50.8398 14.0728 50.7732 14.0375 50.7384 14.0787Z" fill="#1E3A46"/>
<path d="M48.2721 15.238C48.0714 15.5888 47.7704 15.8617 47.4489 16.1025C47.1092 16.3569 46.7822 16.627 46.4494 16.8904C45.7525 17.4415 45.0189 17.9529 44.2883 18.4583C44.1084 18.5827 44.2625 18.8492 44.4598 18.7519C45.3123 18.3322 46.0922 17.8148 46.8428 17.2336C47.4932 16.7296 48.2002 16.1272 48.3645 15.2772C48.3752 15.223 48.3023 15.1857 48.2721 15.238Z" fill="#1E3A46"/>
<path d="M58.3006 22.3661C58.0918 22.5042 57.7908 22.0949 57.6836 21.9716C57.4716 21.728 57.2614 21.4802 57.065 21.2235C56.6763 20.7153 56.3306 20.1689 56.028 19.6057C55.7295 19.0502 55.4767 18.4708 55.2651 17.8772C55.1573 17.5746 55.0573 17.2706 54.9683 16.9618C54.8867 16.6783 54.8427 16.3891 54.6519 16.1579C54.6037 16.0996 54.5235 16.1418 54.5007 16.1978C54.37 16.5179 54.471 16.9014 54.5311 17.2316C54.6 17.6108 54.691 17.9848 54.8072 18.3519C55.0379 19.0813 55.3509 19.7833 55.7284 20.4489C56.1026 21.109 56.5596 21.7506 57.0782 22.3053C57.2888 22.5307 57.5377 22.8241 57.8687 22.8469C58.1722 22.8679 58.3483 22.7388 58.4149 22.4537C58.4294 22.3917 58.36 22.327 58.3006 22.3661Z" fill="#1E3A46"/>
<path d="M58.101 19.9928C57.8676 19.6897 57.6479 19.3797 57.4373 19.0603C57.2335 18.7515 57.0416 18.4318 56.8648 18.1069C56.6791 17.7656 56.4329 17.3588 56.4119 16.9638C56.4078 16.8856 56.279 16.8568 56.2663 16.9442C56.208 17.3482 56.2038 17.7107 56.343 18.1004C56.4869 18.5023 56.682 18.8877 56.8927 19.258C57.0985 19.6206 57.3356 19.9651 57.5882 20.2965C57.7973 20.5705 58.1188 21.0179 58.4999 21.0321C58.5661 21.0347 58.6173 20.9755 58.6193 20.9128C58.6304 20.5774 58.2914 20.2398 58.101 19.9928Z" fill="#1E3A46"/>
<path d="M40.9164 12.2772C40.4513 12.4018 40.0807 12.6655 39.6961 12.9485C39.3126 13.2308 38.9397 13.5304 38.5901 13.854C37.8766 14.5143 37.2341 15.2513 36.6634 16.0379C35.4549 17.7041 34.5704 19.5782 33.9055 21.5213C33.1636 23.6899 32.7096 25.9448 32.354 28.2054C32.1728 29.3566 32.0597 30.5262 31.7753 31.6582C31.4999 32.7555 31.0049 33.7598 30.4176 34.7215C29.7546 35.807 29.0194 36.8517 28.2508 37.8646C27.9964 38.1999 27.7309 38.5309 27.4672 38.8639C27.1722 39.0676 26.9259 39.3907 26.7196 39.6459C26.3921 40.0508 26.102 40.476 25.8618 40.9385C25.6286 41.3872 25.4341 41.859 25.2854 42.3423C25.2034 42.6094 25.1306 42.8848 25.0944 43.1625C25.0566 43.4522 25.0504 43.7377 24.9847 44.0237C24.9743 44.0687 25.0289 44.1035 25.0633 44.0694C25.444 43.6935 25.6362 43.2561 25.7738 42.7472C25.9091 42.2471 26.0759 41.7608 26.3029 41.2944C26.4138 41.0662 26.5352 40.841 26.6652 40.6212C27.334 40.057 27.9014 39.3728 28.4449 38.6899C29.1508 37.8028 29.8117 36.8766 30.4395 35.9329C31.0387 35.0322 31.5939 34.1037 32.0032 33.0995C32.4372 32.0343 32.6234 30.9048 32.7803 29.7716C33.3844 25.4131 34.1313 20.9682 36.5164 17.1803C37.102 16.2501 37.7736 15.3702 38.5336 14.5756C38.9132 14.1787 39.3131 13.7989 39.7334 13.4456C40.1527 13.0932 40.6191 12.8054 40.9869 12.3981C41.0342 12.3456 40.9885 12.2578 40.9164 12.2772Z" fill="#1E3A46"/>
<path d="M34.1957 33.9867C34.1668 33.8968 34.0334 33.8908 34.0074 33.9867C33.8868 34.428 33.8283 34.8802 33.6651 35.3105C33.5068 35.7283 33.2865 36.1238 33.041 36.4962C32.502 37.3146 31.8212 38.0299 31.1768 38.7642C30.4787 39.5595 29.7629 40.344 29.0957 41.1658C28.8176 41.5085 28.5371 41.8625 28.3317 42.2548C28.1139 42.6705 28.0775 43.0909 28.0792 43.5525C28.0794 43.6134 28.1718 43.6459 28.2004 43.5855C28.3974 43.1676 28.7081 42.7908 28.9581 42.3997C29.2229 41.9861 29.5246 41.6046 29.8438 41.2315C30.552 40.4039 31.2658 39.5812 31.9726 38.7524C32.5743 38.047 33.1777 37.3233 33.6356 36.5135C34.0431 35.7944 34.4616 34.8189 34.1957 33.9867Z" fill="#1E3A46"/>
<path d="M37.828 35.12C37.8163 35.0086 37.6697 34.9494 37.6056 35.0598C37.256 35.6609 36.9491 36.2582 36.4729 36.7779C35.9786 37.3177 35.4139 37.786 34.8908 38.2964C34.3047 38.8682 33.7564 39.5142 33.3156 40.2054C33.1114 40.5253 32.9222 40.8829 32.8424 41.2572C32.7627 41.6312 32.839 41.9426 33.0183 42.2708C33.0482 42.3254 33.1446 42.3173 33.157 42.2526C33.2264 41.8951 33.3799 41.5149 33.5225 41.18C33.6696 40.8343 33.8749 40.5103 34.0929 40.2056C34.5628 39.5495 35.1113 38.9565 35.6889 38.3944C36.1779 37.9187 36.6854 37.4557 37.1078 36.9176C37.3173 36.6507 37.5123 36.37 37.6529 36.0603C37.8009 35.7348 37.8649 35.4716 37.828 35.12Z" fill="#1E3A46"/>
<path d="M39.9744 37.4916C39.926 37.3201 39.7218 37.2593 39.5577 37.2685C39.3636 37.2798 39.18 37.3846 39.0265 37.4959C38.6806 37.7469 38.3922 38.0866 38.1102 38.4047C37.5345 39.0543 37.0207 39.745 36.7769 40.5881C36.7582 40.6528 36.8391 40.6939 36.8857 40.6514C37.1844 40.3795 37.4566 40.0877 37.723 39.7835C37.9859 39.4832 38.2284 39.1652 38.49 38.8637C38.7451 38.5697 39.0073 38.274 39.2966 38.0129C39.4279 37.8942 39.5757 37.8191 39.7301 37.7361C39.8105 37.6928 40.0096 37.6167 39.9744 37.4916Z" fill="#1E3A46"/>
<path d="M55.714 42.4768C55.7009 42.3323 55.6785 42.1882 55.6486 42.0463C55.6133 41.8801 55.5433 41.7285 55.4974 41.5657C55.472 41.4763 55.3328 41.4927 55.334 41.5879C55.3372 41.8806 55.2833 42.1829 55.2655 42.4768C55.2485 42.7623 55.2275 43.049 55.1886 43.3327C55.1496 43.616 55.0941 43.8971 55.0457 44.179C54.9941 44.4781 54.9943 44.7782 54.9533 45.078C54.9438 45.1478 55.0256 45.1886 55.069 45.1269C55.2522 44.8646 55.425 44.6192 55.5278 44.312C55.6264 44.017 55.6742 43.7081 55.7043 43.3995C55.7343 43.0926 55.7419 42.7842 55.714 42.4768Z" fill="#1E3A46"/>
<path d="M58.6132 40.362C58.6026 40.0603 58.5766 39.7609 58.5402 39.4613C58.5093 39.2076 58.4819 38.9319 58.3231 38.7231C58.2821 38.669 58.1804 38.6443 58.1452 38.7231C58.0477 38.94 58.0541 39.1739 58.0557 39.4085C58.0576 39.6911 58.0576 39.9734 58.053 40.256C58.0438 40.8208 58.0108 41.3885 57.9474 41.9499C57.8223 43.0605 57.5248 44.1367 57.4236 45.251C57.416 45.3338 57.5294 45.3487 57.5685 45.2902C58.2164 44.3211 58.4259 43.1985 58.5473 42.0552C58.607 41.4922 58.6331 40.9282 58.6132 40.362Z" fill="#1E3A46"/>
<path d="M60.428 38.1168C59.8758 38.5125 59.7445 39.3631 59.6338 39.9872C59.4884 40.8077 59.4248 41.6369 59.334 42.4642C59.2517 43.213 59.1462 43.9616 58.9482 44.6896C58.8537 45.0369 58.732 45.3743 58.6085 45.7122C58.4817 46.0588 58.4018 46.4093 58.2958 46.7594C58.2741 46.8306 58.3612 46.8663 58.4105 46.8262C58.6901 46.5999 58.9104 46.3902 59.0936 46.074C59.2695 45.7705 59.3895 45.4294 59.4912 45.0947C59.702 44.402 59.8235 43.685 59.9081 42.9669C60.095 41.3781 60.1019 39.7452 60.5315 38.1965C60.5469 38.1412 60.4796 38.0797 60.428 38.1168Z" fill="#1E3A46"/>
<path d="M48.3761 9.1267C48.0793 9.21059 47.7416 9.2099 47.4347 9.23479C47.1376 9.25899 46.8426 9.30094 46.549 9.35348C45.953 9.46019 45.3658 9.60676 44.7933 9.80427C44.2471 9.99279 43.7152 10.235 43.2063 10.5083C42.6903 10.7856 42.1232 11.1124 41.7397 11.565C41.6503 11.6703 41.7325 11.8936 41.8927 11.828C42.4145 11.6139 42.8957 11.2917 43.399 11.0372C43.9466 10.7605 44.5163 10.5365 45.0991 10.3463C45.6608 10.1633 46.2328 10.0354 46.8138 9.93171C47.0963 9.88124 47.3658 9.81694 47.6335 9.71369C47.9341 9.598 48.1648 9.42032 48.4204 9.23203C48.4706 9.19584 48.4436 9.10758 48.3761 9.1267Z" fill="#1E3A46"/>
<path d="M63.6436 20.8776C63.5364 19.6287 63.3366 18.3822 62.9932 17.1754C62.3758 15.0061 61.256 12.8457 59.5681 11.3164C58.7508 10.5757 57.6034 9.78494 56.4441 9.86952C56.3068 9.87966 56.286 10.056 56.4123 10.1039C56.9039 10.291 57.3902 10.4482 57.8518 10.7063C58.2853 10.9485 58.6845 11.2382 59.0507 11.5738C59.8342 12.2917 60.4676 13.1642 60.9921 14.0852C62.1308 16.0849 62.7196 18.3769 62.9386 20.6559C63.0043 21.3408 63.0298 22.0267 63.055 22.7142C63.0782 23.3535 63.0534 24.0442 63.3133 24.6425C63.3329 24.6874 63.4046 24.6826 63.4258 24.6425C63.7148 24.0956 63.7247 23.4298 63.7298 22.8257C63.7348 22.1758 63.6991 21.5248 63.6436 20.8776Z" fill="#1E3A46"/>
<path d="M58.1998 37.2018C57.5199 37.573 56.7098 37.6933 55.9431 37.6756C55.1051 37.656 54.3264 37.3988 53.5066 37.2739C53.2404 37.2333 53.0906 37.5495 53.322 37.7116C54.0892 38.2497 55.1542 38.4186 56.0728 38.4285C56.5358 38.4336 57.0037 38.3859 57.4549 38.2815C57.8409 38.1921 58.4828 38.0704 58.6847 37.6867C58.8494 37.373 58.5169 37.0285 58.1998 37.2018Z" fill="#439DB6"/>
<path d="M53.7194 37.4648C53.7613 37.335 53.8046 37.1651 53.7157 37.0448C53.6966 37.0188 53.6742 36.9978 53.6502 36.9796C53.6406 36.9545 53.6318 36.9289 53.6201 36.9047C53.4643 36.5823 53.1116 36.391 52.7696 36.3362C52.5572 36.3021 52.3223 36.2705 52.128 36.3853C51.9298 36.5021 51.8667 36.7475 51.7996 36.9515C51.774 37.0294 51.751 37.108 51.7293 37.187C51.6989 37.2974 51.6607 37.4159 51.656 37.5309C51.6505 37.6752 51.7021 37.8155 51.8088 37.9148C51.8837 37.9849 51.9741 38.025 52.0649 38.0693C52.2481 38.1587 52.4292 38.2548 52.6166 38.3347C52.7286 38.3827 52.8418 38.4343 52.9671 38.4267C53.0815 38.42 53.1902 38.403 53.2907 38.3451C53.5067 38.2209 53.5585 37.9623 53.6293 37.7436C53.632 37.7353 53.6346 37.727 53.6373 37.7187C53.6735 37.6496 53.6956 37.5747 53.7088 37.4975C53.7122 37.4869 53.7157 37.4758 53.7194 37.4648Z" fill="#439DB6"/>
<path d="M48.4319 50.0142C48.3424 49.9685 48.2498 49.9471 48.1571 49.9455C48.1369 49.9374 48.1175 49.9273 48.0965 49.921C47.9027 49.8641 47.7045 49.9008 47.5254 49.9837C47.3812 50.0506 47.2496 50.1773 47.1728 50.3161C47.0737 50.4951 47.0491 50.703 47.0996 50.9012C47.1931 51.2674 47.5602 51.5562 47.9405 51.5428C48.3235 51.5292 48.6665 51.2706 48.769 50.8982C48.8557 50.5836 48.7372 50.1699 48.4319 50.0142Z" fill="#439DB6"/>
<path d="M48.2193 55.8882C48.1299 55.8425 48.0373 55.8211 47.9444 55.8195C47.9241 55.8114 47.905 55.8013 47.8838 55.7951C47.6899 55.7381 47.4917 55.7748 47.3127 55.8578C47.1684 55.9246 47.0368 56.0513 46.9601 56.1901C46.861 56.3692 46.8363 56.577 46.8868 56.7752C46.9804 57.1414 47.3475 57.4302 47.7277 57.4168C48.1108 57.4032 48.4537 57.1447 48.5563 56.7722C48.6431 56.4579 48.5247 56.044 48.2193 55.8882Z" fill="#439DB6"/>
<path d="M80.9885 59.8715C80.8201 59.4723 80.3236 59.1679 79.8835 59.3292C79.8457 59.3442 79.8072 59.3569 79.768 59.3679C79.6855 59.3762 79.603 59.385 79.5205 59.3933C79.3403 59.4117 79.1603 59.4304 78.98 59.4488C78.5392 59.4942 78.0992 59.5597 77.6611 59.6265C77.279 59.6846 76.9003 59.7761 76.5219 59.8538C76.1331 59.9335 75.7199 60.0393 75.3899 60.2656C75.1108 60.4569 75.0073 60.9833 75.3899 61.1478C75.8169 61.3315 76.2654 61.3746 76.7284 61.3797C77.1326 61.384 77.5406 61.4036 77.9443 61.3836C78.3504 61.3633 78.7553 61.3435 79.1603 61.3073C79.6177 61.2663 80.2144 61.3059 80.6053 61.0411C80.9945 60.7777 81.1773 60.3186 80.9885 59.8715Z" fill="white"/>
<path d="M82.8414 53.1411C82.4503 52.9219 82.0429 52.7277 81.6449 52.5214C81.1911 52.2861 80.7417 52.036 80.2766 51.824C79.7894 51.6021 79.305 51.3758 78.8014 51.1928C78.3686 51.0356 77.4414 50.8245 77.3829 51.5205C77.3375 52.0619 78.0224 52.473 78.3972 52.7376C78.8002 53.0222 79.2261 53.2877 79.6566 53.5292C80.0888 53.7719 80.5255 54.0072 80.9597 54.2462C81.4821 54.5336 82 54.927 82.6271 54.7816C83.38 54.6066 83.5008 53.5105 82.8414 53.1411Z" fill="white"/>
<path d="M87.5987 49.943C87.5961 49.9344 87.595 49.931 87.5929 49.9243C87.583 49.8284 87.5701 49.7332 87.5493 49.6392C87.4991 49.4728 87.4023 49.3179 87.3214 49.1649C87.2179 48.9686 87.1158 48.7715 87.0156 48.5735C86.7936 48.1359 86.5726 47.6973 86.3541 47.258C86.1433 46.8345 85.914 46.4212 85.6955 46.0016C85.4604 45.5503 85.2071 45.0659 84.7902 44.7617C84.5234 44.5669 84.0862 44.7667 84.0198 45.0751C83.9082 45.593 84.0818 46.1705 84.2415 46.6655C84.4063 47.1765 84.5853 47.675 84.7946 48.1695C84.9868 48.6238 85.191 49.07 85.4116 49.5111C85.5249 49.7378 85.6406 49.9637 85.7584 50.1886C85.8398 50.344 85.9262 50.4887 86.0569 50.6099C86.2574 50.7699 86.2991 50.8005 86.1818 50.7016C86.2486 50.7655 86.3223 50.8192 86.403 50.8623C87.0015 51.2061 87.813 50.6334 87.5987 49.943Z" fill="white"/>
<path d="M93.8964 46.762C93.6252 46.7002 93.4048 46.8127 93.2435 47.0277C92.9222 47.4557 92.7268 47.9841 92.5198 48.4745C92.4106 48.7331 92.3233 49.0025 92.2276 49.2666C92.1193 49.566 91.9859 49.8546 91.9951 50.1795C92.0004 50.3689 92.0739 50.5847 92.2175 50.7163C92.3758 50.8617 92.5427 50.9124 92.7542 50.9387C92.7625 50.9398 92.7711 50.9407 92.7796 50.9417C93.0764 50.9785 93.3726 50.7319 93.4859 50.4406C93.5143 50.3906 93.5413 50.3385 93.5648 50.28C93.5869 50.2247 93.6069 50.1689 93.6263 50.1127C93.671 49.9818 93.713 49.8499 93.7563 49.7186C93.8365 49.475 93.9252 49.2325 93.9976 48.9866C94.1545 48.4536 94.3101 47.876 94.3209 47.3192C94.3258 47.0759 94.1389 46.8173 93.8964 46.762Z" fill="white"/>
</svg>
