<svg width="24" height="24" viewBox="0 0 24 24" fill="none" xmlns="http://www.w3.org/2000/svg">
<path d="M7.5 6C7.69891 6 7.88968 6.07902 8.03033 6.21967C8.17098 6.36032 8.25 6.55109 8.25 6.75V22.5C8.25 22.6989 8.17098 22.8897 8.03033 23.0303C7.88968 23.171 7.69891 23.25 7.5 23.25C7.30109 23.25 7.11032 23.171 6.96967 23.0303C6.82902 22.8897 6.75 22.6989 6.75 22.5V6.75C6.75 6.55109 6.82902 6.36032 6.96967 6.21967C7.11032 6.07902 7.30109 6 7.5 6ZM1.5 8.625C1.5 8.42609 1.42098 8.23532 1.28033 8.09467C1.13968 7.95402 0.948912 7.875 0.75 7.875C0.551088 7.875 0.360322 7.95402 0.21967 8.09467C0.0790176 8.23532 0 8.42609 0 8.625L0 20.625C0 20.8239 0.0790176 21.0147 0.21967 21.1553C0.360322 21.296 0.551088 21.375 0.75 21.375C0.948912 21.375 1.13968 21.296 1.28033 21.1553C1.42098 21.0147 1.5 20.8239 1.5 20.625V8.625ZM4.875 10.125C4.875 9.92609 4.79598 9.73532 4.65533 9.59467C4.51468 9.45402 4.32391 9.375 4.125 9.375C3.92609 9.375 3.73532 9.45402 3.59467 9.59467C3.45402 9.73532 3.375 9.92609 3.375 10.125V19.125C3.375 19.3239 3.45402 19.5147 3.59467 19.6553C3.73532 19.796 3.92609 19.875 4.125 19.875C4.32391 19.875 4.51468 19.796 4.65533 19.6553C4.79598 19.5147 4.875 19.3239 4.875 19.125V10.125ZM11.625 9C11.625 8.80109 11.546 8.61032 11.4053 8.46967C11.2647 8.32902 11.0739 8.25 10.875 8.25C10.6761 8.25 10.4853 8.32902 10.3447 8.46967C10.204 8.61032 10.125 8.80109 10.125 9V20.25C10.125 20.4489 10.204 20.6397 10.3447 20.7803C10.4853 20.921 10.6761 21 10.875 21C11.0739 21 11.2647 20.921 11.4053 20.7803C11.546 20.6397 11.625 20.4489 11.625 20.25V9ZM14.25 10.875C14.4489 10.875 14.6397 10.954 14.7803 11.0947C14.921 11.2353 15 11.4261 15 11.625V17.625C15 17.8239 14.921 18.0147 14.7803 18.1553C14.6397 18.296 14.4489 18.375 14.25 18.375C14.0511 18.375 13.8603 18.296 13.7197 18.1553C13.579 18.0147 13.5 17.8239 13.5 17.625V11.625C13.5 11.4261 13.579 11.2353 13.7197 11.0947C13.8603 10.954 14.0511 10.875 14.25 10.875Z" fill="#7B6A58"/>
<path fill-rule="evenodd" clip-rule="evenodd" d="M17.9811 1.33383C17.9433 1.16813 17.8504 1.02017 17.7176 0.91419C17.5847 0.808208 17.4198 0.750488 17.2498 0.750488C17.0799 0.750488 16.915 0.808208 16.7821 0.91419C16.6493 1.02017 16.5564 1.16813 16.5186 1.33383L16.1035 3.15859C16.0094 3.57215 15.8004 3.9507 15.5005 4.2506C15.2006 4.5505 14.822 4.75953 14.4085 4.85358L12.5833 5.26871C12.4176 5.30647 12.2697 5.39939 12.1637 5.53225C12.0577 5.6651 12 5.83001 12 5.99996C12 6.16991 12.0577 6.33482 12.1637 6.46767C12.2697 6.60053 12.4176 6.69345 12.5833 6.73121L14.4085 7.14634C14.822 7.24039 15.2006 7.44942 15.5005 7.74932C15.8004 8.04922 16.0094 8.42777 16.1035 8.84134L16.5186 10.6661C16.5564 10.8318 16.6493 10.9797 16.7821 11.0857C16.915 11.1917 17.0799 11.2494 17.2498 11.2494C17.4198 11.2494 17.5847 11.1917 17.7176 11.0857C17.8504 10.9797 17.9433 10.8318 17.9811 10.6661L18.3962 8.84134C18.4903 8.42777 18.6993 8.04922 18.9992 7.74932C19.2991 7.44942 19.6777 7.24039 20.0912 7.14634L21.9163 6.73121C22.082 6.69345 22.23 6.60053 22.336 6.46767C22.442 6.33482 22.4997 6.16991 22.4997 5.99996C22.4997 5.83001 22.442 5.6651 22.336 5.53225C22.23 5.39939 22.082 5.30647 21.9163 5.26871L20.0912 4.85358C19.6777 4.75953 19.2991 4.5505 18.9992 4.2506C18.6993 3.9507 18.4903 3.57215 18.3962 3.15859L17.9811 1.33383ZM15.6141 5.99996C16.318 5.64057 16.8905 5.06811 17.2498 4.36421C17.6092 5.06811 18.1817 5.64057 18.8856 5.99996C18.1817 6.35935 17.6092 6.93181 17.2498 7.63571C16.8905 6.93181 16.318 6.35935 15.6141 5.99996Z" fill="#D9B26C"/>
</svg>
