<svg width="21" height="20" viewBox="0 0 21 20" fill="none" xmlns="http://www.w3.org/2000/svg">
<path d="M9.875 15.8337C9.875 15.6679 9.94085 15.5089 10.0581 15.3917C10.1753 15.2745 10.3342 15.2087 10.5 15.2087H15.5C15.5553 15.2087 15.6082 15.1867 15.6473 15.1476C15.6864 15.1086 15.7083 15.0556 15.7083 15.0003V5.00033C15.7083 4.94507 15.6864 4.89208 15.6473 4.85301C15.6082 4.81394 15.5553 4.79199 15.5 4.79199H10.5C10.3342 4.79199 10.1753 4.72614 10.0581 4.60893C9.94085 4.49172 9.875 4.33275 9.875 4.16699C9.875 4.00123 9.94085 3.84226 10.0581 3.72505C10.1753 3.60784 10.3342 3.54199 10.5 3.54199H15.5C16.305 3.54199 16.9583 4.19533 16.9583 5.00033V15.0003C16.9583 15.3871 16.8047 15.758 16.5312 16.0315C16.2577 16.305 15.8868 16.4587 15.5 16.4587H10.5C10.3342 16.4587 10.1753 16.3928 10.0581 16.2756C9.94085 16.1584 9.875 15.9994 9.875 15.8337Z" fill="white"/>
<path d="M13.51 10.9289C13.51 11.1499 13.4222 11.3618 13.2659 11.5181C13.1096 11.6744 12.8977 11.7622 12.6767 11.7622H8.63C8.61055 12.0583 8.58667 12.3544 8.55833 12.6505L8.53333 12.9047C8.52402 13.0005 8.49174 13.0926 8.43923 13.1733C8.38672 13.2539 8.31553 13.3207 8.2317 13.368C8.14787 13.4153 8.05387 13.4416 7.95768 13.4448C7.86149 13.448 7.76595 13.428 7.67917 13.3864C6.1554 12.657 4.77623 11.6578 3.60833 10.4372L3.58333 10.4114C3.47588 10.2996 3.41586 10.1506 3.41586 9.99552C3.41586 9.84048 3.47588 9.69146 3.58333 9.57969L3.60833 9.55385C4.77623 8.33324 6.1554 7.33408 7.67917 6.60469C7.76595 6.56309 7.86149 6.54303 7.95768 6.54623C8.05387 6.54943 8.14787 6.57578 8.2317 6.62305C8.31553 6.67032 8.38672 6.73712 8.43923 6.81778C8.49174 6.89843 8.52402 6.99056 8.53333 7.08635L8.55833 7.34052C8.58667 7.63608 8.61055 7.93219 8.63 8.22885H12.6767C12.8977 8.22885 13.1096 8.31665 13.2659 8.47293C13.4222 8.62921 13.51 8.84117 13.51 9.06219V10.9289Z" fill="white"/>
</svg>
