<svg width="105" height="151" viewBox="0 0 105 151" fill="none" xmlns="http://www.w3.org/2000/svg">
<path d="M70.2764 96.896L62.0683 97.6273L62.0953 97.7442C62.1102 98.3439 62.1248 98.9431 62.1391 99.5416C62.1391 99.7286 61.9919 99.8352 61.827 99.8549L58.5568 100.229L44.2685 101.864L41.2871 102.205L52.2642 110.622C52.2806 110.586 52.305 110.554 52.3356 110.53C52.3662 110.505 52.4021 110.487 52.4404 110.479C52.4788 110.47 52.5186 110.471 52.5567 110.48C52.5948 110.49 52.6302 110.508 52.6602 110.534L52.7533 110.609L70.6416 96.895C70.52 96.9021 70.3981 96.9025 70.2764 96.896Z" fill="#2A9D8F"/>
<path d="M76.9575 49.3902L78.4398 53.2993L78.4883 53.274L79.8075 52.8925C79.8738 52.8742 79.9443 52.8784 80.008 52.9044C80.0717 52.9305 80.125 52.9769 80.1597 53.0365L80.8464 54.6516L85.4861 65.6035C86.0079 61.0015 86.2837 57.6647 86.2837 56.4546C86.2837 53.3058 84.4138 50.3684 81.1855 47.8799C80.1656 48.3641 79.1107 48.7705 78.0299 49.0956C77.6703 49.2041 77.3125 49.3014 76.9575 49.3902Z" fill="#2A9D8F"/>
<path d="M42.7825 41.5499L42.7732 41.5995C42.7461 41.7129 42.7314 41.8289 42.7294 41.9455C42.7294 44.102 47.1018 45.8499 52.4962 45.8499C57.8907 45.8499 62.2705 44.1011 62.2705 41.9445C62.2685 41.8279 62.2538 41.7119 62.2267 41.5985L62.2174 41.549V41.5424L62.0888 40.8878L60.9224 34.9512C57.898 36.1963 54.5063 36.1929 51.4844 34.9419C51.1192 34.7885 51.2804 34.1825 51.6503 34.3377C53.1064 34.9505 54.6701 35.2643 56.249 35.2604C57.8279 35.2566 59.39 34.9352 60.8432 34.3153C60.8896 34.2966 60.9395 34.2882 60.9894 34.2908C61.0393 34.2933 61.0881 34.3067 61.1324 34.3299C61.1767 34.3532 61.2154 34.3859 61.2459 34.4257C61.2764 34.4654 61.2979 34.5114 61.309 34.5603C64.0351 33.2408 66.123 30.5559 67.9994 27.2406C68.7969 29.14 71.5883 29.8507 74.3078 28.8202C77.0749 27.7718 78.7166 25.3226 77.9749 23.3493C77.2333 21.3761 74.3889 20.627 71.6218 21.6753C71.3861 21.7689 71.1625 21.867 70.9435 21.9755C70.6119 22.589 70.3845 22.9397 70.3845 22.9397C70.3845 22.9397 67.9892 21.6669 70.3407 14.3117C72.6923 6.95645 65.332 10.7411 61.8475 8.51354C58.363 6.28592 58.1385 3.96479 55.9612 4.40152C53.7838 4.83826 53.2649 11.2162 47.2965 10.585C47.2965 10.585 47.3766 10.3699 47.5425 10.0042C47.5108 9.87142 47.4791 9.73769 47.44 9.6049C46.6015 6.75726 44.2918 4.92897 42.2766 5.52936C40.2614 6.12975 39.3083 8.92128 40.1449 11.7652C40.9024 14.3425 42.8682 16.0754 44.7288 15.9389C42.6427 20.9945 41.9747 25.6405 45.148 29.5066L42.912 40.8878L42.7834 41.5424L42.7825 41.5499ZM70.8466 25.5255C71.9516 24.335 73.5634 23.874 75.1417 23.8263C75.5442 23.8132 75.5423 24.4397 75.1417 24.4519C74.624 24.4657 74.1092 24.5353 73.6063 24.6595C74.0723 24.9001 74.4752 25.2478 74.7821 25.6742C74.8846 25.8163 74.8007 26.0183 74.6703 26.1025C74.5985 26.1427 74.514 26.1534 74.4344 26.1325C74.3549 26.1116 74.2865 26.0606 74.2436 25.9903L74.2109 25.9463L74.1867 25.9164L74.0936 25.806C74.0349 25.7425 73.9743 25.6807 73.9072 25.619L73.7982 25.5255L73.7535 25.489L73.7367 25.4759C73.6668 25.4245 73.596 25.3749 73.5224 25.3291C73.4488 25.2833 73.365 25.2356 73.283 25.1954L73.1656 25.1402H73.16L73.147 25.1355L73.0799 25.1093C72.9411 25.0602 72.7987 25.0217 72.6541 24.9943C72.1381 25.2263 71.6724 25.5577 71.2836 25.9697C71.0134 26.2643 70.5727 25.8201 70.8466 25.5255ZM64.2028 14.0648C64.2634 15.6443 65.591 16.7441 66.75 17.6185C66.8201 17.6616 66.8709 17.7303 66.8917 17.8101C66.9125 17.8899 66.9018 17.9747 66.8618 18.0468C66.7836 18.1805 66.5702 18.261 66.4351 18.159C65.0823 17.1397 63.6494 15.8959 63.5786 14.0648C63.5637 13.6617 64.1879 13.6636 64.2028 14.0648ZM62.0534 18.8838C62.3152 18.3545 62.7988 18.058 63.123 18.2217C63.4472 18.3854 63.505 18.9483 63.2422 19.4776C62.9795 20.007 62.4969 20.3044 62.1727 20.1398C61.8485 19.9752 61.7907 19.415 62.0534 18.8847V18.8838ZM59.3413 28.317C57.8376 26.9919 55.6407 26.6486 53.7922 27.3931C53.4195 27.5436 53.2583 26.9376 53.6264 26.7889C55.6854 25.9604 58.1227 26.4149 59.7829 27.8737C60.0857 28.1403 59.6422 28.5817 59.3413 28.317ZM53.863 14.7961C54.1257 14.2668 54.6083 13.9703 54.9326 14.134C55.2568 14.2977 55.3146 14.8606 55.0528 15.39C54.791 15.9193 54.3074 16.2167 53.9823 16.0521C53.6571 15.8875 53.6003 15.3264 53.863 14.7961ZM59.3413 15.375C59.6208 15.0785 60.0559 15.5228 59.7829 15.8173C59.0963 16.5599 58.4832 17.4015 58.2233 18.3947C58.0813 18.9129 58.0612 19.4572 58.1646 19.9845C58.2577 20.4521 58.4515 20.9057 58.4115 21.3873C58.3928 21.5729 58.3358 21.7526 58.2443 21.915C58.1527 22.0774 58.0285 22.2189 57.8796 22.3306C57.7307 22.4422 57.5603 22.5216 57.3792 22.5637C57.1981 22.6058 57.0103 22.6096 56.8276 22.575C56.058 22.4375 55.5801 21.6398 55.663 20.886C55.7068 20.4895 56.331 20.4858 56.2863 20.886C56.2146 21.5407 56.7959 22.2739 57.4789 21.8568C57.831 21.6417 57.8245 21.2311 57.7463 20.8683C57.6615 20.482 57.5357 20.1108 57.4947 19.7143C57.3214 18.0496 58.2531 16.5505 59.3413 15.3741V15.375ZM53.1801 11.3004C53.864 11.6149 54.6165 11.7491 55.3665 11.6902C56.1164 11.6312 56.839 11.3812 57.4658 10.9637C57.8012 10.7393 58.1133 11.2826 57.7807 11.5043C57.0578 11.977 56.2264 12.2561 55.3657 12.315C54.5049 12.374 53.6434 12.2107 52.8633 11.8409C52.5018 11.6679 52.8195 11.1283 53.1801 11.3004ZM44.2415 12.4226C44.3322 11.8751 44.3135 11.315 44.1865 10.7748C44.0786 10.674 43.9606 10.5847 43.8344 10.5083C43.6959 10.4212 43.5496 10.3474 43.3974 10.2876C43.0785 10.1617 42.7374 10.1022 42.3949 10.1127C42.3121 10.1127 42.2328 10.0797 42.1742 10.0209C42.1157 9.96219 42.0828 9.8825 42.0828 9.79942C42.0828 9.71633 42.1157 9.63664 42.1742 9.57789C42.2328 9.51914 42.3121 9.48613 42.3949 9.48613C42.9092 9.47765 43.4181 9.59276 43.8791 9.82186C43.6666 9.33186 43.4027 8.86599 43.0918 8.43217C42.8589 8.10299 43.4002 7.7897 43.6303 8.11608C44.5518 9.41879 45.121 10.9796 44.8415 12.5891C44.7754 12.9865 44.1735 12.8173 44.2415 12.4226Z" fill="#FFD6B6"/>
<path d="M57.4938 19.7217C57.5348 20.1182 57.6606 20.4895 57.7454 20.8757C57.8236 21.2386 57.8302 21.6491 57.478 21.8642C56.7951 22.2813 56.2146 21.5462 56.2854 20.8916C56.3302 20.4914 55.7059 20.4951 55.6621 20.8916C55.5792 21.6398 56.0572 22.4431 56.8267 22.5806C57.0094 22.6152 57.1972 22.6114 57.3783 22.5693C57.5594 22.5272 57.7298 22.4478 57.8787 22.3362C58.0277 22.2245 58.1518 22.083 58.2434 21.9206C58.3349 21.7582 58.3919 21.5785 58.4106 21.3929C58.4507 20.9084 58.2606 20.4577 58.1637 19.9901C58.0603 19.4627 58.0804 18.9185 58.2224 18.4003C58.4823 17.4071 59.0954 16.5654 59.782 15.8229C60.055 15.5283 59.6153 15.0841 59.3404 15.3806C58.2531 16.5505 57.3215 18.0496 57.4938 19.7217Z" fill="#A76C24"/>
<path d="M55.0527 15.3897C55.3145 14.8604 55.2614 14.2983 54.9325 14.1338C54.6036 13.9692 54.1257 14.2666 53.8629 14.7959C53.6002 15.3252 53.6542 15.8882 53.9822 16.0518C54.3101 16.2155 54.7899 15.92 55.0527 15.3897Z" fill="#25191A"/>
<path d="M62.1774 20.1433C62.5053 20.3079 62.9852 20.0114 63.247 19.4812C63.5088 18.9509 63.4566 18.3889 63.1277 18.2252C62.7988 18.0615 62.3199 18.358 62.0581 18.8873C61.7963 19.4166 61.8438 19.9768 62.1774 20.1433Z" fill="#25191A"/>
<path d="M44.848 12.5889C45.1275 10.9794 44.5564 9.41862 43.6368 8.1159C43.4067 7.78952 42.8654 8.10281 43.0983 8.432C43.4092 8.86581 43.6731 9.33168 43.8856 9.82168C43.4229 9.59027 42.9117 9.47384 42.3949 9.48221C42.3121 9.48221 42.2327 9.51522 42.1742 9.57397C42.1156 9.63272 42.0828 9.71241 42.0828 9.7955C42.0828 9.87859 42.1156 9.95827 42.1742 10.017C42.2327 10.0758 42.3121 10.1088 42.3949 10.1088C42.7374 10.0983 43.0785 10.1578 43.3974 10.2837C43.5495 10.3434 43.6958 10.4173 43.8343 10.5044C43.9606 10.5808 44.0786 10.6701 44.1865 10.7709C44.3135 11.3111 44.3322 11.8712 44.2415 12.4187C44.1735 12.8171 44.7753 12.9863 44.848 12.5889Z" fill="#A76C24"/>
<path d="M71.2873 25.9679C71.6761 25.5558 72.1418 25.2244 72.6578 24.9925C72.8024 25.0199 72.9448 25.0584 73.0836 25.1075L73.1507 25.1337L73.1637 25.1384H73.1693L73.2867 25.1935C73.3687 25.2347 73.4488 25.2796 73.5261 25.3273C73.6035 25.375 73.6706 25.4208 73.7404 25.4741L73.7572 25.4872L73.8019 25.5237L73.9109 25.6172C73.9743 25.6761 74.0348 25.7378 74.0973 25.8042L74.1904 25.9146L74.2147 25.9445L74.2473 25.9884C74.2902 26.0588 74.3586 26.1097 74.4381 26.1307C74.5177 26.1516 74.6022 26.1408 74.674 26.1007C74.8044 26.0165 74.8883 25.8145 74.7858 25.6723C74.4789 25.2459 74.076 24.8983 73.61 24.6577C74.1129 24.5334 74.6277 24.4638 75.1454 24.4501C75.546 24.4379 75.5479 23.8113 75.1454 23.8244C73.5671 23.8721 71.9553 24.3332 70.8504 25.5237C70.5727 25.8201 71.0134 26.2643 71.2873 25.9679Z" fill="#A76C24"/>
<path d="M52.8651 11.8406C53.6453 12.2105 54.5067 12.3737 55.3675 12.3147C56.2283 12.2558 57.0597 11.9767 57.7825 11.504C58.1152 11.2823 57.803 10.739 57.4676 10.9634C56.8408 11.3809 56.1182 11.631 55.3683 11.6899C54.6183 11.7488 53.8658 11.6146 53.1819 11.3001C52.8195 11.128 52.5018 11.6676 52.8651 11.8406Z" fill="#25191A"/>
<path d="M66.4352 18.1597C66.5703 18.2617 66.7836 18.1812 66.8619 18.0475C66.9019 17.9754 66.9126 17.8906 66.8918 17.8108C66.8709 17.731 66.8202 17.6623 66.7501 17.6192C65.5911 16.7448 64.2634 15.645 64.2029 14.0655C64.188 13.6634 63.5637 13.6615 63.5786 14.0655C63.6494 15.8966 65.0824 17.1404 66.4352 18.1597Z" fill="#25191A"/>
<path d="M53.6263 26.7889C53.2536 26.9376 53.4185 27.5436 53.7921 27.3931C55.6406 26.6449 57.8375 26.9919 59.3412 28.317C59.6422 28.5817 60.0866 28.1403 59.7828 27.8738C58.1226 26.4093 55.6853 25.9604 53.6263 26.7889Z" fill="#A76C24"/>
<path d="M66.6 47.3917H66.5925L68.3627 56.2255C68.4248 56.2306 68.4837 56.2552 68.531 56.2959C68.5783 56.3365 68.6117 56.3911 68.6264 56.4518L73.2494 55.1192L78.2805 53.664C78.2589 53.5949 78.263 53.5203 78.2921 53.4541C78.3213 53.3878 78.3734 53.3345 78.4389 53.304L76.9566 49.3949C77.3115 49.3014 77.6693 49.2079 78.0289 49.1003C79.1097 48.7752 80.1646 48.3688 81.1845 47.8846C83.9144 46.5893 85.8905 44.9098 86.5604 43.3284H86.5697C88.8942 37.8528 90.3085 33.0619 89.6135 32.7608C89.1681 32.5737 88.0017 34.2327 86.6088 36.8896C86.3796 33.4743 85.9249 31.1438 85.3976 31.1438C84.8535 31.1438 84.3858 33.652 84.165 37.2749C83.496 33.5342 82.6985 30.9633 82.1432 31.0316C81.588 31.0999 81.4333 33.7726 81.6774 37.5433C79.8327 34.0307 78.2022 31.6881 77.6833 31.9322C77.1643 32.1763 77.8873 34.9079 79.3603 38.572C76.5923 39.4081 73.2392 41.0343 70.6631 42.7747C68.222 44.415 66.4807 46.1526 66.6 47.3917Z" fill="#FFD6B6"/>
<path d="M85.1303 66.3571C84.9017 65.8179 84.6731 65.2779 84.4446 64.7374L79.7135 53.5713L78.6542 53.878C78.6154 53.8902 78.5745 53.8942 78.5341 53.8896C78.4937 53.885 78.4547 53.872 78.4196 53.8514C78.3845 53.8308 78.3541 53.8031 78.3303 53.77C78.3065 53.7369 78.2899 53.6991 78.2815 53.6592L73.2504 55.1143L68.6265 56.4517C68.6393 56.4906 68.6441 56.5318 68.6405 56.5727C68.637 56.6135 68.6251 56.6533 68.6058 56.6894C68.5864 56.7256 68.5599 56.7574 68.5279 56.7829C68.4959 56.8084 68.4591 56.8271 68.4196 56.8379L66.9792 57.254C67.0529 57.543 67.0724 57.875 67.1199 58.1556C67.2367 58.8239 67.3535 59.4926 67.4702 60.1615L68.5212 66.1888C69.4417 71.4707 70.3625 76.7533 71.2836 82.0365C71.5513 83.567 71.8184 85.0973 72.0849 86.6273C72.3644 86.2859 72.6523 85.9465 72.9597 85.6107C76.0119 82.2815 79.5439 80.3167 81.8601 80.4345V80.4242C86.485 80.6561 90.494 81.2079 92.0098 81.7989L85.5169 66.4759C85.4852 66.499 85.4486 66.5143 85.4099 66.5208C85.3713 66.5272 85.3316 66.5246 85.2942 66.5131C85.2567 66.5016 85.2224 66.4815 85.194 66.4545C85.1655 66.4274 85.1437 66.3941 85.1303 66.3571Z" fill="#2A9D8F"/>
<path d="M87.6402 83.2046C90.6002 84.9057 92.485 86.3365 92.2595 86.8097C92.021 87.3007 89.5697 86.6227 86.2278 85.2386C87.0961 85.8755 87.8713 86.4787 88.5356 87.0286C90.6517 86.9939 92.7531 87.3873 94.7145 88.1854L92.3471 82.5977C91.6846 82.9175 89.9657 83.1316 87.6402 83.2046Z" fill="#2A9D8F"/>
<path d="M60.8414 34.3149C59.3883 34.9348 57.8261 35.2562 56.2472 35.26C54.6683 35.2639 53.1046 34.9502 51.6485 34.3374C51.2758 34.1821 51.1174 34.7881 51.4826 34.9415C54.5045 36.1925 57.8962 36.1959 60.9206 34.9509C60.9988 34.9181 61.078 34.8891 61.1563 34.8573C61.2146 34.837 61.263 34.7951 61.2916 34.7402C61.3201 34.6853 61.3267 34.6215 61.31 34.5618C61.2992 34.5124 61.2778 34.4659 61.2472 34.4256C61.2166 34.3854 61.1777 34.3523 61.133 34.3288C61.0883 34.3053 61.0391 34.2918 60.9887 34.2895C60.9383 34.2871 60.8881 34.2958 60.8414 34.3149Z" fill="#A76C24"/>
<path d="M80.1588 53.0366C80.1241 52.977 80.0708 52.9305 80.0071 52.9045C79.9434 52.8785 79.8729 52.8743 79.8066 52.8925L78.4874 53.2741L78.4389 53.2993C78.3735 53.3298 78.3213 53.3832 78.2922 53.4494C78.263 53.5157 78.2589 53.5903 78.2805 53.6594C78.2889 53.6993 78.3055 53.7371 78.3293 53.7702C78.3531 53.8033 78.3835 53.831 78.4186 53.8516C78.4537 53.8722 78.4927 53.8852 78.5331 53.8898C78.5735 53.8944 78.6144 53.8905 78.6532 53.8782L79.7125 53.5715L84.4445 64.7376C84.6731 65.2781 84.9017 65.8181 85.1303 66.3573C85.1437 66.3943 85.1655 66.4276 85.1939 66.4547C85.2224 66.4817 85.2567 66.5018 85.2941 66.5133C85.3316 66.5248 85.3712 66.5274 85.4099 66.521C85.4485 66.5145 85.4852 66.4992 85.5169 66.4761C85.5915 66.4355 85.6484 66.3685 85.6766 66.2882C85.7048 66.2078 85.7024 66.1199 85.6697 66.0412C85.6082 65.8963 85.5467 65.7523 85.4834 65.6073L80.8464 54.6516L80.1588 53.0366Z" fill="#1E3A46"/>
<path d="M72.084 86.6275C71.8169 85.0976 71.5498 83.5673 71.2827 82.0367C70.3622 76.7535 69.4414 71.471 68.5203 66.189L67.4694 60.1618C67.3532 59.4928 67.2365 58.8242 67.1191 58.1558C67.0706 57.8752 67.052 57.5433 66.9784 57.2543L68.4197 56.8381C68.4591 56.8274 68.496 56.8087 68.528 56.7831C68.56 56.7576 68.5865 56.7258 68.6058 56.6897C68.6252 56.6535 68.637 56.6138 68.6406 56.5729C68.6441 56.532 68.6393 56.4909 68.6265 56.4519C68.6118 56.3911 68.5785 56.3366 68.5311 56.296C68.4838 56.2553 68.4249 56.2307 68.3629 56.2256L68.2538 56.234L66.5265 56.7334C66.4479 56.7573 66.3815 56.8107 66.3409 56.8824C66.3003 56.9541 66.2887 57.0387 66.3085 57.1187L67.7172 65.2006L70.5374 81.3737C70.8809 83.3419 71.2225 85.3105 71.5623 87.2794C71.7318 87.0615 71.907 86.8445 72.084 86.6275Z" fill="#1E3A46"/>
<path d="M81.8592 80.4243V80.4346C79.543 80.3168 76.011 82.2816 72.9588 85.6109C72.6514 85.9466 72.3626 86.2861 72.084 86.6274C71.907 86.8444 71.7318 87.0613 71.566 87.282C71.4355 87.455 71.3126 87.629 71.1933 87.802L62.1364 87.1025C62.1364 87.326 61.9268 87.413 61.7498 87.3643L61.7833 92.606L61.814 97.4494C61.8687 97.4531 61.9214 97.4718 61.9662 97.5035C62.011 97.5351 62.0464 97.5785 62.0684 97.6289L70.2765 96.8976C70.4006 96.9047 70.5251 96.9047 70.6492 96.8976L79.0343 90.4729C80.7891 89.0643 82.8247 88.0504 85.0036 87.4999L84.9039 87.3662L85.0968 87.4765C86.2239 87.1994 87.3782 87.0495 88.5384 87.0295C87.8741 86.4796 87.099 85.8764 86.2306 85.2396C89.5726 86.6265 92.0238 87.297 92.2624 86.8107C92.4916 86.3375 90.603 84.9067 87.6431 83.2056C89.9723 83.1326 91.6875 82.9185 92.3499 82.5986C92.5363 82.5051 92.6518 82.4116 92.6574 82.3003C92.6658 82.1338 92.4366 81.9655 92.0117 81.8C90.4931 81.2108 86.4841 80.6562 81.8592 80.4243Z" fill="#FFD6B6"/>
<path d="M62.1363 87.1025V87.0782C62.1071 86.6087 62.0779 86.139 62.0487 85.6689C62.0459 85.5867 62.0121 85.5086 61.9542 85.4505C61.8963 85.3923 61.8185 85.3584 61.7366 85.3556L49.2269 83.9004L32.1771 81.9197C32.1361 79.0213 32.0948 76.1222 32.0532 73.2225C31.9855 68.4992 31.9181 63.7762 31.851 59.0535L31.8044 55.7588C31.7988 55.3567 31.1746 55.3548 31.1802 55.7588L31.3088 64.7301C31.3759 69.4534 31.4432 74.1764 31.5109 78.8991L31.5529 81.8468L29.2106 81.5756L24.6305 81.0435C24.2326 80.9976 24.2364 81.6242 24.6305 81.67L37.1476 83.1242L57.1639 85.4491L61.4431 85.9457L61.513 87.0763C61.516 87.1431 61.5405 87.2071 61.5828 87.2587C61.6251 87.3104 61.683 87.3468 61.7478 87.3625C61.9267 87.4111 62.1335 87.3242 62.1363 87.1025Z" fill="#1E3A46"/>
<path d="M24.0492 89.1498C24.7218 89.5414 25.3645 89.9824 25.9722 90.4694L40.5726 101.662L52.909 100.25L61.5075 99.2666C61.4951 98.7598 61.4826 98.2529 61.4702 97.746C61.4683 97.7023 61.4763 97.6588 61.4935 97.6186C61.5108 97.5785 61.5369 97.5428 61.5699 97.5142C61.6029 97.4857 61.642 97.465 61.6841 97.4538C61.7262 97.4426 61.7703 97.4412 61.8131 97.4496L61.7823 92.6063L61.7488 87.3645C61.6841 87.3488 61.6262 87.3124 61.5838 87.2608C61.5415 87.2092 61.517 87.1452 61.514 87.0784L61.4441 85.9477L57.1649 85.4512L37.1496 83.1244L24.6306 81.6702C24.2365 81.6244 24.2327 80.9978 24.6306 81.0436L29.2051 81.5757L31.5474 81.8469L31.5055 78.8992C31.4384 74.1766 31.371 69.4536 31.3033 64.7302L31.1747 55.759C31.1691 55.355 31.7933 55.3569 31.7989 55.759L31.8464 59.0574C31.9135 63.7801 31.9809 68.5031 32.0486 73.2264C32.0896 76.1249 32.1309 79.0239 32.1725 81.9236L49.2223 83.9044L61.7395 85.3539C61.8214 85.3567 61.8992 85.3906 61.9571 85.4487C62.015 85.5069 62.0488 85.585 62.0516 85.6672C62.0808 86.1366 62.11 86.6064 62.1392 87.0765V87.1008L71.1914 87.7994C71.3153 87.6264 71.4383 87.4524 71.5641 87.2794C71.2212 85.3112 70.8796 83.3426 70.5392 81.3737L67.7162 65.2006L66.3075 57.1188C66.2877 57.0387 66.2993 56.9541 66.3399 56.8824C66.3805 56.8107 66.4469 56.7574 66.5255 56.7335L68.2529 56.2341L68.3619 56.2257L66.5917 47.3919H66.5991C66.4799 46.1528 68.2212 44.4152 70.6622 42.7702C67.856 41.9198 64.988 41.2904 62.0842 40.8877L62.2128 41.5423V41.5489L62.2221 41.5984C62.2492 41.7118 62.2639 41.8279 62.2659 41.9445C62.2659 44.101 57.8926 45.8489 52.4991 45.8489C47.1055 45.8489 42.7332 44.101 42.7332 41.9445C42.7352 41.8279 42.7498 41.7118 42.7769 41.5984L42.7863 41.5489V41.5423L42.9148 40.8877C31.0499 42.571 21.9026 47.3012 19.4001 53.1947C19.0698 53.961 18.8544 54.7722 18.761 55.6019L10.2827 87.718C10.1979 87.9051 10.1177 88.0921 10.0432 88.2792C12.2842 87.3202 14.7173 86.8996 17.1489 87.0507C19.5804 87.2019 21.9432 87.9206 24.0492 89.1498Z" fill="#2A9D8F"/>
<path d="M58.5568 100.229L61.827 99.8549C61.9919 99.8353 62.1438 99.7259 62.1391 99.5416C62.1242 98.9419 62.1096 98.3427 62.0954 97.7442L62.0683 97.6273C62.0463 97.5769 62.011 97.5335 61.9661 97.5019C61.9213 97.4702 61.8687 97.4515 61.814 97.4478C61.7712 97.4394 61.7271 97.4408 61.685 97.452C61.6429 97.4632 61.6039 97.4839 61.5708 97.5124C61.5378 97.541 61.5117 97.5766 61.4944 97.6168C61.4772 97.657 61.4692 97.7005 61.4711 97.7442C61.4835 98.2511 61.496 98.758 61.5084 99.2648L52.9099 100.249L40.5735 101.66L41.2844 102.205L44.2657 101.864L58.5568 100.229Z" fill="#1E3A46"/>
<path d="M31.2054 130.869C26.9132 131.497 21.2709 134.183 15.3398 137.36C11.9131 139.151 10.0954 140.981 10.6031 141.943C10.864 142.433 11.805 142.647 13.1317 142.558C11.1566 143.949 10.0013 145.127 10.2631 145.622C10.5025 146.072 11.8665 145.856 13.8091 145.154C11.9969 146.463 10.9497 147.558 11.2004 148.031C11.4594 148.517 13.0376 148.223 15.2383 147.376C13.7867 148.492 12.9836 149.405 13.2063 149.823C13.4858 150.346 15.2821 149.968 17.7389 148.982C16.8659 149.707 16.4066 150.291 16.5594 150.572C16.8929 151.199 18.569 150.919 22.0731 149.043C28.0964 145.817 33.462 142.753 36.339 139.753L33.5505 134.925L31.2054 130.869Z" fill="#FFD6B6"/>
<path d="M94.7146 88.1853C92.7532 87.3872 90.6518 86.9938 88.5357 87.0285C87.3764 87.049 86.2229 87.1992 85.0968 87.4764L85.0037 87.5007C82.8229 88.049 80.7849 89.0613 79.0278 90.469L70.6427 96.8937L52.7544 110.607L55.2038 112.485L66.2908 120.984L73.271 126.335L93.0599 117.919C96.2088 117.032 99.0025 115.178 101.05 112.618C103.097 110.058 104.296 106.92 104.478 103.642C104.66 100.364 103.817 97.1113 102.065 94.3387C100.314 91.5661 97.7429 89.4126 94.7118 88.1797L94.7146 88.1853Z" fill="#21404B"/>
<path d="M68.6609 139.759C71.5379 142.758 76.9035 145.823 82.9268 149.048C86.4299 150.924 88.107 151.205 88.4405 150.577C88.5933 150.29 88.134 149.709 87.261 148.988C89.7169 149.978 91.516 150.356 91.7936 149.829C92.0163 149.41 91.2132 148.498 89.7607 147.382C91.9613 148.224 93.5405 148.518 93.7986 148.037C94.0492 147.569 93.003 146.468 91.1899 145.16C93.1325 145.86 94.4974 146.076 94.7359 145.628C94.9986 145.133 93.8424 143.955 91.8682 142.564C93.1949 142.657 94.1359 142.439 94.3958 141.949C94.9045 140.992 93.0915 139.162 89.6591 137.366C83.7281 134.186 78.0858 131.503 73.7935 130.875L71.4485 134.934L68.6609 139.759Z" fill="#FFD6B6"/>
<path d="M72.9755 126.887L70.4283 124.934L59.3413 116.435L52.3444 111.071C52.2774 111.019 52.2321 110.944 52.2171 110.861C52.2022 110.777 52.2186 110.691 52.2633 110.619L41.2862 102.202L40.5754 101.657L25.9731 90.4691C24.225 89.0618 22.1967 88.0468 20.0248 87.4926C17.853 86.9384 15.5881 86.8578 13.3826 87.2563C11.1771 87.6548 9.08233 88.523 7.23933 89.8026C5.39632 91.0821 3.84791 92.7433 2.69839 94.6742C1.54887 96.605 0.824936 98.7607 0.575356 100.996C0.325776 103.231 0.556345 105.494 1.25153 107.633C1.94672 109.771 3.09038 111.735 4.60547 113.393C6.12057 115.05 7.97191 116.362 10.0348 117.241L31.9871 126.522L29.7073 128.269L31.2054 130.869L33.5505 134.928L36.339 139.756L37.3946 141.587L52.1031 135.335L49.649 134.287L38.9924 129.739L32.3095 126.888C31.9368 126.731 32.2591 126.191 32.6244 126.347L35.0784 127.395L45.7359 131.942L52.4152 134.797C52.6118 134.881 52.6099 135.077 52.5083 135.211L67.6016 141.592L68.6581 139.764L71.4466 134.935L73.7917 130.877L75.2917 128.279L73.3678 126.804C73.3509 126.839 73.3263 126.869 73.2959 126.893C73.2654 126.917 73.2299 126.934 73.192 126.942C73.1541 126.95 73.1149 126.949 73.0774 126.94C73.0399 126.93 73.0051 126.912 72.9755 126.887Z" fill="#21404B"/>
<path d="M55.2047 112.484L52.7553 110.606L52.6621 110.531C52.6322 110.506 52.5968 110.487 52.5587 110.478C52.5205 110.468 52.4807 110.468 52.4424 110.476C52.404 110.485 52.3681 110.502 52.3376 110.527C52.307 110.552 52.2826 110.583 52.2662 110.619C52.2215 110.691 52.205 110.777 52.22 110.861C52.235 110.945 52.2803 111.02 52.3472 111.072L59.3442 116.436L70.4312 124.935L72.9784 126.887C73.0082 126.913 73.0436 126.931 73.0816 126.941C73.1197 126.95 73.1594 126.951 73.1977 126.942C73.236 126.934 73.2718 126.916 73.3023 126.892C73.3328 126.867 73.3571 126.835 73.3734 126.8C73.4182 126.728 73.4348 126.641 73.42 126.558C73.4052 126.474 73.3601 126.399 73.2933 126.347L73.2765 126.334L66.2964 120.983L55.2047 112.484Z" fill="#21404B"/>
<path d="M52.415 134.797L45.7321 131.946L35.0746 127.394L32.6205 126.347C32.2553 126.191 31.9367 126.73 32.3056 126.887L38.9886 129.739L49.6452 134.287L52.0992 135.334C52.1713 135.363 52.2514 135.367 52.3257 135.343C52.4 135.32 52.4639 135.271 52.5064 135.206C52.6098 135.068 52.6116 134.877 52.415 134.797Z" fill="#21404B"/>
<path d="M55.9612 4.40134C58.1385 3.96367 58.364 6.28106 61.8485 8.51616C65.3329 10.7513 72.6942 6.96094 70.3417 14.3143C67.9892 21.6677 70.3855 22.9423 70.3855 22.9423C70.3855 22.9423 70.6128 22.5916 70.9445 21.9782C72.7473 18.6414 77.634 7.51083 65.9041 2.31588C54.2189 -2.85757 48.7248 7.39955 47.5499 10.004C47.3841 10.3697 47.304 10.5848 47.304 10.5848C53.2649 11.216 53.7829 4.83901 55.9612 4.40134Z" fill="#25191A"/>
</svg>
