<svg width="20" height="20" viewBox="0 0 20 20" fill="none" xmlns="http://www.w3.org/2000/svg">
<path d="M15.4936 5.83105C15.0131 4.52112 14.0994 3.41475 12.9039 2.69536C11.7084 1.97597 10.3029 1.68677 8.92052 1.87571C7.53811 2.06465 6.26179 2.72038 5.30317 3.73419C4.34455 4.748 3.76121 6.05899 3.64986 7.4498C2.79336 7.53594 2.00393 7.95181 1.44851 8.60949C0.893091 9.26716 0.615226 10.1151 0.673673 10.9739C0.732119 11.8327 1.1223 12.6352 1.76169 13.2115C2.40109 13.7879 3.23959 14.093 4.09986 14.0623H5.41861V16.6373C5.41861 17.0517 5.58323 17.4491 5.87626 17.7422C6.16929 18.0352 6.56671 18.1998 6.98111 18.1998H13.028C13.4424 18.1998 13.8398 18.0352 14.1328 17.7422C14.4259 17.4491 14.5905 17.0517 14.5905 16.6373V14.0623H15.1061C16.1603 14.0555 17.1719 13.6451 17.9327 12.9154C18.6936 12.1857 19.146 11.1922 19.1968 10.1392C19.2476 9.08625 18.8931 8.0538 18.206 7.25421C17.5189 6.45463 16.5516 5.94868 15.503 5.84042L15.4936 5.83105ZM13.028 17.2435H6.97174C6.80598 17.2435 6.64701 17.1777 6.5298 17.0605C6.41259 16.9433 6.34674 16.7843 6.34674 16.6185V11.2498C6.34674 11.084 6.41259 10.9251 6.5298 10.8079C6.64701 10.6906 6.80598 10.6248 6.97174 10.6248H13.028C13.1937 10.6248 13.3527 10.6906 13.4699 10.8079C13.5871 10.9251 13.653 11.084 13.653 11.2498V16.6279C13.6505 16.7921 13.5836 16.9486 13.4666 17.0638C13.3497 17.179 13.1921 17.2436 13.028 17.2435ZM12.1092 9.6873H7.89049V9.12792C7.89049 8.56848 8.11273 8.03196 8.50831 7.63637C8.9039 7.24079 9.44042 7.01855 9.99986 7.01855C10.5593 7.01855 11.0958 7.24079 11.4914 7.63637C11.887 8.03196 12.1092 8.56848 12.1092 9.12792V9.6873ZM17.3499 12.1873C17.0547 12.4845 16.7037 12.7203 16.317 12.8812C15.9303 13.0421 15.5156 13.1249 15.0967 13.1248H14.5811V11.2498C14.5812 10.8402 14.4204 10.447 14.1335 10.1548C13.8465 9.86254 13.4562 9.69467 13.0467 9.6873V9.12792C13.0467 8.31984 12.7257 7.54486 12.1543 6.97346C11.5829 6.40206 10.8079 6.08105 9.99986 6.08105C9.19178 6.08105 8.4168 6.40206 7.8454 6.97346C7.274 7.54486 6.95299 8.31984 6.95299 9.12792V9.6873C6.54348 9.69467 6.15324 9.86254 5.86627 10.1548C5.5793 10.447 5.41855 10.8402 5.41861 11.2498V13.1248H4.09986C3.7801 13.1364 3.46129 13.0834 3.16246 12.969C2.86362 12.8547 2.59091 12.6813 2.36059 12.4591C2.13028 12.237 1.94709 11.9708 1.82197 11.6763C1.69685 11.3818 1.63237 11.0651 1.63237 10.7451C1.63237 10.4251 1.69685 10.1085 1.82197 9.81396C1.94709 9.51947 2.13028 9.25321 2.36059 9.03109C2.59091 8.80897 2.86362 8.63555 3.16246 8.52118C3.46129 8.40681 3.7801 8.35384 4.09986 8.36542C4.22365 8.36543 4.3424 8.31647 4.43022 8.22924C4.51804 8.142 4.56779 8.02358 4.56861 7.8998C4.58005 6.66297 5.03357 5.47103 5.84721 4.53942C6.66084 3.60782 7.78091 2.99802 9.00495 2.82024C10.229 2.64247 11.4763 2.90845 12.5213 3.57011C13.5663 4.23176 14.3402 5.24544 14.703 6.42792C14.732 6.5226 14.7903 6.60566 14.8695 6.66517C14.9486 6.72468 15.0446 6.75758 15.1436 6.75917C15.7679 6.76955 16.3754 6.96324 16.8905 7.31616C17.4056 7.66907 17.8056 8.16564 18.0407 8.74408C18.2758 9.32253 18.3357 9.95733 18.2128 10.5695C18.09 11.1817 17.7899 11.7443 17.3499 12.1873Z" fill="#D9B26C"/>
<path d="M9.9998 12.3216C9.69678 12.3032 9.3974 12.3957 9.15755 12.5818C8.91771 12.7679 8.75378 13.0349 8.69638 13.333C8.63898 13.6311 8.69202 13.9399 8.84562 14.2018C8.99921 14.4636 9.24285 14.6606 9.53105 14.756V15.3435C9.53105 15.4678 9.58044 15.5871 9.66834 15.675C9.75625 15.7629 9.87548 15.8123 9.9998 15.8123C10.1241 15.8123 10.2433 15.7629 10.3313 15.675C10.4192 15.5871 10.4685 15.4678 10.4685 15.3435V14.756C10.7568 14.6606 11.0004 14.4636 11.154 14.2018C11.3076 13.9399 11.3606 13.6311 11.3032 13.333C11.2458 13.0349 11.0819 12.7679 10.842 12.5818C10.6022 12.3957 10.3028 12.3032 9.9998 12.3216ZM9.9998 13.2591C10.0616 13.2591 10.122 13.2775 10.1734 13.3118C10.2248 13.3462 10.2649 13.395 10.2885 13.4521C10.3122 13.5092 10.3184 13.572 10.3063 13.6326C10.2942 13.6932 10.2645 13.7489 10.2208 13.7926C10.1771 13.8363 10.1214 13.8661 10.0608 13.8781C10.0001 13.8902 9.93731 13.884 9.88021 13.8604C9.82311 13.8367 9.7743 13.7967 9.73997 13.7453C9.70563 13.6939 9.6873 13.6335 9.6873 13.5716C9.6873 13.4888 9.72022 13.4093 9.77883 13.3507C9.83743 13.2921 9.91692 13.2591 9.9998 13.2591Z" fill="#D9B26C"/>
</svg>
