<svg width="24" height="24" viewBox="0 0 24 24" fill="none" xmlns="http://www.w3.org/2000/svg">
<path fill-rule="evenodd" clip-rule="evenodd" d="M12.9665 3.86912C12.3323 3.71077 11.6688 3.71077 11.0345 3.86912C9.46053 4.26212 8.39453 5.61512 8.39453 7.12812V7.43112C8.39453 7.63003 8.31551 7.8208 8.17486 7.96145C8.03421 8.1021 7.84344 8.18112 7.64453 8.18112C7.44562 8.18112 7.25485 8.1021 7.1142 7.96145C6.97355 7.8208 6.89453 7.63003 6.89453 7.43112V7.12812C6.89453 4.89012 8.46553 2.96512 10.6705 2.41412C11.5438 2.19594 12.4573 2.19594 13.3305 2.41412C15.5355 2.96512 17.1065 4.89012 17.1065 7.12812V7.43112C17.1065 7.63003 17.0275 7.8208 16.8869 7.96145C16.7462 8.1021 16.5554 8.18112 16.3565 8.18112C16.1576 8.18112 15.9669 8.1021 15.8262 7.96145C15.6855 7.8208 15.6065 7.63003 15.6065 7.43112V7.12812C15.6065 5.61512 14.5405 4.26412 12.9665 3.86912Z" fill="#D9B26C"/>
<path fill-rule="evenodd" clip-rule="evenodd" d="M15.1942 8.33691C13.0864 7.90867 10.914 7.90867 8.80616 8.33691L8.53016 8.39291C6.80916 8.74291 5.46316 9.99191 5.03016 11.5929C4.56874 13.298 4.68048 15.1075 5.34816 16.7429L5.44116 16.9719C6.08416 18.5529 7.55616 19.7059 9.33116 19.9839L10.0792 20.1009C11.3512 20.2999 12.6492 20.2999 13.9212 20.1009L14.6692 19.9839C16.4442 19.7059 17.9162 18.5519 18.5592 16.9719L18.6522 16.7439C19.3201 15.1082 19.4318 13.2983 18.9702 11.5929C18.5372 9.99191 17.1912 8.74291 15.4702 8.39291L15.1942 8.33691ZM8.50716 6.86691C10.8123 6.39853 13.188 6.39853 15.4932 6.86691L15.7692 6.92291C18.0212 7.38091 19.8292 9.02691 20.4182 11.2009C20.9658 13.2231 20.8336 15.3692 20.0422 17.3089L19.9492 17.5369C19.0992 19.6249 17.1742 21.1099 14.9012 21.4659L14.1522 21.5829C12.7272 21.8059 11.2732 21.8059 9.84816 21.5829L9.09816 21.4659C6.82616 21.1099 4.90116 19.6259 4.05116 17.5369L3.95816 17.3089C3.16675 15.3692 3.03464 13.2231 3.58216 11.2009C4.17016 9.02691 5.98016 7.38091 8.23116 6.92291L8.50716 6.86691Z" fill="#7B6A58"/>
<path fill-rule="evenodd" clip-rule="evenodd" d="M12 12.75C12.1989 12.75 12.3897 12.829 12.5303 12.9697C12.671 13.1103 12.75 13.3011 12.75 13.5V15.5C12.75 15.6989 12.671 15.8897 12.5303 16.0303C12.3897 16.171 12.1989 16.25 12 16.25C11.8011 16.25 11.6103 16.171 11.4697 16.0303C11.329 15.8897 11.25 15.6989 11.25 15.5V13.5C11.25 13.3011 11.329 13.1103 11.4697 12.9697C11.6103 12.829 11.8011 12.75 12 12.75Z" fill="#D9B26C"/>
</svg>
