<svg width="20" height="20" viewBox="0 0 20 20" fill="none" xmlns="http://www.w3.org/2000/svg">
<path d="M4.16693 18.1251C3.94178 18.1242 3.71968 18.0729 3.51693 17.9751C3.26839 17.8583 3.05813 17.6733 2.9106 17.4417C2.76307 17.2101 2.68435 16.9413 2.68359 16.6667V2.50005C2.68468 2.30674 2.72397 2.11555 2.79921 1.93747C2.87445 1.7594 2.98415 1.59796 3.122 1.46243C3.25985 1.3269 3.42314 1.21996 3.60246 1.14776C3.78179 1.07556 3.97362 1.03952 4.16693 1.04172H15.8336C16.2197 1.04391 16.5894 1.19826 16.8624 1.47127C17.1354 1.74429 17.2897 2.11395 17.2919 2.50005V16.6667C17.2865 16.9306 17.2096 17.1881 17.0693 17.4117C16.9291 17.6353 16.7308 17.8167 16.4955 17.9364C16.2603 18.0562 15.997 18.1098 15.7336 18.0917C15.4703 18.0736 15.2168 17.9843 15.0003 17.8334L10.1669 14.2084C10.1315 14.18 10.0874 14.1645 10.0419 14.1645C9.99649 14.1645 9.9524 14.18 9.91693 14.2084L5.04193 17.8334C4.78894 18.0216 4.48227 18.1239 4.16693 18.1251ZM4.16693 2.29172C4.11167 2.29172 4.05868 2.31367 4.01961 2.35274C3.98054 2.39181 3.95859 2.4448 3.95859 2.50005V16.6667C3.9583 16.7053 3.96916 16.7431 3.98986 16.7756C4.01055 16.8081 4.04021 16.834 4.07526 16.8501C4.10716 16.8719 4.14492 16.8836 4.18359 16.8836C4.22226 16.8836 4.26003 16.8719 4.29193 16.8501L9.16693 13.2084C9.42042 13.0216 9.72704 12.9208 10.0419 12.9208C10.3568 12.9208 10.6634 13.0216 10.9169 13.2084L15.7503 16.8334C15.7822 16.8552 15.8199 16.8669 15.8586 16.8669C15.8973 16.8669 15.935 16.8552 15.9669 16.8334C16.002 16.8173 16.0316 16.7915 16.0523 16.7589C16.073 16.7264 16.0839 16.6886 16.0836 16.6501V2.50005C16.0842 2.46881 16.0778 2.43782 16.0649 2.40938C16.0519 2.38095 16.0327 2.3558 16.0087 2.33579C15.9847 2.31578 15.9565 2.30143 15.9262 2.2938C15.8958 2.28618 15.8642 2.28546 15.8336 2.29172H4.16693Z" fill="#3F3024"/>
<path d="M12.5 6.45837H7.5C7.33424 6.45837 7.17527 6.39253 7.05806 6.27532C6.94085 6.15811 6.875 5.99913 6.875 5.83337C6.875 5.66761 6.94085 5.50864 7.05806 5.39143C7.17527 5.27422 7.33424 5.20837 7.5 5.20837H12.5C12.6658 5.20837 12.8247 5.27422 12.9419 5.39143C13.0592 5.50864 13.125 5.66761 13.125 5.83337C13.125 5.99913 13.0592 6.15811 12.9419 6.27532C12.8247 6.39253 12.6658 6.45837 12.5 6.45837Z" fill="#8A5A3C"/>
</svg>
