<svg width="24" height="22" viewBox="0 0 24 22" fill="none" xmlns="http://www.w3.org/2000/svg">
<path d="M3.19109 0.207031C1.80749 0.207031 0.674316 1.25703 0.674316 2.54036V15.3737C0.674316 16.6564 1.80749 17.707 3.19109 17.707H6.33705V21.207C6.33642 21.7128 6.9826 21.9799 7.3878 21.641L12.1005 17.707H20.8085C22.1921 17.707 23.3253 16.6564 23.3253 15.3737V2.54036C23.3253 1.25761 22.1921 0.207031 20.8085 0.207031H3.19109ZM5.70786 6.6237C6.74288 6.6237 7.59544 7.41411 7.59544 8.3737C7.59544 9.33328 6.74288 10.1237 5.70786 10.1237C4.67284 10.1237 3.82028 9.33328 3.82028 8.3737C3.82028 7.41411 4.67284 6.6237 5.70786 6.6237ZM11.9998 6.6237C13.0348 6.6237 13.8874 7.41411 13.8874 8.3737C13.8874 9.33328 13.0348 10.1237 11.9998 10.1237C10.9648 10.1237 10.1122 9.33328 10.1122 8.3737C10.1122 7.41411 10.9648 6.6237 11.9998 6.6237ZM18.2917 6.6237C19.3267 6.6237 20.1793 7.41411 20.1793 8.3737C20.1793 9.33328 19.3267 10.1237 18.2917 10.1237C17.2567 10.1237 16.4041 9.33328 16.4041 8.3737C16.4041 7.41411 17.2567 6.6237 18.2917 6.6237Z" fill="#2A9D8F"/>
</svg>
