<svg width="20" height="21" viewBox="0 0 20 21" fill="none" xmlns="http://www.w3.org/2000/svg">
<g clip-path="url(#clip0_1437_13953)">
<path d="M17.875 3.09668H2.125C1.82663 3.09668 1.54048 3.2196 1.3295 3.43839C1.11853 3.65718 1 3.95393 1 4.26335V15.93C1 16.2394 1.11853 16.5362 1.3295 16.755C1.54048 16.9738 1.82663 17.0967 2.125 17.0967H17.875C18.1734 17.0967 18.4595 16.9738 18.6705 16.755C18.8815 16.5362 19 16.2394 19 15.93V4.26335C19 3.95393 18.8815 3.65718 18.6705 3.43839C18.4595 3.2196 18.1734 3.09668 17.875 3.09668ZM17.875 15.93H2.125V4.26335H17.875V15.93Z" fill="#439DB6" stroke="#439DB6" stroke-width="0.200359"/>
<path d="M5.00001 7.87381H15C15.1474 7.87381 15.2887 7.81527 15.3928 7.71109C15.497 7.6069 15.5556 7.46559 15.5556 7.31825C15.5556 7.17091 15.497 7.0296 15.3928 6.92541C15.2887 6.82123 15.1474 6.7627 15 6.7627H5.00001C4.85267 6.7627 4.71136 6.82123 4.60718 6.92541C4.50299 7.0296 4.44446 7.17091 4.44446 7.31825C4.44446 7.46559 4.50299 7.6069 4.60718 7.71109C4.71136 7.81527 4.85267 7.87381 5.00001 7.87381Z" fill="#439DB6"/>
<path d="M5.00001 10.0955H15C15.1474 10.0955 15.2887 10.037 15.3928 9.93277C15.497 9.82858 15.5556 9.68727 15.5556 9.53993C15.5556 9.39259 15.497 9.25128 15.3928 9.14709C15.2887 9.04291 15.1474 8.98438 15 8.98438H5.00001C4.85267 8.98438 4.71136 9.04291 4.60718 9.14709C4.50299 9.25128 4.44446 9.39259 4.44446 9.53993C4.44446 9.68727 4.50299 9.82858 4.60718 9.93277C4.71136 10.037 4.85267 10.0955 5.00001 10.0955Z" fill="#439DB6"/>
<path d="M5.00001 12.3191H10.5556C10.7029 12.3191 10.8442 12.2606 10.9484 12.1564C11.0526 12.0522 11.1111 11.9109 11.1111 11.7636C11.1111 11.6162 11.0526 11.4749 10.9484 11.3707C10.8442 11.2665 10.7029 11.208 10.5556 11.208H5.00001C4.85267 11.208 4.71136 11.2665 4.60718 11.3707C4.50299 11.4749 4.44446 11.6162 4.44446 11.7636C4.44446 11.9109 4.50299 12.0522 4.60718 12.1564C4.71136 12.2606 4.85267 12.3191 5.00001 12.3191Z" fill="#439DB6"/>
</g>
<defs>
<clipPath id="clip0_1437_13953">
<rect width="20" height="20" fill="white" transform="translate(0 0.0966797)"/>
</clipPath>
</defs>
</svg>
