<svg width="24" height="24" viewBox="0 0 24 24" fill="none" xmlns="http://www.w3.org/2000/svg">
<g clip-path="url(#clip0_54_3616)">
<path d="M20.9997 13C20.9967 10.7874 20.1797 8.65324 18.7043 7.00433C17.2289 5.35541 15.1984 4.30703 12.9997 4.059V3H14.9997C15.2649 3 15.5193 2.89464 15.7068 2.70711C15.8944 2.51957 15.9997 2.26522 15.9997 2C15.9997 1.73478 15.8944 1.48043 15.7068 1.29289C15.5193 1.10536 15.2649 1 14.9997 1H8.99973C8.73451 1 8.48016 1.10536 8.29262 1.29289C8.10508 1.48043 7.99973 1.73478 7.99973 2C7.99973 2.26522 8.10508 2.51957 8.29262 2.70711C8.48016 2.89464 8.73451 3 8.99973 3H10.9997V4.059C9.25048 4.25286 7.5966 4.95591 6.24318 6.08096C4.88977 7.20601 3.89635 8.70357 3.3861 10.3879C2.87586 12.0723 2.87124 13.8694 3.37282 15.5564C3.8744 17.2434 4.86011 18.746 6.20773 19.878L5.16673 21.446C5.09138 21.5553 5.03855 21.6786 5.01134 21.8085C4.98413 21.9385 4.98307 22.0726 5.00823 22.203C5.0334 22.3334 5.08427 22.4574 5.15789 22.5679C5.23151 22.6784 5.32641 22.7732 5.43703 22.8466C5.54766 22.92 5.6718 22.9707 5.80222 22.9957C5.93264 23.0206 6.06672 23.0193 6.19665 22.9919C6.32657 22.9645 6.44973 22.9115 6.55894 22.8359C6.66815 22.7604 6.76122 22.6639 6.83273 22.552L7.87073 20.988C9.14541 21.6526 10.5617 21.9996 11.9992 21.9996C13.4368 21.9996 14.853 21.6526 16.1277 20.988L17.1667 22.553C17.2394 22.6624 17.3329 22.7564 17.442 22.8296C17.551 22.9029 17.6733 22.954 17.8021 22.9799C17.9308 23.0059 18.0634 23.0062 18.1923 22.9809C18.3212 22.9556 18.4438 22.9052 18.5532 22.8325C18.6626 22.7598 18.7566 22.6663 18.8299 22.5573C18.9031 22.4483 18.9542 22.3259 18.9801 22.1971C19.0061 22.0684 19.0064 21.9358 18.9811 21.8069C18.9558 21.678 18.9054 21.5554 18.8327 21.446L17.7917 19.878C18.7961 19.0353 19.6038 17.9828 20.158 16.7946C20.7123 15.6063 20.9995 14.3111 20.9997 13ZM8.11773 18.82L8.11273 18.816L8.09973 18.81C6.85334 17.9739 5.9087 16.7593 5.40517 15.3454C4.90164 13.9315 4.86587 12.3932 5.30316 10.9574C5.74044 9.52168 6.62761 8.26449 7.83379 7.37133C9.03997 6.47816 10.5013 5.99633 12.0022 5.99691C13.503 5.99749 14.964 6.48044 16.1695 7.37454C17.375 8.26863 18.2612 9.5265 18.6973 10.9626C19.1335 12.3987 19.0966 13.9369 18.592 15.3504C18.0873 16.7639 17.1418 17.9778 15.8947 18.813L15.8867 18.817L15.8837 18.82C14.735 19.5894 13.3835 20.0003 12.0009 20.0005C10.6182 20.0007 9.2667 19.5891 8.11773 18.82Z" fill="#7B6A58" stroke="#FFF9F0" stroke-width="0.5"/>
<path d="M20.727 4.76392C20.6374 4.66636 20.5293 4.58758 20.409 4.53215C20.2886 4.47673 20.1585 4.44576 20.0261 4.44106C19.8937 4.43636 19.7617 4.45801 19.6377 4.50475C19.5138 4.5515 19.4003 4.62241 19.304 4.71336C19.2077 4.80432 19.1304 4.9135 19.0766 5.03458C19.0229 5.15566 18.9937 5.28621 18.9908 5.41866C18.9879 5.5511 19.0114 5.6828 19.0598 5.80611C19.1083 5.92941 19.1807 6.04186 19.273 6.13692C21.0279 7.99062 22.004 10.4473 22 12.9999C22 13.2651 22.1054 13.5195 22.2929 13.707C22.4804 13.8946 22.7348 13.9999 23 13.9999C23.2652 13.9999 23.5196 13.8946 23.7071 13.707C23.8947 13.5195 24 13.2651 24 12.9999C24.0049 9.93657 22.8332 6.98831 20.727 4.76392ZM4.68602 4.72292C4.49328 4.54096 4.23619 4.44297 3.97124 4.45047C3.70629 4.45797 3.45515 4.57035 3.27302 4.76292C1.16655 6.98756 -0.00511161 9.93622 1.67643e-05 12.9999C1.67643e-05 13.2651 0.105374 13.5195 0.29291 13.707C0.480446 13.8946 0.7348 13.9999 1.00002 13.9999C1.26523 13.9999 1.51959 13.8946 1.70712 13.707C1.89466 13.5195 2.00002 13.2651 2.00002 12.9999C1.9961 10.4473 2.97225 7.99068 4.72702 6.13692C4.81727 6.04146 4.88782 5.92916 4.93466 5.80643C4.98149 5.6837 5.00368 5.55294 4.99997 5.42163C4.99625 5.29032 4.9667 5.16103 4.91301 5.04114C4.85931 4.92125 4.78152 4.81312 4.68602 4.72292Z" fill="#7B6A58" stroke="#FFF9F0" stroke-width="0.5"/>
<path d="M15.707 15.293L13 12.586V9C13 8.73478 12.8946 8.48043 12.7071 8.29289C12.5196 8.10536 12.2652 8 12 8C11.7348 8 11.4804 8.10536 11.2929 8.29289C11.1054 8.48043 11 8.73478 11 9V13C11.0001 13.2652 11.1055 13.5195 11.293 13.707L14.293 16.707C14.4816 16.8892 14.7342 16.99 14.9964 16.9877C15.2586 16.9854 15.5094 16.8802 15.6948 16.6948C15.8802 16.5094 15.9854 16.2586 15.9877 15.9964C15.99 15.7342 15.8892 15.4816 15.707 15.293Z" fill="#D9B26C" stroke="#FFF9F0" stroke-width="0.5"/>
</g>
<defs>
<clipPath id="clip0_54_3616">
<rect width="24" height="24" fill="white"/>
</clipPath>
</defs>
</svg>
