<svg width="172" height="129" viewBox="0 0 172 129" fill="none" xmlns="http://www.w3.org/2000/svg">
<g clip-path="url(#clip0_896_2986)">
<path d="M137.387 128.367H93.698L93.6896 128.127L91.6035 69.6748H139.481L137.387 128.367ZM94.1881 127.87H136.897L138.956 70.1719H92.1287L94.1881 127.87Z" fill="#3F3D56"/>
<path d="M104.12 80.5049H100.797V120.793H104.12V80.5049Z" fill="#3F3D56"/>
<path d="M117.204 80.5049H113.881V120.793H117.204V80.5049Z" fill="#3F3D56"/>
<path d="M130.288 80.5049H126.965V120.793H130.288V80.5049Z" fill="#3F3D56"/>
<path d="M167.243 86.8399L167.029 86.7072L112.761 53.1082L117.469 45.8105L117.683 45.9433L171.951 79.5421L167.243 86.8399ZM113.462 52.9536L167.085 86.154L171.25 79.697L117.627 46.4962L113.462 52.9536Z" fill="#3F3D56"/>
<path d="M154.141 50.4006C152.564 49.4225 150.733 48.9084 148.866 48.9191C147 48.9298 145.175 49.465 143.61 50.4612C142.044 51.4573 140.803 52.8725 140.034 54.539C139.265 56.2054 138.999 58.053 139.27 59.8626L141.858 61.4648C141.207 59.9854 141.057 58.341 141.43 56.7722C141.803 55.2035 142.678 53.7928 143.928 52.7467C145.178 51.7007 146.738 51.0742 148.377 50.9591C150.017 50.8439 151.652 51.2461 153.041 52.1068C154.431 52.9675 155.503 54.2415 156.1 55.7421C156.697 57.2428 156.788 58.8914 156.36 60.4464C155.931 62.0015 155.006 63.3814 153.72 64.384C152.433 65.3866 150.852 65.9594 149.209 66.0183L151.797 67.6204C153.582 67.0837 155.172 66.0566 156.378 64.6611C157.585 63.2656 158.358 61.5603 158.605 59.7474C158.852 57.9346 158.563 56.0904 157.772 54.4336C156.981 52.7769 155.722 51.3772 154.143 50.4006H154.141Z" fill="#3F3D56"/>
<path d="M169.083 128.002H0.126465V128.499H169.083V128.002Z" fill="#3F3D56"/>
<path d="M39.2038 124.632H35.509L33.7505 110.67H39.2048L39.2038 124.632Z" fill="#FEB8B8"/>
<path d="M28.3838 127.993H39.9954V123.598H32.8079C31.6345 123.598 30.5092 124.054 29.6796 124.867C28.8499 125.68 28.3838 126.782 28.3838 127.932V127.993Z" fill="#2F2E41"/>
<path d="M37.9053 102.997L40.4538 105.618L51.9845 97.2353L48.2233 93.3672L37.9053 102.997Z" fill="#FEB8B8"/>
<path d="M43.0792 106.819L38.1198 101.721L34.8718 104.753L42.8838 112.99L42.9288 112.948C43.3494 112.555 43.687 112.085 43.9222 111.564C44.1574 111.044 44.2856 110.483 44.2996 109.914C44.3136 109.345 44.213 108.779 44.0036 108.247C43.7942 107.716 43.4801 107.231 43.0792 106.819Z" fill="#2F2E41"/>
<path d="M12.1888 64.7463C11.955 64.3778 11.8065 63.9635 11.7538 63.5326C11.701 63.1017 11.7453 62.6648 11.8835 62.2525C12.0217 61.8402 12.2505 61.4626 12.5537 61.1463C12.857 60.83 13.2273 60.5826 13.6387 60.4217L28.1443 24.2021L33.7985 27.519L17.6847 62.2654C17.915 62.9605 17.877 63.7143 17.5778 64.3838C17.2787 65.0533 16.7393 65.592 16.0618 65.8979C15.3842 66.2037 14.6158 66.2554 13.9019 66.0432C13.1881 65.8309 12.5786 65.3695 12.1888 64.7463Z" fill="#FEB8B8"/>
<path d="M67.2474 67.343C66.8054 67.3121 66.3757 67.1865 65.9886 66.9752C65.6016 66.764 65.2665 66.4721 65.007 66.1202C64.7476 65.7683 64.57 65.3649 64.4869 64.9385C64.4038 64.512 64.4172 64.073 64.5261 63.6521L43.1265 30.8769L49.1873 28.3418L68.426 61.5281C69.1365 61.7531 69.7379 62.2258 70.116 62.8566C70.4942 63.4874 70.6228 64.2322 70.4774 64.9497C70.3319 65.6672 69.9227 66.3074 69.3272 66.7488C68.7318 67.1902 67.9917 67.402 67.2474 67.344V67.343Z" fill="#FEB8B8"/>
<path d="M28.2871 61.1202L32.0749 116.275L41.127 115.493L42.9906 74.8008L48.0491 92.2769L58.9648 93.0593L54.6443 58.5117L28.2871 61.1202Z" fill="#2F2E41"/>
<path d="M49.6467 89.6689L48.0485 92.2774L36.8677 99.8416L44.8548 104.015C44.8548 104.015 60.2965 95.6683 58.9654 93.0598L49.6467 89.6689Z" fill="#2F2E41"/>
<path d="M20.3604 38.8045L23.5114 30.1055C24.2125 28.1699 25.2984 26.3898 26.7063 24.8681C28.1142 23.3464 29.8161 22.1134 31.7137 21.2404C35.9786 19.7011 40.6172 19.4523 45.0282 20.5264L46.1749 20.8052C49.2326 21.5313 52.0975 22.887 54.5791 24.7819C56.5208 26.2816 58.2677 28.1805 58.4232 30.223C58.424 30.2274 58.4253 30.2316 58.427 30.2357C58.9648 32.5452 59.2309 44.5436 59.2309 44.5436H54.487L55.2374 60.7156L55.1768 60.5986C55.1768 60.5986 27.815 65.6716 27.815 63.0631V46.3689L27.2541 40.3244L20.3604 38.8045Z" fill="#2A9D8F"/>
<path d="M45.8999 18.2656C50.0876 18.2656 53.4824 14.9397 53.4824 10.8369C53.4824 6.73416 50.0876 3.4082 45.8999 3.4082C41.7122 3.4082 38.3174 6.73416 38.3174 10.8369C38.3174 14.9397 41.7122 18.2656 45.8999 18.2656Z" fill="#FEB8B8"/>
<path d="M47.0357 7.50512L52.9233 7.73626C53.664 7.73402 54.4728 7.70842 55.037 7.23917C55.8868 6.53107 55.7445 5.1949 55.2894 4.19675C54.021 1.41753 51.1916 0.421869 48.0847 0.50364C44.9777 0.585411 41.7221 1.61711 40.0491 4.18208C38.376 6.74706 37.9239 9.98608 38.5541 12.9666C39.2826 11.4511 40.4041 10.1492 41.8067 9.19104C43.2093 8.23287 44.8439 7.6519 46.5473 7.50611L47.0357 7.50512Z" fill="#2F2E41"/>
<path d="M81.9977 80.169L60.6875 65.5365C60.4896 65.4 60.3548 65.1922 60.3129 64.9586C60.271 64.725 60.3252 64.4846 60.4638 64.2901L77.1898 40.9089C77.3291 40.7149 77.5412 40.583 77.7797 40.5419C78.0181 40.5008 78.2635 40.5539 78.462 40.6897L99.7722 55.3222C99.9702 55.4587 100.105 55.6665 100.147 55.9001C100.189 56.1337 100.135 56.3741 99.9959 56.5686L83.2704 79.9492C83.1311 80.1434 82.919 80.2756 82.6804 80.3168C82.4419 80.358 82.1964 80.3048 81.9977 80.169Z" fill="#439DB6"/>
<path d="M86.7903 64.292L74.2858 55.7059C74.1412 55.6066 74.018 55.4803 73.9232 55.3344C73.8283 55.1884 73.7638 55.0256 73.7332 54.8552C73.7026 54.6848 73.7066 54.5102 73.7449 54.3413C73.7832 54.1724 73.8551 54.0126 73.9564 53.8709C74.0578 53.7292 74.1866 53.6085 74.3356 53.5156C74.4845 53.4227 74.6507 53.3595 74.8247 53.3295C74.9986 53.2995 75.1768 53.3034 75.3492 53.3409C75.5216 53.3784 75.6848 53.4489 75.8294 53.5482L88.3338 62.1342C88.6259 62.3348 88.8247 62.6408 88.8864 62.9849C88.9482 63.329 88.8679 63.6831 88.6632 63.9692C88.4585 64.2554 88.1462 64.4501 87.795 64.5106C87.4437 64.5711 87.0823 64.4925 86.7903 64.292Z" fill="white"/>
<path d="M83.9204 68.3034L71.4159 59.7173C71.2712 59.618 71.1478 59.4918 71.0528 59.3458C70.9578 59.1999 70.8932 59.037 70.8625 58.8665C70.8318 58.696 70.8357 58.5213 70.874 58.3523C70.9123 58.1833 70.9842 58.0234 71.0856 57.8816C71.187 57.7399 71.3159 57.6191 71.465 57.5262C71.614 57.4333 71.7804 57.37 71.9544 57.3401C72.1284 57.3102 72.3067 57.3142 72.4792 57.3518C72.6517 57.3895 72.8149 57.4601 72.9595 57.5596L85.4639 66.1456C85.7556 66.3463 85.9541 66.6522 86.0157 66.9962C86.0773 67.3402 85.997 67.694 85.7924 67.98C85.5878 68.2659 85.2757 68.4606 84.9247 68.5213C84.5737 68.5819 84.2125 68.5035 83.9204 68.3034Z" fill="white"/>
<path d="M81.0195 72.3584L68.5151 63.7723C68.3705 63.673 68.2472 63.5467 68.1524 63.4008C68.0576 63.2548 67.9931 63.092 67.9625 62.9216C67.9319 62.7512 67.9358 62.5766 67.9741 62.4077C68.0124 62.2388 68.0843 62.079 68.1857 61.9373C68.287 61.7956 68.4158 61.6749 68.5648 61.582C68.7138 61.4891 68.88 61.4259 69.0539 61.3959C69.2278 61.3659 69.4061 61.3698 69.5785 61.4073C69.7508 61.4448 69.914 61.5153 70.0586 61.6146L82.5631 70.2007C82.8551 70.4012 83.0539 70.7072 83.1157 71.0513C83.1775 71.3954 83.0972 71.7495 82.8925 72.0356C82.6878 72.3218 82.3755 72.5165 82.0242 72.577C81.673 72.6376 81.3116 72.5589 81.0195 72.3584Z" fill="white"/>
<path d="M86.7551 56.3564L81.9118 53.0307C81.767 52.9315 81.6436 52.8053 81.5486 52.6593C81.4537 52.5134 81.389 52.3505 81.3583 52.18C81.3276 52.0095 81.3315 51.8348 81.3698 51.6658C81.4081 51.4968 81.48 51.3369 81.5814 51.1951C81.6828 51.0534 81.8118 50.9326 81.9608 50.8397C82.1099 50.7467 82.2762 50.6835 82.4502 50.6536C82.6243 50.6237 82.8026 50.6277 82.9751 50.6653C83.1475 50.703 83.3107 50.7736 83.4553 50.873L88.2987 54.1987C88.5907 54.3992 88.7895 54.7052 88.8513 55.0493C88.913 55.3934 88.8328 55.7475 88.6281 56.0336C88.4234 56.3198 88.1111 56.5145 87.7598 56.575C87.4086 56.6356 87.0472 56.5569 86.7551 56.3564Z" fill="white"/>
</g>
<defs>
<clipPath id="clip0_896_2986">
<rect width="171.747" height="128" fill="white" transform="translate(0.126465 0.5)"/>
</clipPath>
</defs>
</svg>
