<svg width="16" height="16" viewBox="0 0 16 16" fill="none" xmlns="http://www.w3.org/2000/svg">
<path fill-rule="evenodd" clip-rule="evenodd" d="M10.3288 4.62319C10.4286 4.71038 10.4898 4.83365 10.4988 4.96592C10.5078 5.09819 10.4639 5.22862 10.3768 5.32853L5.13875 11.3285C5.09182 11.3823 5.03392 11.4254 4.96896 11.4549C4.90399 11.4844 4.83345 11.4997 4.76209 11.4997C4.69072 11.4997 4.62018 11.4844 4.55522 11.4549C4.49025 11.4254 4.43235 11.3823 4.38542 11.3285L2.29009 8.92853C2.20603 8.82821 2.16467 8.69894 2.17486 8.56847C2.18505 8.43799 2.246 8.31671 2.34461 8.23067C2.44322 8.14462 2.57163 8.10067 2.70229 8.10825C2.83294 8.11583 2.95541 8.17433 3.04342 8.27119L4.76209 10.2399L9.62342 4.67119C9.7106 4.57132 9.83388 4.51016 9.96615 4.50115C10.0984 4.49215 10.2288 4.53605 10.3288 4.62319ZM13.6788 4.67986C13.8788 4.86986 13.8861 5.18653 13.6954 5.38653L7.98142 11.3865C7.93151 11.4389 7.87082 11.4799 7.80354 11.5066C7.73626 11.5332 7.66399 11.545 7.59172 11.541C7.51946 11.537 7.44892 11.5173 7.38499 11.4834C7.32106 11.4495 7.26525 11.4021 7.22142 11.3445L6.93542 10.9692C6.8605 10.8715 6.82424 10.7497 6.83358 10.6269C6.84292 10.5042 6.89721 10.3892 6.98604 10.304C7.07487 10.2188 7.19202 10.1694 7.31503 10.1652C7.43805 10.161 7.5583 10.2023 7.65275 10.2812L12.9714 4.69653C13.0629 4.60056 13.1887 4.54482 13.3212 4.54157C13.4537 4.53832 13.5821 4.58782 13.6781 4.67919" fill="white"/>
</svg>
