<svg width="20" height="21" viewBox="0 0 20 21" fill="none" xmlns="http://www.w3.org/2000/svg">
<g clip-path="url(#clip0_2816_4095)">
<path d="M1.66659 5.007C1.44557 5.007 1.23361 4.9192 1.07733 4.76292C0.921049 4.60664 0.833252 4.39468 0.833252 4.17367V3.34033C0.833252 1.962 1.95492 0.840332 3.33325 0.840332H4.16659C4.3876 0.840332 4.59956 0.928129 4.75584 1.08441C4.91212 1.24069 4.99992 1.45265 4.99992 1.67367C4.99992 1.89468 4.91212 2.10664 4.75584 2.26292C4.59956 2.4192 4.3876 2.507 4.16659 2.507H3.33325C2.87409 2.507 2.49992 2.88117 2.49992 3.34033V4.17367C2.49992 4.39468 2.41212 4.60664 2.25584 4.76292C2.09956 4.9192 1.8876 5.007 1.66659 5.007ZM16.6666 5.007C16.4456 5.007 16.2336 4.9192 16.0773 4.76292C15.921 4.60664 15.8333 4.39468 15.8333 4.17367V3.34033C15.8333 2.88117 15.4591 2.507 14.9999 2.507H14.1666C13.9456 2.507 13.7336 2.4192 13.5773 2.26292C13.421 2.10664 13.3333 1.89468 13.3333 1.67367C13.3333 1.45265 13.421 1.24069 13.5773 1.08441C13.7336 0.928129 13.9456 0.840332 14.1666 0.840332H14.9999C16.3783 0.840332 17.4999 1.962 17.4999 3.34033V4.17367C17.4999 4.39468 17.4121 4.60664 17.2558 4.76292C17.0996 4.9192 16.8876 5.007 16.6666 5.007ZM10.8333 2.507H7.49992C7.2789 2.507 7.06694 2.4192 6.91066 2.26292C6.75438 2.10664 6.66658 1.89468 6.66658 1.67367C6.66658 1.45265 6.75438 1.24069 6.91066 1.08441C7.06694 0.928129 7.2789 0.840332 7.49992 0.840332H10.8333C11.0543 0.840332 11.2662 0.928129 11.4225 1.08441C11.5788 1.24069 11.6666 1.45265 11.6666 1.67367C11.6666 1.89468 11.5788 2.10664 11.4225 2.26292C11.2662 2.4192 11.0543 2.507 10.8333 2.507ZM9.16658 17.507H7.49992C7.2789 17.507 7.06694 17.4192 6.91066 17.2629C6.75438 17.1066 6.66658 16.8947 6.66658 16.6737C6.66658 16.4527 6.75438 16.2407 6.91066 16.0844C7.06694 15.9281 7.2789 15.8403 7.49992 15.8403H9.16658C9.3876 15.8403 9.59956 15.9281 9.75584 16.0844C9.91212 16.2407 9.99992 16.4527 9.99992 16.6737C9.99992 16.8947 9.91212 17.1066 9.75584 17.2629C9.59956 17.4192 9.3876 17.507 9.16658 17.507ZM4.16659 17.507H3.33325C1.95492 17.507 0.833252 16.3853 0.833252 15.007V14.1737C0.833252 13.9527 0.921049 13.7407 1.07733 13.5844C1.23361 13.4281 1.44557 13.3403 1.66659 13.3403C1.8876 13.3403 2.09956 13.4281 2.25584 13.5844C2.41212 13.7407 2.49992 13.9527 2.49992 14.1737V15.007C2.49992 15.4662 2.87409 15.8403 3.33325 15.8403H4.16659C4.3876 15.8403 4.59956 15.9281 4.75584 16.0844C4.91212 16.2407 4.99992 16.4527 4.99992 16.6737C4.99992 16.8947 4.91212 17.1066 4.75584 17.2629C4.59956 17.4192 4.3876 17.507 4.16659 17.507ZM1.66659 11.6737C1.44557 11.6737 1.23361 11.5859 1.07733 11.4296C0.921049 11.2733 0.833252 11.0613 0.833252 10.8403V7.507C0.833252 7.28598 0.921049 7.07402 1.07733 6.91774C1.23361 6.76146 1.44557 6.67367 1.66659 6.67367C1.8876 6.67367 2.09956 6.76146 2.25584 6.91774C2.41212 7.07402 2.49992 7.28598 2.49992 7.507V10.8403C2.49992 11.0613 2.41212 11.2733 2.25584 11.4296C2.09956 11.5859 1.8876 11.6737 1.66659 11.6737ZM16.6666 10.007C16.4456 10.007 16.2336 9.9192 16.0773 9.76292C15.921 9.60664 15.8333 9.39468 15.8333 9.17367V7.507C15.8333 7.28598 15.921 7.07402 16.0773 6.91774C16.2336 6.76146 16.4456 6.67367 16.6666 6.67367C16.8876 6.67367 17.0996 6.76146 17.2558 6.91774C17.4121 7.07402 17.4999 7.28598 17.4999 7.507V9.17367C17.4999 9.39468 17.4121 9.60664 17.2558 9.76292C17.0996 9.9192 16.8876 10.007 16.6666 10.007ZM19.8299 16.3603L11.9691 8.4995C11.8931 8.42352 11.7963 8.37178 11.6909 8.35082C11.5855 8.32986 11.4763 8.34062 11.377 8.38174C11.2777 8.42286 11.1929 8.49249 11.1332 8.58183C11.0735 8.67118 11.0416 8.77621 11.0416 8.88367V20.2962C11.0416 20.4044 11.0739 20.5102 11.1344 20.6C11.195 20.6898 11.281 20.7594 11.3813 20.8C11.4817 20.8405 11.592 20.8502 11.6979 20.8277C11.8038 20.8052 11.9005 20.7515 11.9758 20.6737L15.2399 17.2887H19.4474C19.5549 17.2885 19.6599 17.2564 19.7492 17.1966C19.8384 17.1367 19.9079 17.0517 19.9489 16.9523C19.9898 16.8529 20.0004 16.7437 19.9792 16.6383C19.958 16.5329 19.9061 16.4362 19.8299 16.3603Z" fill="#2A9D8F"/>
</g>
<defs>
<clipPath id="clip0_2816_4095">
<rect width="20" height="20" fill="white" transform="translate(0 0.840332)"/>
</clipPath>
</defs>
</svg>
