<svg width="20" height="20" viewBox="0 0 20 20" fill="none" xmlns="http://www.w3.org/2000/svg">
<path d="M18 3V7C18 7.28333 17.904 7.521 17.712 7.713C17.52 7.905 17.2827 8.00067 17 8C16.7173 7.99933 16.48 7.90333 16.288 7.712C16.096 7.52067 16 7.28333 16 7V5.425L12.025 9.375C12.3417 9.84167 12.5833 10.3377 12.75 10.863C12.9167 11.3883 13 11.934 13 12.5C13 14.0333 12.4667 15.3333 11.4 16.4C10.3333 17.4667 9.03333 18 7.5 18C5.96667 18 4.66667 17.4667 3.6 16.4C2.53333 15.3333 2 14.0333 2 12.5C2 10.9667 2.53333 9.66667 3.6 8.6C4.66667 7.53333 5.96667 7 7.5 7C8.05 7 8.59167 7.079 9.125 7.237C9.65833 7.395 10.15 7.641 10.6 7.975L14.575 4H13C12.7167 4 12.4793 3.904 12.288 3.712C12.0967 3.52 12.0007 3.28267 12 3C11.9993 2.71733 12.0953 2.48 12.288 2.288C12.4807 2.096 12.718 2 13 2H17C17.2833 2 17.521 2.096 17.713 2.288C17.905 2.48 18.0007 2.71733 18 3ZM7.5 9C6.53333 9 5.70833 9.34167 5.025 10.025C4.34167 10.7083 4 11.5333 4 12.5C4 13.4667 4.34167 14.2917 5.025 14.975C5.70833 15.6583 6.53333 16 7.5 16C8.46667 16 9.29167 15.6583 9.975 14.975C10.6583 14.2917 11 13.4667 11 12.5C11 11.5333 10.6583 10.7083 9.975 10.025C9.29167 9.34167 8.46667 9 7.5 9Z" fill="#439DB6"/>
</svg>
