<svg width="17" height="17" viewBox="0 0 17 17" fill="none" xmlns="http://www.w3.org/2000/svg">
<path d="M8.49998 1.83301C12.178 1.83301 15.1666 4.79634 15.1666 8.46167C15.1666 9.36967 15.054 10.0223 14.8826 10.5503C14.4753 11.805 13.6333 12.8603 12.6813 13.7503C12.0266 14.3623 11.0553 14.269 10.472 13.689C9.64398 12.8657 9.41731 11.5877 10.3153 10.6957L10.9286 10.0857C11.235 9.78135 11.6475 9.60781 12.0792 9.60159C12.511 9.59537 12.9283 9.75697 13.2433 10.0523C13.428 10.2257 13.5193 10.4323 13.6146 10.139C13.7353 9.76567 13.8333 9.25434 13.8333 8.46167C13.8333 5.54101 11.4493 3.16634 8.49998 3.16634C5.55065 3.16634 3.16665 5.54101 3.16665 8.46167C3.16665 9.25501 3.26465 9.76501 3.38531 10.139C3.48065 10.4323 3.57198 10.2257 3.75665 10.0523C4.07163 9.75697 4.48895 9.59537 4.92071 9.60159C5.35247 9.60781 5.76497 9.78135 6.07131 10.0857L6.68465 10.6957C7.58265 11.5877 7.35598 12.8657 6.52798 13.689C5.94465 14.269 4.97331 14.3623 4.31865 13.751C3.35998 12.855 2.52731 11.8123 2.11731 10.551C1.94665 10.0217 1.83331 9.36901 1.83331 8.46101C1.83331 4.79634 4.82198 1.83301 8.49998 1.83301ZM11.868 11.0317C11.4826 11.4143 10.6746 12.0097 11.2546 12.587C11.3826 12.7137 11.582 12.9523 11.7706 12.7763C12.196 12.379 12.6126 11.9297 12.8926 11.5517C12.6726 11.345 12.2086 10.6937 11.868 11.0317ZM5.13198 11.0317C4.79198 10.6937 4.32731 11.345 4.10731 11.5517C4.38731 11.9297 4.80398 12.3783 5.22931 12.7763C5.41731 12.9523 5.61731 12.7143 5.74531 12.587C6.32531 12.0097 5.51731 11.4143 5.13198 11.0317Z" fill="#828282"/>
</svg>
