<svg width="131" height="119" viewBox="0 0 131 119" fill="none" xmlns="http://www.w3.org/2000/svg">
<path d="M65.5476 34.209V96.3272L44.4205 90.273L45.4111 87.0802L45.8604 68.1847C45.7389 68.4793 44.5936 70.026 43.3525 71.6648C41.2056 74.493 38.2263 76.5774 34.831 77.6196C29.8963 79.1331 23.1534 81.2469 22.9251 81.5526L16.9924 71.0903L32.5699 64.1191L39.6331 49.4881C41.0251 46.4794 43.1353 43.9016 45.7425 41.9609C47.3703 40.7493 49.1858 39.7845 51.1449 39.1179L56.6099 37.2545L65.5476 34.209Z" fill="#2A9D8F"/>
<path d="M16.9844 71.153L11.1567 66.6646C10.7486 66.1129 10.0412 65.8725 9.38164 66.061C8.46026 66.3243 7.95795 67.3157 8.29012 68.2142L11.2078 71.5503C11.4715 72.2636 10.8039 72.6437 10.1509 72.9541L6.88815 74.313C6.57623 74.443 6.26284 74.1315 6.39026 73.8188L7.6313 70.7762C7.72484 70.4492 7.76388 70.1053 7.71269 69.7694C7.66923 69.4844 7.5606 69.1784 7.31386 68.981C6.38437 68.2371 5.01591 68.4577 4.36667 69.4557L2.35928 72.5431C1.16391 74.3815 1.55205 76.8264 3.25784 78.2044L6.91319 81.1568C9.20561 83.0084 12.3627 83.3667 15.012 82.0759L19.8697 79.7622L16.9844 71.153Z" fill="#EF9B74"/>
<path d="M22.8991 81.5014L9.48707 86.2115C7.63472 87.1358 5.43989 86.9775 3.74957 85.8175C3.65383 85.7549 3.56176 85.6849 3.46969 85.6149L1.4774 84.1934C0.472051 83.4127 0.542022 81.8697 1.61734 81.1847L16.9849 71.1533L22.6929 81.1442L22.8991 81.5014Z" fill="#EF9B74"/>
<path d="M9.99425 81.395L2.03613 84.5536" stroke="#21404B" stroke-miterlimit="10" stroke-linecap="round"/>
<path d="M4.6311 79.1688L8.43561 77.4365" stroke="#21404B" stroke-miterlimit="10" stroke-linecap="round"/>
<path d="M74.4333 21.8488C73.7476 23.9633 74.7172 26.1725 76.5987 26.7824C78.4801 27.3922 80.5615 26.1725 81.2472 24.058C81.9329 21.9434 80.9633 19.7342 79.0818 19.1244C77.2004 18.5146 75.119 19.7339 74.4333 21.8488Z" fill="#EF8B5D"/>
<path d="M57.2858 21.8489C57.9715 23.9635 57.0019 26.1727 55.1204 26.7825C53.239 27.3927 51.1576 26.1727 50.4719 24.0581C49.7862 21.9436 50.7558 19.7344 52.6372 19.1245C54.519 18.5143 56.6004 19.734 57.2858 21.8489Z" fill="#EF8B5D"/>
<path d="M54.16 24.7258C55.0791 24.7258 55.8242 23.9807 55.8242 23.0616C55.8242 22.1425 55.0791 21.3975 54.16 21.3975C53.2409 21.3975 52.4958 22.1425 52.4958 23.0616C52.4958 23.9807 53.2409 24.7258 54.16 24.7258Z" stroke="#B86B47" stroke-miterlimit="10" stroke-linecap="round"/>
<path d="M79.1897 23.0616C79.1897 23.9808 78.4447 24.7258 77.5255 24.7258C76.6063 24.7258 75.8613 23.9808 75.8613 23.0616C75.8613 22.1425 76.6063 21.3975 77.5255 21.3975C78.4447 21.3975 79.1897 22.1425 79.1897 23.0616Z" stroke="#B86B47" stroke-miterlimit="10" stroke-linecap="round"/>
<path d="M114.007 71.0903L108.074 81.5526C107.846 81.2469 101.103 79.1331 96.1685 77.6196C92.7731 76.5774 89.7939 74.493 87.6469 71.6648C86.4575 70.096 85.3601 68.6156 85.1612 68.2289C85.1612 68.2289 85.1575 68.2289 85.1575 68.2252C85.1501 68.2105 85.1428 68.1958 85.1391 68.1847L85.5884 87.0802L86.579 90.273L65.4556 96.3272V34.209L79.8546 39.1179C81.7437 39.7624 83.504 40.683 85.0875 41.832C87.7722 43.7911 89.9449 46.4131 91.3664 49.4881L98.4296 64.1191L114.007 71.0903Z" fill="#2A9D8F"/>
<path d="M71.8422 24.7642V36.9297C71.8422 40.3453 69.0732 43.1139 65.6539 43.1139C62.2387 43.1139 59.4697 40.3449 59.4697 36.9297V24.7642H71.8422Z" fill="#EF9B74"/>
<path d="M71.8422 24.7642V36.1213C70.5488 36.6767 69.1189 36.9834 67.6226 36.9834H63.9504C62.3503 36.9834 60.8334 36.6354 59.4697 36.0053V24.7642H71.8422Z" fill="#EF8B5D"/>
<path d="M77.2559 16.4929V25.3102C77.2559 30.7188 72.8754 35.0993 67.4668 35.0993H64.1182C58.7096 35.0993 54.3291 30.7188 54.3291 25.3102V16.4929C54.3291 11.2507 58.5774 7.00244 63.8195 7.00244H67.7655C68.253 7.00244 68.7329 7.04037 69.198 7.11218C73.76 7.8001 77.2559 11.7383 77.2559 16.4929Z" fill="#EF9B74"/>
<path d="M62.0597 19.4766C62.0597 20.6082 61.1423 21.5256 60.0107 21.5256C58.879 21.5256 57.9617 20.6082 57.9617 19.4766" stroke="#090909" stroke-miterlimit="10" stroke-linecap="round"/>
<path d="M74.1427 19.4766C74.1427 20.6082 73.2253 21.5256 72.0937 21.5256C70.962 21.5256 70.0447 20.6082 70.0447 19.4766" stroke="#090909" stroke-miterlimit="10" stroke-linecap="round"/>
<path d="M67.8412 26.4575C67.8412 27.5892 66.9238 28.5065 65.7922 28.5065C64.6605 28.5065 63.7432 27.5892 63.7432 26.4575" stroke="#CC7045" stroke-miterlimit="10" stroke-linecap="round"/>
<path d="M62.3007 23.8524C62.3007 24.565 61.3208 25.1428 60.1122 25.1428C58.9035 25.1428 57.9236 24.565 57.9236 23.8524C57.9236 23.1398 58.9035 22.562 60.1122 22.562C61.3208 22.562 62.3007 23.1398 62.3007 23.8524Z" fill="#EF8B5D"/>
<path d="M73.947 23.8524C73.947 24.565 72.967 25.1428 71.7584 25.1428C70.5498 25.1428 69.5698 24.565 69.5698 23.8524C69.5698 23.1398 70.5498 22.562 71.7584 22.562C72.967 22.562 73.947 23.1398 73.947 23.8524Z" fill="#EF8B5D"/>
<path d="M38.1786 84.9775L33.3765 104.249L19.6072 102.525C13.9728 101.818 10.1097 96.4967 11.1851 90.9213C12.0836 86.2517 16.1713 82.9595 20.8151 82.9595C21.2091 82.9595 21.6068 82.9816 22.0046 83.0294L38.1786 84.9775Z" fill="#EF8B5D"/>
<path d="M111.459 102.525L98.9489 104.09L92.0366 85.0806L109.065 83.0294C109.463 82.9816 109.86 82.9595 110.254 82.9595C114.898 82.9595 118.986 86.2517 119.884 90.9213C120.96 96.4967 117.093 101.818 111.459 102.525Z" fill="#EF8B5D"/>
<path d="M98.949 104.09L65.6214 108.263L65.5367 106.186L65.4483 108.263L33.3765 104.249L38.1786 84.9775L61.0918 87.7395C64.0415 88.0967 67.0281 88.0967 69.9779 87.7395L92.0367 85.0807L98.949 104.09Z" fill="#21404B"/>
<path d="M57.7068 2.30762H55.7525C54.3453 2.30762 53.2048 3.44812 53.2048 4.85524V18.9618L54.3527 19.0543C55.1504 16.1012 57.3419 17.0524 57.3419 14.6966L57.7068 2.30762Z" fill="#090909"/>
<path d="M73.8127 2.30762H75.7671C77.1742 2.30762 78.3147 3.44812 78.3147 4.85524V18.9803L77.249 19.087C77.1054 15.7138 74.2197 16.3895 74.2197 14.0338L73.8127 2.30762Z" fill="#090909"/>
<path d="M76.5917 8.43816C64.8221 14.5587 54.938 8.43816 54.938 8.43816V2.68593C54.938 2.61228 54.9417 2.53863 54.949 2.46498C55.0595 1.22025 56.1054 0.248047 57.3759 0.248047H74.1538C75.5017 0.248047 76.5917 1.3381 76.5917 2.68593C76.5917 2.68593 78.3483 7.52119 76.5917 8.43816Z" fill="#090909"/>
<path d="M114.016 71.153L119.844 66.6646C120.252 66.1129 120.959 65.8725 121.619 66.061C122.54 66.3243 123.043 67.3157 122.71 68.2142L119.793 71.5503C119.529 72.2636 120.197 72.6437 120.85 72.9541L124.113 74.313C124.425 74.443 124.738 74.1315 124.611 73.8188L123.37 70.7762C123.276 70.4492 123.237 70.1053 123.288 69.7694C123.332 69.4844 123.44 69.1784 123.687 68.981C124.617 68.2371 125.985 68.4577 126.634 69.4557L128.642 72.5431C129.837 74.3815 129.449 76.8264 127.743 78.2044L124.087 81.1568C121.795 83.0084 118.638 83.3667 115.989 82.0759L111.131 79.7622L114.016 71.153Z" fill="#EF9B74"/>
<path d="M114.016 71.1533L129.384 81.1844C130.457 81.8701 130.528 83.4109 129.523 84.1927L127.532 85.616C125.808 86.9569 123.467 87.1885 121.514 86.2119L108.1 81.5022L114.016 71.1533Z" fill="#EF9B74"/>
<path d="M121.006 81.395L128.964 84.5536" stroke="#21404B" stroke-miterlimit="10" stroke-linecap="round"/>
<path d="M126.369 79.1688L122.565 77.4365" stroke="#21404B" stroke-miterlimit="10" stroke-linecap="round"/>
<path d="M92.0366 85.0807C92.0366 85.0807 77.9727 89.9491 66.3578 90.251C54.7465 90.553 38.1785 84.9775 38.1785 84.9775L61.0916 87.7395C64.0414 88.0967 67.028 88.0967 69.9778 87.7395L92.0366 85.0807Z" fill="#21404B"/>
<path d="M85.3442 103.179L64.5861 103.218L61.3152 116.784L71.1529 118.596C78.1543 119.885 85.0746 115.976 87.5836 109.313L88.2921 107.432C89.0677 105.373 87.5438 103.175 85.3442 103.179Z" fill="#EF8B5D"/>
<path d="M64.5864 103.216L64.4391 103.823L61.4415 116.259L61.3163 116.782L60.3625 116.458L40.1892 109.649L17.5448 102.004C12.1645 100.188 9.44307 94.2005 11.6084 88.9528C13.1662 85.1855 16.812 82.8765 20.6861 82.8765C21.7172 82.8765 22.7594 83.0385 23.7868 83.381L59.2945 100.645L64.255 103.053L64.5864 103.216Z" fill="#EF9B74"/>
<path d="M107.283 83.3813L66.4832 103.218L69.754 116.784L113.524 102.005C118.904 100.188 121.627 94.2012 119.46 88.9524C117.492 84.1871 112.175 81.7544 107.283 83.3813Z" fill="#EF9B74"/>
<path d="M64.4393 103.823L61.4416 116.259L60.3626 116.458L40.1893 109.649C39.7327 108.875 39.3349 108.054 39.0109 107.189L38.2486 105.171C37.4163 102.961 39.0514 100.604 41.4119 100.608L59.2947 100.645L64.2551 103.053L64.4393 103.823Z" fill="#EF8B5D"/>
<path d="M45.7251 103.179L66.4832 103.218L69.7541 116.784L59.9164 118.596C52.915 119.885 45.9947 115.976 43.4857 109.313L42.7772 107.432C42.0013 105.373 43.5251 103.175 45.7251 103.179Z" fill="#EF9B74"/>
<path d="M43.3315 108.656L49.986 108.184" stroke="#21404B" stroke-miterlimit="10" stroke-linecap="round"/>
<path d="M45.0212 112.334L50.0182 111.683" stroke="#21404B" stroke-miterlimit="10" stroke-linecap="round"/>
<path d="M47.668 115.41L51.3948 114.569" stroke="#21404B" stroke-miterlimit="10" stroke-linecap="round"/>
<path d="M114.007 71.0903L113.731 71.5765L108.074 81.5526C107.846 81.247 101.103 79.1332 96.1685 77.6196C92.7732 76.5774 89.7939 74.4931 87.647 71.6648C86.4575 70.096 85.3601 68.6156 85.1612 68.229C85.1612 68.229 85.1575 68.229 85.1575 68.2253C85.1502 68.1958 85.1465 68.1627 85.1391 68.1332C83.5666 60.1456 84.1485 49.746 84.7856 44.1337C84.8887 43.2314 84.9918 42.4544 85.0876 41.832C87.7722 43.7912 89.9449 46.4132 91.3664 49.4882L98.4296 64.1192L114.007 71.0903Z" fill="#21404B"/>
<path d="M45.8973 68.1332C45.8899 68.1627 45.8862 68.1958 45.8788 68.2253C45.8788 68.229 45.8752 68.229 45.8752 68.229C45.6763 68.6156 44.5789 70.096 43.3894 71.6648C41.2424 74.4931 38.2632 76.5774 34.8678 77.6196C29.9332 79.1332 23.1903 81.247 22.962 81.5526L17.8873 72.6039L17.0293 71.0903L32.6067 64.1192L39.67 49.4882C41.0915 46.4132 43.2642 43.7912 45.9488 41.832C46.0667 42.6017 46.1992 43.6034 46.3208 44.7818C46.9284 50.5156 47.4108 60.4439 45.8973 68.1332Z" fill="#21404B"/>
<path d="M46.3208 44.7818C40.1929 50.9502 35.2361 66.0525 35.2361 66.0525L17.8873 72.6039L17.0293 71.0903L32.6067 64.1192L39.67 49.4882C41.0915 46.4132 43.2642 43.7912 45.9488 41.832C46.0667 42.6017 46.1992 43.6034 46.3208 44.7818Z" fill="#21404B"/>
<path d="M114.007 71.0903L113.731 71.5765L113.02 72.7328L96.8312 65.8831C96.8312 65.8831 92.3679 56.3378 89.2561 50.3204C87.7057 47.3228 86.0522 45.3526 84.7854 44.1337C84.8885 43.2314 84.9916 42.4544 85.0874 41.832C87.772 43.7912 89.9447 46.4132 91.3662 49.4882L98.4295 64.1192L114.007 71.0903Z" fill="#21404B"/>
<path d="M56.6395 37.3801C56.8863 39.5197 46.3208 44.7821 46.3208 44.7821C46.3208 44.7821 45.9784 43.3938 45.7427 41.9613C47.3704 40.7497 49.1859 39.7848 51.1451 39.1183L56.6101 37.2549C56.6248 37.2954 56.6358 37.3359 56.6395 37.3801Z" fill="#2A9D8F"/>
<path d="M22.8996 81.5016L9.4875 86.2116C7.63515 87.1359 5.44032 86.9776 3.75 85.8176L21.1724 78.8096L22.6933 81.1443L22.8996 81.5016Z" fill="#EF8B5D"/>
<path d="M108.09 81.5016L121.502 86.2116C123.354 87.1359 125.549 86.9776 127.239 85.8176L109.817 78.8096L108.296 81.1443L108.09 81.5016Z" fill="#EF8B5D"/>
<path d="M61.6755 15.9287H58.3342" stroke="#090909" stroke-miterlimit="10" stroke-linecap="round"/>
<path d="M73.6706 15.9287H70.3293" stroke="#090909" stroke-miterlimit="10" stroke-linecap="round"/>
<path d="M72.4011 0.248047C72.0623 1.52591 70.8986 2.46498 69.5176 2.46498H54.9492C55.0597 1.22025 56.1056 0.248047 57.3761 0.248047H72.4011Z" fill="#090909"/>
</svg>
