<svg width="20" height="20" viewBox="0 0 20 20" fill="none" xmlns="http://www.w3.org/2000/svg">
<g clip-path="url(#clip0_101_744)">
<path d="M6.66667 15.8334H13.3333M11.1729 1.73343C14.1875 3.07134 16.4725 4.82926 17.6537 5.84467C18.2508 6.35801 18.5838 7.09676 18.6246 7.88301C18.6817 8.96259 18.75 10.6522 18.75 12.5001C18.75 13.9218 18.7096 15.2943 18.665 16.3722C18.6421 16.9723 18.3922 17.5414 17.9659 17.9644C17.5396 18.3875 16.9686 18.633 16.3683 18.6513C14.9267 18.7013 12.7871 18.7501 10 18.7501C7.21292 18.7501 5.07375 18.7009 3.63167 18.6518C3.03136 18.6334 2.46039 18.3879 2.03409 17.9649C1.6078 17.5418 1.35794 16.9727 1.335 16.3726C1.28058 15.0825 1.25224 13.7914 1.25 12.5001C1.25 10.6522 1.31875 8.96259 1.375 7.88301C1.41667 7.09676 1.74917 6.35801 2.34625 5.84467C3.5275 4.82884 5.81292 3.07134 8.82708 1.73343C9.1964 1.56954 9.59596 1.48486 10 1.48486C10.404 1.48486 10.8036 1.56954 11.1729 1.73343Z" stroke="#3F3024" stroke-width="1.5" stroke-linecap="round" stroke-linejoin="round"/>
</g>
<defs>
<clipPath id="clip0_101_744">
<rect width="20" height="20" fill="white"/>
</clipPath>
</defs>
</svg>
