<svg width="24" height="24" viewBox="0 0 24 24" fill="none" xmlns="http://www.w3.org/2000/svg">
<path d="M8.62101 22.222H8.75001C13.19 22.222 15.334 20.473 15.701 16.55C15.7193 16.3519 15.6582 16.1546 15.531 16.0016C15.4039 15.8486 15.2211 15.7523 15.023 15.734C14.8249 15.7157 14.6276 15.7769 14.4746 15.904C14.3216 16.0312 14.2253 16.2139 14.207 16.412C13.914 19.555 12.435 20.723 8.75001 20.723H8.62101C4.55401 20.723 3.112 19.282 3.112 15.214V8.69503C3.112 4.62804 4.55301 3.18604 8.62101 3.18604H8.75001C12.458 3.18604 13.939 4.37504 14.215 7.57404C14.2217 7.67285 14.2483 7.76929 14.2931 7.85761C14.3379 7.94592 14.4001 8.0243 14.4759 8.08805C14.5517 8.1518 14.6396 8.19962 14.7342 8.22865C14.8289 8.25769 14.9285 8.26734 15.027 8.25704C15.1252 8.24873 15.2208 8.22111 15.3084 8.17578C15.3959 8.13044 15.4736 8.06827 15.5371 7.99283C15.6005 7.91739 15.6485 7.83017 15.6781 7.73617C15.7078 7.64217 15.7186 7.54323 15.71 7.44504C15.367 3.46304 13.221 1.68604 8.75101 1.68604H8.62201C3.709 1.68604 1.61301 3.78203 1.61301 8.69503V15.214C1.61301 20.127 3.709 22.223 8.62201 22.223L8.62101 22.222Z" fill="#3F3024"/>
<path d="M8.86314 12.7026H20.2441C20.4431 12.7026 20.6338 12.6236 20.7745 12.483C20.9151 12.3423 20.9941 12.1515 20.9941 11.9526C20.9941 11.7537 20.9151 11.563 20.7745 11.4223C20.6338 11.2817 20.4431 11.2026 20.2441 11.2026H8.86214C8.66323 11.2026 8.47246 11.2817 8.33181 11.4223C8.19116 11.563 8.11214 11.7537 8.11214 11.9526C8.11214 12.1515 8.19116 12.3423 8.33181 12.483C8.47246 12.6236 8.66423 12.7026 8.86314 12.7026Z" fill="#D9B26C"/>
<path d="M18.0104 16.0569C18.1089 16.0571 18.2065 16.0378 18.2975 16C18.3885 15.9622 18.4711 15.9068 18.5404 15.8369L21.8934 12.4829C21.9631 12.4132 22.0184 12.3305 22.0561 12.2395C22.0939 12.1485 22.1133 12.0509 22.1133 11.9524C22.1133 11.8538 22.0939 11.7563 22.0561 11.6652C22.0184 11.5742 21.9631 11.4915 21.8934 11.4219L18.5404 8.06886C18.4708 7.9992 18.3881 7.94393 18.297 7.90623C18.206 7.86853 18.1085 7.84912 18.0099 7.84912C17.9114 7.84912 17.8139 7.86853 17.7228 7.90623C17.6318 7.94393 17.5491 7.9992 17.4794 8.06886C17.4098 8.13853 17.3545 8.22123 17.3168 8.31226C17.2791 8.40328 17.2597 8.50084 17.2597 8.59936C17.2597 8.69788 17.2791 8.79544 17.3168 8.88647C17.3545 8.97749 17.4098 9.0602 17.4794 9.12986L20.3014 11.9519L17.4794 14.7749C17.3743 14.8797 17.3027 15.0134 17.2736 15.1589C17.2446 15.3045 17.2593 15.4554 17.3161 15.5926C17.3728 15.7298 17.469 15.847 17.5924 15.9295C17.7159 16.0119 17.861 16.0559 18.0094 16.0559L18.0104 16.0569Z" fill="#D9B26C"/>
</svg>
