<svg width="48" height="48" viewBox="0 0 48 48" fill="none" xmlns="http://www.w3.org/2000/svg">
<path d="M30.758 44.4441H30.5C21.62 44.4441 17.332 40.9461 16.598 33.1001C16.5614 32.7038 16.6837 32.3093 16.938 32.0032C17.1923 31.6972 17.5578 31.5047 17.954 31.4681C18.3502 31.4315 18.7448 31.5538 19.0508 31.8081C19.3569 32.0624 19.5494 32.4278 19.586 32.8241C20.172 39.1101 23.13 41.4461 30.5 41.4461H30.758C38.892 41.4461 41.776 38.5641 41.776 30.4281V17.3901C41.776 9.25607 38.894 6.37207 30.758 6.37207H30.5C23.084 6.37207 20.122 8.75007 19.57 15.1481C19.5565 15.3457 19.5034 15.5386 19.4138 15.7152C19.3241 15.8918 19.1998 16.0486 19.0482 16.1761C18.8966 16.3036 18.7209 16.3992 18.5315 16.4573C18.3421 16.5154 18.143 16.5347 17.946 16.5141C17.7495 16.4975 17.5583 16.4422 17.3832 16.3516C17.2082 16.2609 17.0527 16.1365 16.9258 15.9857C16.7989 15.8348 16.7031 15.6603 16.6437 15.4723C16.5844 15.2843 16.5627 15.0865 16.58 14.8901C17.266 6.92607 21.558 3.37207 30.498 3.37207H30.756C40.582 3.37207 44.774 7.56407 44.774 17.3901V30.4281C44.774 40.2541 40.582 44.4461 30.756 44.4461L30.758 44.4441Z" fill="#3F3024"/>
<path d="M30.2737 25.4062H7.51172C7.11389 25.4062 6.73236 25.2482 6.45106 24.9669C6.16975 24.6856 6.01172 24.3041 6.01172 23.9062C6.01172 23.5084 6.16975 23.1269 6.45106 22.8456C6.73236 22.5643 7.11389 22.4062 7.51172 22.4062H30.2757C30.6735 22.4062 31.0551 22.5643 31.3364 22.8456C31.6177 23.1269 31.7757 23.5084 31.7757 23.9062C31.7757 24.3041 31.6177 24.6856 31.3364 24.9669C31.0551 25.2482 30.6715 25.4062 30.2737 25.4062Z" fill="#B8574D"/>
<path d="M11.9791 32.1142C11.7821 32.1147 11.587 32.076 11.405 32.0005C11.223 31.925 11.0579 31.8141 10.9191 31.6742L4.21312 24.9662C4.07373 24.8269 3.96315 24.6615 3.88771 24.4795C3.81227 24.2974 3.77344 24.1023 3.77344 23.9052C3.77344 23.7081 3.81227 23.513 3.88771 23.331C3.96315 23.1489 4.07373 22.9835 4.21312 22.8442L10.9191 16.1382C11.0585 15.9989 11.2239 15.8884 11.4059 15.8129C11.588 15.7375 11.7831 15.6987 11.9801 15.6987C12.1772 15.6987 12.3723 15.7375 12.5543 15.8129C12.7364 15.8884 12.9018 15.9989 13.0411 16.1382C13.1805 16.2775 13.291 16.443 13.3664 16.625C13.4418 16.807 13.4806 17.0022 13.4806 17.1992C13.4806 17.3963 13.4418 17.5914 13.3664 17.7734C13.291 17.9555 13.1805 18.1209 13.0411 18.2602L7.39712 23.9042L13.0411 29.5502C13.2513 29.7599 13.3946 30.0272 13.4527 30.3183C13.5109 30.6095 13.4814 30.9113 13.3679 31.1857C13.2543 31.46 13.062 31.6945 12.8151 31.8594C12.5683 32.0244 12.278 32.1123 11.9811 32.1122L11.9791 32.1142Z" fill="#B8574D"/>
</svg>
