<svg width="17" height="17" viewBox="0 0 17 17" fill="none" xmlns="http://www.w3.org/2000/svg">
<path fill-rule="evenodd" clip-rule="evenodd" d="M11.6015 1.68873L11.6455 1.70073C12.3789 1.8974 12.9595 2.05273 13.4162 2.21806C13.8835 2.38673 14.2649 2.5794 14.5789 2.8734C15.0359 3.30175 15.3556 3.856 15.4975 4.46606C15.5955 4.88473 15.5722 5.3114 15.4842 5.80006C15.3995 6.27873 15.2442 6.8594 15.0475 7.59206L14.6902 8.92473C14.4942 9.6574 14.3382 10.2381 14.1735 10.6954C14.0042 11.1621 13.8115 11.5434 13.5175 11.8574C13.1032 12.2998 12.5705 12.6141 11.9829 12.7627C11.8107 13.1575 11.5598 13.5129 11.2455 13.8074C10.9315 14.1014 10.5502 14.2941 10.0829 14.4634C9.62621 14.6287 9.04554 14.7841 8.31287 14.9807L8.26821 14.9927C7.53487 15.1887 6.95487 15.3441 6.47621 15.4301C5.98754 15.5174 5.56087 15.5407 5.14154 15.4434C4.53156 15.3009 3.97754 14.9808 3.54954 14.5234C3.25621 14.2101 3.06287 13.8287 2.89354 13.3614C2.72887 12.9047 2.57354 12.3241 2.37687 11.5907L2.01954 10.2587C1.82354 9.5254 1.66754 8.9454 1.58221 8.46673C1.49487 7.97806 1.47154 7.5514 1.56887 7.13206C1.71134 6.52208 2.0315 5.96806 2.48887 5.54006C2.80221 5.24673 3.18354 5.0534 3.65087 4.88406C4.10754 4.7194 4.68821 4.56406 5.42087 4.3674L5.44354 4.36073L5.94421 4.2274C6.20554 3.29473 6.43487 2.6354 6.88287 2.1574C7.31096 1.70027 7.86497 1.38034 8.47487 1.23806C8.89421 1.14073 9.32021 1.16406 9.80954 1.2514C10.2875 1.33673 10.8682 1.49273 11.6015 1.68873ZM5.64221 5.3434C4.91354 5.53873 4.39154 5.68006 3.99021 5.82473C3.58354 5.9714 3.34554 6.1074 3.17221 6.27006C2.85931 6.56294 2.6403 6.94203 2.54287 7.3594C2.48954 7.5914 2.49021 7.86606 2.56687 8.29073C2.64354 8.72206 2.78821 9.26206 2.99154 10.0221L3.33687 11.3101C3.54021 12.0701 3.68554 12.6101 3.83421 13.0214C3.98087 13.4281 4.11687 13.6667 4.27954 13.8401C4.57242 14.153 4.95151 14.372 5.36887 14.4694C5.60021 14.5227 5.87554 14.5214 6.30021 14.4454C6.73154 14.3687 7.27154 14.2241 8.03154 14.0207C8.79154 13.8167 9.33154 13.6721 9.74354 13.5227C10.1495 13.3761 10.3882 13.2401 10.5615 13.0781C10.6535 12.9914 10.7371 12.8983 10.8122 12.7987C10.6885 12.7811 10.5654 12.76 10.4429 12.7354C9.99487 12.6461 9.45621 12.5021 8.79287 12.3241L8.75421 12.3141C8.02154 12.1174 7.44087 11.9621 6.98421 11.7967C6.51687 11.6281 6.13554 11.4354 5.82154 11.1414C5.3643 10.7131 5.04436 10.1589 4.90221 9.54873C4.80487 9.13006 4.82821 8.7034 4.91554 8.21473C5.00087 7.73606 5.15687 7.1554 5.35287 6.42273L5.64221 5.3434ZM9.63354 2.23606C9.20821 2.1594 8.93354 2.15806 8.70221 2.21206C8.28484 2.30949 7.90575 2.5285 7.61287 2.8414C7.32221 3.1514 7.14287 3.6314 6.83221 4.77006L6.67021 5.3714L6.32487 6.6594C6.12154 7.4194 5.97687 7.9594 5.90021 8.39073C5.82354 8.8154 5.82221 9.09073 5.87621 9.32206C5.97363 9.73943 6.19264 10.1185 6.50554 10.4114C6.67887 10.5741 6.91754 10.7094 7.32354 10.8567C7.73554 11.0054 8.27554 11.1501 9.03554 11.3541C9.71887 11.5374 10.2255 11.6727 10.6375 11.7541C11.0475 11.8361 11.3262 11.8561 11.5542 11.8281C11.604 11.8214 11.652 11.813 11.6982 11.8027C12.1156 11.7053 12.4947 11.4863 12.7875 11.1734C12.9502 11.0001 13.0862 10.7614 13.2329 10.3554C13.3815 9.9434 13.5262 9.4034 13.7302 8.6434L14.0755 7.3554C14.2789 6.5954 14.4235 6.0554 14.5002 5.62406C14.5762 5.1994 14.5782 4.92406 14.5242 4.69273C14.4268 4.27537 14.2078 3.89627 13.8949 3.6034C13.7215 3.44073 13.4829 3.3054 13.0769 3.15806C12.6642 3.0094 12.1249 2.86473 11.3649 2.66073C10.6049 2.4574 10.0649 2.31273 9.63354 2.23606ZM8.04021 6.87873C8.05722 6.81529 8.08657 6.75583 8.12657 6.70374C8.16657 6.65165 8.21645 6.60795 8.27334 6.57514C8.33024 6.54233 8.39304 6.52105 8.45816 6.51251C8.52328 6.50398 8.58945 6.50836 8.65287 6.5254L11.8729 7.38806C11.9974 7.42551 12.1025 7.51 12.1657 7.62361C12.229 7.73723 12.2455 7.87102 12.2118 7.99661C12.178 8.1222 12.0967 8.2297 11.985 8.29632C11.8733 8.36293 11.7401 8.3834 11.6135 8.3534L8.39354 7.49073C8.26557 7.45636 8.15648 7.3726 8.09023 7.25784C8.02398 7.14309 8.00599 7.00674 8.04021 6.87873ZM7.52221 8.81073C7.53922 8.74722 7.56859 8.68769 7.60864 8.63555C7.64868 8.58341 7.69862 8.53967 7.75559 8.50685C7.81256 8.47404 7.87544 8.45277 7.94064 8.44429C8.00584 8.4358 8.07207 8.44026 8.13554 8.4574L10.0669 8.97473C10.195 9.00903 10.3042 9.09282 10.3705 9.20765C10.4369 9.32249 10.4548 9.45896 10.4205 9.58706C10.3862 9.71516 10.3025 9.82439 10.1876 9.89072C10.0728 9.95704 9.93631 9.97503 9.80821 9.94073L7.87621 9.42273C7.74824 9.38836 7.63915 9.3046 7.5729 9.18985C7.50665 9.07509 7.48866 8.93874 7.52287 8.81073" fill="#2A9D8F"/>
</svg>
