<svg width="22" height="24" viewBox="0 0 22 24" fill="none" xmlns="http://www.w3.org/2000/svg">
<g clip-path="url(#clip0_1765_3039)">
<path d="M11 12C12.5913 12 14.1174 11.3679 15.2426 10.2426C16.3679 9.11742 17 7.5913 17 6C17 4.4087 16.3679 2.88258 15.2426 1.75736C14.1174 0.632141 12.5913 0 11 0C9.4087 0 7.88258 0.632141 6.75736 1.75736C5.63214 2.88258 5 4.4087 5 6C5 7.5913 5.63214 9.11742 6.75736 10.2426C7.88258 11.3679 9.4087 12 11 12ZM6.5 14.5875C3.03125 15.6047 0.5 18.8109 0.5 22.6078C0.5 23.3766 1.12344 24 1.89219 24H20.1078C20.8766 24 21.5 23.3766 21.5 22.6078C21.5 18.8109 18.9688 15.6047 15.5 14.5875V16.9688C16.7938 17.3016 17.75 18.4781 17.75 19.875V21.75C17.75 22.1625 17.4125 22.5 17 22.5H16.25C15.8375 22.5 15.5 22.1625 15.5 21.75C15.5 21.3375 15.8375 21 16.25 21V19.875C16.25 19.0453 15.5797 18.375 14.75 18.375C13.9203 18.375 13.25 19.0453 13.25 19.875V21C13.6625 21 14 21.3375 14 21.75C14 22.1625 13.6625 22.5 13.25 22.5H12.5C12.0875 22.5 11.75 22.1625 11.75 21.75V19.875C11.75 18.4781 12.7063 17.3016 14 16.9688V14.2922C13.7188 14.2641 13.4328 14.25 13.1422 14.25H8.85781C8.56719 14.25 8.28125 14.2641 8 14.2922V17.3578C9.08281 17.6812 9.875 18.6844 9.875 19.875C9.875 21.3234 8.69844 22.5 7.25 22.5C5.80156 22.5 4.625 21.3234 4.625 19.875C4.625 18.6844 5.41719 17.6812 6.5 17.3578V14.5875ZM7.25 21C7.54837 21 7.83452 20.8815 8.0455 20.6705C8.25647 20.4595 8.375 20.1734 8.375 19.875C8.375 19.5766 8.25647 19.2905 8.0455 19.0795C7.83452 18.8685 7.54837 18.75 7.25 18.75C6.95163 18.75 6.66548 18.8685 6.4545 19.0795C6.24353 19.2905 6.125 19.5766 6.125 19.875C6.125 20.1734 6.24353 20.4595 6.4545 20.6705C6.66548 20.8815 6.95163 21 7.25 21Z" fill="#21404B"/>
</g>
<defs>
<clipPath id="clip0_1765_3039">
<rect width="21" height="24" fill="white" transform="translate(0.5)"/>
</clipPath>
</defs>
</svg>
