<svg width="20" height="21" viewBox="0 0 20 21" fill="none" xmlns="http://www.w3.org/2000/svg">
<path d="M8.85004 12.1294L7.96671 13.0127L8.85004 13.896L7.96671 14.7794L7.08337 13.896L6.20004 14.7794L5.31671 13.896L6.20004 13.0127L5.31671 12.1294L6.20004 11.246L7.08337 12.1294L7.96671 11.246L8.85004 12.1294ZM13.8 11.246L12.9167 12.1294L12.0334 11.246L11.15 12.1294L12.0334 13.0127L11.15 13.896L12.0334 14.7794L12.9167 13.896L13.8 14.7794L14.6834 13.896L13.8 13.0127L14.6834 12.1294L13.8 11.246ZM19.1667 12.596V15.096C19.1667 15.5544 18.7917 15.9294 18.3334 15.9294H17.5V16.7627C17.5 17.6877 16.7584 18.4294 15.8334 18.4294H4.16671C3.72468 18.4294 3.30076 18.2538 2.9882 17.9412C2.67564 17.6286 2.50004 17.2047 2.50004 16.7627V15.9294H1.66671C1.20837 15.9294 0.833374 15.5544 0.833374 15.096V12.596C0.833374 12.1377 1.20837 11.7627 1.66671 11.7627H2.50004C2.50004 8.5377 5.10837 5.92936 8.33337 5.92936H9.16671V4.87103C8.66671 4.5877 8.33337 4.04603 8.33337 3.42936C8.33337 2.5127 9.08337 1.7627 10 1.7627C10.9167 1.7627 11.6667 2.5127 11.6667 3.42936C11.6667 4.04603 11.3334 4.5877 10.8334 4.87103V5.92936H11.6667C14.8917 5.92936 17.5 8.5377 17.5 11.7627H18.3334C18.7917 11.7627 19.1667 12.1377 19.1667 12.596ZM17.5 13.4294H15.8334V11.7627C15.8334 9.4627 13.9667 7.59603 11.6667 7.59603H8.33337C6.03337 7.59603 4.16671 9.4627 4.16671 11.7627V13.4294H2.50004V14.2627H4.16671V16.7627H15.8334V14.2627H17.5V13.4294Z" fill="#439DB6"/>
</svg>
