<svg width="21" height="22" viewBox="0 0 21 22" fill="none" xmlns="http://www.w3.org/2000/svg">
<path fill-rule="evenodd" clip-rule="evenodd" d="M9.02349 3.2334C8.00045 3.23353 6.99208 3.47676 6.08148 3.94304C5.17088 4.40933 4.38411 5.08532 3.78601 5.91531C3.18791 6.7453 2.7956 7.70554 2.64139 8.71689C2.48719 9.72824 2.57552 10.7618 2.8991 11.7323C3.22267 12.7028 3.77224 13.5825 4.5025 14.299C5.23277 15.0155 6.12283 15.5482 7.09935 15.8532C8.07587 16.1582 9.11088 16.2268 10.1191 16.0533C11.1273 15.8798 12.0799 15.4693 12.8983 14.8555C12.947 14.9982 13.0276 15.1317 13.1418 15.245L16.366 18.4692C16.5576 18.6548 16.8145 18.7576 17.0813 18.7555C17.348 18.7533 17.6032 18.6463 17.7917 18.4575C17.9803 18.2688 18.087 18.0134 18.0888 17.7467C18.0907 17.4799 17.9876 17.2231 17.8017 17.0318L14.5776 13.8076C14.4684 13.6979 14.3353 13.6149 14.1888 13.565C14.9085 12.6057 15.3469 11.4649 15.4547 10.2706C15.5625 9.0762 15.3355 7.8754 14.7993 6.80276C14.263 5.73012 13.4386 4.82803 12.4184 4.19759C11.3983 3.56715 10.2227 3.23328 9.02349 3.2334ZM4.19566 9.6901C4.19566 9.0561 4.32053 8.42831 4.56315 7.84257C4.80577 7.25683 5.16139 6.72461 5.6097 6.27631C6.058 5.828 6.59022 5.47238 7.17596 5.22976C7.7617 4.98714 8.38949 4.86227 9.02349 4.86227C9.65749 4.86227 10.2853 4.98714 10.871 5.22976C11.4568 5.47238 11.989 5.828 12.4373 6.27631C12.8856 6.72461 13.2412 7.25683 13.4838 7.84257C13.7264 8.42831 13.8513 9.0561 13.8513 9.6901C13.8513 10.9705 13.3427 12.1985 12.4373 13.1039C11.5319 14.0093 10.3039 14.5179 9.02349 14.5179C7.74307 14.5179 6.51509 14.0093 5.6097 13.1039C4.7043 12.1985 4.19566 10.9705 4.19566 9.6901Z" fill="#2A9D8F"/>
</svg>
