<svg width="24" height="24" viewBox="0 0 24 24" fill="none" xmlns="http://www.w3.org/2000/svg">
<path d="M12 24C18.6274 24 24 18.6274 24 12C24 5.37258 18.6274 0 12 0C5.37258 0 0 5.37258 0 12C0 18.6274 5.37258 24 12 24Z" fill="#D9B26C"/>
<path fill-rule="evenodd" clip-rule="evenodd" d="M6.63867 19.1734C9.48885 17.4467 10.1267 20.1638 11.5544 19.2982C13.8564 17.9024 14.2608 19.7992 15.5078 19.4351C16.6676 19.0963 16.8316 18.545 18.2335 19.4532C17.5642 19.1454 16.9817 19.0509 16.3357 19.4216C13.8558 20.8455 14.2661 18.1862 12.0097 19.5542C9.94814 20.8039 9.86108 17.8472 6.63867 19.1734Z" fill="#D9B26C"/>
<path fill-rule="evenodd" clip-rule="evenodd" d="M6.49511 9.56456C6.49511 9.46562 6.45473 9.37632 6.38988 9.3117C6.32482 9.24708 6.23394 9.20714 6.13343 9.20714C6.03291 9.20714 5.94204 9.24708 5.87698 9.3117C5.81191 9.37609 5.77174 9.46562 5.77174 9.56456C5.77174 9.80913 5.87159 10.0306 6.03269 10.1906C6.19401 10.3508 6.41771 10.4497 6.66519 10.4497C6.91267 10.4497 7.13637 10.3505 7.29769 10.1906C7.45901 10.0306 7.55863 9.80935 7.55863 9.56456C7.55863 9.17416 7.39933 8.821 7.14175 8.56567C6.88417 8.31011 6.52742 8.15193 6.13298 8.15193C5.73854 8.15193 5.38201 8.31011 5.12421 8.56567C4.86686 8.821 4.70733 9.17438 4.70733 9.56456C4.70733 10.1006 4.92609 10.5857 5.27993 10.9366C5.63376 11.2877 6.12333 11.5049 6.66474 11.5049C7.20592 11.5049 7.69572 11.2877 8.04955 10.9366C8.40338 10.5857 8.62215 10.1006 8.62215 9.56456C8.62215 8.88293 8.3437 8.26568 7.89361 7.81941C7.44353 7.37291 6.8209 7.09649 6.13276 7.09649C5.44461 7.09649 4.82199 7.37269 4.3719 7.81941C3.92181 8.26591 3.64337 8.88293 3.64337 9.56456C3.64337 10.392 3.98127 11.141 4.52761 11.6828C5.07418 12.2249 5.82963 12.5604 6.66474 12.5604C7.49985 12.5604 8.2553 12.2252 8.80187 11.6828C9.34821 11.141 9.68611 10.392 9.68611 9.56456C9.68611 8.59147 9.28875 7.71037 8.64615 7.07316C8.00356 6.4355 7.11483 6.04128 6.13298 6.04128C5.15114 6.04128 4.26241 6.43572 3.61981 7.07316C2.97722 7.71059 2.57985 8.59147 2.57985 9.56456C2.57985 10.6835 3.0369 11.6963 3.77553 12.4291C4.51438 13.1621 5.53593 13.6156 6.66474 13.6156C7.79355 13.6156 8.81511 13.1621 9.55396 12.4291C10.2928 11.6963 10.7499 10.6835 10.7499 9.56456H11.0902C11.0902 10.7771 10.5946 11.8749 9.79336 12.6699C8.99236 13.4646 7.88599 13.9562 6.66474 13.9562C5.44349 13.9562 4.33712 13.4646 3.53612 12.6699C2.73489 11.8751 2.23926 10.7771 2.23926 9.56456C2.23926 8.49791 2.67543 7.53177 3.38041 6.83241C4.08515 6.13327 5.05847 5.70068 6.13298 5.70068C7.20749 5.70068 8.18059 6.13327 8.88533 6.83241C9.5903 7.53177 10.0265 8.49791 10.0265 9.56456C10.0265 10.4856 9.64999 11.3196 9.04105 11.9236C8.43255 12.5274 7.59206 12.9007 6.66474 12.9007C5.73719 12.9007 4.89692 12.5274 4.28843 11.9236C3.67971 11.3198 3.30322 10.4856 3.30322 9.56456C3.30322 8.78914 3.62026 8.08709 4.13272 7.57866C4.64496 7.07046 5.3524 6.7559 6.13298 6.7559C6.91357 6.7559 7.62101 7.07024 8.13325 7.57866C8.64571 8.08709 8.96274 8.78914 8.96274 9.56456C8.96274 10.1941 8.70517 10.7645 8.28896 11.1773C7.87298 11.59 7.29858 11.8455 6.66474 11.8455C6.03089 11.8455 5.45673 11.5902 5.04053 11.1773C4.62432 10.7645 4.36674 10.1941 4.36674 9.56456C4.36674 9.0806 4.56486 8.64218 4.88481 8.32492C5.20454 8.00766 5.64587 7.81134 6.13276 7.81134C6.61964 7.81134 7.06098 8.00766 7.38071 8.32492C7.70066 8.6424 7.89878 9.0806 7.89878 9.56456C7.89878 9.90269 7.76034 10.2092 7.53665 10.4311C7.31317 10.6528 7.00466 10.7901 6.66474 10.7901C6.32482 10.7901 6.01631 10.653 5.79284 10.4311C5.56914 10.2092 5.4307 9.90269 5.4307 9.56456C5.4307 9.37205 5.50968 9.1975 5.63713 9.07118C5.76434 8.94486 5.9398 8.86677 6.13298 8.86677C6.32594 8.86677 6.50139 8.94486 6.62861 9.07118C6.75605 9.1975 6.83504 9.37205 6.83504 9.56456H6.49511Z" fill="#231F20"/>
<path fill-rule="evenodd" clip-rule="evenodd" d="M16.8096 9.81211C16.7145 9.78474 16.6175 9.79865 16.5374 9.84308C16.4573 9.88773 16.3936 9.96379 16.3658 10.0605C16.338 10.1572 16.3512 10.2552 16.3952 10.336C16.4389 10.4163 16.5139 10.4798 16.6088 10.5072C16.8439 10.575 17.0842 10.5404 17.2826 10.43C17.4811 10.3194 17.6384 10.1321 17.7071 9.89423C17.7757 9.6564 17.7425 9.41408 17.6335 9.21462C17.5247 9.01537 17.3396 8.85809 17.1044 8.79011C16.7295 8.68196 16.3458 8.73693 16.029 8.91351C15.712 9.09009 15.4611 9.38895 15.3516 9.76791C15.2421 10.1469 15.2953 10.5332 15.4694 10.8518C15.6433 11.17 15.9386 11.4211 16.3137 11.5294C16.8287 11.6782 17.3555 11.6024 17.7908 11.3598C18.2263 11.1173 18.5707 10.7069 18.7208 10.187C18.8709 9.66695 18.798 9.13631 18.559 8.69879C18.3201 8.26171 17.9146 7.91686 17.3995 7.7681C16.7445 7.57895 16.0743 7.67521 15.5206 7.98394C14.9666 8.29268 14.5284 8.81412 14.3377 9.47533C14.1468 10.1366 14.2397 10.8112 14.5437 11.3677C14.8477 11.9239 15.3633 12.3625 16.0185 12.5515C16.8134 12.781 17.6268 12.6641 18.299 12.2896C18.9714 11.9149 19.5032 11.282 19.7347 10.4798C19.9663 9.67749 19.8536 8.85876 19.4845 8.18319C19.1154 7.50805 18.4895 6.97562 17.6945 6.74609C16.7596 6.47618 15.8028 6.61371 15.0124 7.05438C14.2215 7.49504 13.5962 8.23928 13.3238 9.18276C13.0514 10.1262 13.1838 11.0892 13.6182 11.8835C14.0523 12.6775 14.7885 13.3038 15.7234 13.5737C16.7984 13.884 17.8982 13.7258 18.8072 13.2194C19.7163 12.7128 20.4354 11.857 20.7484 10.7724C21.0614 9.68804 20.9093 8.58077 20.4098 7.66736C19.9106 6.75439 19.0643 6.03417 17.9893 5.72386L18.0838 5.39673C19.2487 5.73306 20.1662 6.51387 20.7074 7.50401C21.2488 8.49416 21.4141 9.6932 21.0753 10.8667C20.7365 12.0401 19.9575 12.9665 18.9719 13.5158C17.986 14.0651 16.7937 14.2367 15.6287 13.9006C14.6038 13.6046 13.7968 12.9176 13.3204 12.0464C12.8441 11.1752 12.6985 10.1202 12.9966 9.08807C13.2946 8.05574 13.9801 7.2406 14.8475 6.75754C15.7149 6.27424 16.764 6.12302 17.789 6.41896C18.6739 6.67452 19.3708 7.26753 19.7821 8.01984C20.1933 8.77193 20.319 9.68287 20.0618 10.5741C19.8047 11.465 19.2128 12.1689 18.4639 12.5862C17.7149 13.0036 16.8092 13.1341 15.9242 12.8786C15.1793 12.6636 14.5926 12.1642 14.2464 11.5308C13.9002 10.8976 13.7943 10.1309 14.0108 9.38087C14.2273 8.6308 14.7256 8.03847 15.3559 7.6871C15.9866 7.33574 16.749 7.22602 17.4939 7.44097C18.0988 7.61553 18.5754 8.02119 18.8565 8.53567C19.1377 9.04993 19.2236 9.67255 19.0479 10.2815C18.8722 10.8904 18.4675 11.3713 17.9555 11.6567C17.4432 11.9421 16.824 12.0314 16.2191 11.8566C15.7542 11.7224 15.3878 11.4105 15.1717 11.0152C14.9556 10.6198 14.8894 10.1415 15.0245 9.67368C15.1596 9.20586 15.4706 8.83633 15.8641 8.61712C16.2576 8.39768 16.7338 8.32902 17.1987 8.46342C17.5235 8.55721 17.7796 8.7753 17.9308 9.05172C18.0818 9.32792 18.128 9.66246 18.0338 9.98892C17.9395 10.3156 17.7221 10.5739 17.447 10.7271C17.1717 10.8806 16.839 10.9286 16.5141 10.8348C16.3292 10.7814 16.1834 10.6571 16.0972 10.4996C16.0113 10.3423 15.9848 10.152 16.0382 9.96648C16.0918 9.78093 16.2155 9.63419 16.3721 9.54691C16.5289 9.45963 16.7183 9.43203 16.9034 9.48543L16.8096 9.81211Z" fill="#231F20"/>
<path fill-rule="evenodd" clip-rule="evenodd" d="M6.63867 19.0898C9.48885 17.6082 10.1375 19.7797 11.565 19.0373C13.867 17.8398 14.2713 19.4672 15.5184 19.1546C16.6781 18.8638 16.8314 18.5506 18.2332 19.3298C17.5639 19.0658 16.992 18.825 16.3461 19.1432C13.8661 20.3646 14.2762 18.0835 12.02 19.2569C9.95868 20.329 9.86108 17.952 6.63867 19.0898Z" fill="#8A5A3C"/>
<path fill-rule="evenodd" clip-rule="evenodd" d="M1.91016 6.65678C3.40783 4.65382 7.07584 3.83016 9.50599 4.13799C6.84406 2.827 2.92678 3.49226 1.91016 6.65678Z" fill="#231F20"/>
<path fill-rule="evenodd" clip-rule="evenodd" d="M21.0753 6.77157C19.5777 4.76861 15.9096 3.94495 13.4795 4.25279C16.1416 2.94179 20.0587 3.60682 21.0753 6.77157Z" fill="#231F20"/>
</svg>
