<svg width="16" height="16" viewBox="0 0 16 16" fill="none" xmlns="http://www.w3.org/2000/svg">
<path d="M15.197 1.93054L15.7648 1.37075C15.9154 1.22017 16 1.01593 16 0.802968C16 0.590008 15.9154 0.38577 15.7648 0.235184C15.6142 0.0845981 15.41 0 15.197 0C14.9841 0 14.7798 0.0845981 14.6292 0.235184L13.5097 1.36276L11.2465 3.62589L6.20045 8.66398C5.3736 8.11845 4.37368 7.89928 3.39446 8.04892C2.41523 8.19857 1.52641 8.70638 0.900218 9.47395C0.27403 10.2415 -0.0449407 11.2142 0.00511094 12.2035C0.0551626 13.1929 0.470673 14.1284 1.17113 14.8289C1.87159 15.5293 2.80712 15.9448 3.79645 15.9949C4.78578 16.0449 5.75847 15.726 6.52605 15.0998C7.29362 14.4736 7.80143 13.5848 7.95108 12.6055C8.10072 11.6263 7.88155 10.6264 7.33602 9.79955L11.8063 5.32125L13.5017 7.0246C13.5762 7.09864 13.6647 7.15727 13.7619 7.19713C13.8591 7.237 13.9632 7.25733 14.0683 7.25696C14.1734 7.25659 14.2773 7.23552 14.3743 7.19497C14.4712 7.15441 14.5592 7.09516 14.6332 7.0206C14.7073 6.94604 14.7659 6.85763 14.8058 6.76041C14.8456 6.66319 14.866 6.55907 14.8656 6.45399C14.8652 6.34891 14.8442 6.24494 14.8036 6.148C14.7631 6.05107 14.7038 5.96307 14.6292 5.88903L12.9339 4.19368L14.0695 3.06611L14.6292 3.62589C14.7033 3.70046 14.7913 3.75971 14.8882 3.80026C14.9852 3.84081 15.0891 3.86188 15.1942 3.86225C15.2993 3.86262 15.4034 3.84229 15.5006 3.80242C15.5978 3.76256 15.6863 3.70393 15.7608 3.62989C15.8354 3.55586 15.8946 3.46786 15.9352 3.37092C15.9757 3.27399 15.9968 3.17001 15.9972 3.06494C15.9975 2.95986 15.9772 2.85574 15.9373 2.75852C15.8975 2.6613 15.8389 2.57289 15.7648 2.49832L15.197 1.93054ZM4.00129 14.3978C3.52679 14.3978 3.06296 14.2571 2.66843 13.9935C2.2739 13.7299 1.9664 13.3552 1.78482 12.9168C1.60324 12.4784 1.55573 11.996 1.6483 11.5307C1.74087 11.0653 1.96936 10.6378 2.30488 10.3023C2.6404 9.96678 3.06787 9.73829 3.53325 9.64572C3.99863 9.55315 4.481 9.60066 4.91938 9.78224C5.35776 9.96382 5.73244 10.2713 5.99606 10.6658C6.25967 11.0604 6.40038 11.5242 6.40038 11.9987C6.40038 12.635 6.14762 13.2452 5.6977 13.6951C5.24778 14.145 4.63757 14.3978 4.00129 14.3978Z" fill="#D9B26C"/>
</svg>
