<svg width="16" height="16" viewBox="0 0 16 16" fill="none" xmlns="http://www.w3.org/2000/svg">
<path d="M7.99951 1.66663C8.78358 1.66639 9.54707 1.91749 10.1779 2.38307C10.8088 2.84866 11.2738 3.50421 11.5047 4.25351C11.7356 5.0028 11.7202 5.80639 11.4608 6.5463C11.2015 7.28622 10.7117 7.92351 10.0635 8.36463C11.1886 8.77729 12.1645 9.51724 12.8655 10.4892C13.5664 11.4612 13.9605 12.6208 13.9968 13.8186C14.0002 13.8851 13.9903 13.9516 13.9677 14.0142C13.945 14.0768 13.9101 14.1343 13.865 14.1832C13.8198 14.2321 13.7654 14.2716 13.7048 14.2992C13.6442 14.3268 13.5787 14.342 13.5122 14.3439C13.4456 14.3459 13.3794 14.3345 13.3173 14.3105C13.2552 14.2865 13.1985 14.2504 13.1505 14.2042C13.1026 14.158 13.0644 14.1027 13.0381 14.0415C13.0118 13.9803 12.998 13.9145 12.9975 13.848C12.9578 12.5489 12.4139 11.3164 11.481 10.4116C10.548 9.50673 9.29948 9.00069 7.99985 9.00069C6.70021 9.00069 5.45164 9.50673 4.51873 10.4116C3.58582 11.3164 3.04188 12.5489 3.00218 13.848C2.9982 13.9806 2.94171 14.1062 2.84513 14.1971C2.74854 14.2881 2.61979 14.3369 2.48718 14.333C2.35457 14.329 2.22897 14.2725 2.13802 14.1759C2.04706 14.0793 1.9982 13.9506 2.00218 13.818C2.03868 12.6202 2.43277 11.4608 3.13375 10.489C3.83473 9.5171 4.81051 8.77725 5.93551 8.36463C5.2873 7.92351 4.79757 7.28622 4.53818 6.5463C4.27879 5.80639 4.26342 5.0028 4.49432 4.25351C4.72522 3.50421 5.19022 2.84866 5.82109 2.38307C6.45195 1.91749 7.21545 1.66639 7.99951 1.66663ZM5.33285 5.33329C5.33285 6.04054 5.6138 6.71881 6.11389 7.21891C6.61399 7.71901 7.29227 7.99996 7.99951 7.99996C8.70676 7.99996 9.38503 7.71901 9.88513 7.21891C10.3852 6.71881 10.6662 6.04054 10.6662 5.33329C10.6662 4.62605 10.3852 3.94777 9.88513 3.44767C9.38503 2.94758 8.70676 2.66663 7.99951 2.66663C7.29227 2.66663 6.61399 2.94758 6.11389 3.44767C5.6138 3.94777 5.33285 4.62605 5.33285 5.33329Z" fill="#D9B26C" stroke="#D9B26C" stroke-width="0.7"/>
</svg>
