<svg width="23" height="24" viewBox="0 0 23 24" fill="none" xmlns="http://www.w3.org/2000/svg">
<path d="M10.3179 23.9999C16.0164 23.9999 20.6359 19.3804 20.6359 13.6819C20.6359 7.98351 16.0164 3.36401 10.3179 3.36401C4.6195 3.36401 0 7.98351 0 13.6819C0 19.3804 4.6195 23.9999 10.3179 23.9999Z" fill="#D9B26C"/>
<path fill-rule="evenodd" clip-rule="evenodd" d="M9.88293 8.69145C9.88601 8.72578 9.88755 8.76051 9.88755 8.79543C9.88755 9.93269 8.28015 10.895 6.29828 10.8545C3.61284 10.7995 2.69358 9.3493 2.7667 8.50952C2.86104 9.59836 4.3768 10.6465 6.29828 10.6465C8.21976 10.6467 9.78859 9.78048 9.88293 8.69145Z" fill="#D9B26C"/>
<path fill-rule="evenodd" clip-rule="evenodd" d="M17.8325 8.69145C17.8356 8.72578 17.8369 8.76051 17.8369 8.79543C17.8369 9.93269 16.2299 10.8545 14.2479 10.8545C12.2112 10.8545 10.6196 9.61862 10.7161 8.50952C10.8104 9.59836 12.3262 10.6465 14.2479 10.6465C16.1695 10.6467 17.7384 9.78048 17.8325 8.69145Z" fill="#D9B26C"/>
<path fill-rule="evenodd" clip-rule="evenodd" d="M10.1671 19.1808C10.7717 19.1808 11.2648 18.0302 11.2648 16.6196C11.2648 15.2089 10.7717 14.0583 10.1671 14.0583C9.56244 14.0583 9.06934 15.2089 9.06934 16.6196C9.06934 18.0302 9.56244 19.1808 10.1671 19.1808Z" fill="#D9B26C"/>
<path fill-rule="evenodd" clip-rule="evenodd" d="M10.1856 18.7599C10.7902 18.7599 11.2833 17.6093 11.2833 16.1987C11.2833 14.788 10.7902 13.6375 10.1856 13.6375C9.58099 13.6375 9.08789 14.788 9.08789 16.1987C9.08789 17.6093 9.58099 18.7599 10.1856 18.7599Z" fill="#8A5A3C"/>
<path fill-rule="evenodd" clip-rule="evenodd" d="M9.93642 8.50952C9.93951 8.54386 9.94106 8.57859 9.94106 8.61351C9.94106 9.75077 8.33403 10.6725 6.35178 10.6725C4.36953 10.6725 2.7627 9.75058 2.7627 8.61351C2.7627 8.57859 2.76425 8.54405 2.76733 8.50952C2.86167 9.59836 4.4305 10.4648 6.35198 10.4648C8.27327 10.4648 9.84208 9.59855 9.93642 8.50952Z" fill="#231F20"/>
<path fill-rule="evenodd" clip-rule="evenodd" d="M17.8856 8.50952C17.8887 8.54386 17.8901 8.57859 17.8901 8.61351C17.8901 9.75077 16.2832 10.6725 14.301 10.6725C12.3187 10.6725 10.7119 9.75058 10.7119 8.61351C10.7119 8.57859 10.7135 8.54405 10.7164 8.50952C10.8107 9.59836 12.3795 10.4648 14.301 10.4648C16.2225 10.4648 17.7913 9.59855 17.8856 8.50952Z" fill="#231F20"/>
<path fill-rule="evenodd" clip-rule="evenodd" d="M10.7626 18.3773C10.7626 18.3773 11.1457 18.4667 11.42 19.2901C11.6944 20.1132 11.9506 20.9914 11.42 20.8633C10.8895 20.7352 11.2372 20.0035 10.981 19.4546C10.7248 18.9058 10.5581 18.8519 10.4769 18.6685C10.3657 18.4173 10.5398 18.3384 10.7626 18.3773Z" fill="#E6E7E8"/>
<path d="M19.5837 3.32666C19.6505 3.43778 19.7803 3.65675 19.9732 3.98355C19.9395 4.14213 19.881 4.46006 19.7981 4.93677C19.7622 5.08609 19.7342 5.24178 19.7141 5.40344C19.674 5.60775 19.6541 5.76073 19.654 5.8624L20.5533 5.30505L20.9664 5.95423C20.289 6.34721 19.7446 6.69234 19.3329 6.98982L18.8391 6.37923C18.8653 6.21776 18.922 5.90253 19.0094 5.43392L19.2044 4.44868C18.988 4.59472 18.7644 4.75639 18.5342 4.93426L18.0518 4.30187L19.5837 3.32666Z" fill="#231F20"/>
<path d="M22.9627 2.9191C22.947 3.01806 22.9154 3.21214 22.8679 3.50133C22.7595 3.57637 22.549 3.7311 22.2365 3.96588C22.132 4.03437 22.0293 4.11057 21.9288 4.1943C21.7918 4.29249 21.6958 4.3712 21.6408 4.43043L22.5413 4.56818L22.4663 5.15812C21.8026 5.03871 21.2534 4.95961 20.8184 4.92122L20.8187 4.31217C20.9233 4.23172 21.1315 4.07739 21.4425 3.84974L22.1042 3.37689C21.8812 3.35046 21.6446 3.32982 21.3954 3.31497L21.4151 2.69897L22.9627 2.9191Z" fill="#231F20"/>
<path d="M19.054 0C19.0799 0.0966529 19.1297 0.286872 19.2036 0.570657C19.1353 0.683129 19.0062 0.910003 18.8162 1.25109C18.7485 1.35603 18.686 1.46735 18.6283 1.58464C18.5432 1.72991 18.4876 1.84065 18.4614 1.91704L19.338 1.67821L19.5088 2.2479C18.8553 2.40745 18.3227 2.55792 17.9106 2.69914L17.6641 2.14218C17.7268 2.02624 17.8539 1.80091 18.0453 1.46677L18.4568 0.766278C18.2426 0.832642 18.0186 0.909424 17.7854 0.996817L17.5537 0.425967L19.054 0Z" fill="#231F20"/>
<path fill-rule="evenodd" clip-rule="evenodd" d="M3.00293 7.31975C4.44674 6.28146 7.25933 6.44717 8.97149 7.12317C7.26859 5.73646 4.30282 5.41718 3.00293 7.31975Z" fill="#231F20"/>
<path fill-rule="evenodd" clip-rule="evenodd" d="M11.1494 7.0739C12.5932 6.03561 15.4058 6.20133 17.118 6.87732C15.4151 5.49061 12.4495 5.17133 11.1494 7.0739Z" fill="#231F20"/>
</svg>
