<svg width="20" height="21" viewBox="0 0 20 21" fill="none" xmlns="http://www.w3.org/2000/svg">
<path d="M10.0001 18.4313C5.39758 18.4313 1.66675 14.7005 1.66675 10.098C1.66675 5.49548 5.39758 1.76465 10.0001 1.76465C14.6026 1.76465 18.3334 5.49548 18.3334 10.098C18.3334 14.7005 14.6026 18.4313 10.0001 18.4313ZM10.0001 16.7646C11.7682 16.7646 13.4639 16.0623 14.7141 14.812C15.9644 13.5618 16.6667 11.8661 16.6667 10.098C16.6667 8.32987 15.9644 6.63418 14.7141 5.38394C13.4639 4.13369 11.7682 3.43132 10.0001 3.43132C8.23197 3.43132 6.53628 4.13369 5.28604 5.38394C4.03579 6.63418 3.33341 8.32987 3.33341 10.098C3.33341 11.8661 4.03579 13.5618 5.28604 14.812C6.53628 16.0623 8.23197 16.7646 10.0001 16.7646ZM10.0001 5.93131C10.2211 5.93131 10.4331 6.01911 10.5893 6.17539C10.7456 6.33167 10.8334 6.54363 10.8334 6.76465V10.9313C10.8334 11.1523 10.7456 11.3643 10.5893 11.5206C10.4331 11.6769 10.2211 11.7646 10.0001 11.7646C9.77907 11.7646 9.56711 11.6769 9.41083 11.5206C9.25455 11.3643 9.16675 11.1523 9.16675 10.9313V6.76465C9.16675 6.54363 9.25455 6.33167 9.41083 6.17539C9.56711 6.01911 9.77907 5.93131 10.0001 5.93131ZM10.0001 14.2646C9.77907 14.2646 9.56711 14.1769 9.41083 14.0206C9.25455 13.8643 9.16675 13.6523 9.16675 13.4313C9.16675 13.2103 9.25455 12.9983 9.41083 12.8421C9.56711 12.6858 9.77907 12.598 10.0001 12.598C10.2211 12.598 10.4331 12.6858 10.5893 12.8421C10.7456 12.9983 10.8334 13.2103 10.8334 13.4313C10.8334 13.6523 10.7456 13.8643 10.5893 14.0206C10.4331 14.1769 10.2211 14.2646 10.0001 14.2646Z" fill="#439DB6"/>
</svg>
