<svg width="24" height="24" viewBox="0 0 24 24" fill="none" xmlns="http://www.w3.org/2000/svg">
<path d="M6 8C6 6.4087 6.63214 4.88258 7.75736 3.75736C8.88258 2.63214 10.4087 2 12 2C13.5913 2 15.1174 2.63214 16.2426 3.75736C17.3679 4.88258 18 6.4087 18 8C18 15 21 17 21 17H3C3 17 6 15 6 8Z" stroke="#3F3024" stroke-width="1.33333" stroke-linecap="round" stroke-linejoin="round"/>
<path d="M9 20C9.29538 20.6057 9.72961 21.1108 10.2573 21.4626C10.7851 21.8144 11.3869 22 12 22C12.6131 22 13.2149 21.8144 13.7427 21.4626C14.2704 21.1108 14.7046 20.6057 15 20" stroke="#D9B26C" stroke-width="1.33333" stroke-linecap="round" stroke-linejoin="round"/>
</svg>
