<svg width="20" height="20" viewBox="0 0 20 20" fill="none" xmlns="http://www.w3.org/2000/svg">
<path d="M15.8333 5H4.16667C3.24619 5 2.5 5.74619 2.5 6.66667V15.8333C2.5 16.7538 3.24619 17.5 4.16667 17.5H15.8333C16.7538 17.5 17.5 16.7538 17.5 15.8333V6.66667C17.5 5.74619 16.7538 5 15.8333 5Z" stroke="#439DB6" stroke-width="2"/>
<path d="M2.5 8.33333C2.5 6.76167 2.5 5.97667 2.98833 5.48833C3.47667 5 4.26167 5 5.83333 5H14.1667C15.7383 5 16.5233 5 17.0117 5.48833C17.5 5.97667 17.5 6.76167 17.5 8.33333H2.5Z" fill="#439DB6"/>
<path d="M5.83331 2.5V5M14.1666 2.5V5" stroke="#439DB6" stroke-width="2" stroke-linecap="round"/>
</svg>
