<svg width="16" height="16" viewBox="0 0 16 16" fill="none" xmlns="http://www.w3.org/2000/svg">
<path fill-rule="evenodd" clip-rule="evenodd" d="M4.66634 1.16663C4.79895 1.16663 4.92613 1.2193 5.01989 1.31307C5.11366 1.40684 5.16634 1.53402 5.16634 1.66663V2.17529C5.60767 2.16663 6.09367 2.16663 6.62901 2.16663H9.37034C9.90567 2.16663 10.3917 2.16663 10.833 2.17529V1.66663C10.833 1.53402 10.8857 1.40684 10.9795 1.31307C11.0732 1.2193 11.2004 1.16663 11.333 1.16663C11.4656 1.16663 11.5928 1.2193 11.6866 1.31307C11.7803 1.40684 11.833 1.53402 11.833 1.66663V2.21796C12.0063 2.23129 12.1706 2.24818 12.3257 2.26863C13.107 2.37396 13.7397 2.59529 14.239 3.09396C14.7377 3.59329 14.959 4.22596 15.0643 5.00729C15.0972 5.25707 15.121 5.5304 15.1357 5.82729C15.1719 5.92566 15.1764 6.03294 15.1483 6.13396C15.1663 6.66796 15.1663 7.27529 15.1663 7.96263V9.37063C15.1663 10.596 15.1663 11.5666 15.0643 12.326C14.959 13.1073 14.7377 13.74 14.239 14.2393C13.7397 14.738 13.107 14.9593 12.3257 15.0646C11.5657 15.1666 10.5957 15.1666 9.37034 15.1666H6.62901C5.40367 15.1666 4.43301 15.1666 3.67367 15.0646C2.89234 14.9593 2.25967 14.738 1.76034 14.2393C1.26167 13.74 1.04034 13.1073 0.935008 12.326C0.833008 11.566 0.833008 10.596 0.833008 9.37063V7.96263C0.833008 7.27529 0.833008 6.66796 0.851008 6.13329C0.823188 6.0322 0.827853 5.92492 0.864341 5.82663C0.878563 5.53018 0.902119 5.25707 0.935008 5.00729C1.04034 4.22596 1.26167 3.59329 1.76034 3.09396C2.25967 2.59529 2.89234 2.37396 3.67367 2.26863C3.82923 2.24818 3.99345 2.23129 4.16634 2.21796V1.66663C4.16634 1.53402 4.21902 1.40684 4.31279 1.31307C4.40656 1.2193 4.53373 1.16663 4.66634 1.16663ZM1.84167 6.49996C1.83301 6.93529 1.83301 7.43063 1.83301 7.99996V9.33329C1.83301 10.6046 1.83434 11.508 1.92634 12.1933C2.01634 12.8633 2.18567 13.25 2.46767 13.532C2.74967 13.814 3.13634 13.9833 3.80701 14.0733C4.49234 14.1653 5.39501 14.1666 6.66634 14.1666H9.33301C10.6043 14.1666 11.5077 14.1653 12.193 14.0733C12.863 13.9833 13.2497 13.814 13.5317 13.532C13.8137 13.25 13.983 12.8633 14.073 12.1926C14.165 11.508 14.1663 10.6046 14.1663 9.33329V7.99996C14.1663 7.43063 14.1663 6.93529 14.1577 6.49996H1.84167ZM14.1117 5.49996H1.88767C1.89834 5.37374 1.91123 5.25374 1.92634 5.13996C2.01634 4.46996 2.18567 4.08329 2.46767 3.80129C2.74967 3.51929 3.13634 3.34996 3.80701 3.25996C4.49234 3.16796 5.39501 3.16663 6.66634 3.16663H9.33301C10.6043 3.16663 11.5077 3.16796 12.193 3.25996C12.863 3.34996 13.2497 3.51929 13.5317 3.80129C13.8137 4.08329 13.983 4.46996 14.073 5.14063C14.0881 5.25396 14.101 5.37374 14.1117 5.49996Z" fill="#3F3024"/>
</svg>
