<svg width="40" height="40" viewBox="0 0 40 40" fill="none" xmlns="http://www.w3.org/2000/svg">
<rect x="1.5" y="1.5" width="37" height="37" rx="14.5" fill="#D9B26C"/>
<rect x="1.5" y="1.5" width="37" height="37" rx="14.5" stroke="#F7F0E6" stroke-width="3"/>
<path d="M20 26C18.9617 26 17.9466 25.6921 17.0833 25.1152C16.2199 24.5383 15.547 23.7184 15.1496 22.7591C14.7523 21.7998 14.6483 20.7442 14.8509 19.7258C15.0535 18.7074 15.5535 17.7719 16.2877 17.0377C17.0219 16.3035 17.9574 15.8035 18.9758 15.6009C19.9942 15.3983 21.0498 15.5023 22.0091 15.8996C22.9684 16.297 23.7883 16.9699 24.3652 17.8333C24.9421 18.6966 25.25 19.7117 25.25 20.75C25.2484 22.1419 24.6948 23.4763 23.7106 24.4606C22.7263 25.4448 21.3919 25.9984 20 26ZM20 17C19.2583 17 18.5333 17.2199 17.9166 17.632C17.2999 18.044 16.8193 18.6297 16.5355 19.3149C16.2516 20.0002 16.1774 20.7542 16.3221 21.4816C16.4668 22.209 16.8239 22.8772 17.3484 23.4017C17.8728 23.9261 18.541 24.2833 19.2684 24.4279C19.9958 24.5726 20.7498 24.4984 21.4351 24.2146C22.1203 23.9307 22.706 23.4501 23.118 22.8334C23.5301 22.2167 23.75 21.4917 23.75 20.75C23.7488 19.7558 23.3533 18.8027 22.6503 18.0997C21.9473 17.3967 20.9942 17.0012 20 17Z" fill="white"/>
<path d="M28.25 14H26.177C26.0376 14.0005 25.901 13.9618 25.7824 13.8885C25.6639 13.8152 25.5683 13.7102 25.5065 13.5853L24.8353 12.2435C24.6495 11.8689 24.3626 11.5539 24.0069 11.3341C23.6512 11.1143 23.2411 10.9986 22.823 11H17.177C16.7589 10.9986 16.3488 11.1143 15.9931 11.3341C15.6374 11.5539 15.3505 11.8689 15.1648 12.2435L14.4897 13.5853C14.4282 13.7096 14.3332 13.8143 14.2154 13.8875C14.0976 13.9608 13.9617 13.9998 13.823 14H11.75C11.1533 14 10.581 14.2371 10.159 14.659C9.73705 15.081 9.5 15.6533 9.5 16.25V26.75C9.5 27.3468 9.73705 27.9191 10.159 28.341C10.581 28.763 11.1533 29 11.75 29H28.25C28.8467 29 29.419 28.763 29.841 28.341C30.2629 27.9191 30.5 27.3468 30.5 26.75V16.25C30.5 15.6533 30.2629 15.081 29.841 14.659C29.419 14.2371 28.8467 14 28.25 14ZM29 26.75C29 26.9489 28.921 27.1397 28.7803 27.2803C28.6397 27.421 28.4489 27.5 28.25 27.5H11.75C11.5511 27.5 11.3603 27.421 11.2197 27.2803C11.079 27.1397 11 26.9489 11 26.75V16.25C11 16.0511 11.079 15.8603 11.2197 15.7197C11.3603 15.579 11.5511 15.5 11.75 15.5H13.823C14.2411 15.5015 14.6512 15.3857 15.0069 15.166C15.3626 14.9462 15.6495 14.6311 15.8352 14.2565L16.5103 12.9148C16.5718 12.7904 16.6668 12.6858 16.7846 12.6125C16.9024 12.5392 17.0383 12.5003 17.177 12.5H22.823C22.9624 12.4996 23.099 12.5382 23.2176 12.6115C23.3361 12.6848 23.4317 12.7899 23.4935 12.9148L24.1647 14.2565C24.3505 14.6311 24.6374 14.9462 24.9931 15.166C25.3488 15.3857 25.7589 15.5015 26.177 15.5H28.25C28.4489 15.5 28.6397 15.579 28.7803 15.7197C28.921 15.8603 29 16.0511 29 16.25V26.75Z" fill="white"/>
<path d="M26.75 18.5C27.1642 18.5 27.5 18.1642 27.5 17.75C27.5 17.3358 27.1642 17 26.75 17C26.3358 17 26 17.3358 26 17.75C26 18.1642 26.3358 18.5 26.75 18.5Z" fill="white"/>
</svg>
