<svg width="17" height="15" viewBox="0 0 17 15" fill="none" xmlns="http://www.w3.org/2000/svg">
<path d="M2.25539 0.233926C2.09822 0.0821281 1.88772 -0.00186718 1.66922 3.15022e-05C1.45072 0.00193018 1.24171 0.089571 1.08721 0.244078C0.9327 0.398584 0.845059 0.607595 0.84316 0.826092C0.841261 1.04459 0.925257 1.25509 1.07705 1.41226L3.09706 3.43226C1.90539 4.32893 0.865388 5.56059 0.0878882 7.11726C0.0300895 7.23293 0 7.36046 0 7.48976C0 7.61906 0.0300895 7.74659 0.0878882 7.86226C1.88622 11.4598 5.07956 13.3231 8.33289 13.3231C9.62872 13.3231 10.9162 13.0273 12.1079 12.4439L14.4104 14.7456C14.5676 14.8974 14.7781 14.9814 14.9966 14.9795C15.2151 14.9776 15.4241 14.8899 15.5786 14.7354C15.7331 14.5809 15.8207 14.3719 15.8226 14.1534C15.8245 13.9349 15.7405 13.7244 15.5887 13.5673L2.25539 0.233926ZM10.8446 11.1798C10.0279 11.4989 9.17789 11.6564 8.33289 11.6564C5.85872 11.6564 3.33122 10.3064 1.77456 7.48976C2.45539 6.25726 3.32289 5.30643 4.28956 4.62559L6.07622 6.41226C5.85296 6.87889 5.77994 7.40328 5.86724 7.91315C5.95453 8.42302 6.19784 8.89326 6.56361 9.25903C6.92939 9.62481 7.39963 9.86812 7.9095 9.95541C8.41937 10.0427 8.94376 9.96969 9.41039 9.74643L10.8446 11.1798ZM13.7929 9.06976C14.1954 8.60643 14.5646 8.08059 14.8912 7.48976C13.3346 4.67309 10.8079 3.32309 8.33289 3.32309C8.23956 3.32309 8.14622 3.32504 8.05289 3.32893L6.56539 1.84226C7.14644 1.71872 7.73885 1.65644 8.33289 1.65643C11.5854 1.65643 14.7796 3.51976 16.5779 7.11726C16.6357 7.23293 16.6658 7.36046 16.6658 7.48976C16.6658 7.61906 16.6357 7.74659 16.5779 7.86226C16.1517 8.72586 15.6122 9.52877 14.9737 10.2498L13.7929 9.06976Z" fill="#D9B26C"/>
</svg>
