<svg width="20" height="20" viewBox="0 0 20 20" fill="none" xmlns="http://www.w3.org/2000/svg">
<path d="M17.5003 4.16683H15.0003V3.3335C15.0003 2.67045 14.7369 2.03457 14.2681 1.56573C13.7993 1.09689 13.1634 0.833496 12.5003 0.833496H7.50033C6.83728 0.833496 6.2014 1.09689 5.73256 1.56573C5.26372 2.03457 5.00033 2.67045 5.00033 3.3335V4.16683H2.50033C2.27931 4.16683 2.06735 4.25463 1.91107 4.41091C1.75479 4.56719 1.66699 4.77915 1.66699 5.00016C1.66699 5.22118 1.75479 5.43314 1.91107 5.58942C2.06735 5.7457 2.27931 5.8335 2.50033 5.8335H2.55033L3.14199 15.2585C3.20782 16.3182 3.6757 17.3128 4.45008 18.0392C5.22446 18.7655 6.24693 19.1689 7.30866 19.1668H12.7087C13.7704 19.1689 14.7929 18.7655 15.5672 18.0392C16.3416 17.3128 16.8095 16.3182 16.8753 15.2585L17.4503 5.8335H17.5003C17.7213 5.8335 17.9333 5.7457 18.0896 5.58942C18.2459 5.43314 18.3337 5.22118 18.3337 5.00016C18.3337 4.77915 18.2459 4.56719 18.0896 4.41091C17.9333 4.25463 17.7213 4.16683 17.5003 4.16683ZM6.66699 3.3335C6.66699 3.11248 6.75479 2.90052 6.91107 2.74424C7.06735 2.58796 7.27931 2.50016 7.50033 2.50016H12.5003C12.7213 2.50016 12.9333 2.58796 13.0896 2.74424C13.2459 2.90052 13.3337 3.11248 13.3337 3.3335V4.16683H6.66699V3.3335ZM15.2003 15.1585C15.16 15.7937 14.8789 16.3896 14.4144 16.8248C13.9498 17.2599 13.3368 17.5014 12.7003 17.5002H7.30033C6.66383 17.5014 6.05081 17.2599 5.58626 16.8248C5.12172 16.3896 4.84064 15.7937 4.80033 15.1585L4.21699 5.8335H15.7837L15.2003 15.1585Z" fill="#B8574D" stroke="#E57373" stroke-opacity="0.2" stroke-width="0.4"/>
<path d="M8.33333 8.3335C8.11232 8.3335 7.90036 8.42129 7.74408 8.57757C7.5878 8.73385 7.5 8.94582 7.5 9.16683V14.1668C7.5 14.3878 7.5878 14.5998 7.74408 14.7561C7.90036 14.9124 8.11232 15.0002 8.33333 15.0002C8.55435 15.0002 8.76631 14.9124 8.92259 14.7561C9.07887 14.5998 9.16667 14.3878 9.16667 14.1668V9.16683C9.16667 8.94582 9.07887 8.73385 8.92259 8.57757C8.76631 8.42129 8.55435 8.3335 8.33333 8.3335ZM11.6667 8.3335C11.4457 8.3335 11.2337 8.42129 11.0774 8.57757C10.9211 8.73385 10.8333 8.94582 10.8333 9.16683V14.1668C10.8333 14.3878 10.9211 14.5998 11.0774 14.7561C11.2337 14.9124 11.4457 15.0002 11.6667 15.0002C11.8877 15.0002 12.0996 14.9124 12.2559 14.7561C12.4122 14.5998 12.5 14.3878 12.5 14.1668V9.16683C12.5 8.94582 12.4122 8.73385 12.2559 8.57757C12.0996 8.42129 11.8877 8.3335 11.6667 8.3335Z" fill="#B8574D" stroke="#E57373" stroke-opacity="0.2" stroke-width="0.4"/>
</svg>
