<svg width="20" height="20" viewBox="0 0 20 20" fill="none" xmlns="http://www.w3.org/2000/svg">
<path d="M9.98301 3.57938C10.1488 3.57938 10.3077 3.51353 10.425 3.39632C10.5422 3.27911 10.608 3.12014 10.608 2.95438C10.608 2.78861 10.5422 2.62964 10.425 2.51243C10.3077 2.39522 10.1488 2.32938 9.98301 2.32938H8.45613C8.29037 2.32938 8.1314 2.39522 8.01419 2.51243C7.89698 2.62964 7.83113 2.78861 7.83113 2.95438C7.83113 3.12014 7.89698 3.27911 8.01419 3.39632C8.1314 3.51353 8.29037 3.57938 8.45613 3.57938H9.98301ZM3.54176 3.57938H3.93738C4.10314 3.57938 4.26212 3.51353 4.37933 3.39632C4.49654 3.27911 4.56238 3.12014 4.56238 2.95438C4.56238 2.78861 4.49654 2.62964 4.37933 2.51243C4.26212 2.39522 4.10314 2.32938 3.93738 2.32938H3.54176C3.07635 2.32971 2.63008 2.51469 2.30093 2.84373C1.97178 3.17277 1.78663 3.61896 1.78613 4.08437V15.4344C1.78663 15.8998 1.97176 16.3461 2.30089 16.6752C2.63003 17.0044 3.07629 17.1895 3.54176 17.19H7.99363C8.1594 17.19 8.31837 17.1242 8.43558 17.0069C8.55279 16.8897 8.61863 16.7308 8.61863 16.565C8.61863 16.3992 8.55279 16.2403 8.43558 16.1231C8.31837 16.0058 8.1594 15.94 7.99363 15.94H3.54176C3.40766 15.94 3.27905 15.8867 3.18423 15.7919C3.0894 15.6971 3.03613 15.5685 3.03613 15.4344V4.08437C3.03613 3.80562 3.26301 3.57938 3.54176 3.57938ZM16.028 8.86188C16.1938 8.86188 16.3527 8.79603 16.47 8.67882C16.5872 8.56161 16.653 8.40264 16.653 8.23688V4.08437C16.6525 3.61907 16.4675 3.17297 16.1384 2.84395C15.8094 2.51493 15.3633 2.32987 14.898 2.32938H14.5024C14.3366 2.32938 14.1777 2.39522 14.0604 2.51243C13.9432 2.62964 13.8774 2.78861 13.8774 2.95438C13.8774 3.12014 13.9432 3.27911 14.0604 3.39632C14.1777 3.51353 14.3366 3.57938 14.5024 3.57938H14.898C15.1761 3.57938 15.403 3.80562 15.403 4.08437V8.23688C15.403 8.40264 15.4689 8.56161 15.5861 8.67882C15.7033 8.79603 15.8623 8.86188 16.028 8.86188ZM6.82426 4.02938V1.875C6.82426 1.70924 6.75841 1.55027 6.6412 1.43306C6.52399 1.31585 6.36502 1.25 6.19926 1.25C6.0335 1.25 5.87453 1.31585 5.75732 1.43306C5.64011 1.55027 5.57426 1.70924 5.57426 1.875V4.02938C5.57426 4.19514 5.64011 4.35411 5.75732 4.47132C5.87453 4.58853 6.0335 4.65438 6.19926 4.65438C6.36502 4.65438 6.52399 4.58853 6.6412 4.47132C6.75841 4.35411 6.82426 4.19514 6.82426 4.02938ZM12.8655 4.02938V1.875C12.8655 1.70924 12.7997 1.55027 12.6825 1.43306C12.5652 1.31585 12.4063 1.25 12.2405 1.25C12.0747 1.25 11.9158 1.31585 11.7986 1.43306C11.6814 1.55027 11.6155 1.70924 11.6155 1.875V4.02938C11.6155 4.19514 11.6814 4.35411 11.7986 4.47132C11.9158 4.58853 12.0747 4.65438 12.2405 4.65438C12.4063 4.65438 12.5652 4.58853 12.6825 4.47132C12.7997 4.35411 12.8655 4.19514 12.8655 4.02938Z" fill="#3F3024"/>
<path d="M5.20508 8.34619C5.20508 8.51195 5.27093 8.67092 5.38814 8.78813C5.50535 8.90534 5.66432 8.97119 5.83008 8.97119H12.6101C12.7758 8.97119 12.9348 8.90534 13.052 8.78813C13.1692 8.67092 13.2351 8.51195 13.2351 8.34619C13.2351 8.18043 13.1692 8.02146 13.052 7.90425C12.9348 7.78704 12.7758 7.72119 12.6101 7.72119H5.83008C5.66432 7.72119 5.50535 7.78704 5.38814 7.90425C5.27093 8.02146 5.20508 8.18043 5.20508 8.34619ZM12.4382 11.1687C12.4382 11.0029 12.3724 10.844 12.2551 10.7267C12.1379 10.6095 11.979 10.5437 11.8132 10.5437H5.83008C5.66432 10.5437 5.50535 10.6095 5.38814 10.7267C5.27093 10.844 5.20508 11.0029 5.20508 11.1687C5.20508 11.3345 5.27093 11.4934 5.38814 11.6106C5.50535 11.7278 5.66432 11.7937 5.83008 11.7937H11.8132C11.979 11.7937 12.1379 11.7278 12.2551 11.6106C12.3724 11.4934 12.4382 11.3345 12.4382 11.1687ZM10.2645 18.7493C10.347 18.7493 10.4295 18.7381 10.5101 18.7162C10.5369 18.7089 10.5632 18.6997 10.5888 18.6887L12.547 17.8624C12.952 17.7437 13.322 17.5249 13.6213 17.2262L17.6395 13.2093C18.0067 12.8409 18.2128 12.3419 18.2127 11.8217C18.2126 11.3015 18.0062 10.8026 17.6388 10.4343C16.897 9.69182 15.6032 9.69307 14.8638 10.4343L10.8463 14.4518C10.5476 14.7508 10.3288 15.12 10.2101 15.5256L9.38383 17.4837C9.37285 17.5093 9.36366 17.5356 9.35633 17.5624C9.31862 17.7019 9.31353 17.8483 9.34147 17.99C9.36941 18.1318 9.42962 18.2653 9.51743 18.38C9.60524 18.4948 9.7183 18.5878 9.84785 18.6518C9.97739 18.7159 10.1199 18.7492 10.2645 18.7493ZM11.4038 15.8981C11.462 15.6856 11.5751 15.4918 11.7301 15.3356L15.7488 11.3181C15.8826 11.1837 16.0613 11.1093 16.2513 11.1093C16.392 11.1098 16.5293 11.1518 16.6462 11.2301C16.763 11.3084 16.854 11.4195 16.9079 11.5494C16.9617 11.6794 16.9759 11.8223 16.9487 11.9603C16.9216 12.0983 16.8542 12.2251 16.7551 12.3249L12.7382 16.3418C12.582 16.4981 12.387 16.6106 12.1745 16.6687C12.1478 16.676 12.1217 16.6852 12.0963 16.6962L10.8507 17.2212L11.3763 15.9762C11.3873 15.9508 11.3965 15.9247 11.4038 15.8981Z" fill="#3F3024"/>
</svg>
