<svg width="212" height="128" viewBox="0 0 212 128" fill="none" xmlns="http://www.w3.org/2000/svg">
<g clip-path="url(#clip0_896_2785)">
<path d="M162.312 126.553C159.598 124.237 157.949 120.578 158.382 117.016C158.814 113.454 161.492 110.18 164.966 109.423C168.439 108.667 172.399 110.761 173.454 114.187C174.034 107.581 174.704 100.697 178.182 95.0712C181.331 89.9769 186.786 86.3317 192.697 85.6796C198.609 85.0275 204.833 87.4904 208.52 92.2026C212.207 96.9147 213.109 103.765 210.527 109.175C208.625 113.16 205.121 116.126 201.449 118.539C189.583 126.27 175.353 129.414 161.375 127.393L162.312 126.553Z" fill="#F2F2F2"/>
<path d="M202.674 87.627C197.796 91.6393 193.321 96.1268 189.314 101.025C183.043 108.663 177.968 117.228 174.266 126.419C173.995 127.09 175.074 127.382 175.342 126.719C181.398 111.78 191.066 98.6137 203.462 88.4232C204.019 87.9654 203.226 87.173 202.674 87.627Z" fill="white"/>
<path d="M68.2462 125.923C71.9742 122.742 74.2385 117.716 73.6447 112.824C73.0509 107.932 69.3728 103.434 64.6019 102.395C59.831 101.357 54.3924 104.232 52.9433 108.939C52.1458 99.8648 51.2268 90.4105 46.4497 82.683C42.1241 75.686 34.6321 70.6793 26.5125 69.7836C18.3928 68.8879 9.84392 72.2708 4.78001 78.743C-0.283909 85.2151 -1.52379 94.6242 2.02285 102.055C4.63553 107.528 9.44901 111.602 14.4923 114.916C30.5823 125.49 50.5419 129.899 69.5337 127.077" fill="#F2F2F2"/>
<path d="M12.8093 72.4589C19.509 77.9699 25.6553 84.1335 31.1592 90.8605C36.664 97.5807 41.5104 104.824 45.6303 112.489C47.9332 116.789 50.0018 121.213 51.8272 125.74C52.1993 126.661 50.7184 127.062 50.3504 126.151C47.1173 118.169 43.1174 110.527 38.408 103.332C33.7214 96.1645 28.3574 89.4725 22.3913 83.3505C19.0168 79.8896 15.4565 76.6187 11.7264 73.5525C10.9619 72.9238 12.0511 71.8354 12.8093 72.4589Z" fill="white"/>
<path d="M152.177 127.72H63.2345V35.5598C63.2345 15.952 79.0303 0 98.4459 0H116.966C136.381 0 152.177 15.952 152.177 35.5598V127.72Z" fill="#F2F2F2"/>
<path d="M133.657 127.72H63.2345V35.5598C63.2151 28.0465 65.5709 20.7232 69.959 14.656C70.1207 14.4333 70.2821 14.2135 70.4485 13.9962C72.5709 11.1849 75.0968 8.709 77.9426 6.65029C78.1033 6.53217 78.2647 6.4161 78.4285 6.30002C80.8098 4.63583 83.3857 3.27539 86.0976 2.24966C86.2586 2.18801 86.4226 2.12625 86.5865 2.06701C89.0392 1.18308 91.5817 0.577591 94.167 0.261725C94.3273 0.239614 94.4918 0.222311 94.6564 0.205009C97.1758 -0.0670342 99.7167 -0.0670342 102.236 0.205009C102.4 0.222311 102.565 0.239611 102.727 0.261961C105.312 0.577848 107.853 1.18326 110.305 2.06702C110.469 2.12626 110.633 2.18802 110.795 2.24978C113.473 3.26258 116.019 4.60272 118.375 6.24031C118.538 6.35386 118.702 6.46994 118.864 6.58601C120.459 7.73592 121.957 9.01698 123.343 10.4161C124.455 11.5384 125.491 12.7347 126.444 13.9969C126.61 14.2136 126.771 14.4333 126.933 14.6556C131.321 20.7229 133.677 28.0464 133.657 35.5598V127.72Z" fill="#CCCCCC"/>
<path d="M127.931 86.4998C130.084 86.4998 131.83 84.737 131.83 82.5624C131.83 80.3878 130.084 78.625 127.931 78.625C125.778 78.625 124.032 80.3878 124.032 82.5624C124.032 84.737 125.778 86.4998 127.931 86.4998Z" fill="#2A9D8F"/>
<path d="M144.891 124.959H141.903L140.482 113.322L144.891 113.323L144.891 124.959Z" fill="#FFB8B8"/>
<path d="M139.769 124.098H145.531V127.761H136.142C136.142 127.28 136.236 126.804 136.418 126.359C136.6 125.915 136.867 125.511 137.204 125.171C137.541 124.83 137.941 124.561 138.381 124.377C138.821 124.192 139.293 124.098 139.769 124.098Z" fill="#2F2E41"/>
<path d="M159.755 124.959H156.768L155.346 113.322L159.756 113.323L159.755 124.959Z" fill="#FFB8B8"/>
<path d="M154.634 124.098H160.395V127.761H151.006C151.006 127.28 151.1 126.804 151.282 126.359C151.465 125.915 151.732 125.511 152.069 125.171C152.405 124.83 152.805 124.561 153.245 124.377C153.686 124.192 154.157 124.098 154.634 124.098Z" fill="#2F2E41"/>
<path d="M129.904 83.3429C129.689 83.0231 129.547 82.6596 129.486 82.278C129.425 81.8965 129.448 81.5061 129.553 81.1344C129.657 80.7626 129.842 80.4187 130.092 80.1266C130.343 79.8346 130.654 79.6016 131.003 79.4441L141.159 51.1768L146.156 53.9308L134.561 80.9441C134.784 81.5546 134.777 82.2264 134.543 82.8324C134.308 83.4385 133.861 83.9365 133.288 84.2322C132.714 84.5278 132.052 84.6006 131.429 84.4367C130.805 84.2728 130.263 83.8836 129.904 83.3429Z" fill="#FFB8B8"/>
<path d="M158.229 88.6545C157.897 88.4622 157.611 88.1988 157.391 87.8828C157.17 87.5668 157.021 87.2058 156.954 86.8253C156.887 86.4448 156.903 86.0541 157.002 85.6806C157.1 85.3072 157.278 84.9601 157.524 84.6638L154.378 54.7617L160.065 55.0241L161.372 84.4367C161.838 84.8865 162.124 85.4932 162.176 86.1418C162.228 86.7903 162.043 87.4357 161.656 87.9556C161.268 88.4755 160.706 88.8338 160.074 88.9626C159.442 89.0914 158.786 88.9818 158.229 88.6545Z" fill="#FFB8B8"/>
<path d="M149.157 45.9409C152.462 45.9409 155.142 43.2348 155.142 39.8967C155.142 36.5586 152.462 33.8525 149.157 33.8525C145.851 33.8525 143.172 36.5586 143.172 39.8967C143.172 43.2348 145.851 45.9409 149.157 45.9409Z" fill="#FFB8B8"/>
<path d="M158.191 81.8531H140.147L140.169 81.7113C140.201 81.4993 143.385 60.4397 141.037 53.5499C140.801 52.8729 140.822 52.1317 141.095 51.4692C141.368 50.8066 141.874 50.2695 142.516 49.9611C145.872 48.3651 152.314 46.3999 157.751 51.1692C158.551 51.8826 159.176 52.7741 159.576 53.7734C159.976 54.7727 160.14 55.8522 160.056 56.9267L158.191 81.8531Z" fill="#2A9D8F"/>
<path d="M143.613 63.5526L135.489 61.8883L139.297 52.7757C139.525 51.8931 140.09 51.1378 140.869 50.6755C141.647 50.2132 142.576 50.0816 143.45 50.3096C144.325 50.5375 145.074 51.1065 145.534 51.8917C145.993 52.6768 146.126 53.614 145.902 54.4977L143.613 63.5526Z" fill="#2A9D8F"/>
<path d="M154.017 66.643L153.529 55.3373C153.158 53.212 154.363 51.203 156.216 50.8746C158.069 50.5474 159.879 52.0214 160.251 54.1623L162.086 64.7263L154.017 66.643Z" fill="#2A9D8F"/>
<path d="M157.591 80.5C160.494 91.6667 160.811 105.864 160.027 121.351L156.129 120.858L149.062 91.3279L145.163 121.351L140.777 121.105C139.466 104.855 138.191 90.9058 140.289 81.7304L157.591 80.5Z" fill="#2F2E41"/>
<path d="M153.1 44.5673C151.984 45.7684 149.91 45.1236 149.765 43.4827C149.753 43.3553 149.754 43.2271 149.767 43.0999C149.842 42.373 150.258 41.7131 150.159 40.9457C150.136 40.7547 150.066 40.5727 149.954 40.4169C149.064 39.2137 146.976 40.955 146.136 39.8658C145.621 39.1979 146.226 38.1464 145.831 37.3999C145.31 36.4147 143.765 36.9007 142.796 36.3611C141.719 35.7608 141.783 34.0909 142.492 33.0752C143.358 31.8365 144.875 31.1755 146.373 31.0802C147.871 30.985 149.358 31.3939 150.757 31.9444C152.346 32.5697 153.922 33.4341 154.9 34.8451C156.089 36.5611 156.203 38.8682 155.609 40.8747C155.247 42.0953 154.012 43.5864 153.1 44.5673Z" fill="#2F2E41"/>
<path d="M204.685 127.878H24.779C24.7022 127.878 24.6287 127.847 24.5744 127.792C24.5202 127.737 24.4897 127.663 24.4897 127.585C24.4897 127.507 24.5202 127.433 24.5744 127.378C24.6287 127.323 24.7022 127.292 24.779 127.292H204.685C204.762 127.292 204.836 127.323 204.89 127.378C204.944 127.433 204.975 127.507 204.975 127.585C204.975 127.663 204.944 127.737 204.89 127.792C204.836 127.847 204.762 127.878 204.685 127.878Z" fill="#3F3D56"/>
<path d="M114.285 101.019H82.6069C82.1897 101.021 81.7886 100.856 81.4917 100.56C81.1947 100.264 81.0262 99.8615 81.0229 99.4402V28.0329C81.0262 27.6115 81.1947 27.2087 81.4917 26.9128C81.7886 26.6168 82.1897 26.4519 82.6069 26.4541H114.285C114.702 26.4519 115.103 26.6168 115.4 26.9128C115.697 27.2087 115.866 27.6115 115.869 28.0329V99.4402C115.866 99.8615 115.697 100.264 115.4 100.56C115.103 100.856 114.702 101.021 114.285 101.019Z" fill="white"/>
<path d="M115.869 49.5596H81.0229V50.0517H115.869V49.5596Z" fill="#CCCCCC"/>
<path d="M115.991 77.6406H81.1448V78.1328H115.991V77.6406Z" fill="#CCCCCC"/>
<path d="M92.4759 26.4541H91.9885V101.265H92.4759V26.4541Z" fill="#CCCCCC"/>
<path d="M104.66 26.4541H104.172V101.265H104.66V26.4541Z" fill="#CCCCCC"/>
</g>
<defs>
<clipPath id="clip0_896_2785">
<rect width="212" height="128" fill="white"/>
</clipPath>
</defs>
</svg>
