<svg width="24" height="24" viewBox="0 0 24 24" fill="none" xmlns="http://www.w3.org/2000/svg">
<g clip-path="url(#clip0_54_8546)">
<mask id="mask0_54_8546" style="mask-type:luminance" maskUnits="userSpaceOnUse" x="0" y="0" width="24" height="24">
<path d="M0 7.43866e-05H23.9999V24H0V7.43866e-05Z" fill="white"/>
</mask>
<g mask="url(#mask0_54_8546)">
<path d="M20.778 2.49275L22.8036 4.68715C23.4801 5.41999 23.4828 6.54883 22.8098 7.28491L12 19.1082L6 13.1082L18.0917 2.36C18.8737 1.66489 20.0683 1.72391 20.778 2.49275Z" stroke="#7B6A58" stroke-width="1.5" stroke-miterlimit="10" stroke-linecap="round" stroke-linejoin="round"/>
<path d="M4.12499 18.7332L0.703125 22.1082H5.24999L6.37498 20.9832L4.12499 18.7332Z" stroke="#7B6A58" stroke-width="1.5" stroke-miterlimit="10" stroke-linecap="round" stroke-linejoin="round"/>
<path d="M6.37595 20.9832C7.06322 20.2959 8.0723 20.001 9.04444 20.244C9.93422 20.4665 10.8939 20.2152 11.5625 19.5465L12.0009 19.1082L6.00095 13.1082L5.56253 13.5466C5.23875 13.8703 5.00434 14.2725 4.88212 14.7137C4.75989 15.155 4.75402 15.6204 4.86508 16.0647C5.10081 17.0076 4.83451 18.0246 4.12595 18.7332C4.12126 18.7378 4.0622 18.6694 6.37595 20.9832Z" stroke="#7B6A58" stroke-width="1.5" stroke-miterlimit="10" stroke-linecap="round" stroke-linejoin="round"/>
<path d="M12.75 22.1082H19.5" stroke="#7B6A58" stroke-width="1.5" stroke-miterlimit="10" stroke-linecap="round" stroke-linejoin="round"/>
</g>
</g>
<defs>
<clipPath id="clip0_54_8546">
<rect width="24" height="24" fill="white"/>
</clipPath>
</defs>
</svg>
