<svg width="24" height="24" viewBox="0 0 24 24" fill="none" xmlns="http://www.w3.org/2000/svg">
<path d="M12.002 9.00098C10.897 9.00098 10.002 9.67298 10.002 10.501C10.002 11.329 10.897 12.001 12.002 12.001C13.107 12.001 14.002 12.673 14.002 13.501C14.002 14.329 13.106 15.001 12.002 15.001M12.002 9.00098C12.872 9.00098 13.614 9.41798 13.888 10.001M12.002 9.00098V8.00098M12.002 15.001C11.132 15.001 10.39 14.584 10.116 14.001M12.002 15.001V16.001" stroke="#FF3B30" stroke-width="1.5" stroke-linecap="round" stroke-linejoin="round"/>
<path d="M13.5 2.50102H12C7.522 2.50102 5.282 2.50102 3.891 3.89202C2.5 5.28302 2.5 7.52202 2.5 12.001C2.5 16.479 2.5 18.718 3.891 20.11C5.282 21.5 7.521 21.5 12 21.5C16.478 21.5 18.718 21.5 20.109 20.109C21.5 18.718 21.5 16.48 21.5 12V10.5M16.5 7.49902L20.676 3.32102M21.5 6.97702L21.382 3.88602C21.382 3.15702 20.947 2.70302 20.154 2.64602L17.03 2.49902" stroke="#FF3B30" stroke-width="1.5" stroke-linecap="round" stroke-linejoin="round"/>
</svg>
