<svg width="24" height="24" viewBox="0 0 24 24" fill="none" xmlns="http://www.w3.org/2000/svg">
<path fill-rule="evenodd" clip-rule="evenodd" d="M13.8014 7.72614C13.7079 7.65632 13.6319 7.56563 13.5795 7.46127C13.5272 7.35691 13.4999 7.24177 13.4999 7.12502V2.25002H8.08381C6.16681 2.25002 4.56368 3.68852 4.40431 5.57102C4.12718 8.83802 4.05668 11.4874 4.19056 14.5928C4.19604 14.6919 4.18179 14.7911 4.14864 14.8847C4.11549 14.9782 4.0641 15.0643 3.99744 15.1378C3.93078 15.2114 3.85019 15.271 3.76033 15.3131C3.67046 15.3553 3.57313 15.3792 3.47395 15.3835C3.37478 15.3878 3.27575 15.3723 3.18259 15.338C3.08944 15.3037 3.00402 15.2513 2.93129 15.1837C2.85856 15.1162 2.79996 15.0349 2.7589 14.9445C2.71783 14.8541 2.69511 14.7565 2.69206 14.6573C2.55518 11.481 2.62793 8.76752 2.90956 5.44427C3.13718 2.75777 5.41568 0.750016 8.08381 0.750016H14.2451C14.4336 0.748804 14.6156 0.818548 14.7551 0.94539L20.9549 6.57002C21.0982 6.7001 21.1857 6.88056 21.1991 7.07364C21.4717 11.0239 21.4274 14.4038 21.0667 18.5749C20.8349 21.2535 18.5602 23.25 15.8999 23.25H11.9838C11.7849 23.25 11.5941 23.171 11.4535 23.0303C11.3128 22.8897 11.2338 22.6989 11.2338 22.5C11.2338 22.3011 11.3128 22.1103 11.4535 21.9697C11.5941 21.829 11.7849 21.75 11.9838 21.75H15.9003C17.8117 21.75 19.4103 20.3198 19.5723 18.4451C19.9091 14.5478 19.9646 11.3715 19.7399 7.74602C18.8024 7.44414 18.0689 7.31252 17.3336 7.31589C16.5224 7.31964 15.6592 7.48802 14.4641 7.84389C14.3521 7.87718 14.234 7.88386 14.119 7.86342C14.004 7.84298 13.895 7.79597 13.8014 7.72614ZM14.9999 6.14102C15.8358 5.93439 16.5813 5.81964 17.3264 5.81589C17.4749 5.81514 17.6219 5.81889 17.7689 5.82714L14.9999 3.23102V6.14102Z" fill="#7B6A58"/>
<path d="M7.125 16.5C7.125 16.3011 7.04598 16.1103 6.90533 15.9697C6.76468 15.829 6.57391 15.75 6.375 15.75C6.17609 15.75 5.98532 15.829 5.84467 15.9697C5.70402 16.1103 5.625 16.3011 5.625 16.5V18.75H3.375C3.17609 18.75 2.98532 18.829 2.84467 18.9697C2.70402 19.1103 2.625 19.3011 2.625 19.5C2.625 19.6989 2.70402 19.8897 2.84467 20.0303C2.98532 20.171 3.17609 20.25 3.375 20.25H5.625V22.5C5.625 22.6989 5.70402 22.8897 5.84467 23.0303C5.98532 23.171 6.17609 23.25 6.375 23.25C6.57391 23.25 6.76468 23.171 6.90533 23.0303C7.04598 22.8897 7.125 22.6989 7.125 22.5V20.25H9.375C9.57391 20.25 9.76468 20.171 9.90533 20.0303C10.046 19.8897 10.125 19.6989 10.125 19.5C10.125 19.3011 10.046 19.1103 9.90533 18.9697C9.76468 18.829 9.57391 18.75 9.375 18.75H7.125V16.5Z" fill="#7B6A58"/>
</svg>
