<svg width="302" height="224" viewBox="0 0 302 224" fill="none" xmlns="http://www.w3.org/2000/svg">
<path d="M302 195.847H0V195.998H302V195.847Z" fill="#EBEBEB"/>
<path d="M144.96 203.229H102.076V203.38H144.96V203.229Z" fill="#EBEBEB"/>
<path d="M215.988 135.087H263.113V193.989H215.988C211.43 193.989 207.701 190.26 207.701 185.702V143.374C207.701 138.816 211.43 135.087 215.988 135.087Z" fill="#F0F0F0"/>
<path d="M262.723 135.087H263.503C268.061 135.087 271.79 138.816 271.79 143.374V185.702C271.79 190.26 268.061 193.989 263.503 193.989H262.723C258.165 193.989 254.436 190.26 254.436 185.702V143.374C254.435 138.816 258.165 135.087 262.723 135.087Z" fill="#F5F5F5"/>
<path d="M256.804 156.812H153.566V193.989H256.804V156.812Z" fill="#F0F0F0"/>
<path d="M218.089 110.647H119.131C112.748 110.647 107.574 115.821 107.574 122.204V165.218H229.646V122.204C229.646 115.822 224.472 110.647 218.089 110.647Z" fill="#E0E0E0"/>
<path d="M227.129 110.647H127.057C120.982 110.647 116.057 115.572 116.057 121.648V165.218H238.129V121.648C238.129 115.572 233.205 110.647 227.129 110.647Z" fill="#F5F5F5"/>
<path d="M251.874 153.418H161.424C158.543 153.418 156.206 155.754 156.206 158.636V163.34C156.206 166.222 158.543 168.558 161.424 168.558H251.874C256.055 168.558 259.444 165.169 259.444 160.989C259.444 156.808 256.055 153.418 251.874 153.418Z" fill="#E0E0E0"/>
<path d="M106.174 135.087H153.299V193.989H106.174C101.616 193.989 97.8867 190.26 97.8867 185.702V143.374C97.8861 138.816 101.615 135.087 106.174 135.087Z" fill="#F0F0F0"/>
<path d="M152.908 135.087H153.688C158.246 135.087 161.975 138.816 161.975 143.374V185.702C161.975 190.26 158.246 193.989 153.688 193.989H152.908C148.35 193.989 144.621 190.26 144.621 185.702V143.374C144.621 138.816 148.35 135.087 152.908 135.087Z" fill="#F5F5F5"/>
<path d="M178.881 69.9653V25.7012L39.5619 25.7012V69.9653L178.881 69.9653Z" fill="#EBEBEB"/>
<path d="M39.5618 69.9653L39.5618 25.7012H38.7222L38.7222 69.9653H39.5618Z" fill="#E0E0E0"/>
<path d="M172.013 32.5703H46.4304V63.0971H172.013V32.5703Z" fill="#F5F5F5"/>
<path d="M76.524 63.0971H66.0947L74.2608 32.5703H84.6901L76.524 63.0971Z" fill="white"/>
<path d="M86.2245 63.0971H80.1936L88.3597 32.5703H94.3906L86.2245 63.0971Z" fill="white"/>
<path d="M138.731 63.0971H132.7L140.866 32.5703H146.897L138.731 63.0971Z" fill="white"/>
<path d="M93.8147 145.228H60.0408L55.8647 99.3467H89.6386L93.8147 145.228Z" fill="#E6E6E6"/>
<path d="M95.5642 145.228H61.7903L57.6143 99.3467H91.3887L95.5642 145.228Z" fill="#F0F0F0"/>
<path d="M66.4066 140.149L63.1553 104.426H86.7711L90.0224 140.149H66.4066Z" fill="white"/>
<path d="M119.125 145.228H114.578V195.846H119.125V145.228Z" fill="#E6E6E6"/>
<path d="M120.56 145.228H117.402V195.846H120.56V145.228Z" fill="#F5F5F5"/>
<path d="M73.5439 150.814H121.538V145.227H73.5439V150.814Z" fill="#F5F5F5"/>
<path d="M90.3506 150.814H85.8037V195.846H90.3506V150.814Z" fill="#E6E6E6"/>
<path d="M91.7849 150.814H88.6272V195.846H91.7849V150.814Z" fill="#F5F5F5"/>
<path d="M151 223.125C215.677 223.125 268.109 220.063 268.109 216.286C268.109 212.509 215.677 209.447 151 209.447C86.3223 209.447 33.8909 212.509 33.8909 216.286C33.8909 220.063 86.3223 223.125 151 223.125Z" fill="#F5F5F5"/>
<path d="M198.328 47.0111C196.021 45.5651 189.395 46.9984 190.497 54.2802C191.599 61.5621 183.06 59.6685 184.92 68.1034C186.779 76.5389 201.875 89.0616 211.172 80.5573C220.468 72.053 212.635 68.3003 212.808 58.2081C212.91 52.2067 210.189 41.4676 198.328 47.0111Z" fill="#1E3A5F"/>
<path d="M212.026 80.1875C211.987 80.1875 211.947 80.1724 211.916 80.1416C211.856 80.0812 211.857 79.9827 211.917 79.9223C217.645 74.232 216.322 70.7663 214.647 66.3794C213.721 63.9556 212.673 61.208 212.587 57.6383C212.494 53.7896 211.087 48.527 207.422 46.3592C204.823 44.822 201.491 45.0872 197.517 47.1481C197.44 47.1867 197.348 47.1577 197.308 47.0816C197.269 47.0055 197.298 46.9119 197.375 46.8726C201.45 44.7598 204.884 44.4971 207.58 46.0923C211.354 48.3246 212.803 53.7033 212.897 57.6305C212.982 61.147 214.021 63.868 214.937 66.2683C216.652 70.7608 218.007 74.3093 212.136 80.1416C212.105 80.1724 212.066 80.1875 212.026 80.1875Z" fill="#1E3A5F"/>
<path d="M213.344 79.3642C213.336 79.3443 213.439 79.5032 213.505 79.5919L213.751 79.9175C213.927 80.1422 214.111 80.3669 214.311 80.5904C214.708 81.0355 215.142 81.468 215.603 81.8805C216.512 82.7213 217.52 83.492 218.597 84.1817C219.686 84.8534 220.804 85.5087 221.997 86.0505C222.579 86.3459 223.198 86.5784 223.798 86.8484C223.913 86.8997 223.811 86.8683 223.724 86.8973C223.628 86.9203 223.578 86.9855 223.644 86.9487C223.773 86.8889 224.093 86.5023 224.333 86.0258C224.588 85.545 224.808 84.9706 225.014 84.3744C225.423 83.1712 225.72 81.8582 225.999 80.5312C226.271 79.1999 226.482 77.8385 226.669 76.4693C226.876 75.1054 227.025 73.7078 227.176 72.3506L229.632 72.3639C229.836 75.2625 229.819 78.1146 229.571 81.0373C229.453 82.499 229.243 83.9655 228.888 85.4767C228.708 86.2347 228.473 86.9988 228.136 87.7973C227.778 88.5879 227.366 89.4498 226.413 90.3057C225.942 90.7243 225.24 91.1157 224.448 91.2552C223.665 91.4092 222.842 91.2648 222.299 91.0698C221.59 90.8179 220.869 90.6029 220.169 90.3148C218.761 89.7651 217.383 89.0989 216.053 88.327C214.73 87.5382 213.458 86.6352 212.264 85.5987C211.674 85.0738 211.11 84.5067 210.57 83.8997C210.301 83.5971 210.038 83.2763 209.782 82.9448L209.408 82.4138C209.276 82.2115 209.182 82.0774 208.999 81.7518L213.344 79.3642Z" fill="#FFC3BD"/>
<path d="M212.517 77.124C218.166 80.7293 217.705 82.9514 217.705 82.9514L214.157 88.0902C214.157 88.0902 205.107 84.4584 204.535 81.6196C203.939 78.663 209.778 75.3754 212.517 77.124Z" fill="#1E3A5F"/>
<path opacity="0.1" d="M212.517 77.124C218.166 80.7293 217.705 82.9514 217.705 82.9514L214.157 88.0902C214.157 88.0902 205.107 84.4584 204.535 81.6196C203.939 78.663 209.778 75.3754 212.517 77.124Z" fill="white"/>
<path d="M218.015 82.4429C218.234 82.5963 218.288 82.8983 218.134 83.1176L214.499 88.3204C214.346 88.5397 214.044 88.5935 213.825 88.44C213.605 88.2866 213.552 87.9846 213.705 87.7654L217.34 82.5625C217.493 82.3433 217.795 82.2895 218.015 82.4429Z" fill="#2A9D8F"/>
<path d="M227.606 73.5343L224.804 69.7901L230.179 68.4033C230.179 68.4033 231.273 71.7398 229.485 74.1824L227.606 73.5343Z" fill="#FFC3BD"/>
<path d="M224.952 65.1872L229.428 64.4316L230.179 68.4029L224.804 69.7897L224.952 65.1872Z" fill="#FFC3BD"/>
<path d="M179.413 211.067L184.537 211.562L188.197 199.523L183.073 199.028L179.413 211.067Z" fill="#FFC3BD"/>
<path d="M146.83 193.269L150.629 196.836L158.83 187.822L155.031 184.256L146.83 193.269Z" fill="#FFC3BD"/>
<path d="M152.382 195.125L149.527 189.982C149.423 189.794 149.208 189.715 149.011 189.79L144.616 191.462C144.16 191.635 143.962 192.22 144.21 192.648C145.236 194.424 145.821 195.23 147.076 197.492C147.849 198.883 149.353 202.075 150.419 203.997C151.462 205.877 153.443 204.966 153.171 204.071C151.951 200.055 152.181 197.819 152.525 196.046C152.587 195.727 152.534 195.399 152.382 195.125Z" fill="#1E3A5F"/>
<path d="M185.142 209.998H178.93C178.704 209.998 178.5 210.155 178.44 210.376L177.089 215.29C176.949 215.8 177.324 216.269 177.847 216.274C180.036 216.294 181.074 216.284 183.806 216.284C185.487 216.284 189.834 216.284 192.155 216.284C194.425 216.284 194.899 213.989 193.96 213.782C189.749 212.85 187.322 211.564 186.022 210.338C185.788 210.117 185.473 209.998 185.142 209.998Z" fill="#1E3A5F"/>
<path opacity="0.2" d="M188.196 199.526L186.309 205.731H181.033L183.07 199.031L188.196 199.526Z" fill="black"/>
<path opacity="0.2" d="M155.027 184.257L158.828 187.825L154.598 192.47L150.798 188.902L155.027 184.257Z" fill="black"/>
<path d="M212.517 77.1244C212.517 77.1244 214.569 78.5232 201.556 106.801C193.423 104.55 185.018 102.223 181.061 101.127C183.714 92.8809 185.147 87.7397 185.9 69.5176C185.9 69.5176 190.453 69.7725 194.921 70.7805C198.416 71.5688 201.272 72.241 204.227 73.3572C208.124 74.8279 212.517 77.1244 212.517 77.1244Z" fill="#1E3A5F"/>
<path opacity="0.1" d="M212.517 77.1244C212.517 77.1244 214.569 78.5232 201.556 106.801C193.423 104.55 185.018 102.223 181.061 101.127C183.714 92.8809 185.147 87.7397 185.9 69.5176C185.9 69.5176 190.453 69.7725 194.921 70.7805C198.416 71.5688 201.272 72.241 204.227 73.3572C208.124 74.8279 212.517 77.1244 212.517 77.1244Z" fill="white"/>
<path d="M198.744 60.5547C198.502 63.7118 197.569 69.3604 194.92 70.7786C194.92 70.7786 193.381 76.0165 200.065 77.9396C205.721 79.5662 204.227 73.3553 204.227 73.3553C201.108 71.6333 203.036 68.5831 203.606 65.1686L198.744 60.5547Z" fill="#FFC3BD"/>
<path opacity="0.2" d="M198.741 60.5566C198.549 63.091 197.911 67.2435 196.287 69.5055C198.171 69.6915 201.146 69.1147 201.989 67.7146C202.211 67.3553 202.652 65.9733 203.036 64.6282L198.741 60.5566Z" fill="black"/>
<path d="M207.033 55.9806C207.019 61.1774 207.124 63.3771 204.665 66.1888C200.965 70.4174 194.585 69.2637 193.047 64.1672C191.662 59.5798 191.918 51.8522 196.866 49.4942C201.74 47.1706 207.048 50.7837 207.033 55.9806Z" fill="#FFC3BD"/>
<path d="M196.288 53.0994C199.205 57.1746 209.018 62.842 209.676 57.3812C210.335 51.9204 205.322 46.5255 200.36 47.0455C195.398 47.5656 193.805 49.6313 196.288 53.0994Z" fill="#1E3A5F"/>
<path d="M209.185 60.8329C208.717 61.8035 207.845 62.4673 207.004 62.7457C205.74 63.1649 205.045 62.0493 205.344 60.8232C205.613 59.7197 206.594 58.1717 207.889 58.2852C209.164 58.3963 209.72 59.7233 209.185 60.8329Z" fill="#FFC3BD"/>
<path d="M201.556 106.8C201.556 106.8 208.851 136.354 204.066 158.711C200.861 173.684 189.302 203.932 189.302 203.932L180.265 203.699C180.265 203.699 189.015 171.957 190.824 159.473C193.918 138.119 186.547 102.645 186.547 102.645L201.556 106.8Z" fill="#2A9D8F"/>
<path opacity="0.2" d="M193.417 111.047L188.898 118.173C190.048 125.563 191.192 134.806 191.484 143.701C197.838 132.325 194.83 117.07 193.417 111.047Z" fill="black"/>
<path d="M190.918 204.401L179.413 204.116L180.183 200.024L191.76 200.892L190.918 204.401Z" fill="#1E3A5F"/>
<path d="M197.063 105.622C197.063 105.622 192.845 137.936 183.729 156.296C176.367 171.126 156.719 192.237 156.719 192.237L151.695 187.062C151.695 187.062 164.966 164.119 170.438 154.268C183.856 130.113 171.962 108.456 181.06 101.127L197.063 105.622Z" fill="#2A9D8F"/>
<path d="M157.227 192.929L150.744 186.61L152.895 183.684L159.961 190.988L157.227 192.929Z" fill="#1E3A5F"/>
<path d="M181.086 99.8385L179.654 101.417C179.543 101.54 179.671 101.731 179.908 101.797L201.403 107.748C201.587 107.799 201.766 107.751 201.809 107.638L202.502 105.854C202.55 105.73 202.419 105.579 202.217 105.523L181.463 99.7769C181.31 99.7352 181.158 99.7599 181.086 99.8385Z" fill="#2A9D8F"/>
<path opacity="0.5" d="M181.086 99.8385L179.654 101.417C179.543 101.54 179.671 101.731 179.908 101.797L201.403 107.748C201.587 107.799 201.766 107.751 201.809 107.638L202.502 105.854C202.55 105.73 202.419 105.579 202.217 105.523L181.463 99.7769C181.31 99.7352 181.158 99.7599 181.086 99.8385Z" fill="white"/>
<path d="M183.231 102.931L182.676 102.777C182.565 102.747 182.496 102.666 182.524 102.599L183.444 100.287C183.471 100.219 183.584 100.189 183.694 100.22L184.25 100.374C184.36 100.405 184.429 100.485 184.402 100.553L183.481 102.864C183.455 102.932 183.343 102.962 183.231 102.931Z" fill="#2A9D8F"/>
<path d="M199.786 107.514L199.23 107.36C199.12 107.33 199.051 107.249 199.078 107.182L199.998 104.87C200.026 104.802 200.138 104.772 200.248 104.803L200.804 104.957C200.915 104.988 200.984 105.068 200.956 105.136L200.036 107.447C200.009 107.514 199.896 107.545 199.786 107.514Z" fill="#2A9D8F"/>
<path d="M191.508 105.222L190.953 105.068C190.842 105.038 190.773 104.957 190.801 104.89L191.721 102.578C191.748 102.51 191.861 102.48 191.971 102.511L192.527 102.665C192.637 102.696 192.706 102.776 192.679 102.844L191.759 105.155C191.732 105.223 191.619 105.253 191.508 105.222Z" fill="#2A9D8F"/>
<path d="M199.264 57.8887C199.289 58.3103 199.085 58.6655 198.81 58.6812C198.534 58.6975 198.291 58.3689 198.266 57.9473C198.241 57.5257 198.445 57.1706 198.72 57.1549C198.996 57.1386 199.239 57.4672 199.264 57.8887Z" fill="#1E3A5F"/>
<path d="M194.498 58.169C194.523 58.5906 194.32 58.9458 194.044 58.9615C193.769 58.9778 193.525 58.6492 193.501 58.2276C193.476 57.806 193.679 57.4509 193.955 57.4352C194.23 57.4188 194.474 57.7474 194.498 58.169Z" fill="#1E3A5F"/>
<path d="M194.077 57.4503L193.047 57.2178C193.047 57.2178 193.613 57.9788 194.077 57.4503Z" fill="#1E3A5F"/>
<path d="M195.8 58.8193C195.8 58.8193 195.192 60.6766 194.455 61.5983C195.042 62.0852 195.975 61.7922 195.975 61.7922L195.8 58.8193Z" fill="#ED847E"/>
<path d="M200.845 54.8076C200.777 54.8251 200.702 54.8076 200.649 54.7551C199.849 53.9723 198.954 54.1529 198.916 54.1607C198.804 54.1843 198.695 54.1142 198.67 54.0031C198.646 53.892 198.715 53.7838 198.827 53.7579C198.873 53.7476 199.973 53.5163 200.937 54.4597C201.019 54.5394 201.02 54.6699 200.94 54.7514C200.913 54.7798 200.88 54.7986 200.845 54.8076Z" fill="#1E3A5F"/>
<path d="M192.421 55.4196C192.355 55.4492 192.275 55.4432 192.213 55.3973C192.122 55.3296 192.102 55.2004 192.17 55.1091C192.974 54.0244 194.096 54.0793 194.143 54.0824C194.257 54.089 194.343 54.1862 194.337 54.2998C194.33 54.4127 194.233 54.4997 194.12 54.4943C194.081 54.4919 193.169 54.4556 192.502 55.355C192.48 55.3834 192.452 55.4057 192.421 55.4196Z" fill="#1E3A5F"/>
<path d="M186.377 77.3021C185.85 78.0976 185.371 78.7361 184.838 79.4131C184.312 80.0751 183.774 80.7226 183.219 81.3562C182.104 82.6174 180.914 83.8103 179.665 84.944C178.42 86.0819 177.111 87.1576 175.715 88.1289C175.035 88.6356 174.302 89.0789 173.586 89.5386L172.474 90.177L171.916 90.4929C171.712 90.6004 171.446 90.7448 171.189 90.8493C170.169 91.3083 168.857 91.5463 167.613 91.3186C166.365 91.1042 165.315 90.505 164.509 89.846C163.69 89.1822 163.076 88.4315 162.543 87.6807C162.014 86.9239 161.563 86.1586 161.183 85.3758C159.671 82.2399 158.787 79.0852 158.229 75.7801L160.621 75.2256C161.121 76.6619 161.683 78.1496 162.317 79.5496C162.932 80.963 163.621 82.3347 164.413 83.5735C165.19 84.8014 166.099 85.9496 167.025 86.5784C167.481 86.8955 167.904 87.0501 168.248 87.07C168.592 87.0869 168.923 87.0217 169.35 86.8013C169.461 86.7487 169.544 86.6925 169.689 86.605L170.159 86.2987L171.096 85.6839C171.7 85.2345 172.322 84.8226 172.907 84.343C174.099 83.4267 175.227 82.4114 176.328 81.3701C177.428 80.327 178.465 79.209 179.461 78.0602C179.962 77.4894 180.449 76.9059 180.921 76.3146C181.376 75.7324 181.867 75.0939 182.242 74.5654L186.377 77.3021Z" fill="#FFC3BD"/>
<path d="M161.129 77.4492L161.659 71.8145L156.595 73.8874C156.595 73.8874 157.2 76.7213 159.127 77.733L161.129 77.4492Z" fill="#FFC3BD"/>
<path d="M160.041 68.775L156.121 67.9209L156.595 73.8872L161.659 71.8143L160.041 68.775Z" fill="#FFC3BD"/>
<path d="M185.899 69.5166C183.262 69.4937 176.902 79.5932 176.902 79.5932L181.395 84.241C181.395 84.241 189.835 78.5386 190.18 75.1604C190.473 72.2926 189.259 69.5462 185.899 69.5166Z" fill="#1E3A5F"/>
<path opacity="0.1" d="M185.899 69.5166C183.262 69.4937 176.902 79.5932 176.902 79.5932L181.395 84.241C181.395 84.241 189.835 78.5386 190.18 75.1604C190.473 72.2926 189.259 69.5462 185.899 69.5166Z" fill="white"/>
<path d="M181.81 84.4452C181.623 84.636 181.316 84.639 181.125 84.4518L176.594 80.0088C176.403 79.8215 176.4 79.5147 176.587 79.3238C176.774 79.133 177.081 79.13 177.272 79.3172L181.804 83.7602C181.995 83.9469 181.998 84.2537 181.81 84.4452Z" fill="#2A9D8F"/>
<path d="M153.384 197.89C153.535 197.89 153.687 197.833 153.838 197.719C154 197.598 154.023 197.453 154.015 197.353C153.962 196.697 152.302 195.81 152.113 195.711C152.077 195.692 152.032 195.697 152 195.722C151.968 195.748 151.955 195.791 151.965 195.831C152.153 196.497 152.56 197.647 153.182 197.856C153.248 197.879 153.316 197.89 153.384 197.89ZM152.235 196.013C152.804 196.336 153.777 196.968 153.809 197.37C153.813 197.416 153.808 197.484 153.714 197.554C153.552 197.676 153.399 197.711 153.248 197.661C152.894 197.542 152.522 196.933 152.235 196.013Z" fill="#2A9D8F"/>
<path d="M153.64 196.272C153.953 196.272 154.227 196.219 154.384 196.086C154.468 196.015 154.591 195.854 154.479 195.577C154.406 195.398 154.276 195.275 154.092 195.21C153.384 194.959 152.07 195.681 152.014 195.712C151.982 195.73 151.962 195.763 151.961 195.8C151.961 195.837 151.979 195.871 152.011 195.89C152.328 196.085 153.051 196.272 153.64 196.272ZM153.74 195.363C153.843 195.363 153.939 195.376 154.023 195.405C154.152 195.45 154.238 195.532 154.288 195.655C154.353 195.815 154.302 195.885 154.251 195.929C153.944 196.189 152.853 196.042 152.291 195.802C152.6 195.65 153.251 195.363 153.74 195.363Z" fill="#2A9D8F"/>
<path d="M187.899 211.003C188.375 211.003 188.817 210.93 189.098 210.717C189.288 210.574 189.391 210.378 189.405 210.136C189.415 209.961 189.331 209.866 189.259 209.817C188.693 209.433 186.437 210.474 186.182 210.594C186.142 210.613 186.118 210.655 186.123 210.699C186.128 210.742 186.16 210.779 186.204 210.788C186.653 210.888 187.302 211.003 187.899 211.003ZM188.891 209.933C189.001 209.933 189.087 209.95 189.143 209.987C189.172 210.007 189.204 210.04 189.199 210.124C189.188 210.306 189.115 210.446 188.973 210.553C188.464 210.937 187.227 210.776 186.557 210.65C187.329 210.31 188.371 209.933 188.891 209.933Z" fill="#2A9D8F"/>
<path d="M186.225 210.791C186.239 210.791 186.252 210.788 186.265 210.783C186.943 210.505 188.364 209.365 188.287 208.799C188.271 208.678 188.187 208.526 187.881 208.489C186.665 208.349 186.146 210.57 186.125 210.664C186.117 210.702 186.129 210.741 186.159 210.766C186.178 210.782 186.201 210.791 186.225 210.791ZM187.77 208.688C187.799 208.688 187.827 208.69 187.856 208.694C188.068 208.719 188.079 208.8 188.083 208.826C188.132 209.188 187.116 210.115 186.382 210.5C186.534 209.981 186.99 208.688 187.77 208.688Z" fill="#2A9D8F"/>
<path d="M198.843 57.171L197.813 56.9385C197.813 56.9385 198.379 57.6995 198.843 57.171Z" fill="#1E3A5F"/>
<path d="M92.113 213.55L160.424 207.581C165.045 207.177 168.495 203.067 168.091 198.446L153.852 35.4946C153.449 30.874 149.338 27.424 144.717 27.8281L76.406 33.7968C71.7854 34.2003 68.3354 38.3111 68.7394 42.9317L82.9781 205.883C83.3816 210.504 87.4924 213.954 92.113 213.55Z" fill="#2A9D8F"/>
<path d="M73.8692 91.046C75.1841 90.9313 76.1662 89.7613 76.0515 88.4458L74.1712 66.9277C74.0565 65.6128 72.8865 64.6307 71.571 64.7454C70.2561 64.8602 69.274 66.0302 69.3888 67.3457L71.269 88.8638C71.3844 90.1787 72.5543 91.1608 73.8692 91.046Z" fill="#2A9D8F"/>
<path d="M157.295 74.0641L158.135 73.9904C159.111 73.9052 159.84 73.0367 159.755 72.0612L158.607 58.9279C158.522 57.9518 157.653 57.2234 156.678 57.3085L155.838 57.3816C154.862 57.4668 154.134 58.3353 154.219 59.3108L155.367 72.4448C155.451 73.4208 156.319 74.1499 157.295 74.0641Z" fill="#1E3A5F"/>
<path d="M159.222 96.1217L160.062 96.048C161.038 95.9629 161.767 95.0943 161.682 94.1188L160.534 80.9855C160.449 80.0094 159.581 79.281 158.605 79.3661L157.765 79.4392C156.789 79.5244 156.06 80.3929 156.145 81.3684L157.293 94.5024C157.378 95.4778 158.246 96.2069 159.222 96.1217Z" fill="#1E3A5F"/>
<path d="M93.5498 213.424L161.861 207.455C166.482 207.051 169.932 202.941 169.528 198.32L155.289 35.3687C154.885 30.7481 150.775 27.298 146.154 27.7021L77.8428 33.6708C73.2222 34.0743 69.7721 38.1851 70.1762 42.8057L84.4149 205.758C84.8184 210.378 88.9292 213.828 93.5498 213.424Z" fill="#1E3A5F"/>
<path opacity="0.4" d="M86.8251 203.268L166.722 196.287C167.591 196.211 168.233 195.445 168.157 194.577L154.614 39.5867C154.538 38.7182 153.773 38.0755 152.905 38.1516L73.0074 45.1333C72.1388 45.2094 71.4962 45.9746 71.5723 46.8432L85.1152 201.834C85.1907 202.702 85.9565 203.344 86.8251 203.268Z" fill="#2A9D8F"/>
<path opacity="0.3" d="M142.358 39.0723L132.318 199.293L115.619 200.752L125.658 40.5315L142.358 39.0723Z" fill="#2A9D8F"/>
<path opacity="0.2" d="M120.877 33.9266L103.817 35.4172C103.423 35.4517 103.129 35.802 103.163 36.1958L103.224 36.8892C103.258 37.283 103.609 37.5771 104.002 37.5427L121.063 36.052C121.457 36.0176 121.751 35.6673 121.716 35.2735L121.656 34.5801C121.622 34.1863 121.271 33.8921 120.877 33.9266Z" fill="white"/>
<path d="M104.972 96.0176H188.088C192.572 96.0176 196.241 99.6863 196.241 104.17V144.936C196.241 149.42 192.572 153.089 188.088 153.089H159.329L146.531 165.888L133.732 153.089H104.973C100.489 153.089 96.8203 149.42 96.8203 144.936V104.17C96.8197 99.6863 100.488 96.0176 104.972 96.0176Z" fill="#2A9D8F"/>
<path opacity="0.3" d="M104.972 96.0176H188.088C192.572 96.0176 196.241 99.6863 196.241 104.17V144.936C196.241 149.42 192.572 153.089 188.088 153.089H159.329L146.531 165.888L133.732 153.089H104.973C100.489 153.089 96.8203 149.42 96.8203 144.936V104.17C96.8197 99.6863 100.488 96.0176 104.972 96.0176Z" fill="white"/>
<path d="M110.303 110.147V138.96C110.303 141.305 112.178 143.222 114.471 143.222H178.59C180.883 143.222 182.758 141.304 182.758 138.96V110.147C182.758 109.586 182.651 109.046 182.453 108.555C181.834 106.992 180.334 105.884 178.59 105.884H114.471C112.731 105.884 111.227 106.992 110.609 108.552C110.41 109.046 110.303 109.582 110.303 110.147Z" fill="white"/>
<path opacity="0.1" d="M110.609 108.551L141.607 122.053C144.754 123.423 148.311 123.423 151.458 122.053L182.453 108.554C181.834 106.991 180.334 105.883 178.59 105.883H114.471C112.73 105.883 111.227 106.992 110.609 108.551Z" fill="black"/>
<path d="M111.997 108.401C116.837 103.561 116.837 95.7144 111.997 90.8747C107.158 86.035 99.3109 86.035 94.4712 90.8747C89.6316 95.7144 89.6316 103.561 94.4713 108.401C99.3109 113.24 107.158 113.24 111.997 108.401Z" fill="#DE5753"/>
<path d="M172.964 22.8129C172.09 22.8129 171.323 22.1739 171.189 21.2824C169.484 9.95438 158.882 2.12533 147.552 3.82921C146.57 3.97719 145.655 3.30071 145.507 2.31921C145.359 1.33711 146.036 0.421445 147.018 0.273465C160.308 -1.72638 172.745 7.45865 174.744 20.7467C174.892 21.7288 174.216 22.6444 173.234 22.7918C173.144 22.8069 173.053 22.8129 172.964 22.8129Z" fill="#2A9D8F"/>
<path d="M164.035 24.1566C163.16 24.1566 162.394 23.5176 162.26 22.6261C161.296 16.2212 155.3 11.7951 148.896 12.7585C147.915 12.9065 146.998 12.23 146.851 11.2485C146.703 10.2664 147.379 9.35074 148.361 9.20337C156.726 7.94463 164.557 13.7261 165.815 22.0915C165.963 23.0736 165.287 23.9893 164.305 24.1367C164.215 24.1499 164.125 24.1566 164.035 24.1566Z" fill="#2A9D8F"/>
<path d="M155.107 25.5005C154.232 25.5005 153.465 24.8608 153.331 23.9699C153.223 23.2524 152.842 22.62 152.258 22.1887C151.675 21.7581 150.959 21.5799 150.24 21.688C149.259 21.836 148.342 21.1595 148.195 20.1774C148.047 19.1953 148.724 18.2797 149.706 18.1323C151.375 17.881 153.039 18.2948 154.395 19.2962C155.751 20.2976 156.636 21.7678 156.887 23.4348C157.035 24.4163 156.358 25.3326 155.377 25.4799C155.286 25.4938 155.195 25.5005 155.107 25.5005Z" fill="#2A9D8F"/>
<path d="M97.92 99.26C97.92 94.78 99.8 92.28 103.14 92.28C106.48 92.28 108.38 94.78 108.38 99.26C108.38 103.72 106.52 106.2 103.14 106.2C99.76 106.2 97.92 103.72 97.92 99.26ZM100.78 99.26C100.78 102.16 101.58 103.72 103.14 103.72C104.68 103.72 105.52 102.16 105.52 99.26C105.52 96.34 104.68 94.76 103.14 94.76C101.62 94.76 100.78 96.34 100.78 99.26Z" fill="white"/>
</svg>
