<svg width="16" height="16" viewBox="0 0 16 16" fill="none" xmlns="http://www.w3.org/2000/svg">
<g clip-path="url(#clip0_389_9144)">
<path d="M14.6666 7.99992C14.6666 11.6819 11.682 14.6666 7.99998 14.6666C4.31798 14.6666 1.33331 11.6819 1.33331 7.99992C1.33331 4.31792 4.31798 1.33325 7.99998 1.33325C11.682 1.33325 14.6666 4.31792 14.6666 7.99992Z" stroke="#439DB6" stroke-width="2" stroke-linecap="round" stroke-linejoin="round"/>
<path d="M7.99996 8.66667C8.35358 8.66667 8.69272 8.52619 8.94277 8.27614C9.19282 8.02609 9.33329 7.68696 9.33329 7.33333C9.33329 6.97971 9.19282 6.64057 8.94277 6.39052C8.69272 6.14048 8.35358 6 7.99996 6C7.64634 6 7.3072 6.14048 7.05715 6.39052C6.8071 6.64057 6.66663 6.97971 6.66663 7.33333C6.66663 7.68696 6.8071 8.02609 7.05715 8.27614C7.3072 8.52619 7.64634 8.66667 7.99996 8.66667ZM7.99996 8.66667V10.6667" stroke="#439DB6" stroke-width="1.6" stroke-linecap="round" stroke-linejoin="round"/>
</g>
<defs>
<clipPath id="clip0_389_9144">
<rect width="16" height="16" fill="white"/>
</clipPath>
</defs>
</svg>
