<svg width="64" height="64" viewBox="0 0 64 64" fill="none" xmlns="http://www.w3.org/2000/svg">
<path fill-rule="evenodd" clip-rule="evenodd" d="M18.88 8.32007H18.944C19.904 8.32007 20.736 8.32007 21.4144 8.37127C22.1312 8.43527 22.8479 8.56327 23.5392 8.90887C24.5631 9.43367 25.408 10.2657 25.9328 11.3025C26.2784 11.9937 26.4192 12.7105 26.4704 13.4273C26.5216 14.1057 26.5216 14.9377 26.5216 15.8977V48.0897C26.5216 49.0497 26.5216 49.8817 26.4704 50.5601C26.4064 51.2769 26.2784 51.9937 25.9328 52.6849C25.408 53.7089 24.5759 54.5537 23.5392 55.0785C22.8479 55.4241 22.1312 55.5649 21.4144 55.6161C20.736 55.6673 19.904 55.6673 18.944 55.6673H18.3296C17.3696 55.6673 16.5376 55.6673 15.8592 55.6161C15.1424 55.5521 14.4256 55.4241 13.7344 55.0785C12.7104 54.5537 11.8656 53.7217 11.3408 52.6849C10.9952 51.9937 10.8544 51.2769 10.8032 50.5601C10.752 49.8817 10.752 49.0497 10.752 48.0897V15.9105C10.752 14.9505 10.752 14.1185 10.8032 13.4401C10.8672 12.7233 10.9952 12.0065 11.3408 11.3153C11.8656 10.2913 12.6976 9.44647 13.7344 8.92167C14.4256 8.57607 15.1424 8.43527 15.8592 8.38407C16.5376 8.33287 17.3696 8.33287 18.3296 8.33287H18.3936L18.88 8.32007ZM21.9008 12.1601C21.8112 12.1089 21.632 12.0449 21.1328 12.0065C20.6208 11.9681 19.9424 11.9681 18.8928 11.9681H18.4064C17.3568 11.9681 16.6784 11.9681 16.1664 12.0065C15.6672 12.0449 15.488 12.1217 15.3984 12.1601C15.0528 12.3393 14.7712 12.6081 14.6048 12.9537C14.5536 13.0433 14.4896 13.2225 14.4512 13.7217C14.4128 14.2337 14.4128 14.9121 14.4128 15.9617V48.0257C14.4128 49.0753 14.4128 49.7537 14.4512 50.2657C14.4896 50.7649 14.5664 50.9441 14.6048 51.0337C14.784 51.3793 15.0528 51.6609 15.3984 51.8273C15.488 51.8785 15.6672 51.9425 16.1664 51.9809C16.6784 52.0193 17.3568 52.0193 18.4064 52.0193H18.8928C19.9424 52.0193 20.6208 52.0193 21.1328 51.9809C21.632 51.9425 21.8112 51.8657 21.9008 51.8273C22.2464 51.6481 22.528 51.3793 22.6944 51.0337C22.7456 50.9441 22.8096 50.7649 22.848 50.2657C22.8864 49.7537 22.8864 49.0753 22.8864 48.0257V15.9745C22.8864 14.9249 22.8864 14.2465 22.848 13.7345C22.8096 13.2353 22.7328 13.0561 22.6944 12.9665C22.5152 12.6209 22.2464 12.3393 21.9008 12.1601ZM45.6063 8.32007H45.6703C46.6303 8.32007 47.4623 8.32007 48.1407 8.37127C48.8575 8.43527 49.5743 8.56327 50.2655 8.90887C51.2895 9.43367 52.1343 10.2657 52.6591 11.3025C53.0047 11.9937 53.1455 12.7105 53.1967 13.4273C53.2479 14.1057 53.2479 14.9377 53.2479 15.8977V48.0897C53.2479 49.0497 53.2479 49.8817 53.1967 50.5601C53.1327 51.2769 53.0047 51.9937 52.6591 52.6849C52.1343 53.7089 51.3023 54.5537 50.2655 55.0785C49.5743 55.4241 48.8575 55.5649 48.1407 55.6161C47.4623 55.6673 46.6303 55.6673 45.6703 55.6673H45.0559C44.0959 55.6673 43.264 55.6673 42.5855 55.6161C41.8687 55.5521 41.1519 55.4241 40.4607 55.0785C39.4367 54.5537 38.5919 53.7217 38.0671 52.6849C37.7215 51.9937 37.5807 51.2769 37.5296 50.5601C37.4783 49.8817 37.4783 49.0497 37.4783 48.0897V15.9105C37.4783 14.9505 37.4783 14.1185 37.5296 13.4401C37.5935 12.7233 37.7215 12.0065 38.0671 11.3153C38.5919 10.2913 39.4239 9.44647 40.4607 8.92167C41.1519 8.57607 41.8687 8.43527 42.5855 8.38407C43.264 8.33287 44.0959 8.33287 45.0559 8.33287H45.1199L45.6063 8.32007ZM48.6143 12.1601C48.5247 12.1089 48.3455 12.0449 47.8463 12.0065C47.3343 11.9681 46.6559 11.9681 45.6063 11.9681H45.1199C44.0703 11.9681 43.3919 11.9681 42.8799 12.0065C42.3807 12.0449 42.2015 12.1217 42.1119 12.1601C41.7663 12.3393 41.4847 12.6081 41.3183 12.9537C41.2671 13.0433 41.2031 13.2225 41.1647 13.7217C41.1263 14.2337 41.1263 14.9121 41.1263 15.9617V48.0257C41.1263 49.0753 41.1263 49.7537 41.1647 50.2657C41.2031 50.7649 41.2799 50.9441 41.3183 51.0337C41.4975 51.3793 41.7663 51.6609 42.1119 51.8273C42.2015 51.8785 42.3807 51.9425 42.8799 51.9809C43.3919 52.0193 44.0703 52.0193 45.1199 52.0193H45.6063C46.6559 52.0193 47.3343 52.0193 47.8463 51.9809C48.3455 51.9425 48.5247 51.8657 48.6143 51.8273C48.9599 51.6481 49.2415 51.3793 49.4079 51.0337C49.4591 50.9441 49.5231 50.7649 49.5615 50.2657C49.5999 49.7537 49.5999 49.0753 49.5999 48.0257V15.9745C49.5999 14.9249 49.5999 14.2465 49.5615 13.7345C49.5231 13.2353 49.4463 13.0561 49.4079 12.9665C49.2287 12.6209 48.9599 12.3393 48.6143 12.1601Z" fill="#FFF9F0"/>
</svg>
