<svg width="20" height="20" viewBox="0 0 20 20" fill="none" xmlns="http://www.w3.org/2000/svg">
<path d="M3.96699 15.6749H4.05866L6.50033 15.4499C6.84199 15.4166 7.15866 15.2666 7.40033 15.0249L16.617 5.80825C17.0503 5.37492 17.292 4.79992 17.292 4.19158C17.292 3.58325 17.0503 3.00825 16.617 2.57492L16.0253 1.98325C15.1587 1.11659 13.6503 1.11659 12.7837 1.98325L11.6087 3.15825L3.57533 11.1916C3.33366 11.4333 3.18366 11.7499 3.15866 12.0916L2.93366 14.5332C2.90866 14.8416 3.01699 15.1416 3.23366 15.3666C3.43366 15.5666 3.69199 15.6749 3.96699 15.6749ZM14.4087 2.55825C14.6753 2.55825 14.942 2.65825 15.142 2.86659L15.7337 3.45825C15.831 3.55396 15.9083 3.66809 15.9611 3.794C16.0139 3.91991 16.0411 4.05506 16.0411 4.19158C16.0411 4.32811 16.0139 4.46326 15.9611 4.58917C15.9083 4.71508 15.831 4.82921 15.7337 4.92492L15.0003 5.65825L12.942 3.59992L13.6753 2.86659C13.8753 2.66658 14.142 2.55825 14.4087 2.55825ZM4.40033 12.2082C4.40033 12.1582 4.42533 12.1166 4.45866 12.0833L12.0503 4.48325L14.1087 6.54158L6.51699 14.1332C6.51699 14.1332 6.43366 14.1916 6.39199 14.1916L4.20033 14.3916L4.40033 12.1999V12.2082ZM18.9587 18.3332C18.9587 18.6749 18.6753 18.9582 18.3337 18.9582H1.66699C1.32533 18.9582 1.04199 18.6749 1.04199 18.3332C1.04199 17.9916 1.32533 17.7082 1.66699 17.7082H18.3337C18.6753 17.7082 18.9587 17.9916 18.9587 18.3332Z" fill="#3F3024"/>
</svg>
