<svg width="42" height="54" viewBox="0 0 42 54" fill="none" xmlns="http://www.w3.org/2000/svg">
<path d="M29.4208 14.0921C36.1417 19.5754 39.5 22.3129 39.5 27.0004C39.5 31.6879 36.1417 34.4296 29.4208 39.9087C27.6756 41.3468 25.88 42.7227 24.0375 44.0337C22.5542 45.0754 20.875 46.1504 19.1375 47.2087C12.4333 51.2837 9.08333 53.3212 6.07917 51.0671C3.07083 48.8087 2.8 44.0879 2.25417 34.6379C2.0987 32.0949 2.01395 29.5481 2 27.0004C2 24.6546 2.09584 22.0337 2.25 19.3629C2.8 9.91707 3.07083 5.19207 6.07917 2.93374C9.08333 0.679572 12.4333 2.71707 19.1375 6.79207C20.875 7.85041 22.5542 8.9254 24.0375 9.96707C25.88 11.2781 27.6756 12.654 29.4208 14.0921Z" stroke="#FFF9F0" stroke-width="4" stroke-linecap="round" stroke-linejoin="round"/>
</svg>
