<svg width="20" height="20" viewBox="0 0 20 20" fill="none" xmlns="http://www.w3.org/2000/svg">
<g clip-path="url(#clip0_101_755)">
<path d="M9.95385 13.5127C9.2549 13.5127 8.57165 13.3067 7.9905 12.9207C7.40935 12.5346 6.9564 11.986 6.68893 11.344C6.42145 10.7021 6.35147 9.99575 6.48783 9.31428C6.62418 8.63281 6.96076 8.00684 7.45499 7.51553C7.94921 7.02422 8.5789 6.68963 9.26441 6.55408C9.94993 6.41852 10.6605 6.48809 11.3062 6.75399C11.952 7.01989 12.5039 7.47017 12.8922 8.04789C13.2805 8.62561 13.4878 9.30483 13.4878 9.99965C13.4853 10.9306 13.1122 11.8227 12.45 12.481C11.7878 13.1393 10.8903 13.5103 9.95385 13.5127ZM9.95385 7.8918C9.53448 7.8918 9.12453 8.01543 8.77584 8.24704C8.42715 8.47865 8.15538 8.80785 7.99489 9.19301C7.83441 9.57817 7.79242 10.002 7.87423 10.4109C7.95605 10.8198 8.15799 11.1953 8.45453 11.4901C8.75107 11.7849 9.12888 11.9857 9.54019 12.067C9.95149 12.1483 10.3778 12.1066 10.7653 11.947C11.1527 11.7875 11.4839 11.5173 11.7169 11.1707C11.9498 10.8241 12.0742 10.4165 12.0742 9.99965C12.0742 9.44061 11.8508 8.90448 11.4532 8.50918C11.0555 8.11388 10.5162 7.8918 9.95385 7.8918Z" fill="#3F3024"/>
<path d="M9.9445 19.0398C9.71704 19.0404 9.49211 18.9925 9.28484 18.8993L2.65048 15.5549C2.36723 15.4213 2.12814 15.2103 1.96123 14.9464C1.79432 14.6826 1.70652 14.377 1.7081 14.0653V5.92437C1.70472 5.61113 1.79167 5.30348 1.95868 5.03784C2.12569 4.7722 2.36577 4.55969 2.65048 4.42545L9.24714 1.10911C9.45796 1.01671 9.68583 0.968994 9.91623 0.968994C10.1466 0.968994 10.3745 1.01671 10.5853 1.10911L17.182 4.45356C17.4652 4.58712 17.7043 4.79818 17.8712 5.06199C18.0381 5.32581 18.1259 5.63145 18.1244 5.9431V14.0653C18.1271 14.3772 18.0398 14.6833 17.8727 14.9474C17.7057 15.2114 17.4659 15.4222 17.182 15.5549L10.5853 18.8712C10.3841 18.9666 10.1668 19.0238 9.9445 19.0398ZM9.86911 2.37382L3.27245 5.69016C3.22424 5.70844 3.18248 5.74036 3.15233 5.78199C3.12218 5.82361 3.10497 5.87312 3.10283 5.92437V14.0653C3.10446 14.1094 3.1186 14.1522 3.14361 14.1886C3.16861 14.2251 3.20348 14.2538 3.24418 14.2714L9.84084 17.6252C9.89285 17.6424 9.94904 17.6424 10.001 17.6252L16.5977 14.3089C16.6509 14.2932 16.6977 14.2612 16.7316 14.2174C16.7654 14.1737 16.7845 14.1205 16.7862 14.0653V5.92437C16.7863 5.87866 16.773 5.8339 16.7479 5.79561C16.7228 5.75732 16.687 5.72718 16.6448 5.7089L10.0482 2.35508C10.0186 2.34585 9.98748 2.34275 9.95668 2.34597C9.92588 2.3492 9.89608 2.35867 9.86911 2.37382Z" fill="#3F3024"/>
</g>
<defs>
<clipPath id="clip0_101_755">
<rect width="16.4916" height="18.09" fill="white" transform="translate(1.70801 0.949951)"/>
</clipPath>
</defs>
</svg>
