<svg width="24" height="24" viewBox="0 0 24 24" fill="none" xmlns="http://www.w3.org/2000/svg">
<path d="M10.75 2.56711C11.13 2.34769 11.5612 2.23218 12 2.23218C12.4388 2.23218 12.8699 2.34769 13.25 2.56711L19.544 6.20011C19.924 6.41953 20.2396 6.73511 20.459 7.11515C20.6785 7.49519 20.794 7.92628 20.794 8.36511V15.6331C20.794 16.0719 20.6785 16.503 20.459 16.8831C20.2396 17.2631 19.924 17.5787 19.544 17.7981L13.25 21.4321C12.8699 21.6515 12.4388 21.7671 12 21.7671C11.5612 21.7671 11.13 21.6515 10.75 21.4321L4.45599 17.7981C4.07595 17.5787 3.76037 17.2631 3.54095 16.8831C3.32153 16.503 3.206 16.0719 3.20599 15.6331V8.36611C3.20583 7.92711 3.32127 7.49581 3.5407 7.11558C3.76013 6.73536 4.07581 6.41961 4.45599 6.20011L10.75 2.56711ZM12 9.00011C11.2043 9.00011 10.4413 9.31618 9.87867 9.87879C9.31606 10.4414 8.99999 11.2045 8.99999 12.0001C8.99999 12.7958 9.31606 13.5588 9.87867 14.1214C10.4413 14.684 11.2043 15.0001 12 15.0001C12.7956 15.0001 13.5587 14.684 14.1213 14.1214C14.6839 13.5588 15 12.7958 15 12.0001C15 11.2045 14.6839 10.4414 14.1213 9.87879C13.5587 9.31618 12.7956 9.00011 12 9.00011Z" fill="#2A9D8F"/>
</svg>
