<svg width="235" height="213" viewBox="0 0 235 213" fill="none" xmlns="http://www.w3.org/2000/svg">
<path d="M55.1753 80.0189C54.6333 75.5892 50.8655 72.1558 46.2888 72.1558C45.835 72.1558 45.3934 72.2002 44.9575 72.2653C42.875 68.0639 38.5548 65.1685 33.5474 65.1685C28.8156 65.1685 24.6955 67.7537 22.4977 71.5832C21.9499 71.4754 21.3849 71.416 20.8061 71.416C16.3187 71.416 12.6264 74.8091 12.1484 79.169C9.4415 79.4308 7.32495 81.7105 7.32495 84.4861C7.32495 87.4369 9.71709 89.829 12.6679 89.829C14.3365 89.829 15.8257 89.0634 16.8059 87.8647C16.9189 87.9235 17.0348 87.9771 17.1507 88.0307C18.0582 90.8518 20.7011 92.8946 23.8238 92.8946C26.1629 92.8946 28.2287 91.7449 29.5023 89.9841C29.7934 90.0816 30.091 90.164 30.3913 90.2407C31.9377 91.9052 34.1384 92.9522 36.5893 92.9522C39.3545 92.9522 41.802 91.621 43.3472 89.5707C44.2697 89.8919 45.2568 90.0752 46.2888 90.0752C48.0888 90.0752 49.7608 89.5396 51.1648 88.6263C51.8607 89.0236 52.6638 89.2536 53.5223 89.2536C56.1554 89.2536 58.2899 87.1192 58.2899 84.4861C58.291 82.4352 56.9932 80.6917 55.1753 80.0189Z" fill="white"/>
<path d="M139.088 13.9031C138.58 9.75595 135.052 6.54164 130.768 6.54164C130.343 6.54164 129.929 6.58315 129.521 6.64426C127.572 2.7104 123.526 0 118.838 0C114.408 0 110.551 2.4204 108.493 6.00601C107.981 5.90512 107.451 5.84919 106.909 5.84919C102.708 5.84919 99.2515 9.02603 98.8035 13.1081C96.269 13.3531 94.2874 15.4875 94.2874 18.0861C94.2874 20.8489 96.5273 23.0889 99.2902 23.0889C100.853 23.0889 102.247 22.3716 103.164 21.2497C103.27 21.3044 103.378 21.3546 103.487 21.4053C104.336 24.0465 106.811 25.959 109.735 25.959C111.924 25.959 113.859 24.8825 115.051 23.2342C115.324 23.3253 115.602 23.4025 115.884 23.4746C117.331 25.033 119.392 26.0138 121.686 26.0138C124.275 26.0138 126.567 24.7672 128.013 22.8479C128.877 23.1483 129.801 23.3201 130.767 23.3201C132.453 23.3201 134.018 22.8185 135.333 21.9634C135.984 22.3353 136.736 22.5504 137.54 22.5504C140.005 22.5504 142.003 20.552 142.003 18.0867C142.005 16.165 140.789 14.5327 139.088 13.9031Z" fill="white"/>
<path d="M231.304 96.1573C230.831 92.292 227.543 89.2962 223.549 89.2962C223.154 89.2962 222.768 89.3354 222.388 89.3919C220.57 85.7256 216.8 83.1991 212.431 83.1991C208.302 83.1991 204.707 85.4552 202.789 88.7963C202.311 88.7024 201.818 88.6505 201.313 88.6505C197.397 88.6505 194.176 91.6117 193.759 95.4158C191.397 95.6441 189.55 97.6333 189.55 100.055C189.55 102.63 191.638 104.718 194.212 104.718C195.669 104.718 196.968 104.05 197.823 103.004C197.922 103.055 198.023 103.102 198.124 103.149C198.916 105.611 201.222 107.393 203.947 107.393C205.988 107.393 207.79 106.389 208.902 104.853C209.156 104.939 209.416 105.01 209.678 105.077C211.027 106.53 212.948 107.443 215.086 107.443C217.499 107.443 219.635 106.282 220.983 104.493C221.788 104.773 222.649 104.932 223.55 104.932C225.121 104.932 226.58 104.465 227.805 103.668C228.412 104.015 229.113 104.215 229.862 104.215C232.16 104.215 234.023 102.352 234.023 100.055C234.022 98.2657 232.889 96.7442 231.304 96.1573Z" fill="white"/>
<path d="M115.829 212.41C179.259 212.41 230.68 206.627 230.68 199.493C230.68 192.359 179.259 186.576 115.829 186.576C52.3981 186.576 0.977539 192.359 0.977539 199.493C0.977539 206.627 52.3981 212.41 115.829 212.41Z" fill="#E0F8F5"/>
<path d="M57.5853 200.366H174.073C177.473 200.366 180.23 197.609 180.23 194.209V48.5763C180.23 45.1757 177.473 42.4192 174.073 42.4192H57.5853C54.1848 42.4192 51.4282 45.1757 51.4282 48.5763V194.208C51.4282 197.609 54.1848 200.366 57.5853 200.366Z" fill="#439DB6"/>
<path d="M174.073 44.1488H57.5846C55.1435 44.1488 53.1572 46.1351 53.1572 48.5762V194.209C53.1572 196.65 55.1435 198.636 57.5846 198.636H174.073C176.514 198.636 178.5 196.65 178.5 194.209V48.5762C178.499 46.1351 176.514 44.1488 174.073 44.1488Z" fill="#439DB6"/>
<path d="M166.782 56.335H58.7273V192.491H166.782V56.335Z" fill="#439DB6"/>
<path d="M169.856 53.5294H61.801V189.686H169.856V53.5294Z" fill="white"/>
<path d="M98.8312 91.3638H76.2422V68.7754H98.8306L98.8312 91.3638ZM77.2045 90.4021H97.8689V69.7371H77.2045V90.4021Z" fill="#BFBFC1"/>
<path d="M146.771 75.6871H110.744V78.0701H146.771V75.6871Z" fill="#BFBFC1"/>
<path d="M146.771 82.0691H110.744V84.452H146.771V82.0691Z" fill="#BFBFC1"/>
<path d="M98.8312 134.286H76.2422V111.697H98.8306L98.8312 134.286ZM77.2045 133.324H97.8689V112.66H77.2045V133.324Z" fill="#BFBFC1"/>
<path d="M146.771 118.609H110.744V120.991H146.771V118.609Z" fill="#BFBFC1"/>
<path d="M146.771 124.991H110.744V127.374H146.771V124.991Z" fill="#BFBFC1"/>
<path d="M98.8312 177.208H76.2422V154.619H98.8306L98.8312 177.208ZM77.2045 176.245H97.8689V155.581H77.2045V176.245Z" fill="#BFBFC1"/>
<path d="M146.771 161.53H110.744V163.913H146.771V161.53Z" fill="#BFBFC1"/>
<path d="M146.771 167.913H110.744V170.296H146.771V167.913Z" fill="#BFBFC1"/>
<path d="M78.8984 78.8266C83.0191 80.6566 86.3879 86.6718 86.3879 86.6718C86.3879 86.6718 93.4121 74.0792 101.204 70.9629L98.2143 68.2946C98.2143 68.2946 88.4595 75.8527 86.7166 83.74C86.7166 83.74 83.8251 77.7126 80.3318 75.5563L78.8984 78.8266Z" fill="#2A9D8F"/>
<path d="M78.8984 122.951C83.0191 124.781 86.3879 130.796 86.3879 130.796C86.3879 130.796 93.4121 118.203 101.204 115.087L98.2143 112.419C98.2143 112.419 88.4595 119.977 86.7166 127.864C86.7166 127.864 83.8251 121.837 80.3318 119.68L78.8984 122.951Z" fill="#2A9D8F"/>
<path d="M169.728 61.784L169.357 59.6243C169.357 59.6243 169.831 55.7348 168.874 54.9657C167.918 54.1965 167.61 57.4996 167.61 57.4996C167.61 57.4996 164.343 52.8387 163.438 53.7889C162.532 54.7391 163.575 59.8543 166.787 62.0712L169.728 61.784Z" fill="#FFD694"/>
<path d="M169.706 61.6548C169.334 61.3141 168.862 60.9837 168.257 60.6718C164.876 58.9289 163.859 55.8235 163.576 53.6978C163.526 53.7185 163.479 53.7462 163.438 53.7894C162.533 54.7396 163.575 59.8548 166.788 62.0717L169.729 61.7846L169.706 61.6548Z" fill="#E8B770"/>
<path d="M180.102 46.2729C179.929 46.7047 180.102 61.5626 180.102 61.5626C180.102 61.5626 173.67 62.8743 169.358 59.6248L166.788 62.0717C166.788 62.0717 173.648 70.9755 183.81 66.6421C192.311 63.0167 190.591 49.2693 183.723 44.7513L180.102 46.2729Z" fill="#2A9D8F"/>
<path d="M183.723 44.7507L181.381 45.7355C183.916 49.5108 187.589 56.2427 184.958 61.2057C181.499 67.7283 173.545 66.2373 168.257 60.6718L166.788 62.0711C166.788 62.0711 173.648 70.9749 183.81 66.6415C192.31 63.0161 190.591 49.2692 183.723 44.7507Z" fill="#2A9D8F"/>
<path d="M183.71 41.3155C184.412 36.6381 181.19 32.277 176.513 31.5746C171.836 30.8723 167.475 34.0947 166.773 38.7721C166.07 43.4494 169.292 47.8106 173.97 48.5129C178.647 49.2152 183.008 45.9928 183.71 41.3155Z" fill="#FFD694"/>
<path d="M175.245 31.4795C173.836 31.4795 172.509 31.8266 171.336 32.4297C175.359 33.1319 178.42 36.6333 178.42 40.8572C178.42 44.177 176.527 47.05 173.765 48.4707C174.247 48.5549 174.739 48.6073 175.245 48.6073C179.975 48.6073 183.81 44.7732 183.81 40.0431C183.81 35.313 179.976 31.4795 175.245 31.4795Z" fill="#E8B770"/>
<path d="M150.424 42.4254C150.424 42.4254 149.105 39.9485 148.071 37.154L153.938 36.1692C153.938 36.1692 156.842 40.385 158.277 42.4254H150.424Z" fill="#2A9D8F"/>
<path d="M148.071 37.1546C148.071 37.1546 140.497 34.8276 140.437 33.3199C140.376 31.8122 145.274 33.3199 147.792 33.6756C150.003 33.9875 151.436 34.168 151.635 31.9995C151.834 29.8311 154.086 28.354 154.285 29.4898C154.484 30.6256 153.27 34.4597 153.938 36.1692L148.071 37.1546Z" fill="#FFD694"/>
<path d="M174.253 34.7463C174.253 34.7463 173.014 38.3008 177.378 42.6336C177.378 42.6336 178.355 40.4911 179.453 39.4118C179.453 39.4118 180.576 42.4543 179.328 47.573C179.328 47.573 185.098 46.7751 185.641 40.3551C186.259 33.0628 180.874 31.9166 180.874 31.9166C180.874 31.9166 178.514 27.9412 172.211 29.7631C168.443 30.8522 167.609 35.535 167.609 35.535C167.609 35.535 171.621 33.4 174.253 34.7463Z" fill="#0E0E54"/>
<path d="M181.886 32.2931C181.886 32.2931 184.552 34.8369 183.193 41.2695C183.193 41.2695 183.012 38.566 180.566 37.1546C180.566 37.1546 183.709 43.4576 179.329 47.5736C179.329 47.5736 185.098 46.7757 185.642 40.3557C186.087 35.0975 183.413 33.0351 181.886 32.2931Z" fill="#050533"/>
<path d="M151.009 36.661L154.016 42.4254H158.278C156.842 40.385 153.939 36.1692 153.939 36.1692L151.009 36.661Z" fill="#2A9D8F"/>
<path d="M151.009 36.6611L153.939 36.1693C153.271 34.4598 154.485 30.6257 154.286 29.4898C154.241 29.235 154.09 29.1174 153.884 29.1041C153.441 30.1708 153.005 31.468 152.892 32.6649C152.638 35.3188 151.009 36.6611 151.009 36.6611Z" fill="#E8B770"/>
<path d="M180.102 61.5627C180.102 61.5627 182.201 60.6442 182.51 57.5539C182.819 54.4641 180.102 51.4124 180.102 51.4124V61.5627Z" fill="#2A9D8F"/>
<path d="M84.3831 135.431L28.0585 181.623C27.622 181.981 27.1083 182.182 26.5859 182.233C25.7044 182.319 24.798 181.977 24.1944 181.241L22.3874 179.038C21.846 178.378 21.6638 177.541 21.8166 176.765C21.9354 176.161 22.2565 175.594 22.7691 175.173L79.0937 128.981L84.3831 135.431Z" fill="#1E3A46"/>
<path d="M79.0938 128.981L88.6473 127.048L84.3831 135.431L79.0938 128.981Z" fill="#FFD694"/>
<path d="M82.655 133.324L88.6472 127.048L84.383 135.431L82.655 133.324Z" fill="#E8B770"/>
<path d="M84.3831 127.911L88.6473 127.048L86.774 130.731L84.3831 127.911Z" fill="#1E3A46"/>
<path d="M82.6549 133.323L23.7981 180.758L24.1942 181.241C24.7979 181.977 25.7048 182.318 26.5858 182.232C27.1081 182.182 27.6218 181.98 28.0583 181.622L84.3829 135.43L82.6549 133.323Z" fill="#439DB6"/>
<path d="M32.6224 157.401C32.6224 157.401 32.5844 157.587 32.5215 157.937C32.1185 160.179 30.7042 169.103 31.9035 178.093C33.2895 188.482 30.9539 200.871 30.9539 200.871L34.9754 201.12C34.9754 201.12 37.2349 193.862 38.7743 185.909C40.2993 178.033 40.5974 166.676 40.5974 166.676L41.9263 166.866C41.9263 166.866 46.0101 190.267 44.1882 199.645L48.0027 199.072C48.0027 199.072 53.6086 178.059 49.0025 160.7" fill="#0E0E54"/>
<path d="M32.5215 157.937C32.1185 160.179 30.7042 169.103 31.9035 178.093C33.2895 188.482 30.9539 200.871 30.9539 200.871L33.2566 201.013C34.1099 196.434 35.5237 187.595 35.5237 179.26C35.5237 167.323 37.036 159.112 37.036 159.112L34.856 157.85L32.623 157.4C32.623 157.4 32.5844 157.587 32.5215 157.937Z" fill="#050533"/>
<path d="M44.1046 129.637C44.1046 129.637 34.607 139.979 32.623 157.4C32.623 157.4 44.1283 162.823 50.9905 160.163C50.9905 160.163 51.4523 149.698 51.3664 147.445C51.3664 147.445 63.1426 152.09 71.6169 145.771C71.6169 145.771 71.6307 143.628 70.7889 142.793C70.7889 142.793 56.8443 146.949 51.2459 137.777C51.2459 137.777 49.9423 133.067 48.0033 132.192C46.0632 131.318 44.1046 129.637 44.1046 129.637Z" fill="#2A9D8F"/>
<path d="M44.1041 129.637C44.1041 129.637 34.6065 139.979 32.6226 157.4C32.6226 157.4 34.4301 158.25 37.0355 159.112C37.901 147.226 41.4312 138.189 45.5617 130.754C44.702 130.149 44.1041 129.637 44.1041 129.637Z" fill="#2A9D8F"/>
<path d="M58.1599 126.636C59.5357 122.11 56.9824 117.327 52.4568 115.951C47.9313 114.575 43.1473 117.128 41.7714 121.653C40.3956 126.178 42.949 130.962 47.4745 132.338C52.0001 133.714 56.7841 131.161 58.1599 126.636Z" fill="#FFD694"/>
<path d="M49.605 125.912C49.605 122.116 51.6887 118.811 54.7709 117.063C53.3993 116.129 51.7434 115.582 49.959 115.582C45.2295 115.582 41.3948 119.416 41.3948 124.146C41.3948 128.876 45.2289 132.71 49.959 132.71C50.6618 132.71 51.341 132.616 51.9948 132.456C50.505 130.687 49.605 128.406 49.605 125.912Z" fill="#E8B770"/>
<path d="M55.4939 117.758C55.4939 117.758 55.9689 123.479 51.1391 125.539C45.9904 127.736 48.3365 132.647 49.7652 133.899C49.7652 133.899 37.0152 130.438 40.1194 120.627C43.502 109.935 55.047 113.149 57.1618 117.081C58.8218 120.168 58.1599 121.676 58.1599 121.676C58.1599 121.676 57.4132 118.957 55.4939 117.758Z" fill="#0E0E54"/>
<path d="M70.7876 142.793C70.7876 142.793 73.9679 138.239 74.3098 139.222C74.6511 140.204 73.5032 142.366 73.5032 142.366C73.5032 142.366 76.7682 141.961 78.2684 140.365C78.2684 140.365 76.6131 147.126 71.6155 145.77C71.6155 145.77 71.608 144.396 70.7876 142.793Z" fill="#FFD694"/>
<path d="M48.002 199.072C48.002 199.072 53.7221 198.358 54.4047 201.508C55.0879 204.658 43.8381 202.393 43.8381 202.393L44.1875 199.644L48.002 199.072Z" fill="#2A9D8F"/>
<path d="M34.9753 201.12C34.9753 201.12 41.2477 203.991 40.0018 205.79C38.7558 207.59 29.9478 205.79 29.9478 205.79L30.9539 200.871L34.9753 201.12Z" fill="#2A9D8F"/>
<path d="M46.02 140.943C45.8788 145.108 51.3653 147.444 51.3653 147.444C51.3653 147.444 63.1421 152.09 71.6158 145.77C71.6158 145.77 71.5149 145.112 71.4318 144.528C58.8646 151.49 46.02 140.943 46.02 140.943Z" fill="#2A9D8F"/>
<path d="M71.6156 145.771C74.1473 146.457 75.8199 145.062 76.8554 143.517C74.5763 145.183 71.4317 144.528 71.4317 144.528L71.4312 144.532C71.6093 145.273 71.6156 145.771 71.6156 145.771Z" fill="#E8B770"/>
<path d="M40.5967 166.676L41.9256 166.866C41.9256 166.866 46.0094 190.267 44.1875 199.645L45.9523 199.38C48.6996 185.895 45.5609 164.803 45.5609 164.803L40.5967 166.676Z" fill="#050533"/>
<path d="M33.2561 201.013L30.9534 200.871L29.9473 205.79C29.9473 205.79 32.1042 206.231 34.434 206.458C32.1117 203.977 33.2561 201.013 33.2561 201.013Z" fill="#2A9D8F"/>
<path d="M45.9524 199.38L44.1875 199.645L43.8381 202.394C43.8381 202.394 45.3574 202.699 47.2439 202.93C46.1323 201.243 45.9524 199.38 45.9524 199.38Z" fill="#2A9D8F"/>
<path d="M49.6205 133.857C49.5196 133.7 49.4124 133.542 49.2873 133.38C49.2855 133.378 49.2838 133.375 49.2821 133.373C49.2065 133.276 49.1316 133.174 49.0572 133.063C44.8495 127.226 48.0828 120.944 48.0828 120.944C45.7628 122.078 43.8388 125.618 43.8388 125.618C41.54 119.884 44.767 115.39 46.0649 113.9C43.577 114.772 41.3279 116.81 40.12 120.627C37.2107 129.82 48.2235 133.438 49.6205 133.857Z" fill="#050533"/>
<path d="M192.193 161.743C192.193 161.743 203.699 168.843 206.397 189.109C206.397 189.109 192.334 189.95 190.386 189.706C190.386 189.706 189.745 178.07 188.329 174.649C188.329 174.649 179.274 182.477 176.459 182.512C173.644 182.547 165.918 174.916 165.918 174.916L169.506 172.545C169.506 172.545 176.41 177.784 177.817 177.062C179.225 176.34 184.134 167.689 187.961 166.153C187.961 166.153 189.262 164.313 188.339 161.952L192.193 161.743Z" fill="#2A9D8F"/>
<path d="M191.138 162.545C191.138 162.545 203.113 175.735 202.68 189.248C202.68 189.273 202.677 189.294 202.676 189.318C204.832 189.203 206.397 189.109 206.397 189.109C203.699 168.843 192.193 161.743 192.193 161.743L191.013 161.807L191.138 162.545Z" fill="#2A9D8F"/>
<path d="M165.919 174.917C165.919 174.917 173.645 182.548 176.46 182.513C179.274 182.477 188.33 174.649 188.33 174.649C188.332 174.654 188.333 174.659 188.336 174.664L188.48 174.099C188.48 174.099 190.943 171.981 190.159 169.518C190.159 169.518 179.861 181.271 176.951 180.6C174.707 180.082 169.934 175.637 167.868 173.63L165.919 174.917Z" fill="#2A9D8F"/>
<path d="M191.893 161.327C195.238 157.983 195.238 152.561 191.893 149.217C188.549 145.873 183.127 145.873 179.783 149.217C176.438 152.561 176.438 157.983 179.783 161.327C183.127 164.672 188.549 164.672 191.893 161.327Z" fill="#FFD694"/>
<path d="M186.388 146.736C188.594 148.285 190.04 150.844 190.04 153.745C190.04 158.474 186.205 162.308 181.475 162.308C181.291 162.308 181.11 162.292 180.928 162.281C182.319 163.258 184.011 163.836 185.84 163.836C190.57 163.836 194.404 160.002 194.404 155.272C194.405 150.727 190.862 147.019 186.388 146.736Z" fill="#E8B770"/>
<path d="M193.282 148.241C193.282 148.241 192.211 143.954 187.834 144.952C184.524 145.707 180.299 148.52 179.334 145.607C179.334 145.607 177.114 147.422 179.334 150.861C181.554 154.3 186.948 155.816 189.346 153.89C189.346 153.89 188.447 156.423 189.6 158.264C190.754 160.104 190.123 162.687 190.123 162.687C190.123 162.687 195.541 162.555 196.869 156.874C198.133 151.469 194.961 147.984 193.282 148.241Z" fill="#0E0E54"/>
<path d="M165.919 174.917C165.919 174.917 158.594 176.065 158.401 174.979C158.207 173.892 164.498 173.359 165.919 171.827C167.34 170.295 166.907 167.095 167.902 167.716C168.896 168.338 169.506 172.545 169.506 172.545L165.919 174.917Z" fill="#FFD694"/>
<path d="M190.386 189.706L190.508 191.091C190.508 191.091 172.549 190.902 170.915 194.534C169.28 198.166 175.191 202.9 183.984 202.901C192.778 202.903 205.27 202.678 206.397 198.703C207.525 194.728 206.397 189.109 206.397 189.109L190.386 189.706Z" fill="#0E0E54"/>
<path d="M167.157 174.098L169.506 172.546C169.506 172.546 168.897 168.338 167.902 167.717C167.701 167.592 167.561 167.627 167.449 167.768C168.008 169.174 168.394 170.891 167.884 172.428C167.689 173.017 167.437 173.576 167.157 174.098Z" fill="#E8B770"/>
<path d="M194.86 156.291L192.285 152.728C192.285 152.728 193.863 157.723 191.138 162.545C192.771 162.202 195.902 161.012 196.87 156.873C197.649 153.543 196.742 150.945 195.539 149.499C195.82 151.852 195.811 154.48 194.86 156.291Z" fill="#050533"/>
<path d="M206.398 189.11L202.681 189.248C203.486 191.83 203.714 194.491 202.024 196.006C198.106 199.515 185.203 197.752 178.349 197.949C175.289 198.036 172.661 197.22 170.683 196.289C171.191 199.526 176.56 202.901 183.985 202.902C192.778 202.903 205.271 202.678 206.398 198.703C207.525 194.728 206.398 189.11 206.398 189.11Z" fill="#050533"/>
</svg>
