<svg width="20" height="20" viewBox="0 0 20 20" fill="none" xmlns="http://www.w3.org/2000/svg">
<path d="M9.79169 1.66669C5.30419 1.66669 1.66669 5.30419 1.66669 9.79169C1.66669 14.2792 5.30419 17.9167 9.79169 17.9167C9.96335 17.9167 10.1331 17.9114 10.3009 17.9009C9.56377 16.9523 9.1646 15.7847 9.16669 14.5834C9.16669 13.2667 9.63585 12.0609 10.4167 11.1217V7.92585C11.4292 7.95419 12.375 8.05085 13.215 8.20085C13.2692 8.56752 13.305 8.94085 13.3225 9.31419C13.7231 9.21808 14.1378 9.16891 14.5667 9.16669C14.5546 8.94319 14.5366 8.72005 14.5125 8.49752C14.6459 8.53641 14.7742 8.57613 14.8975 8.61669C15.5392 8.83085 16.0142 9.07169 16.315 9.30919C16.4234 9.39419 16.4984 9.46919 16.55 9.53419C17.0392 9.72585 17.4934 9.98419 17.9009 10.3009C17.912 10.1325 17.9172 9.9628 17.9167 9.79169C17.9167 7.6368 17.0607 5.57018 15.5369 4.04644C14.0132 2.52271 11.9466 1.66669 9.79169 1.66669ZM9.16669 14.5834V16.5309C8.55835 16.2717 7.93502 15.6375 7.39669 14.6284C7.07501 14.0131 6.82237 13.3642 6.64335 12.6934C7.42919 12.81 8.27919 12.885 9.16669 12.9084V14.5834ZM5.29169 7.14835C4.93613 7.2328 4.60252 7.32724 4.29085 7.43169C3.90977 7.55463 3.53914 7.7079 3.18252 7.89002C3.44762 6.97251 3.90053 6.12012 4.51251 5.38692C5.12449 4.65372 5.88219 4.05571 6.73752 3.63085C6.57752 3.86641 6.42974 4.11169 6.29419 4.36669C5.85835 5.18419 5.51419 6.13835 5.29169 7.14835ZM6.64419 6.89002C6.8232 6.21922 7.07585 5.57028 7.39752 4.95502C7.93502 3.94669 8.55835 3.31169 9.16669 3.05252V6.67502C8.32199 6.69545 7.48016 6.76725 6.64419 6.89002ZM6.25002 9.79169C6.25002 9.25919 6.29169 8.72502 6.36835 8.20085C7.29314 8.0408 8.22843 7.94888 9.16669 7.92585V11.6575C8.22843 11.6345 7.29314 11.5426 6.36835 11.3825C6.28987 10.8559 6.25032 10.3242 6.25002 9.79169ZM6.73752 15.9525C5.8821 15.5276 5.12435 14.9294 4.51237 14.1961C3.90038 13.4627 3.44752 12.6102 3.18252 11.6925C3.51419 11.865 3.88835 12.0175 4.29085 12.1525C4.60197 12.2564 4.93585 12.3509 5.29252 12.4359C5.51502 13.445 5.85835 14.3992 6.29419 15.2167C6.42919 15.4717 6.57696 15.717 6.73752 15.9525ZM5.07085 11.0859C4.93752 11.047 4.80919 11.0072 4.68585 10.9667C4.04419 10.7525 3.56919 10.5117 3.26752 10.2742C2.95919 10.0309 2.91669 9.86335 2.91669 9.79169C2.91669 9.72002 2.96002 9.55252 3.26752 9.30919C3.56919 9.07169 4.04419 8.83085 4.68585 8.61752C4.80919 8.57585 4.93752 8.53585 5.07085 8.49752C4.97753 9.35777 4.97753 10.2256 5.07085 11.0859ZM14.2909 7.14835C14.0684 6.13835 13.725 5.18419 13.2892 4.36669C13.1542 4.11395 13.0062 3.86835 12.8459 3.63085C13.7013 4.05581 14.459 4.65394 15.071 5.38729C15.683 6.12064 16.1359 6.97319 16.4009 7.89085C16.0443 7.70816 15.6737 7.55434 15.2925 7.43085C14.963 7.32155 14.6288 7.22701 14.2909 7.14752M12.9409 6.88919C12.1542 6.77252 11.3042 6.69752 10.4167 6.67419V3.05252C11.025 3.31169 11.6484 3.94585 12.1867 4.95502C12.4917 5.52752 12.7475 6.18502 12.94 6.89002" fill="#439DB6"/>
<path d="M15.2083 12.9167C15.2083 12.7509 15.1425 12.592 15.0253 12.4747C14.908 12.3575 14.7491 12.2917 14.5833 12.2917C14.4176 12.2917 14.2586 12.3575 14.1414 12.4747C14.0242 12.592 13.9583 12.7509 13.9583 12.9167V14.5834C13.9583 14.7492 14.0241 14.9084 14.1416 15.025L14.975 15.8584C15.0322 15.9198 15.1012 15.969 15.1779 16.0032C15.2545 16.0373 15.3373 16.0557 15.4212 16.0572C15.5051 16.0587 15.5885 16.0432 15.6663 16.0118C15.7441 15.9804 15.8148 15.9336 15.8742 15.8742C15.9335 15.8149 15.9803 15.7442 16.0117 15.6664C16.0432 15.5885 16.0586 15.5052 16.0571 15.4213C16.0557 15.3373 16.0373 15.2546 16.0031 15.1779C15.969 15.1012 15.9197 15.0322 15.8583 14.975L15.2083 14.325V12.9167Z" fill="#439DB6"/>
<path d="M14.5833 10.625C13.5335 10.625 12.5267 11.042 11.7844 11.7844C11.042 12.5267 10.625 13.5335 10.625 14.5833C10.625 15.6331 11.042 16.64 11.7844 17.3823C12.5267 18.1246 13.5335 18.5417 14.5833 18.5417C15.6331 18.5417 16.64 18.1246 17.3823 17.3823C18.1246 16.64 18.5417 15.6331 18.5417 14.5833C18.5417 13.5335 18.1246 12.5267 17.3823 11.7844C16.64 11.042 15.6331 10.625 14.5833 10.625ZM11.875 14.5833C11.875 13.865 12.1603 13.1762 12.6683 12.6683C13.1762 12.1603 13.865 11.875 14.5833 11.875C15.3016 11.875 15.9905 12.1603 16.4984 12.6683C17.0063 13.1762 17.2917 13.865 17.2917 14.5833C17.2917 15.3016 17.0063 15.9905 16.4984 16.4984C15.9905 17.0063 15.3016 17.2917 14.5833 17.2917C13.865 17.2917 13.1762 17.0063 12.6683 16.4984C12.1603 15.9905 11.875 15.3016 11.875 14.5833Z" fill="#439DB6"/>
</svg>
