<svg width="24" height="24" viewBox="0 0 24 24" fill="none" xmlns="http://www.w3.org/2000/svg">
<path fill-rule="evenodd" clip-rule="evenodd" d="M4.64734 5.3269C2.7737 6.24048 0.860491 2.08756 0.677773 0C-1.05313 3.39392 0.809429 6.83923 3.13893 7.76326L4.64734 5.3269Z" fill="#B8574D"/>
<path fill-rule="evenodd" clip-rule="evenodd" d="M19.3525 5.3269C21.2262 6.24048 23.1394 2.08756 23.3221 0C25.053 3.39392 23.1902 6.83923 20.861 7.76326L19.3525 5.3269Z" fill="#B8574D"/>
<path d="M12.1744 24C18.3567 24 23.3684 18.7865 23.3684 12.3554C23.3684 5.92419 18.3567 0.710693 12.1744 0.710693C5.99216 0.710693 0.980469 5.92419 0.980469 12.3554C0.980469 18.7865 5.99216 24 12.1744 24Z" fill="#D9B26C"/>
<path fill-rule="evenodd" clip-rule="evenodd" d="M11.3584 11.5474C9.82779 9.6038 6.07925 8.80452 3.5957 9.10325C6.31638 7.83129 10.3194 8.47663 11.3584 11.5474Z" fill="#231F20"/>
<path fill-rule="evenodd" clip-rule="evenodd" d="M13.252 11.4024C14.7826 9.45878 18.5311 8.6595 21.0147 8.95823C18.294 7.68627 14.2909 8.33161 13.252 11.4024Z" fill="#231F20"/>
<path fill-rule="evenodd" clip-rule="evenodd" d="M6.88574 18.6118C7.8458 22.5984 16.0055 23.1971 17.4618 18.6118C15.7962 21.8215 8.4919 21.8834 6.88574 18.6118Z" fill="#D9B26C"/>
<path fill-rule="evenodd" clip-rule="evenodd" d="M6.88574 18.6118C8.22295 22.4952 16.1246 22.4952 17.4618 18.6118C15.8557 21.8834 8.4919 21.8834 6.88574 18.6118Z" fill="#8A5A3C"/>
<path fill-rule="evenodd" clip-rule="evenodd" d="M10.46 12.3452C10.1425 12.1799 3.82107 10.4189 3.82107 10.4189C1.90808 13.1603 6.02206 19.0908 10.46 12.3452Z" fill="#D9B26C"/>
<path fill-rule="evenodd" clip-rule="evenodd" d="M10.4604 12.3451C10.1429 12.1798 3.79167 9.99121 3.79167 9.99121C1.87868 12.7326 5.72476 18.3062 10.4604 12.3451Z" fill="white"/>
<path fill-rule="evenodd" clip-rule="evenodd" d="M8.64782 11.6815C7.94855 11.4346 7.13689 11.1509 6.37985 10.8877C6.01504 11.1731 5.77832 11.6343 5.77832 12.1542C5.77832 13.0208 6.43594 13.7234 7.24698 13.7234C8.05822 13.7234 8.71562 13.0208 8.71562 12.1542C8.71562 11.9894 8.69177 11.8307 8.64782 11.6815Z" fill="#231F20"/>
<path fill-rule="evenodd" clip-rule="evenodd" d="M13.8887 12.3449C14.2062 12.1797 20.5276 10.4187 20.5276 10.4187C22.4406 13.1601 18.3267 19.0905 13.8887 12.3449Z" fill="#D9B26C"/>
<path fill-rule="evenodd" clip-rule="evenodd" d="M13.8887 12.3451C14.2062 12.1798 20.5574 9.99121 20.5574 9.99121C22.4704 12.7326 18.6243 18.3062 13.8887 12.3451Z" fill="white"/>
<path fill-rule="evenodd" clip-rule="evenodd" d="M15.7016 11.6815C16.4009 11.4346 17.2125 11.1509 17.9696 10.8877C18.3344 11.1731 18.5711 11.6343 18.5711 12.1542C18.5711 13.0208 17.9135 13.7234 17.1024 13.7234C16.2914 13.7234 15.6338 13.0208 15.6338 12.1542C15.634 11.9894 15.6577 11.8307 15.7016 11.6815Z" fill="#231F20"/>
</svg>
