<svg width="24" height="24" viewBox="0 0 24 24" fill="none" xmlns="http://www.w3.org/2000/svg">
<path d="M12 24C18.6274 24 24 18.6274 24 12C24 5.37258 18.6274 0 12 0C5.37258 0 0 5.37258 0 12C0 18.6274 5.37258 24 12 24Z" fill="#D9B26C"/>
<path fill-rule="evenodd" clip-rule="evenodd" d="M6.25098 22.3308C7.56377 18.9989 16.2395 18.9635 17.5754 22.3542C15.9824 19.701 7.78948 19.7221 6.25098 22.3308Z" fill="#D9B26C"/>
<path d="M7.35836 12.6038C9.60789 12.2408 11.1372 10.1229 10.7742 7.87335C10.4112 5.62382 8.29337 4.09449 6.04384 4.45748C3.79431 4.82048 2.26497 6.93835 2.62797 9.18788C2.99096 11.4374 5.10883 12.9667 7.35836 12.6038Z" fill="#D9B26C"/>
<path d="M17.3007 12.6608C19.5794 12.6608 21.4267 10.8136 21.4267 8.53488C21.4267 6.25619 19.5794 4.40894 17.3007 4.40894C15.022 4.40894 13.1748 6.25619 13.1748 8.53488C13.1748 10.8136 15.022 12.6608 17.3007 12.6608Z" fill="#D9B26C"/>
<path d="M8.2579 11.8423C10.3671 10.9801 11.3779 8.57124 10.5156 6.46208C9.65335 4.35292 7.24454 3.34211 5.13538 4.20437C3.02622 5.06663 2.0154 7.47543 2.87766 9.5846C3.73992 11.6938 6.14874 12.7046 8.2579 11.8423Z" fill="white"/>
<path fill-rule="evenodd" clip-rule="evenodd" d="M10.3978 9.85749C9.72264 11.2163 8.321 12.1503 6.70082 12.1503C5.96376 12.1503 5.2718 11.9569 4.67296 11.6183C4.32855 11.7489 4.05684 11.972 3.99536 12.3556C3.82506 13.4196 3.22958 13.7173 3.48469 15.377C3.74003 17.0367 4.12303 16.4834 4.12303 17.9727C4.12303 19.4621 3.77727 19.1256 4.33573 20.3982C4.54192 20.868 4.67408 21.2607 4.75889 21.569C4.0519 21.0332 3.40616 20.4206 2.83379 19.7439C2.77725 19.3616 2.74607 18.9674 2.78241 18.6535C2.88877 17.7385 3.3568 17.8662 3.10147 17.0364C2.84614 16.2067 2.39941 15.8664 2.39941 15.0151C2.39941 14.1641 2.93139 14.0788 2.97402 12.8448C3.01665 11.6107 2.52708 11.2704 2.69738 10.7384C2.86768 10.2064 3.03461 9.91897 3.03461 9.91897C4.69809 9.13771 4.71604 10.7698 5.68644 10.26C6.97724 9.58197 7.48589 10.5111 8.03762 10.1216C8.39908 9.86624 8.9535 9.63088 9.55997 9.87544C9.77918 9.96407 10.0899 9.9156 10.3978 9.85749Z" fill="#FFF9F0"/>
<path fill-rule="evenodd" clip-rule="evenodd" d="M9.74974 10.8035C8.99518 11.6309 7.90878 12.1504 6.70054 12.1504C5.96349 12.1504 5.27153 11.957 4.67268 11.6184C4.32828 11.749 4.05656 11.972 3.99508 12.3557C3.82479 13.4196 3.22931 13.7174 3.48442 15.377C3.73975 17.0367 4.12275 16.4834 4.12275 17.9728C4.12275 19.4621 3.777 19.1256 4.33545 20.3982C4.54165 20.8681 4.6738 21.2607 4.75862 21.569C4.42072 21.3127 4.09673 21.039 3.78799 20.7494C3.67648 20.0563 3.64462 18.5967 3.64462 17.9075C3.64462 17.1096 2.97442 15.2904 3.08078 14.5884C3.18713 13.8863 3.01683 11.9076 3.9105 11.2479C4.80416 10.5883 5.40952 11.5742 6.52755 11.6096C7.64582 11.6453 9.02614 10.9715 9.74974 10.8035Z" fill="#D5E6E7"/>
<path fill-rule="evenodd" clip-rule="evenodd" d="M6.7007 9.731C7.64059 9.731 8.40726 8.96432 8.40726 8.02443C8.40726 7.08454 7.64059 6.31787 6.7007 6.31787C5.76081 6.31787 4.99414 7.08454 4.99414 8.02443C4.99414 8.96432 5.76081 9.731 6.7007 9.731Z" fill="#231F20"/>
<path fill-rule="evenodd" clip-rule="evenodd" d="M13.8932 14.0361C13.7655 14.8234 14.1272 16.2278 14.2762 17.4405C14.4252 18.6532 14.4678 19.2916 13.9358 19.2702C13.4038 19.2489 13.3614 17.0362 13.4891 15.9725C13.6168 14.9087 13.8932 14.0361 13.8932 14.0361Z" fill="#FFF9F0"/>
<path fill-rule="evenodd" clip-rule="evenodd" d="M13.932 14.1635C14.1312 14.1635 14.2937 14.0776 14.2937 13.9719C14.2937 13.8662 14.1312 13.7805 13.932 13.7805C13.7328 13.7805 13.5703 13.8665 13.5703 13.9719C13.5703 14.0774 13.7328 14.1635 13.932 14.1635Z" fill="#404041"/>
<path fill-rule="evenodd" clip-rule="evenodd" d="M10.8265 14.1633C11.0258 14.1633 11.1882 14.0774 11.1882 13.9719C11.1882 13.8665 11.0258 13.7805 10.8265 13.7805C10.6273 13.7805 10.4648 13.8665 10.4648 13.9719C10.4648 14.0774 10.6273 14.1633 10.8265 14.1633Z" fill="#404041"/>
<path d="M17.3007 12.1501C19.5794 12.1501 21.4267 10.3028 21.4267 8.02414C21.4267 5.74544 19.5794 3.89819 17.3007 3.89819C15.022 3.89819 13.1748 5.74544 13.1748 8.02414C13.1748 10.3028 15.022 12.1501 17.3007 12.1501Z" fill="white"/>
<path fill-rule="evenodd" clip-rule="evenodd" d="M13.6035 9.85724C14.2786 11.216 15.6803 12.1501 17.3005 12.1501C18.0375 12.1501 18.7295 11.9567 19.3283 11.6181C19.6727 11.7487 19.9444 11.9717 20.0059 12.3554C20.1762 13.4191 20.7719 13.7171 20.5166 15.3768C20.2613 17.0364 19.8783 16.4831 19.8783 17.9725C19.8783 19.4619 20.224 19.1253 19.6656 20.3979C19.4594 20.8678 19.3272 21.2604 19.2424 21.5687C19.9496 21.0329 20.5951 20.4204 21.1675 19.7437C21.2243 19.3614 21.2552 18.9671 21.2189 18.6532C21.1125 17.7383 20.6445 17.8659 20.8998 17.0362C21.1552 16.2065 21.6019 15.8661 21.6019 15.0148C21.6019 14.1638 21.0699 14.0785 21.0275 12.8445C20.9849 11.6105 21.4742 11.2701 21.3041 10.7381C21.1338 10.2061 20.9669 9.91872 20.9669 9.91872C19.3034 9.13747 19.2855 10.7695 18.3151 10.2598C17.0243 9.58194 16.5156 10.5108 15.9639 10.1216C15.6024 9.86622 15.048 9.63085 14.4415 9.87541C14.2221 9.96382 13.9111 9.91535 13.6035 9.85724Z" fill="#FFF9F0"/>
<path fill-rule="evenodd" clip-rule="evenodd" d="M14.252 10.8032C15.0065 11.6307 16.0929 12.1501 17.3011 12.1501C18.0382 12.1501 18.7302 11.9567 19.329 11.6181C19.6734 11.7487 19.9451 11.9717 20.0066 12.3554C20.1769 13.4192 20.7726 13.7171 20.5173 15.3768C20.2619 17.0365 19.8789 16.4832 19.8789 17.9725C19.8789 19.4619 20.2247 19.1253 19.6662 20.398C19.46 20.8678 19.3279 21.2605 19.2431 21.5687C19.581 21.3125 19.905 21.039 20.2137 20.7491C20.3252 20.056 20.3571 18.5965 20.3571 17.9072C20.3571 17.1094 21.0273 15.2902 20.9209 14.5881C20.8146 13.8861 20.9849 11.9073 20.0912 11.2477C19.1975 10.588 18.5922 11.5739 17.4741 11.6094C16.3556 11.6451 14.9755 10.9711 14.252 10.8032Z" fill="#D5E6E7"/>
<path fill-rule="evenodd" clip-rule="evenodd" d="M17.3003 9.73075C18.2402 9.73075 19.0069 8.96408 19.0069 8.02419C19.0069 7.0843 18.2402 6.31763 17.3003 6.31763C16.3604 6.31763 15.5938 7.0843 15.5938 8.02419C15.5938 8.96408 16.3604 9.73075 17.3003 9.73075Z" fill="#231F20"/>
<path fill-rule="evenodd" clip-rule="evenodd" d="M11.9062 20.084C9.54901 20.0566 7.14668 20.7354 6.2373 22.354C6.99613 20.4282 9.47004 19.6276 11.9062 19.6638C14.3425 19.6276 16.8164 20.4282 17.5752 22.354C16.6658 20.7354 14.2635 20.0566 11.9062 20.084Z" fill="#8A5A3C"/>
<path fill-rule="evenodd" clip-rule="evenodd" d="M9.80742 3.2644C7.42147 2.51433 3.96392 3.98979 2.17188 5.65955C3.56589 3.04025 7.13315 1.29061 9.80742 3.2644Z" fill="#231F20"/>
<path fill-rule="evenodd" clip-rule="evenodd" d="M13.959 3.13671C16.3449 2.38664 19.8027 3.8621 21.5945 5.53187C20.2005 2.91257 16.6333 1.16292 13.959 3.13671Z" fill="#231F20"/>
</svg>
