<svg width="16" height="16" viewBox="0 0 16 16" fill="none" xmlns="http://www.w3.org/2000/svg">
<path d="M2.66667 7.99984C2.66667 6.58535 3.22858 5.2288 4.22877 4.2286C5.22896 3.22841 6.58552 2.6665 8.00001 2.6665C9.41449 2.6665 10.771 3.22841 11.7712 4.2286C12.7714 5.2288 13.3333 6.58535 13.3333 7.99984V11.3932C13.3333 11.9585 13.3333 12.2398 13.2493 12.4658C13.1825 12.6449 13.078 12.8076 12.9429 12.9427C12.8077 13.0779 12.6451 13.1824 12.466 13.2492C12.24 13.3332 11.958 13.3332 11.3933 13.3332H8.00001C6.58552 13.3332 5.22896 12.7713 4.22877 11.7711C3.22858 10.7709 2.66667 9.41433 2.66667 7.99984Z" stroke="#2A9D8F" stroke-width="1.5"/>
<path d="M6 7.33301H10M8 9.99967H10" stroke="#2A9D8F" stroke-width="1.5" stroke-linecap="round" stroke-linejoin="round"/>
</svg>
