<svg width="16" height="16" viewBox="0 0 16 16" fill="none" xmlns="http://www.w3.org/2000/svg">
<path d="M10 8C10 8.53043 9.78929 9.03914 9.41421 9.41421C9.03914 9.78929 8.53043 10 8 10C7.46957 10 6.96086 9.78929 6.58579 9.41421C6.21071 9.03914 6 8.53043 6 8C6 7.46957 6.21071 6.96086 6.58579 6.58579C6.96086 6.21071 7.46957 6 8 6C8.53043 6 9.03914 6.21071 9.41421 6.58579C9.78929 6.96086 10 7.46957 10 8Z" stroke="#439DB6" stroke-width="2" stroke-linecap="round" stroke-linejoin="round"/>
<path d="M1.63867 7.99992C2.48801 5.29525 5.01534 3.33325 8.00001 3.33325C10.9853 3.33325 13.512 5.29525 14.3613 7.99992C13.512 10.7046 10.9853 12.6666 8.00001 12.6666C5.01467 12.6666 2.48801 10.7046 1.63867 7.99992Z" stroke="#439DB6" stroke-width="2" stroke-linecap="round" stroke-linejoin="round"/>
</svg>
