<svg width="20" height="20" viewBox="0 0 20 20" fill="none" xmlns="http://www.w3.org/2000/svg">
<g clip-path="url(#clip0_366_1500)">
<path fill-rule="evenodd" clip-rule="evenodd" d="M17.4685 12.9356C17.3015 16.8646 14.0171 19.9998 9.98828 19.9998C5.8526 19.9998 2.50001 16.5855 2.50001 12.6219C2.50001 12.0921 2.49037 11.0333 3.29663 9.24692C3.77915 8.17784 4.08178 7.50622 4.25258 6.89229C4.34642 6.55487 4.52893 6.0188 5.0492 6.89229C5.35598 7.40732 5.36785 8.14809 5.36785 8.14809C5.36785 8.14809 6.50926 7.28512 7.27975 5.63648C8.40929 3.21961 7.50807 1.77488 7.20009 0.770236C7.0935 0.422692 7.02659 -0.201914 7.75773 0.0638455C8.50273 0.334707 10.4723 1.6931 11.5019 3.12487C12.9712 5.1683 13.4934 7.12775 13.4934 7.12775C13.4934 7.12775 13.9639 6.55243 14.1307 5.95043C14.3191 5.27065 14.3219 4.59738 14.9273 5.32261C15.503 6.01228 16.358 7.30835 16.8392 8.54053C17.7131 10.7781 17.4685 12.9356 17.4685 12.9356Z" fill="url(#paint0_linear_366_1500)"/>
<path fill-rule="evenodd" clip-rule="evenodd" d="M9.98861 19.9998C7.1288 19.9998 4.81055 17.7157 4.81055 14.8981C4.81055 13.198 5.50592 12.1658 6.95315 10.766C7.87978 9.86976 8.74707 8.76896 9.11566 8.0194C9.18824 7.87185 9.35338 7.1029 9.99012 8.00324C10.3241 8.47542 10.8478 9.31516 11.1835 10.0318C11.7624 11.2675 11.9005 12.465 11.9005 12.465C11.9005 12.465 12.4678 12.1356 12.8565 11.2876C12.9818 11.0143 13.2351 9.97972 13.9433 11.0142C14.4629 11.7733 15.1768 13.1382 15.1667 14.8981C15.1667 17.7157 12.8483 19.9998 9.98861 19.9998Z" fill="#FC9502"/>
<path fill-rule="evenodd" clip-rule="evenodd" d="M10.0673 14.4271C10.8042 14.4271 10.8042 15.7715 11.7402 17.5666C12.3635 18.7619 11.4312 19.9998 10.0673 19.9998C8.70342 19.9998 7.99609 18.9104 7.99609 17.5666C7.99609 16.2229 9.33044 14.4271 10.0673 14.4271Z" fill="#FCE202"/>
</g>
<defs>
<linearGradient id="paint0_linear_366_1500" x1="9.99951" y1="20.0145" x2="9.99951" y2="0.0148689" gradientUnits="userSpaceOnUse">
<stop stop-color="#FF4C0D"/>
<stop offset="1" stop-color="#FC9502"/>
</linearGradient>
<clipPath id="clip0_366_1500">
<rect width="20" height="20" fill="white"/>
</clipPath>
</defs>
</svg>
