<svg width="17" height="17" viewBox="0 0 17 17" fill="none" xmlns="http://www.w3.org/2000/svg">
<path d="M10.9286 9.92885C10.8149 9.92885 10.7059 9.974 10.6255 10.0544C10.5452 10.1347 10.5 10.2438 10.5 10.3574C10.5 10.4711 10.5452 10.5801 10.6255 10.6605C10.7059 10.7408 10.8149 10.786 10.9286 10.786H12.9286C13.0422 10.786 13.1512 10.7408 13.2316 10.6605C13.312 10.5801 13.3571 10.4711 13.3571 10.3574C13.3571 10.2438 13.312 10.1347 13.2316 10.0544C13.1512 9.974 13.0422 9.92885 12.9286 9.92885H10.9286ZM1.64514 5.50028C1.64514 4.93196 1.87091 4.38691 2.27277 3.98505C2.67463 3.58319 3.21968 3.35742 3.788 3.35742H13.2143C13.7826 3.35742 14.3277 3.58319 14.7295 3.98505C15.1314 4.38691 15.3571 4.93196 15.3571 5.50028V11.5003C15.3571 12.0686 15.1314 12.6136 14.7295 13.0155C14.3277 13.4174 13.7826 13.6431 13.2143 13.6431H3.78857C3.22025 13.6431 2.67521 13.4174 2.27334 13.0155C1.87148 12.6136 1.64571 12.0686 1.64571 11.5003L1.64514 5.50028ZM3.788 4.21456C3.44701 4.21456 3.11998 4.35002 2.87886 4.59114C2.63774 4.83226 2.50228 5.15929 2.50228 5.50028V5.92885H14.5V5.50028C14.5 5.15929 14.3645 4.83226 14.1234 4.59114C13.8823 4.35002 13.5553 4.21456 13.2143 4.21456H3.788ZM2.50228 11.5003C2.50228 11.8413 2.63774 12.1683 2.87886 12.4094C3.11998 12.6505 3.44701 12.786 3.788 12.786H13.2143C13.5553 12.786 13.8823 12.6505 14.1234 12.4094C14.3645 12.1683 14.5 11.8413 14.5 11.5003V6.78599H2.50286L2.50228 11.5003Z" fill="#828282" stroke="#828282" stroke-width="0.5"/>
</svg>
