<svg width="34" height="29" viewBox="0 0 34 29" fill="none" xmlns="http://www.w3.org/2000/svg">
<path d="M18.0786 6.96739L18.1152 6.97821L18.1166 6.97666C18.3206 7.01655 18.5251 6.89669 18.5853 6.69541C19.143 4.84139 20.9001 3.54565 22.8585 3.54565C23.0829 3.54565 23.2661 3.36534 23.2661 3.1417C23.2661 2.91805 23.0829 2.73774 22.8585 2.73774C20.4637 2.73774 18.4506 4.31542 17.8042 6.46483C17.7396 6.67928 17.8632 6.90384 18.0786 6.96739Z" fill="#439DB6" stroke="#439DB6" stroke-width="0.120215"/>
<path d="M27.7234 19.9888H25.6384C25.4465 19.9888 25.2909 19.8348 25.2909 19.6449C25.2909 19.4551 25.4465 19.3011 25.6384 19.3011H27.7234C30.5975 19.3011 32.936 16.9873 32.936 14.1435C32.936 11.2997 30.5975 8.98584 27.7234 8.98584H27.6733C27.5725 8.98584 27.4767 8.94262 27.4106 8.86722C27.3446 8.79182 27.3148 8.69186 27.3292 8.59313C27.3603 8.37896 27.3759 8.16382 27.3759 7.95433C27.3759 5.48973 25.3491 3.48436 22.8582 3.48436C21.8892 3.48436 20.9651 3.78399 20.1856 4.35108C20.0144 4.4756 19.7711 4.42034 19.6721 4.23392C17.4646 0.0749278 11.6991 -0.483583 8.70997 3.13438C7.45077 4.65857 6.95601 6.64131 7.35246 8.57374C7.39615 8.78717 7.23108 8.98611 7.0119 8.98611H6.87265C3.99852 8.98611 1.66002 11.2999 1.66002 14.1437C1.66002 16.9875 3.99852 19.3014 6.87265 19.3014H8.95768C9.14955 19.3014 9.30519 19.4553 9.30519 19.6452C9.30519 19.835 9.14956 19.989 8.95768 19.989H6.87265C3.61522 19.989 0.964966 17.3668 0.964966 14.1437C0.964966 11.0111 3.4685 8.446 6.59985 8.30453C6.30571 6.29966 6.86818 4.27738 8.17182 2.69918C11.3721 -1.17468 17.5053 -0.740474 20.0979 3.57916C20.925 3.0661 21.8714 2.79695 22.8581 2.79695C25.876 2.79695 28.2674 5.33844 28.0581 8.30774C31.1606 8.4799 33.6309 11.0314 33.6309 14.1435C33.6309 17.3668 30.9807 19.9888 27.7232 19.9888L27.7234 19.9888Z" fill="#439DB6"/>
<path d="M8.50349 19.4497C8.50349 24.2234 12.4284 28.1059 17.2514 28.1059C22.0745 28.1059 25.9994 24.2233 25.9994 19.4497C25.9994 14.6759 22.0745 10.7934 17.2514 10.7934C12.4283 10.7934 8.50349 14.676 8.50349 19.4497ZM9.31889 19.4497C9.31889 15.1229 12.8769 11.6015 17.2514 11.6015C21.6259 11.6015 25.184 15.1228 25.184 19.4497C25.184 23.7764 21.6259 27.2979 17.2514 27.2979C12.8769 27.2979 9.31889 23.7765 9.31889 19.4497Z" fill="#439DB6" stroke="#439DB6" stroke-width="0.120215"/>
<path d="M17.0958 22.9091C17.0958 23.0819 17.2372 23.2209 17.4103 23.2209C17.5833 23.2209 17.7248 23.0821 17.7248 22.9091V16.364C17.7248 16.1912 17.5834 16.0522 17.4103 16.0522C17.2372 16.0522 17.0958 16.1913 17.0958 16.364V22.9091Z" fill="#439DB6" stroke="#439DB6" stroke-width="0.120215"/>
<path d="M17.188 16.1434L15.1528 18.1572C15.0296 18.2791 15.0296 18.4768 15.1528 18.5986C15.2755 18.7201 15.4745 18.7202 15.5971 18.5986L17.188 16.1434ZM17.188 16.1434C17.3107 16.0218 17.5096 16.0218 17.6324 16.1433L19.6678 18.1572C19.7909 18.2791 19.7909 18.4768 19.6678 18.5986M17.188 16.1434L19.4456 18.6897C19.5256 18.6897 19.6063 18.6596 19.6678 18.5986M19.6678 18.5986L19.6255 18.5559L19.6678 18.5986C19.6678 18.5986 19.6678 18.5986 19.6678 18.5986ZM15.5972 18.5986L17.4103 16.8046L19.2234 18.5986C19.2848 18.6594 19.3654 18.6897 19.4456 18.6897L15.5972 18.5986Z" fill="#439DB6" stroke="#439DB6" stroke-width="0.120215"/>
</svg>
