<svg width="187" height="187" viewBox="0 0 187 187" fill="none" xmlns="http://www.w3.org/2000/svg">
<path d="M81.4209 107.326L19.8156 147.771C19.0671 147.151 18.4643 146.374 18.0499 145.495C17.6355 144.616 17.4198 143.656 17.418 142.685V64.8008L81.4209 107.326Z" fill="#F5F5F5"/>
<path d="M81.4172 107.327L19.8156 147.771C19.0667 147.151 18.4636 146.374 18.0492 145.495C17.6348 144.616 17.4193 143.657 17.418 142.685V142.18L76.3095 103.93L81.4172 107.327Z" fill="url(#paint0_linear_1874_12541)"/>
<path d="M148.937 63.0027V142.674C148.927 144.45 148.213 146.15 146.952 147.4C145.691 148.651 143.985 149.35 142.209 149.344H24.1423C22.5582 149.348 21.0238 148.791 19.812 147.771L148.937 63.0027Z" fill="#F5F5F5"/>
<path d="M148.937 63.0063V142.678C148.925 144.452 148.211 146.15 146.951 147.4C145.691 148.65 143.987 149.35 142.212 149.347H24.146C22.5616 149.35 21.0274 148.792 19.8157 147.771L148.937 63.0063Z" fill="#F5F5F5"/>
<path d="M81.4209 107.327L17.4216 64.8008V63.0934L77.8317 24.3785C78.9028 23.6654 80.1547 23.2716 81.4413 23.2433C82.7278 23.215 83.9958 23.5533 85.0973 24.2187L148.926 61.6003V63.0026L81.4209 107.327Z" fill="#DEE1EC"/>
<path d="M137.374 54.8288V70.5952L81.4209 107.33L25.4647 70.1447V57.9385L62.0726 34.4778H102.626L137.374 54.8288Z" fill="url(#paint1_linear_1874_12541)"/>
<path d="M81.4173 108.634L16.3318 65.3821V62.5013L77.2431 23.4595C78.4882 22.6355 79.9416 22.182 81.4343 22.1518C82.927 22.1215 84.3975 22.5158 85.6749 23.2887L150.027 60.9755V63.5911L81.4173 108.634ZM18.5115 64.2123L81.4245 106.022L147.847 62.4286V62.2397L84.5596 25.185C83.6328 24.6224 82.565 24.3353 81.481 24.3572C80.3971 24.379 79.3417 24.709 78.4383 25.3086L18.4969 63.7146L18.5115 64.2123Z" fill="#5E6175"/>
<path d="M31.4298 40.4609V74.1262L81.4209 107.345L131.408 74.5295V40.4609H31.4298Z" fill="#F5F5F5"/>
<path d="M81.4173 108.634L30.34 74.6929V39.3711H132.498V75.118L81.4173 108.634ZM32.5197 73.5195L81.4246 106.015L130.319 73.9155V41.5508H32.5197V73.5195Z" fill="#5E6175"/>
<path d="M56.5942 77.9734C43.9956 77.3522 39.2984 64.8045 44.3262 56.5108C47.9118 50.5929 55.7768 48.1553 62.236 50.9816C67.3219 53.2013 70.3699 58.7631 70.3699 65.858C70.3854 66.6655 70.2369 67.4678 69.9334 68.2162C69.6298 68.9647 69.1775 69.6437 68.6039 70.2123C68.0303 70.7808 67.3472 71.2271 66.5961 71.5239C65.8449 71.8208 65.0414 71.9621 64.234 71.9393C63.194 71.9294 62.1753 71.6438 61.2818 71.1115C60.3883 70.5792 59.652 69.8194 59.1481 68.9096C55.9294 71.0348 52.2458 70.3191 50.2659 67.9541C49.3271 66.7708 48.8117 65.3071 48.8018 63.7967C48.792 62.2862 49.2882 60.816 50.2114 59.6205C52.5073 56.7869 56.6778 56.3182 59.7875 58.5778H61.5312V65.7345C61.5137 66.5527 61.8093 67.3468 62.3575 67.9545C62.9058 68.5621 63.6653 68.9376 64.4811 69.004C65.8361 69.004 67.1948 68.0123 67.1948 65.8689C67.1948 50.4803 51.9188 50.1606 47.0617 58.1746C43.2473 64.4739 46.6549 74.3007 56.7613 74.802L56.5942 77.9734ZM52.689 61.6258C52.23 62.2482 51.9848 63.0025 51.9901 63.7758C51.9953 64.5491 52.2507 65.3 52.718 65.9161C53.1806 66.4309 53.7945 66.7856 54.4715 66.9292C55.1485 67.0729 55.8535 66.998 56.4852 66.7154C58.0474 66.0542 58.3307 65.4003 58.3307 64.354V61.5023C56.6378 59.9402 54.0803 59.9147 52.689 61.6258Z" fill="#2A9D8F"/>
<path d="M148.937 107.697V142.678C148.925 144.452 148.211 146.15 146.951 147.4C145.691 148.65 143.987 149.35 142.212 149.347H119.355C111.897 129.291 126.795 107.69 148.355 107.69C148.559 107.69 148.748 107.69 148.937 107.697Z" fill="url(#paint2_linear_1874_12541)"/>
<path d="M135.57 35.4095L141.318 29.6613L142.859 31.2023L137.111 36.9505L135.57 35.4095ZM128.564 23.7754H130.744V31.9056H128.564V23.7754ZM140.839 41.2892H148.969V43.4689H140.839V41.2892Z" fill="#5E6175"/>
<path d="M80.3928 63.2025H117.727V67.649H80.3928V63.2025ZM80.3928 74.8202H106.818V79.2668H80.3928V74.8202ZM80.3928 86.4416H93.253V90.8881H80.3928V86.4416ZM80.3928 52.4348H99.7412V56.8814H80.3928V52.4348ZM106.818 52.4348H117.724V56.8814H106.818V52.4348Z" fill="#DEE1EC"/>
<path d="M17.1165 42.3681C16.2132 42.3681 15.3302 42.1002 14.5791 41.5983C13.8281 41.0964 13.2428 40.383 12.8973 39.5483C12.5518 38.7137 12.4616 37.7954 12.6381 36.9095C12.8146 36.0236 13.2498 35.2099 13.8888 34.5714C14.5278 33.9329 15.3418 33.4983 16.2279 33.3225C17.1139 33.1467 18.0322 33.2377 18.8665 33.5839C19.7009 33.9301 20.4138 34.5159 20.9151 35.2673C21.4165 36.0188 21.6837 36.902 21.6829 37.8053C21.681 39.0155 21.1992 40.1755 20.3431 41.0309C19.4871 41.8862 18.3267 42.3672 17.1165 42.3681ZM17.1165 35.4186C16.6444 35.4186 16.183 35.5585 15.7905 35.8208C15.398 36.0831 15.0921 36.4558 14.9114 36.8919C14.7308 37.3281 14.6835 37.808 14.7756 38.2709C14.8677 38.7339 15.095 39.1592 15.4288 39.493C15.7626 39.8268 16.1879 40.0541 16.6509 40.1462C17.1138 40.2383 17.5937 40.191 18.0299 40.0104C18.466 39.8297 18.8388 39.5238 19.101 39.1313C19.3633 38.7388 19.5033 38.2774 19.5033 37.8053C19.5023 37.1726 19.2505 36.5661 18.8031 36.1187C18.3557 35.6713 17.7492 35.4195 17.1165 35.4186ZM36.8972 29.7695C36.1966 29.7695 35.5118 29.5618 34.9293 29.1726C34.3469 28.7834 33.8929 28.2302 33.6248 27.583C33.3567 26.9358 33.2866 26.2236 33.4232 25.5365C33.5599 24.8495 33.8972 24.2183 34.3926 23.723C34.8879 23.2276 35.5191 22.8903 36.2062 22.7536C36.8932 22.6169 37.6054 22.6871 38.2526 22.9552C38.8998 23.2233 39.453 23.6772 39.8422 24.2597C40.2314 24.8422 40.4392 25.527 40.4392 26.2275C40.4372 27.1663 40.0634 28.0661 39.3996 28.73C38.7358 29.3938 37.836 29.7676 36.8972 29.7695ZM36.8972 24.8652C36.6277 24.8652 36.3643 24.9451 36.1403 25.0948C35.9163 25.2445 35.7417 25.4573 35.6386 25.7062C35.5354 25.9551 35.5085 26.2291 35.561 26.4933C35.6136 26.7576 35.7433 27.0003 35.9339 27.1908C36.1244 27.3814 36.3671 27.5111 36.6314 27.5637C36.8956 27.6162 37.1696 27.5893 37.4185 27.4861C37.6674 27.383 37.8802 27.2084 38.0299 26.9844C38.1796 26.7604 38.2595 26.497 38.2595 26.2275C38.2585 25.8665 38.1147 25.5206 37.8594 25.2653C37.6041 25.01 37.2582 24.8662 36.8972 24.8652ZM19.1182 148.606C18.2449 147.884 17.5421 146.977 17.0598 145.952C16.5775 144.926 16.3276 143.807 16.3282 142.674V64.8007C16.3288 64.6039 16.3826 64.4109 16.4841 64.2422C16.5855 64.0736 16.7308 63.9355 16.9044 63.8427C17.078 63.75 17.2735 63.706 17.4701 63.7154C17.6667 63.7248 17.8571 63.7873 18.0211 63.8962L82.024 106.418C82.1738 106.518 82.2968 106.653 82.3818 106.811C82.4669 106.97 82.5114 107.147 82.5114 107.326C82.5114 107.506 82.4669 107.683 82.3818 107.842C82.2968 108 82.1738 108.135 82.024 108.235L20.4151 148.682C20.2194 148.811 19.9876 148.872 19.754 148.859C19.5205 148.845 19.2975 148.756 19.1182 148.606ZM18.5079 66.8315V142.674C18.5072 144.045 19.0175 145.367 19.9392 146.383L79.441 107.323L18.5079 66.8315Z" fill="#5E6175"/>
<path d="M166.374 112.572H164.195V110.393H166.374V112.572ZM166.374 106.76H164.195V104.58H166.374V106.76ZM166.374 100.947H164.195V98.7676H166.374V100.947ZM166.374 95.1348H164.195V92.9551H166.374V95.1348ZM166.374 89.3223H164.195V87.1426H166.374V89.3223ZM166.374 83.5098H164.195V81.3301H166.374V83.5098ZM166.374 77.6973H164.195V75.5176H166.374V77.6973ZM166.374 71.8848H164.195V69.7051H166.374V71.8848ZM166.374 66.0723H164.195V63.8926H166.374V66.0723ZM166.374 60.2598H164.195V58.0801H166.374V60.2598ZM166.374 54.4473H164.195V52.2676H166.374V54.4473ZM160.01 54.4981H157.83V52.3184H160.01V54.4981ZM154.197 54.4981H152.017V52.3184H154.197V54.4981ZM148.385 54.4981H146.205V52.3184H148.385V54.4981Z" fill="#A9AFC4"/>
<path d="M142.209 150.434H24.1424C22.3039 150.438 20.5226 149.795 19.1109 148.617C18.9812 148.508 18.8787 148.37 18.8116 148.214C18.7445 148.058 18.7148 147.889 18.7246 147.72C18.7345 147.55 18.7838 147.386 18.8685 147.239C18.9532 147.092 19.0711 146.967 19.2127 146.873L148.356 62.0908C148.52 61.9825 148.711 61.9208 148.907 61.9122C149.104 61.9036 149.299 61.9484 149.473 62.0419C149.646 62.1354 149.791 62.2742 149.891 62.4433C149.992 62.6125 150.045 62.8057 150.045 63.0026V142.674C150.034 144.742 149.203 146.721 147.733 148.176C146.264 149.631 144.277 150.443 142.209 150.434ZM21.821 147.756C22.5521 148.085 23.3445 148.254 24.146 148.254H142.212C143.699 148.259 145.127 147.674 146.184 146.628C147.241 145.582 147.84 144.161 147.851 142.674V65.0225L21.821 147.756Z" fill="#5E6175"/>
<path d="M148.366 163.744C162.24 163.744 173.487 152.497 173.487 138.623C173.487 124.749 162.24 113.502 148.366 113.502C134.492 113.502 123.245 124.749 123.245 138.623C123.245 152.497 134.492 163.744 148.366 163.744Z" fill="#F5F5F5"/>
<path d="M148.355 164.83C143.171 164.831 138.103 163.294 133.792 160.415C129.481 157.535 126.121 153.441 124.137 148.652C122.153 143.862 121.633 138.592 122.645 133.507C123.656 128.422 126.152 123.752 129.818 120.086C133.484 116.42 138.155 113.924 143.239 112.912C148.324 111.901 153.594 112.421 158.384 114.405C163.173 116.389 167.267 119.749 170.147 124.06C173.027 128.371 174.563 133.439 174.563 138.623C174.554 145.571 171.79 152.232 166.877 157.145C161.964 162.058 155.303 164.822 148.355 164.83ZM148.355 114.592C143.602 114.592 138.956 116 135.004 118.64C131.051 121.281 127.971 125.033 126.151 129.425C124.332 133.816 123.855 138.648 124.782 143.309C125.709 147.971 127.997 152.253 131.358 155.615C134.719 158.976 139.001 161.265 143.662 162.192C148.324 163.12 153.156 162.644 157.547 160.825C161.939 159.007 165.692 155.927 168.333 151.975C170.973 148.023 172.383 143.376 172.383 138.623C172.376 132.253 169.843 126.145 165.338 121.64C160.834 117.134 154.726 114.6 148.355 114.592Z" fill="#5E6175"/>
<path d="M144.77 151.2L133.486 139.92L137.01 136.396L144.77 144.156L159.871 129.051L163.395 132.575L144.77 151.2Z" fill="#2A9D8F"/>
<defs>
<linearGradient id="paint0_linear_1874_12541" x1="17.418" y1="125.85" x2="81.4172" y2="125.85" gradientUnits="userSpaceOnUse">
<stop stop-color="#CACFDD"/>
<stop offset="1" stop-color="#EEF0F1"/>
</linearGradient>
<linearGradient id="paint1_linear_1874_12541" x1="17.418" y1="125.85" x2="81.4173" y2="125.85" gradientUnits="userSpaceOnUse">
<stop stop-color="#CACFDD"/>
<stop offset="1" stop-color="#EEF0F1"/>
</linearGradient>
<linearGradient id="paint2_linear_1874_12541" x1="17.418" y1="125.85" x2="81.4173" y2="125.85" gradientUnits="userSpaceOnUse">
<stop stop-color="#CACFDD"/>
<stop offset="1" stop-color="#EEF0F1"/>
</linearGradient>
</defs>
</svg>
