<svg width="20" height="20" viewBox="0 0 20 20" fill="none" xmlns="http://www.w3.org/2000/svg">
<path d="M5.41602 14.5833V12.0833M9.58268 14.5833V7.08325M13.7493 14.5833V11.2499" stroke="#3F3024" stroke-width="1.5" stroke-linecap="round"/>
<path d="M17.916 4.58325C17.916 5.24629 17.6526 5.88218 17.1838 6.35102C16.7149 6.81986 16.0791 7.08325 15.416 7.08325C14.753 7.08325 14.1171 6.81986 13.6482 6.35102C13.1794 5.88218 12.916 5.24629 12.916 4.58325C12.916 3.92021 13.1794 3.28433 13.6482 2.81549C14.1171 2.34664 14.753 2.08325 15.416 2.08325C16.0791 2.08325 16.7149 2.34664 17.1838 2.81549C17.6526 3.28433 17.916 3.92021 17.916 4.58325Z" stroke="#3F3024" stroke-width="1.5"/>
<path d="M17.913 9.16659C17.913 9.16659 17.9163 9.44992 17.9163 9.99992C17.9163 13.7316 17.9163 15.5983 16.7572 16.7574C15.598 17.9166 13.7322 17.9166 9.99968 17.9166C6.26801 17.9166 4.40134 17.9166 3.24217 16.7574C2.08301 15.5983 2.08301 13.7324 2.08301 9.99992C2.08301 6.26825 2.08301 4.40242 3.24217 3.24242C4.40134 2.08325 6.26717 2.08325 9.99968 2.08325H10.833" stroke="#3F3024" stroke-width="1.5" stroke-linecap="round" stroke-linejoin="round"/>
</svg>
