<svg width="123" height="124" viewBox="0 0 123 124" fill="none" xmlns="http://www.w3.org/2000/svg">
<g opacity="0.31">
<mask id="mask0_925_3288" style="mask-type:luminance" maskUnits="userSpaceOnUse" x="10" y="19" width="111" height="105">
<path d="M120.73 19.0425H10.1362V123.089H120.73V19.0425Z" fill="white"/>
</mask>
<g mask="url(#mask0_925_3288)">
<mask id="mask1_925_3288" style="mask-type:luminance" maskUnits="userSpaceOnUse" x="10" y="19" width="111" height="105">
<path d="M70.9531 47.7643C58.7001 44.1784 45.8553 16.0533 25.6617 19.3033C1.80413 23.143 5.69598 76.2269 35.59 103.669C51.414 118.195 73.7882 125.502 95.0263 122.376C123.354 118.212 143.226 68.9168 70.9553 47.7643" fill="white"/>
</mask>
<g mask="url(#mask1_925_3288)">
<path d="M46.2014 -49.5258L-48.7465 91.4609L99.2511 191.5L194.199 50.5129L46.2014 -49.5258Z" fill="#E0F8F5"/>
</g>
</g>
</g>
<g opacity="0.31">
<mask id="mask2_925_3288" style="mask-type:luminance" maskUnits="userSpaceOnUse" x="0" y="26" width="123" height="93">
<path d="M122.901 26.1011H0.0987549V118.568H122.901V26.1011Z" fill="white"/>
</mask>
<g mask="url(#mask2_925_3288)">
<mask id="mask3_925_3288" style="mask-type:luminance" maskUnits="userSpaceOnUse" x="0" y="26" width="123" height="93">
<path d="M44.0489 57.4009C36.0691 67.3825 5.21907 68.5601 0.520365 88.5001C-5.03175 112.06 45.436 128.695 82.1556 111.466C101.593 102.346 116.862 84.4089 122.076 63.5496C129.03 35.7249 91.1191 -1.47302 44.05 57.4009" fill="white"/>
</mask>
<g mask="url(#mask3_925_3288)">
<path d="M128.353 -10.9796L-14.236 -0.814941L-4.36199 138.21L138.227 128.045L128.353 -10.9796Z" fill="#E0F8F5"/>
</g>
</g>
</g>
<g opacity="0.31">
<mask id="mask4_925_3288" style="mask-type:luminance" maskUnits="userSpaceOnUse" x="25" y="0" width="17" height="17">
<path d="M41.071 0H25.7607V16.8099H41.071V0Z" fill="white"/>
</mask>
<g mask="url(#mask4_925_3288)">
<mask id="mask5_925_3288" style="mask-type:luminance" maskUnits="userSpaceOnUse" x="25" y="-1" width="17" height="18">
<path d="M34.7802 5.27231C33.0668 4.45008 31.8576 0.0102751 28.8142 -0.00193896C25.2188 -0.014153 24.5128 7.8739 28.2423 12.6257C30.2167 15.1407 33.3261 16.7535 36.5192 16.8074C40.779 16.8801 44.8831 10.1218 34.7802 5.27064" fill="white"/>
</mask>
<g mask="url(#mask5_925_3288)">
<path d="M29.1794 -8.5927L17.4244 13.0073L40.214 25.4556L51.969 3.8556L29.1794 -8.5927Z" fill="#E0F8F5"/>
</g>
</g>
</g>
<g opacity="0.27">
<mask id="mask6_925_3288" style="mask-type:luminance" maskUnits="userSpaceOnUse" x="29" y="26" width="87" height="88">
<path d="M115.811 26.4033H29.9496V113.137H115.811V26.4033Z" fill="white"/>
</mask>
<g mask="url(#mask6_925_3288)">
<path d="M115.804 39.196L114.755 58.3843C114.631 60.6605 112.767 62.4033 110.592 62.2839L107.336 62.1051L106.292 81.2223L104.76 109.23C104.636 111.506 102.773 113.249 100.598 113.129L99.7209 113.081L53.8831 110.567L38.6876 112.254L29.9496 33.2811L40.0059 32.1641L40.022 30.6934L40.0591 27.3184L53.7535 27.47C54.133 27.1076 54.5823 26.8266 55.074 26.6443C55.5657 26.462 56.0893 26.3821 56.6129 26.4096L80.179 27.7026L79.6853 27.7581L80.5243 27.7676L81.5594 27.7792L80.179 27.7032L83.9357 27.2862L83.9911 27.8064L87.213 27.8442L94.3716 27.923L94.3638 28.4838L103.603 28.9906L105.192 29.0778C107.367 29.1966 109.029 31.1364 108.905 33.4082L108.836 34.6852L112.091 34.8634C114.266 34.9833 115.928 36.922 115.804 39.1938" fill="#631480"/>
</g>
</g>
<mask id="mask7_925_3288" style="mask-type:luminance" maskUnits="userSpaceOnUse" x="46" y="25" width="69" height="88">
<path d="M51.1228 29.577L46.9777 105.403C46.8536 107.676 48.5155 109.616 50.6906 109.734L98.3942 112.352L99.2714 112.4C101.446 112.519 103.31 110.774 103.434 108.5V108.498L104.965 80.4907L106.01 61.3735L109.265 61.5517C111.441 61.6711 113.304 59.9256 113.428 57.6521L114.478 38.4639C114.602 36.1876 112.94 34.2517 110.765 34.1334L107.508 33.9513L107.578 32.6744C107.702 30.4015 106.04 28.4617 103.865 28.344L102.277 28.2568L55.284 25.678C55.2136 25.6741 55.1432 25.6719 55.0734 25.6719C52.9898 25.6719 51.2414 27.378 51.1217 29.5776" fill="white"/>
</mask>
<g mask="url(#mask7_925_3288)">
<path d="M110.474 9.43546L26.1205 30.9609L50.9828 128.752L135.336 107.226L110.474 9.43546Z" fill="#439DB6"/>
</g>
<g opacity="0.44">
<mask id="mask8_925_3288" style="mask-type:luminance" maskUnits="userSpaceOnUse" x="45" y="25" width="59" height="88">
<path d="M103.914 25.6235H45.9204V112.304H103.914V25.6235Z" fill="white"/>
</mask>
<g mask="url(#mask8_925_3288)">
<path d="M103.913 80.442L102.382 108.449C102.308 108.449 102.233 108.449 102.16 108.442L98.6913 108.232L98.6126 109.537C98.5507 110.586 98.0985 111.573 97.3452 112.303L49.6405 109.686C47.4655 109.566 45.8035 107.627 45.9277 105.355L50.0728 29.53C50.1969 27.2537 52.0605 25.5104 54.2356 25.6303L101.228 28.2092C101.897 28.6026 102.445 29.174 102.809 29.8599C103.174 30.5459 103.342 31.3197 103.295 32.0955L100.385 80.2299L103.853 80.4403L103.915 80.4448" fill="#BA620F"/>
</g>
</g>
<mask id="mask9_925_3288" style="mask-type:luminance" maskUnits="userSpaceOnUse" x="88" y="32" width="18" height="80">
<path d="M88.9663 110.285L98.3199 110.844L101.213 111.017L101.371 108.395L103.055 80.3898L105.92 32.7633L103.262 32.6045L93.6246 32.0288L88.9663 110.285Z" fill="white"/>
</mask>
<g mask="url(#mask9_925_3288)">
<path d="M100.24 24.0217L51.7502 58.5073L94.6442 119.044L143.134 84.5582L100.24 24.0217Z" fill="url(#paint0_linear_925_3288)"/>
</g>
<g opacity="0.26">
<mask id="mask10_925_3288" style="mask-type:luminance" maskUnits="userSpaceOnUse" x="88" y="32" width="16" height="79">
<path d="M103.914 32.0288H88.9663V110.844H103.914V32.0288Z" fill="white"/>
</mask>
<g mask="url(#mask10_925_3288)">
<path d="M103.914 80.4425L102.382 108.45C102.308 108.45 102.233 108.45 102.161 108.443L101.373 108.395L98.6896 108.235L98.6109 109.54C98.5844 109.989 98.4862 110.43 98.3199 110.847L88.9663 110.288L93.6246 32.0288L103.262 32.6045L100.38 80.2277L103.052 80.3898L103.849 80.4381L103.911 80.4425" fill="#326F7D"/>
</g>
</g>
<mask id="mask11_925_3288" style="mask-type:luminance" maskUnits="userSpaceOnUse" x="37" y="22" width="70" height="90">
<path d="M41.706 26.9262L37.0239 104.369C36.9905 104.921 37.066 105.474 37.246 105.997C37.426 106.52 37.707 107.002 38.073 107.416C38.4389 107.83 38.8827 108.168 39.379 108.41C39.8752 108.652 40.4142 108.794 40.9651 108.827L92.729 111.969C93.8418 112.036 94.9357 111.658 95.7702 110.917C96.6047 110.177 97.1114 109.135 97.1789 108.02L97.2576 106.714L100.727 106.924C101.278 106.958 101.83 106.882 102.352 106.702C102.874 106.522 103.355 106.24 103.768 105.874C104.181 105.507 104.518 105.062 104.76 104.565C105.002 104.068 105.143 103.528 105.177 102.976L106.361 83.3779C106.429 82.2631 106.051 81.1671 105.312 80.3311C104.573 79.495 103.533 78.9874 102.42 78.9198L98.9511 78.7093L101.861 30.5749C101.895 30.0229 101.819 29.4697 101.639 28.9468C101.459 28.424 101.178 27.9418 100.812 27.5278C100.446 27.1138 100.003 26.7761 99.5062 26.534C99.0099 26.2919 98.4708 26.1501 97.9198 26.1168L46.1559 22.9755C46.0695 22.97 45.983 22.9678 45.8977 22.9678C44.8276 22.9686 43.7981 23.3784 43.0192 24.1136C42.2403 24.8487 41.7706 25.8539 41.706 26.924" fill="white"/>
</mask>
<g mask="url(#mask11_925_3288)">
<path d="M92.969 -4.62757L1.67236 40.2998L50.4138 139.714L141.71 94.7867L92.969 -4.62757Z" fill="#2A9D8F"/>
</g>
<mask id="mask12_925_3288" style="mask-type:luminance" maskUnits="userSpaceOnUse" x="109" y="37" width="4" height="20">
<path d="M109.767 56.819L111.571 56.9267L112.715 37.829L110.904 37.7207L109.767 56.819Z" fill="white"/>
</mask>
<g mask="url(#mask12_925_3288)">
<path d="M112.332 27.7661L113.359 54.4272L110.151 66.8821L109.123 40.2206L112.332 27.7661Z" fill="url(#paint1_linear_925_3288)"/>
</g>
<g opacity="0.37">
<mask id="mask13_925_3288" style="mask-type:luminance" maskUnits="userSpaceOnUse" x="39" y="27" width="56" height="82">
<path d="M94.3782 27.9897H39.1863V108.044H94.3782V27.9897Z" fill="white"/>
</mask>
<g mask="url(#mask13_925_3288)">
<path d="M94.3783 28.5927L93.2889 108.044L39.1864 107.444L40.0653 27.9897L94.3783 28.5927Z" fill="#B56100"/>
</g>
</g>
<mask id="mask14_925_3288" style="mask-type:luminance" maskUnits="userSpaceOnUse" x="37" y="26" width="57" height="81">
<path d="M38.6942 29.9614L37.8524 106.04L81.6132 106.526L91.9549 106.641L93.0449 27.1888L85.8868 27.11L79.1965 27.035L38.7313 26.5864L38.6942 29.9614Z" fill="white"/>
</mask>
<g mask="url(#mask14_925_3288)">
<path d="M73.1859 -0.200697L-0.439575 55.1206L57.7896 132.903L131.415 77.5819L73.1859 -0.200697Z" fill="url(#paint2_linear_925_3288)"/>
</g>
<g opacity="0.33">
<mask id="mask15_925_3288" style="mask-type:luminance" maskUnits="userSpaceOnUse" x="37" y="26" width="55" height="81">
<path d="M91.342 26.5552H37.8524V106.527H91.342V26.5552Z" fill="white"/>
</mask>
<g mask="url(#mask15_925_3288)">
<path d="M91.3424 105.823L81.6136 106.527L37.8523 106.04L38.6941 29.9618L79.1964 27.0354L85.8479 26.5552L85.8867 27.1104L91.3424 105.823Z" fill="#A8A8A8"/>
</g>
</g>
<mask id="mask16_925_3288" style="mask-type:luminance" maskUnits="userSpaceOnUse" x="28" y="26" width="64" height="86">
<path d="M28.6218 32.5496L37.3598 111.525L91.1364 105.552L82.6079 26.5542L28.6218 32.5496Z" fill="white"/>
</mask>
<g mask="url(#mask16_925_3288)">
<path d="M63.472 -4.55545L-13.5031 64.1538L56.2873 142.63L133.262 73.9205L63.472 -4.55545Z" fill="url(#paint3_linear_925_3288)"/>
</g>
<path d="M79.673 48.1631L38.2952 52.7617L38.3821 53.5469L79.76 48.9483L79.673 48.1631Z" fill="#474BAC"/>
<path d="M71.3607 41.9847L43.364 45.0962L43.451 45.8814L71.4476 42.77L71.3607 41.9847Z" fill="#474BAC"/>
<path d="M80.3811 50.8678L38.5995 55.5112L38.6864 56.2964L80.468 51.653L80.3811 50.8678Z" fill="#474BAC"/>
<path d="M80.6851 53.6174L38.8082 58.2715L38.8952 59.0567L80.772 54.4026L80.6851 53.6174Z" fill="#474BAC"/>
<path d="M81.0258 56.2527L39.1489 60.9067L39.2359 61.6919L81.1127 57.0379L81.0258 56.2527Z" fill="#474BAC"/>
<path d="M69.1384 60.6881L39.149 64.021L39.236 64.8062L69.2254 61.4733L69.1384 60.6881Z" fill="#474BAC"/>
<path d="M62.5412 68.9081L47.8309 70.543L47.9179 71.3282L62.6281 69.6933L62.5412 68.9081Z" fill="#474BAC"/>
<path d="M83.1698 69.3979L48.1353 73.2915L48.2222 74.0767L83.2567 70.1831L83.1698 69.3979Z" fill="#474BAC"/>
<path d="M83.4738 72.1473L48.3594 76.0498L48.4463 76.835L83.5607 72.9325L83.4738 72.1473Z" fill="#474BAC"/>
<path d="M63.7444 82.1987L49.0342 83.8335L49.1211 84.6187L63.8313 82.9839L63.7444 82.1987Z" fill="#474BAC"/>
<path d="M84.373 82.6889L49.3385 86.5825L49.4254 87.3677L84.46 83.4741L84.373 82.6889Z" fill="#474BAC"/>
<path d="M84.6764 85.4393L49.562 89.3418L49.649 90.127L84.7634 86.2245L84.6764 85.4393Z" fill="#474BAC"/>
<path d="M39.2228 71.2745L39.8806 77.5841L46.5515 76.8863L45.8937 70.5771L39.2228 71.2745ZM45.6449 76.1923L40.6237 76.7175L40.1288 71.9684L45.1501 71.4432L45.6449 76.1923Z" fill="#474BAC"/>
<mask id="mask17_925_3288" style="mask-type:luminance" maskUnits="userSpaceOnUse" x="40" y="69" width="7" height="7">
<path d="M42.6149 74.4368L40.667 73.196L40.1389 74.0282L42.8615 75.7631L46.9711 70.1908L46.1792 69.6045L42.6149 74.4368Z" fill="white"/>
</mask>
<g mask="url(#mask17_925_3288)">
<path d="M46.386 68.4268L38.4628 70.4727L40.3827 77.9356L48.3059 75.8897L46.386 68.4268Z" fill="#2A9D8F"/>
</g>
<path d="M40.7119 84.8414L41.3697 91.1511L48.0407 90.4532L47.3829 84.1436L40.7119 84.8414ZM47.1341 89.7592L42.1134 90.2844L41.6185 85.5348L46.6392 85.0096L47.1341 89.7592Z" fill="#474BAC"/>
<mask id="mask18_925_3288" style="mask-type:luminance" maskUnits="userSpaceOnUse" x="41" y="83" width="8" height="7">
<path d="M44.1022 88.0043L42.1549 86.7629L41.6262 87.5956L44.3488 89.3306L48.4584 83.7577L47.6665 83.1714L44.1022 88.0043Z" fill="white"/>
</mask>
<g mask="url(#mask18_925_3288)">
<path d="M48.0235 81.4869L40.1226 83.5635L42.0713 91.0054L49.9722 88.9288L48.0235 81.4869Z" fill="#2A9D8F"/>
</g>
<defs>
<linearGradient id="paint0_linear_925_3288" x1="71.8206" y1="36.6363" x2="134.981" y2="125.445" gradientUnits="userSpaceOnUse">
<stop stop-color="white"/>
<stop offset="1" stop-color="#CFF9FF"/>
</linearGradient>
<linearGradient id="paint1_linear_925_3288" x1="111.031" y1="35.7698" x2="119.375" y2="37.9193" gradientUnits="userSpaceOnUse">
<stop stop-color="white"/>
<stop offset="1" stop-color="#CFF9FF"/>
</linearGradient>
<linearGradient id="paint2_linear_925_3288" x1="28.8218" y1="17.1523" x2="120.199" y2="138.764" gradientUnits="userSpaceOnUse">
<stop stop-color="white"/>
<stop offset="1" stop-color="#CFF9FF"/>
</linearGradient>
<linearGradient id="paint3_linear_925_3288" x1="19.9024" y1="23.1761" x2="121.312" y2="136.785" gradientUnits="userSpaceOnUse">
<stop stop-color="white"/>
<stop offset="1" stop-color="#CFF9FF"/>
</linearGradient>
</defs>
</svg>
