<svg width="171" height="164" viewBox="0 0 171 164" fill="none" xmlns="http://www.w3.org/2000/svg">
<path d="M158.473 57.6499L154.569 58.918L157.709 62.6338C157.709 62.6338 159.188 61.3742 159.995 59.9618C160.332 59.3717 160.137 58.6207 159.55 58.2787L158.473 57.6499Z" fill="#7F3E3B"/>
<path d="M152.772 61.9677L155.113 64.8113L157.709 62.6342L154.569 58.9185L152.772 61.9677Z" fill="#7F3E3B"/>
<path d="M159.732 27.2891C160.686 29.9037 161.561 32.5189 162.389 35.1713C163.207 37.8298 163.987 40.4837 164.651 43.2729L164.889 44.3424L165 44.9012L165.055 45.1804L165.068 45.2508L165.084 45.3574L165.113 45.5712C165.254 46.7101 165.135 47.6054 164.977 48.4354C164.649 50.0788 164.115 51.4726 163.527 52.8257C162.332 55.5129 160.898 57.9278 159.22 60.2689L156.611 58.8262C157.536 56.3197 158.448 53.7382 159.132 51.2518C159.461 50.0134 159.744 48.7639 159.828 47.6829C159.865 47.1542 159.839 46.6597 159.767 46.4364L159.551 45.6497L159.27 44.7211C158.481 42.202 157.581 39.6125 156.69 37.0395C155.804 34.4621 154.91 31.865 154.053 29.2825L159.732 27.2891Z" fill="#7F3E3B"/>
<path d="M138.007 11.7286C138.073 12.042 137.962 12.3377 137.76 12.389C137.557 12.4404 137.338 12.2276 137.272 11.9142C137.205 11.6008 137.316 11.305 137.519 11.2537C137.723 11.2024 137.94 11.4147 138.007 11.7286Z" fill="#263238"/>
<path d="M137.991 12.3301C137.991 12.3301 137.668 14.317 137.076 15.3859C137.735 15.7647 138.619 15.2923 138.619 15.2923L137.991 12.3301Z" fill="#630F0F"/>
<path d="M137.177 9.82525C137.117 9.82525 137.059 9.79709 137.022 9.74528C136.963 9.66027 136.984 9.54306 137.069 9.4832C137.099 9.46208 137.825 8.9656 138.772 9.35544C138.868 9.39518 138.914 9.50483 138.875 9.60091C138.835 9.69699 138.725 9.74326 138.629 9.70302C137.87 9.39015 137.291 9.78753 137.285 9.79155C137.252 9.81419 137.214 9.82525 137.177 9.82525Z" fill="#263238"/>
<path d="M148.789 12.7251C149.14 16.3765 148.622 19.9122 149.439 23.0867C149.439 23.0867 148.531 26.0329 143.135 26.0329C137.2 26.0329 140.412 23.0867 140.412 23.0867C143.681 22.3131 143.69 19.9102 143.213 17.6532L148.789 12.7251Z" fill="#7F3E3B"/>
<path d="M150.589 24.098C151.05 23.1654 151.357 21.845 150.401 21.5105C149.349 21.1428 143.733 21.0206 141.694 21.7107C139.656 22.4014 140.154 24.2927 140.154 24.2927L150.589 24.098Z" fill="#263238"/>
<path d="M162.716 156.572C163.106 156.48 163.508 156.299 163.785 156.159C163.822 156.141 163.844 156.101 163.841 156.06C163.838 156.019 163.811 155.983 163.771 155.97C163.595 155.91 162.035 155.396 161.625 155.746C161.562 155.801 161.492 155.901 161.52 156.07C161.559 156.297 161.671 156.458 161.852 156.549C162.081 156.664 162.395 156.648 162.716 156.572ZM163.461 156.087C162.779 156.401 162.221 156.505 161.944 156.366C161.823 156.305 161.751 156.196 161.723 156.035C161.709 155.956 161.735 155.923 161.758 155.903C161.971 155.721 162.833 155.898 163.461 156.087Z" fill="#2A9D8F"/>
<path d="M163.762 156.168C163.781 156.163 163.799 156.153 163.813 156.139C163.839 156.111 163.848 156.072 163.837 156.037C163.821 155.986 163.431 154.792 162.846 154.507C162.694 154.433 162.54 154.423 162.39 154.479C162.158 154.565 162.13 154.727 162.134 154.817C162.156 155.309 163.22 156.034 163.712 156.167C163.729 156.171 163.746 156.171 163.762 156.168ZM162.505 154.658C162.588 154.638 162.67 154.649 162.756 154.691C163.131 154.874 163.434 155.552 163.567 155.896C163.055 155.669 162.352 155.097 162.339 154.807C162.338 154.78 162.335 154.718 162.461 154.671C162.476 154.666 162.491 154.661 162.505 154.658Z" fill="#2A9D8F"/>
<path d="M135.239 159.642C135.641 159.642 136.073 159.559 136.375 159.486C136.415 159.476 136.445 159.443 136.452 159.402C136.459 159.361 136.44 159.321 136.405 159.299C136.247 159.199 134.848 158.34 134.368 158.587C134.294 158.625 134.202 158.706 134.192 158.877C134.177 159.107 134.249 159.29 134.404 159.421C134.6 159.585 134.909 159.642 135.239 159.642ZM136.077 159.341C135.34 159.489 134.774 159.462 134.537 159.263C134.432 159.175 134.387 159.054 134.397 158.89C134.402 158.81 134.434 158.783 134.462 158.769C134.711 158.642 135.508 159.012 136.077 159.341Z" fill="#2A9D8F"/>
<path d="M136.35 159.489C136.37 159.489 136.39 159.483 136.406 159.472C136.438 159.451 136.456 159.415 136.453 159.378C136.449 159.325 136.345 158.073 135.841 157.661C135.71 157.554 135.562 157.509 135.403 157.529C135.158 157.559 135.093 157.71 135.076 157.798C134.985 158.281 135.852 159.232 136.301 159.476C136.317 159.485 136.334 159.489 136.35 159.489ZM135.475 157.73C135.559 157.73 135.637 157.76 135.711 157.82C136.034 158.084 136.172 158.814 136.223 159.179C135.776 158.84 135.224 158.122 135.277 157.837C135.283 157.811 135.294 157.75 135.427 157.733C135.444 157.731 135.46 157.73 135.475 157.73Z" fill="#2A9D8F"/>
<path d="M141.02 159.332H137.05L137.009 150.137H140.98L141.02 159.332Z" fill="#7F3E3B"/>
<path d="M168.684 155.93L164.861 156.631L162.119 147.583L165.942 146.882L168.684 155.93Z" fill="#7F3E3B"/>
<path d="M164.134 155.613L168.475 154.587C168.632 154.55 168.791 154.628 168.856 154.775L170.298 158.061C170.448 158.402 170.235 158.808 169.869 158.888C168.348 159.22 167.594 159.304 165.686 159.755C164.511 160.033 162.116 160.728 160.494 161.112C158.908 161.487 158.343 159.927 158.979 159.624C161.827 158.262 162.77 157.091 163.554 156.001C163.695 155.805 163.903 155.668 164.134 155.613Z" fill="#263238"/>
<path d="M137.094 158.872H141.43C141.592 158.872 141.728 158.985 141.757 159.143L142.405 162.672C142.472 163.038 142.181 163.385 141.807 163.379C140.244 163.352 137.987 163.26 136.021 163.26C133.722 163.26 132.903 163.386 130.208 163.386C128.578 163.386 128.189 161.738 128.877 161.588C132.009 160.909 133.377 160.836 136.125 159.181C136.424 159.001 136.751 158.872 137.094 158.872Z" fill="#263238"/>
<path d="M158.29 24.1119C161.995 26.7195 163.111 33.4403 163.111 33.4403L154.713 37.6984C154.713 37.6984 152.58 33.5646 151.646 29.3634C150.762 25.3875 155.656 22.2583 158.29 24.1119Z" fill="#2A9D8F"/>
<path opacity="0.2" d="M154.09 28.3979L157.399 36.3265L154.715 37.6992C154.715 37.6992 153.544 35.4196 152.542 32.5056L154.09 28.3979Z" fill="black"/>
<path d="M133.587 41.5527C133.615 45.9843 133.884 51.4968 134.544 58.3389H155.784C156.044 55.2197 154.741 40.5134 157.903 25.7901C158.138 24.6951 157.405 23.6287 156.298 23.4566C154.945 23.2464 153.094 23.0049 151.282 22.9174C148.574 22.7876 144.649 22.7011 142.257 22.9174C140.956 23.0356 139.683 23.2434 138.636 23.4471C136.823 23.7997 135.382 25.1533 134.903 26.936C134.444 28.6402 133.976 31.2599 133.74 35.2126C133.632 37.0346 133.572 39.1312 133.587 41.5527Z" fill="#2A9D8F"/>
<path opacity="0.2" d="M140.289 33.2163C138.886 34.2474 136.199 34.7203 133.755 34.9315C133.795 34.2826 133.845 33.669 133.901 33.0905C134.559 32.7434 135.193 32.4265 135.792 32.1348L140.289 33.2163Z" fill="black"/>
<g opacity="0.2">
<path d="M137.01 150.14L137.03 155.25H141.002L140.982 150.14H137.01Z" fill="black"/>
<path d="M165.943 146.885L162.119 147.585L163.534 152.249L167.359 151.548L165.943 146.885Z" fill="black"/>
</g>
<path d="M148.223 8.44843C148.804 12.3579 149.341 14.6094 147.834 17.0722C145.567 20.7764 140.486 20.2019 138.762 16.5883C137.21 13.3357 136.519 7.48867 139.927 5.01332C143.284 2.5747 147.641 4.53898 148.223 8.44843Z" fill="#7F3E3B"/>
<path d="M140.1 11.3025C138.628 10.6562 138.768 8.33674 139.216 7.35888C137.511 7.9459 135.046 8.28091 134.602 6.54852C134.158 4.81612 135.667 4.25727 134.744 2.77589C133.822 1.295 136.756 -0.32622 138.125 1.74219C139.495 3.81059 142.872 2.90114 145.056 0.903657C146.645 -0.54956 148.969 1.32267 148.046 3.22307C148.046 3.22307 152.825 2.91573 151.874 6.15717C150.924 9.39861 149.583 9.51581 149.89 11.8211C150.098 13.382 150.281 16.5525 148.409 16.9997C146.148 17.5399 140.501 15.5359 140.1 11.3025Z" fill="#263238"/>
<path opacity="0.2" d="M140.073 15.535C139.64 15.8469 139.192 16.1789 138.735 16.531C138.745 16.5511 138.75 16.5662 138.76 16.5863C139.233 17.5773 139.962 18.3418 140.817 18.8549C141.101 18.5788 141.26 17.6497 141.796 17.6638C143.39 17.7055 146.475 17.0395 146.986 15.2402L140.073 15.535Z" fill="black"/>
<path d="M141.311 11.2473C141.422 12.2498 141.236 13.1889 140.933 13.8006C140.478 14.7206 139.765 14.1341 139.486 13.0023C139.235 11.9832 139.169 10.2765 139.822 9.77497C140.465 9.28 141.184 10.1009 141.311 11.2473Z" fill="#7F3E3B"/>
<path d="M142.078 58.3384C142.078 58.3384 145.413 88.6804 147.447 100.048C149.676 112.496 161.215 151.57 161.215 151.57L168.328 150.055C168.328 150.055 160.385 113.501 159.315 101.177C158.154 87.8006 155.781 58.3389 155.781 58.3389L142.078 58.3384Z" fill="#2A9D8F"/>
<path opacity="0.3" d="M142.078 58.3384C142.078 58.3384 145.413 88.6804 147.447 100.048C149.676 112.496 161.215 151.57 161.215 151.57L168.328 150.055C168.328 150.055 160.385 113.501 159.315 101.177C158.211 88.4605 158.209 88.4872 155.781 58.3389L142.078 58.3384Z" fill="black"/>
<path d="M159.622 149.169C159.592 149.176 160.832 151.767 160.832 151.767L168.835 150.062L168.263 147.636L159.622 149.169Z" fill="#263238"/>
<path opacity="0.2" d="M144.508 69.1494C149.679 70.1711 148.377 89.6001 147.364 99.593C146.135 92.5292 144.46 78.9371 143.33 69.2898C143.683 69.1172 144.074 69.0629 144.508 69.1494Z" fill="black"/>
<path d="M134.545 58.3384C134.545 58.3384 132.852 88.0239 132.817 100.132C132.779 112.725 135.586 153.961 135.586 153.961H142.312C142.312 153.961 144.122 113.461 144.9 101.093C145.747 87.6089 148.505 58.3384 148.505 58.3384H134.545Z" fill="#2A9D8F"/>
<path opacity="0.3" d="M134.545 58.3384C134.545 58.3384 132.852 88.0239 132.817 100.132C132.779 112.725 135.586 153.961 135.586 153.961H142.312C142.312 153.961 144.122 113.461 144.9 101.093C145.747 87.6089 148.505 58.3384 148.505 58.3384H134.545Z" fill="black"/>
<path d="M134.395 151.282C134.364 151.282 134.667 154.074 134.667 154.074H142.848L143.166 151.583L134.395 151.282Z" fill="#263238"/>
<path d="M142.958 30.3382C142.155 30.4166 141.473 30.4574 140.737 30.479C140.014 30.5027 139.293 30.5122 138.57 30.5097C137.125 30.4936 135.675 30.4207 134.218 30.2572C132.76 30.1008 131.294 29.8648 129.819 29.5022C128.344 29.1475 126.858 28.6536 125.382 27.9272L125.214 27.8447C123.914 27.2049 123.378 25.6319 124.018 24.3316C124.087 24.1903 124.177 24.0464 124.267 23.9237C124.955 23.0002 125.621 22.3563 126.303 21.7471C126.982 21.146 127.661 20.6053 128.346 20.0912C129.712 19.0595 131.111 18.1486 132.515 17.2633C133.927 16.39 135.351 15.561 136.796 14.7723C138.251 13.9956 139.691 13.2326 141.202 12.5314C141.952 12.1828 142.843 12.5087 143.191 13.2592C143.493 13.9081 143.29 14.6621 142.744 15.0797L142.727 15.0922C141.462 16.061 140.161 17.0243 138.899 18.0102C137.628 18.9871 136.363 19.9645 135.129 20.9609C133.89 21.9473 132.683 22.9644 131.544 23.9861C130.975 24.4971 130.43 25.0183 129.94 25.5379C129.457 26.0515 128.998 26.5842 128.754 26.9881L127.639 22.9846C128.663 23.383 129.819 23.6687 131.021 23.886C132.226 24.0947 133.479 24.231 134.749 24.3196C136.02 24.4001 137.31 24.4423 138.603 24.4428C139.25 24.4468 139.899 24.4398 140.545 24.4207C141.178 24.397 141.864 24.3744 142.427 24.3432L142.496 24.3392C144.155 24.2461 145.575 25.5152 145.669 27.1742C145.76 28.7904 144.553 30.1802 142.958 30.3382Z" fill="#7F3E3B"/>
<path d="M145.774 11.7181L143.248 12.276C143.248 12.276 139.883 11.858 139.113 14.3942L141.106 16.0959L144.184 16.5823C144.672 16.6593 145.172 16.5783 145.61 16.3509L146.396 15.9435C146.757 15.7564 146.998 15.3982 147.036 14.9933L147.222 12.9968C147.297 12.19 146.565 11.5436 145.774 11.7181Z" fill="#7F3E3B"/>
<path d="M140.864 33.2779C136.634 34.4514 131.81 32.9847 131.81 32.9847L133.585 23.5113C133.585 23.5113 137.788 23.1431 140.412 23.0873C147.167 22.9444 148.492 31.1622 140.864 33.2779Z" fill="#2A9D8F"/>
<path d="M1.98533 65.4442C1.87467 65.4442 1.78161 65.3597 1.77206 65.2475L0.654352 51.8159C0.644291 51.6982 0.731816 51.5951 0.850025 51.5851C0.960689 51.5765 1.07085 51.6625 1.08091 51.7807L2.19861 65.2123C2.20867 65.33 2.12115 65.4331 2.00294 65.4432C1.9969 65.4437 1.99137 65.4442 1.98533 65.4442Z" fill="#2A9D8F"/>
<path d="M2.64879 73.4222C2.53812 73.4222 2.44507 73.3377 2.43551 73.2255L2.09698 69.1597C2.08692 69.042 2.17444 68.9388 2.29265 68.9288C2.40583 68.9142 2.51398 69.0057 2.52354 69.1244L2.86207 73.1903C2.87213 73.308 2.78461 73.4112 2.6664 73.4212C2.66086 73.4217 2.65482 73.4222 2.64879 73.4222Z" fill="#2A9D8F"/>
<path d="M115.813 111.642H11.9529C9.30298 111.642 6.95439 109.474 6.73357 106.823L0.884485 36.5152C0.664164 33.8653 2.65158 31.6968 5.30198 31.6968H109.162C111.812 31.6968 114.16 33.8648 114.381 36.5152L120.231 106.823C120.451 109.473 118.463 111.642 115.813 111.642Z" fill="white"/>
<path d="M115.813 111.843H11.9527C9.19414 111.843 6.76305 109.599 6.53368 106.841L0.684595 36.5323C0.572422 35.1908 0.995459 33.9257 1.87423 32.9704C2.74898 32.0197 3.96628 31.4961 5.30179 31.4961H109.162C111.92 31.4961 114.351 33.7406 114.581 36.4986L120.43 106.806C120.543 108.148 120.119 109.412 119.241 110.367C118.365 111.318 117.148 111.843 115.813 111.843ZM5.30179 31.898C4.07996 31.898 2.96779 32.3754 2.17001 33.2426C1.36769 34.1138 0.98238 35.2702 1.08449 36.4991L6.93358 106.807C7.14635 109.362 9.39786 111.441 11.9532 111.441H115.813C117.035 111.441 118.148 110.963 118.946 110.096C119.748 109.224 120.133 108.068 120.031 106.84L114.181 36.5323C113.969 33.977 111.718 31.898 109.163 31.898H5.30179Z" fill="#2A9D8F"/>
<path d="M109.162 31.6973H5.30173C2.65184 31.6973 0.663916 33.8653 0.884237 36.5157H114.38C114.16 33.8653 111.812 31.6973 109.162 31.6973Z" fill="#2A9D8F"/>
<path d="M7.73288 34.1061C7.78067 34.6801 7.3541 35.1454 6.78016 35.1454C6.20622 35.1454 5.7022 34.6801 5.65441 34.1061C5.60662 33.5322 6.03318 33.0669 6.60713 33.0669C7.18107 33.0669 7.68509 33.5322 7.73288 34.1061Z" fill="white"/>
<path d="M11.9583 34.1061C12.0061 34.6801 11.5796 35.1454 11.0056 35.1454C10.4317 35.1454 9.92815 34.6801 9.88036 34.1061C9.83258 33.5322 10.2591 33.0669 10.8331 33.0669C11.407 33.0669 11.9105 33.5322 11.9583 34.1061Z" fill="white"/>
<path d="M16.1837 34.1061C16.2315 34.6801 15.8049 35.1454 15.231 35.1454C14.657 35.1454 14.153 34.6801 14.1057 34.1061C14.0579 33.5322 14.4845 33.0669 15.0584 33.0669C15.6324 33.0669 16.1359 33.5322 16.1837 34.1061Z" fill="white"/>
<path d="M106.8 102.428H19.433C17.3264 102.428 15.4597 100.705 15.2841 98.5981L11.2042 49.5595C11.0291 47.4528 12.6091 45.7295 14.7157 45.7295H102.082C104.188 45.7295 106.055 47.4528 106.231 49.5595L110.311 98.5981C110.486 100.705 108.906 102.428 106.8 102.428Z" fill="#F0F0F0"/>
<path opacity="0.1" d="M79.7805 54.3161L52.7141 86.9031C49.0014 91.3734 51.3535 98.1877 57.033 99.4161L100.933 108.911C106.995 110.222 112.061 104.227 109.757 98.4684L92.9238 56.387C90.7443 50.9378 83.5305 49.8015 79.7805 54.3161Z" fill="#263238"/>
<path opacity="0.1" d="M19.5381 58.8847L10.1111 84.2699C8.85305 87.6573 11.5769 91.1925 15.173 90.8399L42.7026 88.1402C46.5627 87.7614 48.4672 83.2549 46.0482 80.2227L27.9461 57.5366C25.5728 54.5633 20.8626 55.3183 19.5381 58.8847Z" fill="#263238"/>
<path d="M89.117 46.1112L63.8147 82.8501C60.3681 87.8546 63.4214 94.7339 69.4445 95.5352L115.956 101.725C122.412 102.584 127.212 95.8903 124.327 90.0513L103.118 47.1223C100.366 41.5529 92.6411 40.9945 89.117 46.1112Z" fill="#2A9D8F"/>
<path d="M70.5487 92.2423C68.857 92.0175 67.3867 90.9506 66.6156 89.3897C65.8445 87.8284 65.933 86.099 66.853 84.7625L92.2192 47.931C93.1392 46.5955 94.6985 45.9321 96.3897 46.1569C98.0813 46.3823 99.5516 47.4486 100.323 49.0095L121.585 92.0467C122.357 93.608 122.268 95.3374 121.347 96.6739C120.427 98.0094 118.868 98.6729 117.177 98.448L70.5487 92.2423Z" fill="white"/>
<path d="M94.2296 59.1762L97.1918 59.5705C99.0968 59.8241 100.563 61.5569 100.466 63.4407L100.267 67.3049C100.26 67.4468 100.244 67.5871 100.219 67.7249L98.1114 79.3698C97.8075 81.0479 96.2744 82.1334 94.5349 81.902C92.7915 81.6701 91.3885 80.1882 91.2648 78.4488L90.4102 66.4146C90.4001 66.2752 90.3991 66.1359 90.4062 65.9976L90.6048 62.1289C90.7019 60.2446 92.3247 58.9226 94.2296 59.1762ZM93.9932 85.1117L94.801 85.2194C96.5052 85.4462 97.8161 86.996 97.7296 88.6811C97.6431 90.3663 96.1914 91.5483 94.4871 91.322L93.6793 91.2143C91.9751 90.9875 90.6642 89.4377 90.7507 87.7526C90.8377 86.0675 92.2895 84.8849 93.9932 85.1117Z" fill="#2A9D8F"/>
<path d="M29.2686 51.7268L22.3214 78.0718C21.4014 81.5602 24.4461 84.8097 27.9869 84.1186L54.9345 78.8605C58.7212 78.1216 60.2011 73.4943 57.5462 70.6951L37.5462 49.6081C34.9094 46.8284 30.2454 48.0221 29.2686 51.7268Z" fill="#2A9D8F"/>
<path d="M27.9356 81.9851C26.9557 82.1762 25.9361 81.8326 25.2092 81.066C24.4819 80.2989 24.1982 79.2693 24.4512 78.311L31.416 51.8996C31.6685 50.9419 32.4044 50.2557 33.3848 50.0646C34.3647 49.8735 35.3843 50.217 36.1111 50.9836L56.1619 72.1239C56.8893 72.891 57.173 73.9207 56.9199 74.8789C56.6674 75.8367 55.9315 76.5228 54.9516 76.7139L27.9356 81.9851Z" fill="white"/>
<path d="M34.6912 58.1L36.4075 57.765C37.5111 57.5497 38.6564 58.2846 38.9648 59.4058L39.5981 61.7061C39.6212 61.7906 39.6393 61.8756 39.6519 61.9612L40.7238 69.1825C40.8783 70.2232 40.2379 71.1513 39.2304 71.348C38.2203 71.5451 37.1585 70.945 36.7555 69.9506L33.9678 63.0668C33.9356 62.9868 33.908 62.9058 33.8853 62.8233L33.2515 60.52C32.9432 59.3993 33.5875 58.3153 34.6912 58.1ZM39.5478 73.3324L40.0161 73.2408C41.0035 73.0482 42.0277 73.7056 42.3038 74.7086C42.58 75.7121 42.0035 76.6814 41.0161 76.8741L40.5483 76.9656C39.5609 77.1583 38.5367 76.5009 38.2606 75.4978C37.9839 74.4943 38.5604 73.525 39.5478 73.3324Z" fill="#2A9D8F"/>
</svg>
