<svg width="24" height="24" viewBox="0 0 24 24" fill="none" xmlns="http://www.w3.org/2000/svg">
<path d="M20.7563 10.3031C20.7563 11.3119 21.7406 12.4631 21.4463 13.3725C21.1388 14.3138 19.6556 14.6663 19.0856 15.45C19.035 15.5231 18.9881 15.5981 18.9469 15.6806C18.5231 16.5075 18.5588 17.8125 17.8369 18.3375C17.0531 18.9075 15.6506 18.3281 14.7075 18.6337C14.4975 18.7013 14.2969 18.8231 14.0981 18.9675C13.425 19.4587 12.7781 20.2313 12.0019 20.2313C11.2256 20.2313 10.5769 19.4569 9.90563 18.9675C9.70688 18.8231 9.50438 18.7013 9.29626 18.6337C8.35501 18.3263 6.95063 18.9075 6.16688 18.3375C5.44501 17.8144 5.48063 16.5075 5.05688 15.6806C5.01563 15.5981 4.96876 15.5231 4.91813 15.45C4.34813 14.6663 2.86313 14.3138 2.55751 13.3725C2.26313 12.4631 3.24751 11.3119 3.24751 10.3031C3.24751 9.29438 2.26313 8.14313 2.55751 7.23375C2.86501 6.2925 4.34813 5.94 4.91813 5.15625C5.49563 4.36313 5.37376 2.84625 6.16688 2.26875C6.95063 1.69875 8.35313 2.27813 9.29626 1.9725C10.2019 1.67813 10.9913 0.375 12 0.375C13.0088 0.375 13.7981 1.67812 14.7075 1.97438C15.6488 2.28187 17.0531 1.70062 17.8369 2.27062C18.63 2.84625 18.51 4.36313 19.0856 5.15812C19.6556 5.94187 21.1406 6.29437 21.4463 7.23563C21.7406 8.14313 20.7563 9.29438 20.7563 10.3031Z" fill="#FFE36E"/>
<path d="M12 17.115C15.7621 17.115 18.8119 14.0652 18.8119 10.3031C18.8119 6.54099 15.7621 3.49121 12 3.49121C8.23789 3.49121 5.18811 6.54099 5.18811 10.3031C5.18811 14.0652 8.23789 17.115 12 17.115Z" fill="#FFAA39"/>
<path d="M12.5306 6.54189L13.3013 8.10377C13.3875 8.27814 13.5544 8.40002 13.7456 8.42814L15.4706 8.67939C15.9563 8.75064 16.1494 9.34502 15.7988 9.68814L14.5519 10.905C14.4131 11.04 14.3494 11.2369 14.3813 11.4281L14.6756 13.1456C14.7581 13.6294 14.2519 13.9969 13.8169 13.7681L12.2756 12.9581C12.1909 12.9138 12.0966 12.8906 12.001 12.8906C11.9053 12.8906 11.811 12.9138 11.7263 12.9581L10.185 13.7681C9.7519 13.9969 9.24377 13.6275 9.32627 13.1456L9.62065 11.4281C9.6544 11.2369 9.59065 11.04 9.45002 10.905L8.20315 9.68814C7.85252 9.34689 8.04565 8.75064 8.53127 8.67939L10.2563 8.42814C10.4494 8.40002 10.6144 8.28002 10.7006 8.10377L11.4713 6.54189C11.6869 6.10127 12.3131 6.10127 12.5306 6.54189Z" fill="#FFFEEB"/>
<path d="M9.90377 18.9675L8.1244 23.5313L5.78064 21.6807L2.80127 21.4575L5.05314 15.6807C5.47689 16.5075 5.44127 17.8125 6.16314 18.3375C6.9469 18.9075 8.3494 18.3282 9.29252 18.6338C9.50252 18.7013 9.70315 18.8232 9.90377 18.9675ZM21.1969 21.4575L18.2175 21.6807L15.8738 23.5313L14.0944 18.9675C14.2931 18.8232 14.4956 18.7013 14.7038 18.6338C15.645 18.3263 17.0494 18.9075 17.8331 18.3375C18.555 17.8144 18.5194 16.5075 18.9431 15.6807L21.1969 21.4575Z" fill="#3980E5"/>
</svg>
