<svg width="16" height="16" viewBox="0 0 16 16" fill="none" xmlns="http://www.w3.org/2000/svg">
<path d="M7.15334 3.38216C7.43439 3.34962 7.71709 3.33337 8.00001 3.3335C11.1093 3.3335 13.6 5.26883 14.6667 8.00016C14.4084 8.66453 14.0596 9.29001 13.63 9.85883M4.34668 4.34616C2.98668 5.17616 1.93334 6.46216 1.33334 8.00016C2.40001 10.7315 4.89068 12.6668 8.00001 12.6668C9.2881 12.6736 10.5528 12.3228 11.6533 11.6535M6.58668 6.58683C6.40094 6.77256 6.25361 6.99306 6.15309 7.23573C6.05258 7.4784 6.00084 7.7385 6.00084 8.00116C6.00084 8.26383 6.05258 8.52392 6.15309 8.76659C6.25361 9.00927 6.40094 9.22976 6.58668 9.4155C6.77241 9.60123 6.99291 9.74856 7.23558 9.84908C7.47825 9.9496 7.73834 10.0013 8.00101 10.0013C8.26368 10.0013 8.52377 9.9496 8.76644 9.84908C9.00911 9.74856 9.22961 9.60123 9.41534 9.4155" stroke="#439DB6" stroke-width="2" stroke-linecap="round" stroke-linejoin="round"/>
<path d="M2.66669 2.66675L13.3334 13.3334" stroke="#439DB6" stroke-width="2" stroke-linecap="round"/>
</svg>
