<svg width="20" height="20" viewBox="0 0 20 20" fill="none" xmlns="http://www.w3.org/2000/svg">
<path fill-rule="evenodd" clip-rule="evenodd" d="M13.6617 1.68416L13.7167 1.69916C14.6333 1.94499 15.3592 2.13916 15.93 2.34582C16.5142 2.55666 16.9908 2.79749 17.3833 3.16499C17.9546 3.70043 18.3542 4.39325 18.5317 5.15582C18.6542 5.67916 18.625 6.21249 18.515 6.82332C18.4092 7.42166 18.215 8.14749 17.9692 9.06332L17.5225 10.7292C17.2775 11.645 17.0825 12.3708 16.8767 12.9425C16.665 13.5258 16.4242 14.0025 16.0567 14.395C15.5387 14.948 14.8729 15.3408 14.1383 15.5267C13.9231 16.0201 13.6095 16.4644 13.2167 16.8325C12.8242 17.2 12.3475 17.4408 11.7633 17.6525C11.1925 17.8592 10.4667 18.0533 9.55082 18.2992L9.49499 18.3142C8.57832 18.5592 7.85332 18.7533 7.25499 18.8608C6.64416 18.97 6.11082 18.9992 5.58665 18.8775C4.82418 18.6994 4.13165 18.2992 3.59665 17.7275C3.22999 17.3358 2.98832 16.8592 2.77666 16.275C2.57082 15.7042 2.37666 14.9783 2.13082 14.0617L1.68416 12.3967C1.43916 11.48 1.24416 10.755 1.13749 10.1567C1.02832 9.54582 0.999155 9.01249 1.12082 8.48832C1.2989 7.72585 1.69911 7.03332 2.27082 6.49832C2.66249 6.13166 3.13915 5.88999 3.72332 5.67832C4.29415 5.47249 5.01999 5.27832 5.93582 5.03249L5.96415 5.02416L6.58999 4.85749C6.91665 3.69166 7.20332 2.86749 7.76332 2.26999C8.29842 1.69858 8.99095 1.29867 9.75332 1.12082C10.2775 0.999155 10.81 1.02832 11.4217 1.13749C12.0192 1.24416 12.745 1.43916 13.6617 1.68416ZM6.21249 6.25249C5.30165 6.49665 4.64916 6.67332 4.14749 6.85416C3.63916 7.03749 3.34166 7.20749 3.12499 7.41082C2.73386 7.77692 2.4601 8.25079 2.33832 8.77249C2.27166 9.06249 2.27249 9.40582 2.36832 9.93666C2.46416 10.4758 2.64499 11.1508 2.89916 12.1008L3.33082 13.7108C3.58499 14.6608 3.76665 15.3358 3.95249 15.85C4.13582 16.3583 4.30582 16.6567 4.50915 16.8733C4.87525 17.2644 5.34912 17.5382 5.87082 17.66C6.15999 17.7267 6.50415 17.725 7.03499 17.63C7.57415 17.5342 8.24915 17.3533 9.19915 17.0992C10.1492 16.8442 10.8242 16.6633 11.3392 16.4767C11.8467 16.2933 12.145 16.1233 12.3617 15.9208C12.4767 15.8125 12.5811 15.6961 12.675 15.5717C12.5204 15.5496 12.3664 15.5232 12.2133 15.4925C11.6533 15.3808 10.98 15.2008 10.1508 14.9783L10.1025 14.9658C9.18665 14.72 8.46082 14.5258 7.88999 14.3192C7.30582 14.1083 6.82915 13.8675 6.43665 13.5C5.8651 12.9647 5.46518 12.2718 5.28749 11.5092C5.16582 10.9858 5.19499 10.4525 5.30415 9.84166C5.41082 9.24332 5.60582 8.51749 5.85082 7.60166L6.21249 6.25249ZM11.2017 2.36832C10.67 2.27249 10.3267 2.27082 10.0375 2.33832C9.51578 2.4601 9.04192 2.73386 8.67582 3.12499C8.31249 3.51249 8.08832 4.11249 7.69999 5.53582L7.49749 6.28749L7.06582 7.89749C6.81165 8.84749 6.63082 9.52249 6.53499 10.0617C6.43915 10.5925 6.43749 10.9367 6.50499 11.2258C6.62677 11.7475 6.90053 12.2214 7.29165 12.5875C7.50832 12.7908 7.80665 12.96 8.31415 13.1442C8.82915 13.33 9.50415 13.5108 10.4542 13.7658C11.3083 13.995 11.9417 14.1642 12.4567 14.2658C12.9692 14.3683 13.3175 14.3933 13.6025 14.3583C13.6647 14.35 13.7247 14.3394 13.7825 14.3267C14.3042 14.2049 14.7781 13.9311 15.1442 13.54C15.3475 13.3233 15.5175 13.025 15.7008 12.5175C15.8867 12.0025 16.0675 11.3275 16.3225 10.3775L16.7542 8.76749C17.0083 7.81749 17.1892 7.14249 17.285 6.60332C17.38 6.07249 17.3825 5.72832 17.315 5.43916C17.1932 4.91745 16.9194 4.44358 16.5283 4.07749C16.3117 3.87416 16.0133 3.70499 15.5058 3.52082C14.99 3.33499 14.3158 3.15416 13.3658 2.89916C12.4158 2.64499 11.7408 2.46416 11.2017 2.36832ZM9.20999 8.17166C9.23126 8.09236 9.26794 8.01803 9.31794 7.95292C9.36795 7.88781 9.43029 7.83318 9.50141 7.79217C9.57252 7.75115 9.65103 7.72455 9.73243 7.71388C9.81383 7.70321 9.89653 7.70869 9.97582 7.72999L14.0008 8.80832C14.1565 8.85513 14.2878 8.96074 14.3669 9.10276C14.446 9.24477 14.4666 9.41202 14.4245 9.56901C14.3823 9.72599 14.2806 9.86037 14.141 9.94364C14.0014 10.0269 13.8348 10.0525 13.6767 10.015L9.65165 8.93666C9.4917 8.89369 9.35533 8.78899 9.27252 8.64555C9.18971 8.50211 9.16722 8.33167 9.20999 8.17166ZM8.56249 10.5867C8.58375 10.5073 8.62046 10.4329 8.67052 10.3677C8.72058 10.3025 8.783 10.2478 8.85422 10.2068C8.92543 10.1658 9.00403 10.1392 9.08553 10.1286C9.16702 10.118 9.24981 10.1236 9.32915 10.145L11.7433 10.7917C11.9034 10.8345 12.04 10.9393 12.1229 11.0828C12.2058 11.2263 12.2283 11.3969 12.1854 11.5571C12.1425 11.7172 12.0378 11.8537 11.8943 11.9366C11.7507 12.0195 11.5801 12.042 11.42 11.9992L9.00499 11.3517C8.84503 11.3087 8.70867 11.204 8.62585 11.0605C8.54304 10.9171 8.52055 10.7467 8.56332 10.5867" fill="#439DB6"/>
</svg>
