<svg width="24" height="24" viewBox="0 0 24 24" fill="none" xmlns="http://www.w3.org/2000/svg">
<path d="M12.002 9.00684C10.897 9.00684 10.002 9.67884 10.002 10.5068C10.002 11.3358 10.897 12.0068 12.002 12.0068C13.107 12.0068 14.002 12.6788 14.002 13.5068C14.002 14.3358 13.106 15.0068 12.002 15.0068M12.002 9.00684C12.872 9.00684 13.614 9.42384 13.888 10.0068M12.002 9.00684V8.00684M12.002 15.0068C11.132 15.0068 10.39 14.5898 10.116 14.0068M12.002 15.0068V16.0068" stroke="#05E82C" stroke-width="1.5" stroke-linecap="round" stroke-linejoin="round"/>
<path d="M13 2.50684H12C7.522 2.50684 5.282 2.50684 3.891 3.89784C2.5 5.28884 2.5 7.52784 2.5 12.0078C2.5 16.4848 2.5 18.7248 3.891 20.1158C5.282 21.5068 7.521 21.5068 12 21.5068C16.478 21.5068 18.718 21.5068 20.109 20.1158C21.5 18.7248 21.5 16.4858 21.5 12.0068V11.0068" stroke="#05E82C" stroke-width="1.5" stroke-linecap="round" stroke-linejoin="round"/>
<path d="M21.488 2.49316L17.313 6.67016M16.488 3.01416L16.607 6.10516C16.607 6.83416 17.042 7.28816 17.834 7.34516L20.958 7.49216" stroke="#05E82C" stroke-width="1.5" stroke-linecap="round" stroke-linejoin="round"/>
</svg>
