<svg width="48" height="48" viewBox="0 0 48 48" fill="none" xmlns="http://www.w3.org/2000/svg">
<path d="M42 10H36V8C36 6.4087 35.3679 4.88258 34.2426 3.75736C33.1174 2.63214 31.5913 2 30 2H18C16.4087 2 14.8826 2.63214 13.7574 3.75736C12.6321 4.88258 12 6.4087 12 8V10H6C5.46957 10 4.96086 10.2107 4.58579 10.5858C4.21071 10.9609 4 11.4696 4 12C4 12.5304 4.21071 13.0391 4.58579 13.4142C4.96086 13.7893 5.46957 14 6 14H6.12L7.54 36.62C7.69798 39.1633 8.82089 41.5503 10.6794 43.2936C12.5379 45.0369 14.9918 46.0049 17.54 46H30.5C33.0482 46.0049 35.5021 45.0369 37.3606 43.2936C39.2191 41.5503 40.342 39.1633 40.5 36.62L41.88 14H42C42.5304 14 43.0391 13.7893 43.4142 13.4142C43.7893 13.0391 44 12.5304 44 12C44 11.4696 43.7893 10.9609 43.4142 10.5858C43.0391 10.2107 42.5304 10 42 10ZM16 8C16 7.46957 16.2107 6.96086 16.5858 6.58579C16.9609 6.21071 17.4696 6 18 6H30C30.5304 6 31.0391 6.21071 31.4142 6.58579C31.7893 6.96086 32 7.46957 32 8V10H16V8ZM36.48 36.38C36.3833 37.9045 35.7087 39.3348 34.5938 40.3791C33.4788 41.4233 32.0076 42.0031 30.48 42H17.52C15.9924 42.0031 14.5212 41.4233 13.4063 40.3791C12.2913 39.3348 11.6167 37.9045 11.52 36.38L10.12 14H37.88L36.48 36.38Z" fill="#3F3024" stroke="#FFF9F0"/>
<path d="M20 20C19.4696 20 18.9609 20.2107 18.5858 20.5858C18.2107 20.9609 18 21.4696 18 22V34C18 34.5304 18.2107 35.0391 18.5858 35.4142C18.9609 35.7893 19.4696 36 20 36C20.5304 36 21.0391 35.7893 21.4142 35.4142C21.7893 35.0391 22 34.5304 22 34V22C22 21.4696 21.7893 20.9609 21.4142 20.5858C21.0391 20.2107 20.5304 20 20 20ZM28 20C27.4696 20 26.9609 20.2107 26.5858 20.5858C26.2107 20.9609 26 21.4696 26 22V34C26 34.5304 26.2107 35.0391 26.5858 35.4142C26.9609 35.7893 27.4696 36 28 36C28.5304 36 29.0391 35.7893 29.4142 35.4142C29.7893 35.0391 30 34.5304 30 34V22C30 21.4696 29.7893 20.9609 29.4142 20.5858C29.0391 20.2107 28.5304 20 28 20Z" fill="#B8574D" stroke="#FFF9F0"/>
</svg>
