<svg width="20" height="20" viewBox="0 0 20 20" fill="none" xmlns="http://www.w3.org/2000/svg">
<path d="M7.5 4.16676C7.27899 4.16676 7.06702 4.25455 6.91074 4.41083C6.75446 4.56711 6.66667 4.77908 6.66667 5.00009C6.66667 5.2211 6.75446 5.43306 6.91074 5.58934C7.06702 5.74562 7.27899 5.83342 7.5 5.83342C7.72101 5.83342 7.93297 5.74562 8.08925 5.58934C8.24553 5.43306 8.33333 5.2211 8.33333 5.00009C8.33333 4.77908 8.24553 4.56711 8.08925 4.41083C7.93297 4.25455 7.72101 4.16676 7.5 4.16676ZM5.14167 4.16676C5.31383 3.67881 5.63312 3.25628 6.0555 2.95741C6.47788 2.65854 6.98257 2.49805 7.5 2.49805C8.01743 2.49805 8.52212 2.65854 8.9445 2.95741C9.36688 3.25628 9.68616 3.67881 9.85833 4.16676H15.8333C16.0543 4.16676 16.2663 4.25455 16.4226 4.41083C16.5789 4.56711 16.6667 4.77908 16.6667 5.00009C16.6667 5.2211 16.5789 5.43306 16.4226 5.58934C16.2663 5.74562 16.0543 5.83342 15.8333 5.83342H9.85833C9.68616 6.32137 9.36688 6.74389 8.9445 7.04277C8.52212 7.34164 8.01743 7.50213 7.5 7.50213C6.98257 7.50213 6.47788 7.34164 6.0555 7.04277C5.63312 6.74389 5.31383 6.32137 5.14167 5.83342H4.16667C3.94565 5.83342 3.73369 5.74562 3.57741 5.58934C3.42113 5.43306 3.33333 5.2211 3.33333 5.00009C3.33333 4.77908 3.42113 4.56711 3.57741 4.41083C3.73369 4.25455 3.94565 4.16676 4.16667 4.16676H5.14167ZM12.5 9.16676C12.279 9.16676 12.067 9.25455 11.9107 9.41083C11.7545 9.56711 11.6667 9.77908 11.6667 10.0001C11.6667 10.2211 11.7545 10.4331 11.9107 10.5893C12.067 10.7456 12.279 10.8334 12.5 10.8334C12.721 10.8334 12.933 10.7456 13.0893 10.5893C13.2455 10.4331 13.3333 10.2211 13.3333 10.0001C13.3333 9.77908 13.2455 9.56711 13.0893 9.41083C12.933 9.25455 12.721 9.16676 12.5 9.16676ZM10.1417 9.16676C10.3138 8.67881 10.6331 8.25628 11.0555 7.95741C11.4779 7.65854 11.9826 7.49805 12.5 7.49805C13.0174 7.49805 13.5221 7.65854 13.9445 7.95741C14.3669 8.25628 14.6862 8.67881 14.8583 9.16676H15.8333C16.0543 9.16676 16.2663 9.25455 16.4226 9.41083C16.5789 9.56711 16.6667 9.77908 16.6667 10.0001C16.6667 10.2211 16.5789 10.4331 16.4226 10.5893C16.2663 10.7456 16.0543 10.8334 15.8333 10.8334H14.8583C14.6862 11.3214 14.3669 11.7439 13.9445 12.0428C13.5221 12.3416 13.0174 12.5021 12.5 12.5021C11.9826 12.5021 11.4779 12.3416 11.0555 12.0428C10.6331 11.7439 10.3138 11.3214 10.1417 10.8334H4.16667C3.94565 10.8334 3.73369 10.7456 3.57741 10.5893C3.42113 10.4331 3.33333 10.2211 3.33333 10.0001C3.33333 9.77908 3.42113 9.56711 3.57741 9.41083C3.73369 9.25455 3.94565 9.16676 4.16667 9.16676H10.1417ZM7.5 14.1668C7.27899 14.1668 7.06702 14.2546 6.91074 14.4108C6.75446 14.5671 6.66667 14.7791 6.66667 15.0001C6.66667 15.2211 6.75446 15.4331 6.91074 15.5893C7.06702 15.7456 7.27899 15.8334 7.5 15.8334C7.72101 15.8334 7.93297 15.7456 8.08925 15.5893C8.24553 15.4331 8.33333 15.2211 8.33333 15.0001C8.33333 14.7791 8.24553 14.5671 8.08925 14.4108C7.93297 14.2546 7.72101 14.1668 7.5 14.1668ZM5.14167 14.1668C5.31383 13.6788 5.63312 13.2563 6.0555 12.9574C6.47788 12.6585 6.98257 12.498 7.5 12.498C8.01743 12.498 8.52212 12.6585 8.9445 12.9574C9.36688 13.2563 9.68616 13.6788 9.85833 14.1668H15.8333C16.0543 14.1668 16.2663 14.2546 16.4226 14.4108C16.5789 14.5671 16.6667 14.7791 16.6667 15.0001C16.6667 15.2211 16.5789 15.4331 16.4226 15.5893C16.2663 15.7456 16.0543 15.8334 15.8333 15.8334H9.85833C9.68616 16.3214 9.36688 16.7439 8.9445 17.0428C8.52212 17.3416 8.01743 17.5021 7.5 17.5021C6.98257 17.5021 6.47788 17.3416 6.0555 17.0428C5.63312 16.7439 5.31383 16.3214 5.14167 15.8334H4.16667C3.94565 15.8334 3.73369 15.7456 3.57741 15.5893C3.42113 15.4331 3.33333 15.2211 3.33333 15.0001C3.33333 14.7791 3.42113 14.5671 3.57741 14.4108C3.73369 14.2546 3.94565 14.1668 4.16667 14.1668H5.14167Z" fill="#439DB6"/>
</svg>
