<svg width="20" height="20" viewBox="0 0 20 20" fill="none" xmlns="http://www.w3.org/2000/svg">
<path d="M5.87492 8.89822C5.94263 8.89822 6.01815 8.90864 6.10148 8.92947C6.18481 8.9503 6.26814 8.97895 6.35147 9.01541C6.4348 9.05186 6.51813 9.08572 6.60146 9.11697C6.6848 9.14821 6.76031 9.17946 6.82802 9.21071L6.70302 9.22634C6.66136 9.23155 6.61709 9.23415 6.57022 9.23415C6.48168 9.23415 6.40095 9.22113 6.32803 9.19509C6.25512 9.16905 6.18741 9.13519 6.12491 9.09353C6.06242 9.05186 5.99992 9.02061 5.93742 8.99978C5.87492 8.97895 5.81763 8.96332 5.76555 8.95291C5.71347 8.95291 5.66659 8.96332 5.62493 8.98416C5.58326 9.00499 5.5416 9.02843 5.49993 9.05447C5.49993 9.03363 5.4817 9.02322 5.44524 9.02322C5.4817 8.98676 5.54941 8.95812 5.64836 8.93728C5.74732 8.91645 5.82284 8.90343 5.87492 8.89822ZM6.92958 9.24977C7.14312 9.24977 7.33843 9.28623 7.5155 9.35915C7.44259 9.38519 7.36967 9.40602 7.29676 9.42165C7.22384 9.43727 7.14833 9.44769 7.0702 9.45289C6.96604 9.45289 6.87229 9.44248 6.78896 9.42165C6.815 9.37998 6.84104 9.35394 6.86708 9.34352C6.89312 9.33311 6.91396 9.30186 6.92958 9.24977ZM9.99982 1.99996C10.7342 1.99996 11.4399 2.09631 12.117 2.28901C12.794 2.48171 13.4294 2.74994 14.0232 3.09368C14.6169 3.43742 15.1585 3.85668 15.6481 4.35146C16.1377 4.84624 16.5543 5.38529 16.8981 5.96861C17.2418 6.55193 17.5126 7.18733 17.7106 7.87481C17.9085 8.56229 18.0048 9.27061 17.9996 9.99976C17.9996 10.7341 17.9033 11.4398 17.7106 12.1169C17.5179 12.794 17.2496 13.4294 16.9059 14.0231C16.5622 14.6168 16.1429 15.1585 15.6481 15.6481C15.1533 16.1376 14.6143 16.5543 14.031 16.898C13.4476 17.2418 12.8122 17.5126 12.1248 17.7105C11.4373 17.9084 10.729 18.0048 9.99982 17.9996C9.26546 17.9996 8.55975 17.9032 7.88268 17.7105C7.20562 17.5178 6.57022 17.2496 5.97648 16.9058C5.38275 16.5621 4.84109 16.1428 4.35152 15.6481C3.86195 15.1533 3.44529 14.6142 3.10155 14.0309C2.75781 13.4476 2.48698 12.8122 2.28907 12.1247C2.09116 11.4372 1.99481 10.7289 2.00002 9.99976C2.00002 9.2654 2.09637 8.55969 2.28907 7.88262C2.48178 7.20555 2.75 6.57015 3.09374 5.97642C3.43748 5.38268 3.85674 4.84103 4.35152 4.35146C4.8463 3.86189 5.38535 3.44523 5.96867 3.10149C6.55199 2.75775 7.18739 2.48692 7.87487 2.28901C8.56235 2.0911 9.27067 1.99475 9.99982 1.99996ZM15.9528 6.33578C15.8799 6.2212 15.807 6.11183 15.734 6.00767C15.6611 5.9035 15.5856 5.79674 15.5075 5.68736C15.4971 5.73424 15.4841 5.76809 15.4684 5.78892C15.4528 5.80976 15.4424 5.85663 15.4372 5.92955C15.4372 5.97642 15.4554 6.02069 15.4919 6.06235C15.5283 6.10402 15.5752 6.14569 15.6325 6.18735C15.6898 6.22902 15.7471 6.26027 15.8044 6.2811C15.8616 6.30193 15.9111 6.32016 15.9528 6.33578ZM15.4137 5.57018C15.4137 5.61184 15.4059 5.64049 15.3903 5.65611H15.4372C15.458 5.65611 15.4736 5.65872 15.4841 5.66393L15.4137 5.57018ZM9.99982 16.9996C10.5936 16.9996 11.1743 16.9241 11.742 16.773C12.3097 16.622 12.8461 16.4084 13.3513 16.1324C13.8565 15.8564 14.3252 15.5178 14.7575 15.1168C15.1898 14.7158 15.5674 14.2679 15.8903 13.7731C15.8226 13.6169 15.7575 13.458 15.695 13.2965C15.6325 13.1351 15.6012 12.9684 15.6012 12.7966C15.6012 12.6091 15.6091 12.458 15.6247 12.3434C15.6403 12.2289 15.6585 12.1273 15.6794 12.0388C15.7002 11.9502 15.7106 11.8747 15.7106 11.8122C15.7106 11.7497 15.7028 11.669 15.6872 11.57C15.6715 11.4711 15.6273 11.3643 15.5544 11.2497C15.4815 11.1351 15.3851 10.9737 15.2653 10.7654C15.2705 10.7289 15.2783 10.6794 15.2887 10.6169C15.2992 10.5544 15.3096 10.4893 15.32 10.4216C15.3304 10.3539 15.333 10.2914 15.3278 10.2341C15.3226 10.1768 15.3096 10.1274 15.2887 10.0857C15.1533 10.0701 15.0127 10.0414 14.8669 9.99976C14.7211 9.95809 14.5908 9.89559 14.4763 9.81226L14.5231 9.7732C14.4554 9.78882 14.3877 9.80966 14.32 9.8357C14.2523 9.86174 14.1872 9.89038 14.1247 9.92163C14.0622 9.95288 13.9945 9.97371 13.9216 9.98413C13.8487 9.99455 13.7784 10.005 13.7107 10.0154L13.5857 9.99976L13.6091 9.94507C13.5362 9.9659 13.4581 9.99194 13.3747 10.0232C13.2914 10.0544 13.2107 10.0701 13.1326 10.0701C13.0805 10.0701 13.0049 10.0518 12.906 10.0154C12.807 9.97892 12.7081 9.93465 12.6091 9.88257C12.5102 9.83049 12.4216 9.7732 12.3435 9.7107C12.2654 9.6482 12.2263 9.58831 12.2263 9.53102L12.2419 9.50758C12.2159 9.47633 12.1821 9.44769 12.1404 9.42165C12.0987 9.3956 12.0597 9.36956 12.0232 9.34352C11.9867 9.31748 11.9529 9.28884 11.9216 9.25759C11.8904 9.22634 11.8774 9.18988 11.8826 9.14821L11.9685 9.0779L11.7888 9.05447L11.7263 8.8201C11.7368 8.84614 11.7602 8.85656 11.7966 8.85135C11.8331 8.84614 11.8617 8.83572 11.8826 8.8201L11.6013 8.67166L11.7966 8.17168C11.7237 7.90085 11.7055 7.69252 11.742 7.54669C11.7784 7.40086 11.8487 7.28107 11.9529 7.18733C12.0571 7.09358 12.1716 6.99983 12.2966 6.90608C12.4216 6.81234 12.5492 6.68473 12.6794 6.52328L12.656 6.42953L13.1716 5.80455L13.2888 5.78892C13.4346 5.78892 13.5987 5.78372 13.781 5.7733C13.9633 5.76288 14.1482 5.74465 14.3356 5.71861C14.5231 5.69257 14.708 5.66653 14.8903 5.64049C15.0726 5.61445 15.2393 5.5806 15.3903 5.53893C15.2236 5.34102 15.0492 5.15352 14.8669 4.97644C14.6846 4.79937 14.4893 4.6301 14.281 4.46864C14.2237 4.48948 14.1534 4.51812 14.07 4.55458C13.9867 4.59104 13.9034 4.63791 13.82 4.6952C13.7367 4.75249 13.6716 4.81499 13.6247 4.8827C13.5779 4.9504 13.5492 5.02071 13.5388 5.09363L13.5857 5.24206C13.4919 5.3931 13.3878 5.48685 13.2732 5.52331C13.1586 5.55976 13.0414 5.5806 12.9216 5.5858C12.8018 5.59101 12.6768 5.59101 12.5466 5.5858C12.4164 5.5806 12.2914 5.60403 12.1716 5.65611L12.0466 5.3905L12.1638 4.93738L12.031 4.74207L13.3825 4.32021C13.3253 4.17438 13.2315 4.06501 13.1013 3.99209C12.9711 3.91918 12.8279 3.88272 12.6716 3.88272V3.8046L13.1091 3.73429C12.6248 3.49471 12.1222 3.31242 11.6013 3.18743C11.0805 3.06243 10.5467 2.99993 9.99982 2.99993C9.5467 2.99993 9.0988 3.0442 8.6561 3.13274C8.2134 3.22128 7.78633 3.34888 7.37488 3.51554C6.96343 3.68221 6.56501 3.89053 6.1796 4.14053C5.79419 4.39052 5.44264 4.67176 5.12494 4.98426C5.26035 4.98426 5.36452 5.01811 5.43743 5.08582C5.51035 5.15352 5.57805 5.22904 5.64055 5.31237C5.70305 5.3957 5.76815 5.47122 5.83586 5.53893C5.90357 5.60664 5.99471 5.64309 6.10929 5.6483L6.23429 5.55455L6.21866 5.38268L6.47647 5.01551L6.27335 4.4374C6.29939 4.42177 6.33845 4.39573 6.39053 4.35927C6.44261 4.32281 6.48688 4.30459 6.52334 4.30459C6.67959 4.30459 6.79938 4.3124 6.88271 4.32802C6.96604 4.34365 7.03895 4.37229 7.10145 4.41396C7.16395 4.45562 7.21864 4.51552 7.26551 4.59364C7.31238 4.67176 7.3853 4.77072 7.48425 4.89051L7.7655 4.67176C7.81758 4.6926 7.90091 4.72645 8.01549 4.77332C8.13007 4.8202 8.24726 4.87749 8.36705 4.94519C8.48683 5.0129 8.58839 5.08321 8.67173 5.15613C8.75506 5.22904 8.79933 5.29675 8.80453 5.35925C8.80453 5.43737 8.77589 5.49987 8.7186 5.54674C8.66131 5.59362 8.58579 5.63268 8.49204 5.66393C8.39829 5.69518 8.30194 5.71861 8.20299 5.73424C8.10403 5.74986 8.00507 5.77069 7.90612 5.79674C7.80716 5.82278 7.73164 5.84882 7.67956 5.87486C7.62748 5.9009 7.59623 5.94517 7.58581 6.00767L8.03893 6.1561C7.93476 6.24464 7.82279 6.32537 7.703 6.39828C7.58321 6.4712 7.45821 6.53891 7.32801 6.6014L7.35926 6.73421L6.64053 7.01546V7.2342L6.58584 7.25764L6.6249 6.98421L6.59365 6.97639C6.55719 6.97639 6.53636 6.98421 6.53115 6.99983C6.52595 7.01546 6.52334 7.03368 6.52334 7.05452C6.52334 7.07535 6.52855 7.09618 6.53897 7.11702C6.54938 7.13785 6.55199 7.15347 6.54678 7.16389L6.44522 7.1092L6.46084 7.14045C6.46084 7.15608 6.46866 7.17951 6.48428 7.21076C6.4999 7.24201 6.52074 7.27066 6.54678 7.2967C6.57282 7.32274 6.59365 7.34878 6.60928 7.37482C6.6249 7.40086 6.63532 7.41388 6.64053 7.41388C6.64053 7.42951 6.63011 7.44513 6.60928 7.46076C6.58844 7.47638 6.5624 7.4868 6.53115 7.49201C6.4999 7.49721 6.47907 7.50503 6.46866 7.51544C6.45824 7.52586 6.45824 7.52846 6.46866 7.52326C6.54157 7.52326 6.55719 7.52846 6.51553 7.53888C6.47386 7.5493 6.40876 7.57534 6.32022 7.617C6.23168 7.65867 6.15095 7.71856 6.07804 7.79669C6.00513 7.87481 5.96346 7.98939 5.95304 8.14043C5.95304 8.22897 5.95565 8.3149 5.96086 8.39823C5.96606 8.48156 5.96346 8.5675 5.95304 8.65604C5.88013 8.45813 5.77076 8.30709 5.62493 8.20293C5.4791 8.09876 5.30202 8.04668 5.09369 8.04668L4.75776 8.07793L4.92182 8.1873C4.83328 8.17688 4.74214 8.16647 4.64839 8.15605C4.55464 8.14564 4.45829 8.14303 4.35933 8.14824C4.26038 8.15345 4.17184 8.17428 4.09371 8.21074C4.01559 8.2472 3.93747 8.30188 3.85935 8.3748L3.81247 8.72635C3.81247 8.89301 3.84893 9.02843 3.92184 9.13259C3.99476 9.23675 4.12236 9.29144 4.30465 9.29665C4.46089 9.29665 4.61454 9.27321 4.76557 9.22634C4.91661 9.17946 5.06504 9.12478 5.21087 9.06228C5.164 9.17686 5.11192 9.28623 5.05463 9.3904C4.99734 9.49456 4.95567 9.60914 4.92963 9.73414L5.03119 9.78101C5.15619 9.69768 5.27077 9.68466 5.37493 9.74195C5.4791 9.79924 5.58066 9.88257 5.67961 9.99194C5.77857 10.1013 5.88013 10.2133 5.98429 10.3279C6.08846 10.4425 6.20043 10.5258 6.32022 10.5779L6.0546 10.7185L5.42962 10.3669C5.43483 10.3774 5.44004 10.4008 5.44524 10.4372C5.45045 10.4737 5.44785 10.4815 5.43743 10.4607L5.15619 9.98413C4.98953 9.97892 4.81245 9.95288 4.62495 9.90601C4.43746 9.85913 4.24736 9.79664 4.05465 9.71851C3.86195 9.64039 3.68227 9.55445 3.5156 9.46071C3.34894 9.36696 3.1953 9.268 3.05468 9.16384L2.99999 9.99976C2.99999 10.6352 3.08593 11.2549 3.2578 11.8591C3.42967 12.4632 3.67185 13.0309 3.98434 13.5622C4.29683 14.0934 4.67964 14.5778 5.13275 15.0153C5.58586 15.4527 6.08846 15.8251 6.64053 16.1324C6.61448 16.023 6.61188 15.9137 6.63271 15.8043C6.65355 15.6949 6.67959 15.5856 6.71084 15.4762C6.74209 15.3668 6.77594 15.2574 6.8124 15.1481C6.84885 15.0387 6.86708 14.9267 6.86708 14.8121C6.86708 14.6455 6.84104 14.471 6.78896 14.2887C6.73688 14.1064 6.67438 13.9215 6.60146 13.734C6.52855 13.5465 6.44782 13.3617 6.35928 13.1794C6.27074 12.9971 6.20043 12.8252 6.14835 12.6638C6.09627 12.5023 6.0546 12.3513 6.02335 12.2106C5.9921 12.07 6.00773 11.9476 6.07023 11.8435L5.95304 11.7888C5.98429 11.7159 6.02596 11.6455 6.07804 11.5778C6.13012 11.5101 6.18481 11.4424 6.2421 11.3747C6.29939 11.307 6.34366 11.2341 6.37491 11.156C6.40616 11.0779 6.42439 10.9997 6.42959 10.9216C6.42959 10.8695 6.41918 10.8148 6.39834 10.7575C6.37751 10.7003 6.35928 10.6456 6.34366 10.5935L6.50772 10.6326C6.59626 10.4294 6.71604 10.2914 6.86708 10.2185C7.01812 10.1456 7.20822 10.1065 7.43738 10.1013C7.46342 10.1013 7.51811 10.1117 7.60144 10.1326C7.68477 10.1534 7.77331 10.182 7.86706 10.2185C7.96081 10.255 8.04935 10.2836 8.13268 10.3044C8.21601 10.3253 8.27851 10.3461 8.32017 10.3669C8.32017 10.4034 8.341 10.4268 8.38267 10.4372C8.42434 10.4477 8.44777 10.4659 8.45298 10.4919L8.43736 10.5544C8.45298 10.5596 8.48944 10.5779 8.54673 10.6091C8.60402 10.6404 8.66652 10.6794 8.73422 10.7263C8.80193 10.7732 8.86182 10.8148 8.91391 10.8513C8.96599 10.8878 9.00245 10.9164 9.02328 10.9372C9.11703 10.9372 9.24463 10.9685 9.40608 11.031C9.56754 11.0935 9.74462 11.1716 9.93732 11.2653C10.13 11.3591 10.3201 11.4711 10.5076 11.6013C10.6951 11.7315 10.8722 11.8617 11.0389 11.9919C11.2055 12.1221 11.3331 12.2523 11.4217 12.3825C11.5102 12.5127 11.5623 12.6273 11.5779 12.7262L11.3123 13.0075C11.3331 13.2731 11.3149 13.4762 11.2576 13.6169C11.2003 13.7575 11.1118 13.8747 10.992 13.9684C10.8722 14.0622 10.7342 14.1403 10.5779 14.2028C10.4217 14.2653 10.2524 14.3538 10.0701 14.4684C10.0701 14.5726 10.0441 14.6845 9.992 14.8043C9.93992 14.9241 9.87482 15.0387 9.7967 15.1481C9.71857 15.2574 9.62483 15.3486 9.51545 15.4215C9.40608 15.4944 9.29671 15.5309 9.18734 15.5309L8.85922 15.2809C8.86964 15.2913 8.86964 15.3095 8.85922 15.3356C8.8488 15.3616 8.83578 15.3668 8.82016 15.3512C8.87224 15.4501 8.88526 15.5647 8.85922 15.6949C8.83318 15.8251 8.78891 15.9579 8.72641 16.0934C8.66391 16.2288 8.5936 16.3564 8.51548 16.4762C8.43736 16.5959 8.36705 16.6975 8.30455 16.7808C8.58579 16.8538 8.86703 16.9084 9.14828 16.9449C9.42952 16.9814 9.71337 16.9996 9.99982 16.9996Z" fill="#439DB6"/>
</svg>
