<svg width="20" height="20" viewBox="0 0 20 20" fill="none" xmlns="http://www.w3.org/2000/svg">
<path d="M9.99998 1.66663C12.7583 1.66663 15 3.88329 15 6.62496C15 10.3416 9.99998 15.8333 9.99998 15.8333C9.99998 15.8333 4.99998 10.3416 4.99998 6.62496C4.99998 3.88329 7.24165 1.66663 9.99998 1.66663ZM9.99998 4.99996C9.55795 4.99996 9.13403 5.17555 8.82147 5.48811C8.50891 5.80067 8.33331 6.2246 8.33331 6.66663C8.33331 7.10865 8.50891 7.53258 8.82147 7.84514C9.13403 8.1577 9.55795 8.33329 9.99998 8.33329C10.442 8.33329 10.8659 8.1577 11.1785 7.84514C11.4911 7.53258 11.6666 7.10865 11.6666 6.66663C11.6666 6.2246 11.4911 5.80067 11.1785 5.48811C10.8659 5.17555 10.442 4.99996 9.99998 4.99996ZM16.6666 15.8333C16.6666 17.675 13.6833 19.1666 9.99998 19.1666C6.31665 19.1666 3.33331 17.675 3.33331 15.8333C3.33331 14.7583 4.34998 13.8 5.92498 13.1916L6.45831 13.95C5.55831 14.325 4.99998 14.8416 4.99998 15.4166C4.99998 16.5666 7.24165 17.5 9.99998 17.5C12.7583 17.5 15 16.5666 15 15.4166C15 14.8416 14.4416 14.325 13.5416 13.95L14.075 13.1916C15.65 13.8 16.6666 14.7583 16.6666 15.8333Z" fill="#439DB6"/>
</svg>
