<svg width="20" height="20" viewBox="0 0 20 20" fill="none" xmlns="http://www.w3.org/2000/svg">
<path d="M10 12.2918C9.23451 12.3473 8.47787 12.0997 7.89328 11.6024C7.30868 11.1051 6.94296 10.3979 6.875 9.63343V4.53343C6.94296 3.76894 7.30868 3.0618 7.89328 2.5645C8.47787 2.0672 9.23451 1.8196 10 1.87509C10.7655 1.8196 11.5221 2.0672 12.1067 2.5645C12.6913 3.0618 13.057 3.76894 13.125 4.53343V9.63343C13.057 10.3979 12.6913 11.1051 12.1067 11.6024C11.5221 12.0997 10.7655 12.3473 10 12.2918ZM10 3.12509C8.96667 3.12509 8.125 3.75843 8.125 4.53343V9.63343C8.125 10.4084 8.95833 11.0418 10 11.0418C11.0417 11.0418 11.875 10.4084 11.875 9.63343V4.53343C11.875 3.75843 11.0333 3.12509 10 3.12509Z" fill="#3F3024"/>
<path d="M15.625 10.1084C15.625 9.94264 15.5592 9.78367 15.4419 9.66646C15.3247 9.54925 15.1658 9.4834 15 9.4834C14.8342 9.4834 14.6753 9.54925 14.5581 9.66646C14.4408 9.78367 14.375 9.94264 14.375 10.1084C14.375 12.0584 12.4167 13.6501 10 13.6501C7.58333 13.6501 5.625 12.0584 5.625 10.1084C5.625 9.94264 5.55915 9.78367 5.44194 9.66646C5.32473 9.54925 5.16576 9.4834 5 9.4834C4.83424 9.4834 4.67527 9.54925 4.55806 9.66646C4.44085 9.78367 4.375 9.94264 4.375 10.1084C4.375 12.6084 6.58333 14.6167 9.375 14.8667C9.37031 14.9111 9.37031 14.9557 9.375 15.0001V16.8751H8.33333C8.16757 16.8751 8.0086 16.9409 7.89139 17.0581C7.77418 17.1753 7.70833 17.3343 7.70833 17.5001C7.70833 17.6658 7.77418 17.8248 7.89139 17.942C8.0086 18.0592 8.16757 18.1251 8.33333 18.1251H11.6667C11.8324 18.1251 11.9914 18.0592 12.1086 17.942C12.2258 17.8248 12.2917 17.6658 12.2917 17.5001C12.2917 17.3343 12.2258 17.1753 12.1086 17.0581C11.9914 16.9409 11.8324 16.8751 11.6667 16.8751H10.625V15.0001C10.6297 14.9557 10.6297 14.9111 10.625 14.8667C13.4167 14.6167 15.625 12.5751 15.625 10.1084Z" fill="#3F3024"/>
</svg>
