<svg width="16" height="16" viewBox="0 0 16 16" fill="none" xmlns="http://www.w3.org/2000/svg">
<path d="M8 1.66675C8.78407 1.66651 9.54756 1.91761 10.1784 2.3832C10.8093 2.84878 11.2743 3.50433 11.5052 4.25363C11.7361 5.00293 11.7207 5.80651 11.4613 6.54643C11.2019 7.28634 10.7122 7.92363 10.064 8.36475C11.1891 8.77741 12.165 9.51737 12.8659 10.4894C13.5669 11.4614 13.961 12.6209 13.9973 13.8187C14.0007 13.8852 13.9908 13.9517 13.9682 14.0143C13.9455 14.0769 13.9106 14.1344 13.8655 14.1833C13.8203 14.2323 13.7659 14.2717 13.7053 14.2993C13.6447 14.3269 13.5792 14.3421 13.5127 14.3441C13.4461 14.346 13.3798 14.3347 13.3177 14.3107C13.2556 14.2867 13.199 14.2505 13.151 14.2043C13.1031 14.1581 13.0649 14.1028 13.0386 14.0416C13.0123 13.9805 12.9985 13.9147 12.998 13.8481C12.9583 12.5491 12.4144 11.3165 11.4814 10.4117C10.5485 9.50685 9.29997 9.00082 8.00033 9.00082C6.7007 9.00082 5.45213 9.50685 4.51922 10.4117C3.58631 11.3165 3.04237 12.5491 3.00267 13.8481C2.99869 13.9807 2.94219 14.1063 2.84561 14.1972C2.74903 14.2882 2.62027 14.3371 2.48767 14.3331C2.35506 14.3291 2.22946 14.2726 2.13851 14.176C2.04755 14.0794 1.99869 13.9507 2.00267 13.8181C2.03917 12.6204 2.43326 11.4609 3.13424 10.4891C3.83522 9.51722 4.811 8.77737 5.936 8.36475C5.28779 7.92363 4.79805 7.28634 4.53867 6.54643C4.27928 5.80651 4.26391 5.00293 4.49481 4.25363C4.7257 3.50433 5.19071 2.84878 5.82157 2.3832C6.45244 1.91761 7.21593 1.66651 8 1.66675ZM5.33333 5.33342C5.33333 6.04066 5.61428 6.71894 6.11438 7.21903C6.61448 7.71913 7.29276 8.00008 8 8.00008C8.70724 8.00008 9.38552 7.71913 9.88562 7.21903C10.3857 6.71894 10.6667 6.04066 10.6667 5.33342C10.6667 4.62617 10.3857 3.94789 9.88562 3.4478C9.38552 2.9477 8.70724 2.66675 8 2.66675C7.29276 2.66675 6.61448 2.9477 6.11438 3.4478C5.61428 3.94789 5.33333 4.62617 5.33333 5.33342Z" fill="#439DB6" stroke="#439DB6" stroke-width="0.7"/>
</svg>
