<svg width="24" height="24" viewBox="0 0 24 24" fill="none" xmlns="http://www.w3.org/2000/svg">
<path d="M12 24C18.6274 24 24 18.6274 24 12C24 5.37258 18.6274 0 12 0C5.37259 0 0 5.37258 0 12C0 18.6274 5.37259 24 12 24Z" fill="#D9B26C"/>
<path fill-rule="evenodd" clip-rule="evenodd" d="M6.29199 18.6948C7.32118 22.803 16.0685 23.4201 17.6297 18.6948C15.8441 22.0023 8.01381 22.0662 6.29199 18.6948Z" fill="#D9B26C"/>
<path fill-rule="evenodd" clip-rule="evenodd" d="M2.49251 10.8578C2.06486 7.09379 9.43767 5.76329 9.88507 10.189L9.88731 10.209C9.89853 10.2424 9.90324 10.2725 9.89314 10.2888L9.86128 10.292C9.83884 10.2689 9.8301 10.2314 9.82067 10.2022C8.65686 6.57168 2.7797 7.86069 2.49251 10.8578Z" fill="#231F20"/>
<path fill-rule="evenodd" clip-rule="evenodd" d="M21.9101 10.8578C22.3377 7.09379 14.9649 5.76329 14.5175 10.189L14.5153 10.209C14.5041 10.2424 14.4994 10.2725 14.5095 10.2888L14.5413 10.292C14.5638 10.2689 14.5725 10.2314 14.5819 10.2022C15.7457 6.57168 21.6229 7.86069 21.9101 10.8578ZM14.5501 10.2655V10.2671H14.5498L14.5501 10.2655Z" fill="#231F20"/>
<path fill-rule="evenodd" clip-rule="evenodd" d="M6.29199 18.6948C7.72549 22.6967 16.1962 22.6967 17.6297 18.6948C15.9078 22.0662 8.01381 22.0662 6.29199 18.6948Z" fill="#8A5A3C"/>
<path fill-rule="evenodd" clip-rule="evenodd" d="M9.46125 6.15562C7.17963 5.13316 3.57512 6.19556 1.60156 7.64477C3.29062 5.20653 7.03581 3.88477 9.46125 6.15562Z" fill="#231F20"/>
<path fill-rule="evenodd" clip-rule="evenodd" d="M14.5068 6.15556C16.7885 5.13311 20.393 6.1955 22.3665 7.64471C20.6777 5.2067 16.9323 3.88471 14.5068 6.15556Z" fill="#231F20"/>
</svg>
