<svg width="24" height="24" viewBox="0 0 24 24" fill="none" xmlns="http://www.w3.org/2000/svg">
<path d="M12 22.2923C18.6274 22.2923 24 17.302 24 11.1462C24 4.9903 18.6274 0 12 0C5.37258 0 0 4.9903 0 11.1462C0 17.302 5.37258 22.2923 12 22.2923Z" fill="#D9B26C"/>
<path fill-rule="evenodd" clip-rule="evenodd" d="M12.4361 21.8724C12.7408 21.8724 12.9892 21.3041 12.9892 20.6076C12.9892 19.9111 12.7408 19.3428 12.4361 19.3428C12.1314 19.3428 11.8828 19.9109 11.8828 20.6076C11.8828 21.3043 12.1314 21.8724 12.4361 21.8724Z" fill="#D9B26C"/>
<path fill-rule="evenodd" clip-rule="evenodd" d="M9.77595 8.28955C9.80243 8.36833 9.82621 8.44835 9.84663 8.52983C10.3183 10.3928 9.07479 12.2582 7.06914 12.6965C5.0635 13.1346 3.05515 11.9796 2.5833 10.1166C2.56266 10.0352 2.54539 9.95367 2.53125 9.87218L6.15349 9.08087L7.63298 8.75762L9.77595 8.28955Z" fill="#D9B26C"/>
<path fill-rule="evenodd" clip-rule="evenodd" d="M14.1853 8.28955C14.1588 8.36833 14.1353 8.44835 14.1146 8.52983C13.6428 10.3928 14.8864 12.2582 16.8921 12.6965C18.8977 13.1346 20.9061 11.9796 21.3779 10.1166C21.3986 10.0352 21.4159 9.95367 21.43 9.87218L17.8077 9.08087L16.3282 8.75762L14.1853 8.28955Z" fill="#D9B26C"/>
<path fill-rule="evenodd" clip-rule="evenodd" d="M9.70172 7.9165C9.7282 7.99528 9.75175 8.07531 9.7724 8.1568C10.244 10.0197 9.00057 11.8852 6.99492 12.3235C4.98928 12.7615 2.98093 11.6065 2.50908 9.7436C2.48844 9.66212 2.47117 9.58062 2.45703 9.49914L9.70172 7.9165Z" fill="white"/>
<path fill-rule="evenodd" clip-rule="evenodd" d="M7.5586 8.38452C7.59338 8.45996 7.62166 8.53915 7.64252 8.62189C7.83773 9.39237 7.32325 10.1641 6.49375 10.3452C5.66425 10.5265 4.8334 10.0486 4.63843 9.27816C4.61756 9.19542 4.60477 9.1129 4.59961 9.03099L7.5586 8.38452Z" fill="#231F20"/>
<path fill-rule="evenodd" clip-rule="evenodd" d="M14.2985 7.9165C14.272 7.99528 14.2485 8.07531 14.2278 8.1568C13.7562 10.0197 14.9997 11.8852 17.0053 12.3235C19.0109 12.7615 21.0193 11.6065 21.4911 9.7436C21.5118 9.66212 21.5291 9.58062 21.5432 9.49914L14.2985 7.9165Z" fill="white"/>
<path fill-rule="evenodd" clip-rule="evenodd" d="M16.4407 8.38452C16.4059 8.45996 16.3777 8.53915 16.3568 8.62189C16.1616 9.39237 16.6761 10.1641 17.5056 10.3452C18.3351 10.5265 19.1659 10.0486 19.3609 9.27816C19.3818 9.19542 19.3945 9.1129 19.3997 9.03099L16.4407 8.38452Z" fill="#231F20"/>
<path fill-rule="evenodd" clip-rule="evenodd" d="M12.4476 21.6996C12.7523 21.6996 13.0009 21.1314 13.0009 20.4347C13.0009 19.738 12.7523 19.1699 12.4476 19.1699C12.1429 19.1699 11.8945 19.738 11.8945 20.4347C11.8945 21.1314 12.1429 21.6996 12.4476 21.6996Z" fill="#8A5A3C"/>
<path fill-rule="evenodd" clip-rule="evenodd" d="M12.5175 20.6918L14.5806 22.9276C14.6443 22.9059 14.7132 22.8942 14.785 22.8942C15.1137 22.8942 15.3803 23.1418 15.3803 23.4471C15.3803 23.7524 15.1137 24 14.785 24C14.4563 24 14.1897 23.7524 14.1897 23.4471C14.1897 23.3137 14.2405 23.1916 14.325 23.0962C14.0598 22.8031 12.3091 20.8677 12.2655 20.7797C12.2184 20.6847 12.2144 20.6007 12.301 20.5824C12.3876 20.564 12.5175 20.6918 12.5175 20.6918Z" fill="#D0D2D3"/>
<path d="M12.4066 20.7121L12.3584 20.7495L14.7663 23.4282L14.8145 23.3909L12.4066 20.7121Z" fill="#EC1C24"/>
<path fill-rule="evenodd" clip-rule="evenodd" d="M14.7812 23.7286C14.9647 23.7286 15.1144 23.5896 15.1144 23.4191C15.1144 23.2487 14.9647 23.1099 14.7812 23.1099C14.5977 23.1099 14.4482 23.2489 14.4482 23.4191C14.448 23.5896 14.5977 23.7286 14.7812 23.7286Z" fill="#EC1C24"/>
<path fill-rule="evenodd" clip-rule="evenodd" d="M22.7781 3.76426C22.8207 4.39657 22.225 8.34919 21.4164 8.34919C20.6078 8.34919 18.0123 6.96579 13.2888 7.04477C8.56536 7.12376 4.90567 7.63769 3.75689 8.07243C2.60789 8.50716 2.69292 9.13967 2.22489 8.38857C1.75685 7.63769 0.990851 4.63373 1.62918 3.56648C2.26752 2.49923 3.40058 1.78753 8.2674 0.918274C13.1344 0.0490132 17.6293 0.681108 20.0973 1.35301C22.5654 2.02491 23.374 2.57823 23.0761 3.17114C22.7781 3.76426 22.7781 3.76426 22.7781 3.76426Z" fill="#D0D2D3"/>
<path fill-rule="evenodd" clip-rule="evenodd" d="M4.69294 2.81556C5.16097 2.5784 5.92698 1.8669 10.9058 1.74832C15.8845 1.62974 21.1092 1.91234 20.608 2.42022C20.1067 2.92811 16.7782 2.26226 14.8632 2.49921C12.9484 2.73638 11.2888 2.89456 11.5867 3.17111C11.8847 3.44767 14.0974 3.52686 16.4802 3.56625C18.8633 3.60585 21.2887 4.15916 20.3527 4.47532C19.4166 4.79147 14.4804 4.35673 14.3952 4.71248C14.3101 5.06823 19.4166 5.50296 18.5229 5.81932C17.6292 6.13547 13.5868 5.54256 10.5228 5.54256C7.45898 5.54256 3.16116 7.04454 3.54394 6.49122C3.92694 5.9379 4.56527 5.70074 7.24605 5.26601C9.92682 4.83127 11.6715 5.02884 10.8205 4.51491C9.96946 4.00098 8.60775 4.51491 6.48005 4.51491C4.35234 4.51491 3.33101 4.08017 4.69272 3.72442C6.05442 3.36868 8.3522 3.52665 9.2885 3.32908C10.2248 3.13152 11.5012 2.57798 9.79916 2.53859C8.09709 2.49921 5.86303 3.01293 4.73534 3.28969C3.60766 3.56645 3.15084 3.59979 3.43085 3.34304C3.71109 3.08649 4.69294 2.81556 4.69294 2.81556Z" fill="#9EB4BE"/>
<path fill-rule="evenodd" clip-rule="evenodd" d="M22.7771 3.76424C22.8197 4.39655 22.224 8.34917 21.4154 8.34917C20.6068 8.34917 18.0113 6.96577 13.2878 7.04475C8.56436 7.12374 4.90467 7.63767 3.75589 8.07241C2.60689 8.50714 2.69192 9.13965 2.22389 8.38855C1.96653 7.9757 1.61943 6.8824 1.46484 5.80411C1.86893 5.05198 1.46484 5.80412 1.92637 6.41204C2.3879 7.01996 2.5647 7.51889 3.67107 7.16314C4.77744 6.80739 7.50086 6.25407 10.6073 6.09589C13.7137 5.93791 19.8839 7.00496 20.5648 6.68881C21.2456 6.37266 21.4585 5.85872 21.2664 4.06413C21.158 3.05253 21.3818 2.33249 21.7271 1.86816C22.9169 2.3227 23.2936 2.73639 23.0751 3.17112C22.7771 3.76424 22.7771 3.76424 22.7771 3.76424Z" fill="#BBBDBF"/>
<path fill-rule="evenodd" clip-rule="evenodd" d="M10.4616 15.0278C10.334 15.7591 10.6956 17.0635 10.8446 18.19C10.9936 19.3164 11.0362 19.9093 10.5043 19.8895C9.97227 19.8697 9.92986 17.8144 10.0573 16.8264C10.185 15.8381 10.4616 15.0278 10.4616 15.0278Z" fill="#FFF9F0"/>
<path fill-rule="evenodd" clip-rule="evenodd" d="M13.5788 14.9641C13.4511 15.6954 13.8128 16.9998 13.9618 18.1262C14.1108 19.2527 14.1534 19.8456 13.6214 19.8258C13.0895 19.806 13.0471 17.7507 13.1745 16.7625C13.3022 15.7744 13.5788 14.9641 13.5788 14.9641Z" fill="#FFF9F0"/>
<path fill-rule="evenodd" clip-rule="evenodd" d="M13.4486 15.2457C13.6478 15.2457 13.8103 15.1659 13.8103 15.0679C13.8103 14.97 13.6478 14.8901 13.4486 14.8901C13.2494 14.8901 13.0869 14.97 13.0869 15.0679C13.0869 15.1657 13.2494 15.2457 13.4486 15.2457Z" fill="#404041"/>
<path fill-rule="evenodd" clip-rule="evenodd" d="M10.3422 15.2454C10.5414 15.2454 10.7038 15.1656 10.7038 15.0674C10.7038 14.9695 10.5414 14.8896 10.3422 14.8896C10.1429 14.8896 9.98047 14.9695 9.98047 15.0674C9.98047 15.1654 10.1429 15.2454 10.3422 15.2454Z" fill="#404041"/>
</svg>
