<svg width="24" height="24" viewBox="0 0 24 24" fill="none" xmlns="http://www.w3.org/2000/svg">
<path d="M12 24C18.6274 24 24 18.6274 24 12C24 5.37258 18.6274 0 12 0C5.37258 0 0 5.37258 0 12C0 18.6274 5.37258 24 12 24Z" fill="#D9B26C"/>
<path fill-rule="evenodd" clip-rule="evenodd" d="M5.27088 16.1096C3.88696 16.9488 4.64466 19.4445 5.49211 20.1813C6.35593 20.9325 9.94676 18.1157 12.1772 18.2302C14.4077 18.1157 17.9985 20.9327 18.8623 20.1813C19.7098 19.4445 20.4675 16.9486 19.0836 16.1096C17.7874 15.3237 15.0882 16.2539 12.2623 16.3019C9.334 16.3517 6.56684 15.3237 5.27088 16.1096Z" fill="#D9B26C"/>
<path fill-rule="evenodd" clip-rule="evenodd" d="M5.27088 15.7053C3.88696 16.5445 4.64466 19.0402 5.49211 19.7772C6.35593 20.5284 9.94676 17.7117 12.1772 17.8259C14.4077 17.7114 17.9985 20.5282 18.8623 19.7772C19.7098 19.0404 20.4675 16.5445 19.0836 15.7053C17.7874 14.9194 15.0882 15.8496 12.2623 15.8976C9.334 15.9474 6.56684 14.9194 5.27088 15.7053Z" fill="#8A5A3C"/>
<path fill-rule="evenodd" clip-rule="evenodd" d="M18.6768 15.5255C17.2729 15.0882 14.8194 15.854 12.2618 15.8976C9.61064 15.9427 7.09141 15.1042 5.67676 15.5285V16.7479C5.67676 17.0288 5.90651 17.2586 6.18742 17.2586H18.1663C18.4472 17.2586 18.677 17.0288 18.677 16.7479V15.5255H18.6768Z" fill="white"/>
<path fill-rule="evenodd" clip-rule="evenodd" d="M5.67698 19.8764C6.7838 20.1841 10.0809 17.8277 12.1768 17.9298C14.2728 17.8277 17.5697 20.1841 18.6766 19.8764L18.6768 19.8614V17.9722C18.6768 17.6525 18.4015 17.3909 18.0649 17.3909H6.28862C5.95206 17.3909 5.67676 17.6523 5.67676 17.9722V19.8614L5.67698 19.8764Z" fill="white"/>
<path fill-rule="evenodd" clip-rule="evenodd" d="M10.1847 9.56231C9.84434 9.39202 3.03582 7.68994 3.03582 7.68994C0.985073 10.5148 5.48078 16.3948 10.1847 9.56231Z" fill="#D9B26C"/>
<path fill-rule="evenodd" clip-rule="evenodd" d="M10.1847 9.56239C9.84432 9.39209 3.0358 7.13672 3.0358 7.13672C0.985059 9.96177 5.10809 15.7052 10.1847 9.56239Z" fill="white"/>
<path fill-rule="evenodd" clip-rule="evenodd" d="M8.24115 8.8786C7.49153 8.62417 6.62143 8.33181 5.80988 8.06055C5.4188 8.3547 5.16504 8.82991 5.16504 9.36571C5.16504 10.2587 5.87001 10.9827 6.73945 10.9827C7.60888 10.9827 8.31385 10.2587 8.31385 9.36571C8.31385 9.19609 8.28827 9.03252 8.24115 8.8786Z" fill="#231F20"/>
<path fill-rule="evenodd" clip-rule="evenodd" d="M13.3213 7.46615C14.819 5.46319 18.487 4.63953 20.9171 4.94737C18.255 3.63637 14.3379 4.3014 13.3213 7.46615Z" fill="#231F20"/>
<path fill-rule="evenodd" clip-rule="evenodd" d="M10.8068 7.31205C9.30888 5.30909 5.64109 4.48543 3.21094 4.79327C5.87309 3.48227 9.79015 4.14753 10.8068 7.31205Z" fill="#231F20"/>
<path fill-rule="evenodd" clip-rule="evenodd" d="M13.7744 9.56231C14.1148 9.39202 20.9233 7.68994 20.9233 7.68994C22.974 10.5148 18.4783 16.3948 13.7744 9.56231Z" fill="#D9B26C"/>
<path fill-rule="evenodd" clip-rule="evenodd" d="M13.7744 9.56239C14.1148 9.39209 20.9233 7.13672 20.9233 7.13672C22.974 9.96177 18.851 15.7052 13.7744 9.56239Z" fill="white"/>
<path fill-rule="evenodd" clip-rule="evenodd" d="M15.7182 8.8786C16.4678 8.62417 17.3379 8.33181 18.1495 8.06055C18.5406 8.3547 18.7943 8.82991 18.7943 9.36571C18.7943 10.2587 18.0893 10.9827 17.2199 10.9827C16.3505 10.9827 15.6455 10.2587 15.6455 9.36571C15.6455 9.19609 15.6709 9.03252 15.7182 8.8786Z" fill="#231F20"/>
</svg>
