<svg width="16" height="12" viewBox="0 0 16 12" fill="none" xmlns="http://www.w3.org/2000/svg">
<path d="M1.6 12C1.16 12 0.783201 11.853 0.469601 11.559C0.156001 11.265 -0.000531975 10.912 1.35823e-06 10.5V1.5C1.35823e-06 1.0875 0.156801 0.734251 0.470401 0.440251C0.784001 0.146251 1.16053 -0.000498727 1.6 1.27334e-06H14.4C14.84 1.27334e-06 15.2168 0.147001 15.5304 0.441001C15.844 0.735001 16.0005 1.088 16 1.5V10.5C16 10.9125 15.8432 11.2657 15.5296 11.5597C15.216 11.8537 14.8395 12.0005 14.4 12H1.6ZM8 6.75L1.6 3V10.5H14.4V3L8 6.75ZM8 5.25L14.4 1.5H1.6L8 5.25ZM1.6 3V1.5V10.5V3Z" fill="#D9B26C"/>
</svg>
