<svg width="24" height="24" viewBox="0 0 24 24" fill="none" xmlns="http://www.w3.org/2000/svg">
<path d="M12 24C18.6274 24 24 18.6274 24 12C24 5.37259 18.6274 0 12 0C5.37258 0 0 5.37259 0 12C0 18.6274 5.37258 24 12 24Z" fill="#D9B26C"/>
<path fill-rule="evenodd" clip-rule="evenodd" d="M6.45646 6.55828C7.09805 5.51008 7.73964 4.98608 9.02306 4.98608C10.4398 4.98608 11.5897 5.92517 11.5897 7.08249C11.5897 9.17889 9.02306 11.2753 6.45646 13.3717C3.88985 11.2753 1.32324 9.17889 1.32324 7.08249C1.32324 5.92517 2.47293 4.98608 3.88984 4.98608C5.17325 4.98608 5.81486 5.51008 6.45646 6.55828Z" fill="#D9B26C"/>
<path fill-rule="evenodd" clip-rule="evenodd" d="M18.3656 6.67791C19.0072 5.6297 19.6488 5.10571 20.9322 5.10571C22.3489 5.10571 23.4988 6.0448 23.4988 7.20211C23.4988 9.29852 20.9322 11.3949 18.3656 13.4913C15.799 11.3949 13.2324 9.29852 13.2324 7.20211C13.2324 6.04502 14.3823 5.10571 15.799 5.10571C17.0824 5.10571 17.724 5.6297 18.3656 6.67791Z" fill="#D9B26C"/>
<path fill-rule="evenodd" clip-rule="evenodd" d="M12.762 23.0251C13.3306 23.0251 13.7945 22.3757 13.7945 21.5795C13.7945 20.7832 13.3306 20.1338 12.762 20.1338C12.1932 20.1338 11.7295 20.7832 11.7295 21.5795C11.7295 22.3757 12.1934 23.0251 12.762 23.0251Z" fill="#D9B26C"/>
<path fill-rule="evenodd" clip-rule="evenodd" d="M6.40416 5.91012C7.06492 4.82598 7.7259 4.28369 9.04764 4.28369C10.5068 4.28369 11.6911 5.25524 11.6911 6.45219C11.6911 8.62069 9.04764 10.7892 6.40416 12.9577C3.76067 10.7892 1.11719 8.62069 1.11719 6.45219C1.11719 5.25524 2.30151 4.28369 3.76067 4.28369C5.08241 4.28391 5.74318 4.82598 6.40416 5.91012Z" fill="#B8574D"/>
<path fill-rule="evenodd" clip-rule="evenodd" d="M18.5477 6.03389C19.2085 4.94953 19.8695 4.40747 21.1912 4.40747C22.6504 4.40747 23.8347 5.37901 23.8347 6.57596C23.8347 8.74445 21.1912 10.913 18.5477 13.0814C15.9042 10.913 13.2607 8.74445 13.2607 6.57596C13.2607 5.37901 14.4451 4.40747 15.9042 4.40747C17.226 4.40769 17.8867 4.94975 18.5477 6.03389Z" fill="#B8574D"/>
<path fill-rule="evenodd" clip-rule="evenodd" d="M3.1875 4.21656C4.81741 3.04443 7.99252 3.23152 9.92537 3.99464C8.00297 2.42919 4.65516 2.06875 3.1875 4.21656Z" fill="#231F20"/>
<path fill-rule="evenodd" clip-rule="evenodd" d="M20.6256 4.21656C18.9957 3.04443 15.8203 3.23152 13.8877 3.99464C15.8101 2.42919 19.1579 2.06875 20.6256 4.21656Z" fill="#231F20"/>
<path fill-rule="evenodd" clip-rule="evenodd" d="M12.762 22.674C13.3306 22.674 13.7945 22.0246 13.7945 21.2284C13.7945 20.4322 13.3306 19.7827 12.762 19.7827C12.1932 19.7827 11.7295 20.4322 11.7295 21.2284C11.7295 22.0246 12.1934 22.674 12.762 22.674Z" fill="#231F20"/>
</svg>
